<?xml version="1.0" encoding="utf-8" standalone="no"?>
<!DOCTYPE svg PUBLIC "-//W3C//DTD SVG 1.1//EN"
  "http://www.w3.org/Graphics/SVG/1.1/DTD/svg11.dtd">
<svg xmlns:xlink="http://www.w3.org/1999/xlink" width="333.504687pt" height="255.915469pt" viewBox="0 0 333.504687 255.915469" xmlns="http://www.w3.org/2000/svg" version="1.1">
 <metadata>
  <rdf:RDF xmlns:dc="http://purl.org/dc/elements/1.1/" xmlns:cc="http://creativecommons.org/ns#" xmlns:rdf="http://www.w3.org/1999/02/22-rdf-syntax-ns#">
   <cc:Work>
    <dc:type rdf:resource="http://purl.org/dc/dcmitype/StillImage"/>
    <dc:date>2024-04-10T08:59:42.281136</dc:date>
    <dc:format>image/svg+xml</dc:format>
    <dc:creator>
     <cc:Agent>
      <dc:title>Matplotlib v3.5.3, https://matplotlib.org/</dc:title>
     </cc:Agent>
    </dc:creator>
   </cc:Work>
  </rdf:RDF>
 </metadata>
 <defs>
  <style type="text/css">*{stroke-linejoin: round; stroke-linecap: butt}</style>
 </defs>
 <g id="figure_1">
  <g id="patch_1">
   <path d="M 0 255.915469 
L 333.504687 255.915469 
L 333.504687 0 
L 0 0 
z
" style="fill: #ffffff"/>
  </g>
  <g id="axes_1">
   <g id="patch_2">
    <path d="M 44.960938 225.559219 
L 323.960938 225.559219 
L 323.960938 3.799219 
L 44.960938 3.799219 
z
" style="fill: #ffffff"/>
   </g>
   <g id="PolyCollection_1">
    <defs>
     <path id="m7bbe3fce09" d="M 44.960938 -231.107375 
L 44.960938 -231.107375 
L 46.510938 -227.296272 
L 48.060938 -207.004343 
L 49.610938 -194.479958 
L 51.160938 -187.906005 
L 52.710938 -184.75523 
L 54.260938 -182.127548 
L 55.810938 -178.078724 
L 57.360938 -175.722027 
L 58.910938 -171.100366 
L 60.460938 -168.549488 
L 62.010938 -166.271446 
L 63.560938 -163.775301 
L 65.110938 -160.430767 
L 66.660938 -155.028808 
L 68.210938 -152.228426 
L 69.760938 -147.527254 
L 71.310938 -145.115632 
L 72.860938 -139.275466 
L 74.410938 -134.639916 
L 75.960938 -132.729038 
L 77.510938 -126.647514 
L 79.060938 -121.287585 
L 80.610938 -114.54341 
L 82.160938 -111.749656 
L 83.710938 -108.156498 
L 85.260938 -104.300813 
L 86.810938 -99.81649 
L 88.360938 -97.422363 
L 89.910938 -96.342635 
L 91.460938 -92.699427 
L 93.010938 -90.46342 
L 94.560938 -88.3975 
L 96.110938 -87.820266 
L 97.660938 -87.151318 
L 99.210938 -87.030707 
L 100.760938 -86.601362 
L 102.310938 -86.133259 
L 103.860938 -85.779718 
L 105.410938 -85.616197 
L 106.960938 -83.482129 
L 108.510938 -83.294421 
L 110.060938 -83.141005 
L 111.610938 -83.054515 
L 113.160938 -82.591717 
L 114.710938 -82.496788 
L 116.260938 -82.464187 
L 117.810938 -82.541865 
L 119.360938 -82.573231 
L 120.910938 -82.497462 
L 122.460938 -82.15809 
L 124.010938 -81.881804 
L 125.560938 -81.685606 
L 127.110938 -81.027979 
L 128.660938 -81.027979 
L 130.210938 -80.998381 
L 131.760938 -80.962015 
L 133.310938 -80.906414 
L 134.860938 -80.863588 
L 136.410938 -80.671828 
L 137.960938 -80.62839 
L 139.510938 -80.637481 
L 141.060938 -80.637481 
L 142.610938 -80.293638 
L 144.160938 -80.010167 
L 145.710938 -79.957533 
L 147.260938 -79.969818 
L 148.810938 -79.253796 
L 150.360938 -78.742519 
L 151.910938 -78.460223 
L 153.460938 -78.331461 
L 155.010938 -78.21994 
L 156.560938 -77.861746 
L 158.110938 -77.591244 
L 159.660938 -77.003975 
L 161.210938 -77.003975 
L 162.760938 -77.224854 
L 164.310938 -76.404214 
L 165.860938 -76.231241 
L 167.410938 -76.091638 
L 168.960938 -75.452546 
L 170.510938 -75.438133 
L 172.060938 -75.558876 
L 173.610938 -75.176316 
L 175.160938 -74.682219 
L 176.710938 -74.659376 
L 178.260938 -74.615923 
L 179.810937 -73.557477 
L 181.360938 -73.333583 
L 182.910938 -72.862938 
L 184.460938 -72.838235 
L 186.010938 -72.689296 
L 187.560937 -72.452056 
L 189.110938 -72.452056 
L 190.660938 -70.582937 
L 192.210938 -70.381338 
L 193.760938 -69.958343 
L 195.310937 -69.857811 
L 196.860938 -69.712877 
L 198.410938 -69.45253 
L 199.960938 -68.998057 
L 201.510938 -68.174462 
L 203.060937 -68.174462 
L 204.610938 -67.62142 
L 206.160938 -66.968463 
L 207.710938 -66.712597 
L 209.260938 -66.62339 
L 210.810937 -66.552625 
L 212.360938 -66.552625 
L 213.910938 -66.552625 
L 215.460938 -66.271581 
L 217.010938 -66.093808 
L 218.560937 -65.909456 
L 220.110938 -65.760784 
L 221.660938 -65.497789 
L 223.210938 -65.160986 
L 224.760938 -64.535521 
L 226.310937 -64.514876 
L 227.860938 -63.94121 
L 229.410938 -63.512489 
L 230.960938 -63.292466 
L 232.510938 -63.100348 
L 234.060937 -63.100348 
L 235.610938 -63.100348 
L 237.160938 -62.741018 
L 238.710938 -62.741018 
L 240.260938 -62.731923 
L 241.810937 -62.731923 
L 243.360938 -62.571207 
L 244.910938 -62.498194 
L 246.460938 -62.409962 
L 248.010938 -62.362103 
L 249.560937 -62.249261 
L 251.110938 -62.186121 
L 252.660938 -62.16437 
L 254.210938 -61.890867 
L 255.760938 -61.573379 
L 257.310938 -61.221559 
L 258.860938 -61.221047 
L 260.410938 -61.126312 
L 261.960938 -61.095566 
L 263.510938 -61.044027 
L 265.060938 -61.02702 
L 266.610938 -61.016002 
L 268.160938 -60.823347 
L 269.710938 -60.815416 
L 271.260938 -60.815416 
L 272.810938 -60.524643 
L 274.360938 -60.524643 
L 275.910938 -59.940311 
L 277.460938 -59.940983 
L 279.010938 -59.799581 
L 280.560938 -59.621075 
L 282.110938 -58.840218 
L 283.660938 -58.840218 
L 285.210938 -58.394441 
L 286.760938 -58.215643 
L 288.310938 -58.215643 
L 289.860938 -58.177107 
L 289.860938 -40.435165 
L 289.860938 -40.435165 
L 288.310938 -40.435442 
L 286.760938 -40.435442 
L 285.210938 -40.447719 
L 283.660938 -40.315461 
L 282.110938 -40.315461 
L 280.560938 -40.305284 
L 279.010938 -40.350188 
L 277.460938 -40.409024 
L 275.910938 -40.437424 
L 274.360938 -40.207739 
L 272.810938 -40.207739 
L 271.260938 -40.396629 
L 269.710938 -40.396629 
L 268.160938 -40.403391 
L 266.610938 -40.687846 
L 265.060938 -40.696386 
L 263.510938 -40.703261 
L 261.960938 -40.832102 
L 260.410938 -40.860834 
L 258.860938 -40.978664 
L 257.310938 -41.062668 
L 255.760938 -40.902825 
L 254.210938 -41.055299 
L 252.660938 -41.051305 
L 251.110938 -41.062424 
L 249.560937 -41.168307 
L 248.010938 -41.669317 
L 246.460938 -42.100108 
L 244.910938 -42.303022 
L 243.360938 -42.373047 
L 241.810937 -42.93536 
L 240.260938 -42.93536 
L 238.710938 -42.938392 
L 237.160938 -42.938392 
L 235.610938 -43.405613 
L 234.060937 -43.405613 
L 232.510938 -43.405613 
L 230.960938 -44.424623 
L 229.410938 -44.641756 
L 227.860938 -44.986158 
L 226.310937 -45.168312 
L 224.760938 -45.211944 
L 223.210938 -45.538152 
L 221.660938 -46.239503 
L 220.110938 -46.445148 
L 218.560937 -46.811977 
L 217.010938 -46.856653 
L 215.460938 -46.908671 
L 213.910938 -46.928186 
L 212.360938 -46.928186 
L 210.810937 -46.928186 
L 209.260938 -46.969516 
L 207.710938 -47.011727 
L 206.160938 -47.142104 
L 204.610938 -47.385155 
L 203.060937 -47.465154 
L 201.510938 -47.465154 
L 199.960938 -47.536854 
L 198.410938 -48.055146 
L 196.860938 -48.163732 
L 195.310937 -48.69511 
L 193.760938 -48.722659 
L 192.210938 -49.276868 
L 190.660938 -49.302161 
L 189.110938 -49.566881 
L 187.560937 -49.566881 
L 186.010938 -49.95921 
L 184.460938 -50.296324 
L 182.910938 -50.342909 
L 181.360938 -50.569611 
L 179.810937 -50.898048 
L 178.260938 -51.283698 
L 176.710938 -51.721714 
L 175.160938 -51.796976 
L 173.610938 -52.760904 
L 172.060938 -52.936642 
L 170.510938 -53.411555 
L 168.960938 -53.415512 
L 167.410938 -55.896586 
L 165.860938 -56.210729 
L 164.310938 -57.269427 
L 162.760938 -58.553807 
L 161.210938 -59.972657 
L 159.660938 -59.972657 
L 158.110938 -61.174479 
L 156.560938 -61.507047 
L 155.010938 -61.543797 
L 153.460938 -61.930923 
L 151.910938 -62.122497 
L 150.360938 -62.292678 
L 148.810938 -62.469562 
L 147.260938 -62.576708 
L 145.710938 -62.800052 
L 144.160938 -64.052321 
L 142.610938 -65.51348 
L 141.060938 -66.345318 
L 139.510938 -66.345318 
L 137.960938 -66.4123 
L 136.410938 -66.630594 
L 134.860938 -67.465585 
L 133.310938 -67.536744 
L 131.760938 -67.915878 
L 130.210938 -68.233429 
L 128.660938 -68.286919 
L 127.110938 -68.286919 
L 125.560938 -68.957427 
L 124.010938 -70.154871 
L 122.460938 -70.961929 
L 120.910938 -72.210892 
L 119.360938 -72.634826 
L 117.810938 -73.464414 
L 116.260938 -74.120727 
L 114.710938 -74.216127 
L 113.160938 -74.343337 
L 111.610938 -74.613511 
L 110.060938 -74.819149 
L 108.510938 -75.115761 
L 106.960938 -75.389157 
L 105.410938 -75.168263 
L 103.860938 -75.840445 
L 102.310938 -76.486003 
L 100.760938 -76.630641 
L 99.210938 -77.519447 
L 97.660938 -78.15141 
L 96.110938 -78.85721 
L 94.560938 -79.514659 
L 93.010938 -80.063152 
L 91.460938 -79.523886 
L 89.910938 -80.382962 
L 88.360938 -82.203923 
L 86.810938 -82.549493 
L 85.260938 -83.723744 
L 83.710938 -84.717325 
L 82.160938 -86.766909 
L 80.610938 -88.515568 
L 79.060938 -89.709742 
L 77.510938 -92.278651 
L 75.960938 -96.821464 
L 74.410938 -98.644734 
L 72.860938 -101.026469 
L 71.310938 -109.786689 
L 69.760938 -114.35738 
L 68.210938 -120.649547 
L 66.660938 -123.867793 
L 65.110938 -128.86422 
L 63.560938 -133.123105 
L 62.010938 -138.687013 
L 60.460938 -141.575804 
L 58.910938 -142.77259 
L 57.360938 -145.75657 
L 55.810938 -147.09201 
L 54.260938 -149.734545 
L 52.710938 -150.240634 
L 51.160938 -151.93205 
L 49.610938 -155.750751 
L 48.060938 -165.484201 
L 46.510938 -186.527855 
L 44.960938 -231.107375 
z
" style="stroke: #bf32e7; stroke-opacity: 0.2"/>
    </defs>
    <g clip-path="url(#p8ce35df6f0)">
     <use xlink:href="#m7bbe3fce09" x="0" y="255.915469" style="fill: #bf32e7; fill-opacity: 0.2; stroke: #bf32e7; stroke-opacity: 0.2"/>
    </g>
   </g>
   <g id="PolyCollection_2">
    <defs>
     <path id="m25be437a0f" d="M 44.960938 -231.107375 
L 44.960938 -231.107375 
L 46.510938 -226.158527 
L 48.060938 -211.904797 
L 49.610938 -204.270307 
L 51.160938 -199.89313 
L 52.710938 -197.227395 
L 54.260938 -193.704547 
L 55.810938 -184.898192 
L 57.360938 -183.588187 
L 58.910938 -178.158621 
L 60.460938 -175.43107 
L 62.010938 -171.412659 
L 63.560938 -168.689225 
L 65.110938 -165.918712 
L 66.660938 -163.937938 
L 68.210938 -161.628101 
L 69.760938 -158.641901 
L 71.310938 -155.602644 
L 72.860938 -150.00555 
L 74.410938 -144.421955 
L 75.960938 -139.404212 
L 77.510938 -130.871679 
L 79.060938 -125.481717 
L 80.610938 -122.212641 
L 82.160938 -119.423029 
L 83.710938 -112.41686 
L 85.260938 -107.567381 
L 86.810938 -102.562032 
L 88.360938 -99.525456 
L 89.910938 -97.742146 
L 91.460938 -96.143586 
L 93.010938 -94.818518 
L 94.560938 -90.623528 
L 96.110938 -89.18888 
L 97.660938 -87.712704 
L 99.210938 -86.316265 
L 100.760938 -84.806611 
L 102.310938 -83.741901 
L 103.860938 -83.252921 
L 105.410938 -82.419864 
L 106.960938 -81.388775 
L 108.510938 -80.51547 
L 110.060938 -79.942425 
L 111.610938 -79.168539 
L 113.160938 -78.505921 
L 114.710938 -77.794731 
L 116.260938 -77.163454 
L 117.810938 -76.489323 
L 119.360938 -75.506063 
L 120.910938 -75.123052 
L 122.460938 -74.665456 
L 124.010938 -73.044783 
L 125.560938 -71.814997 
L 127.110938 -71.521125 
L 128.660938 -71.283336 
L 130.210938 -70.262994 
L 131.760938 -68.884966 
L 133.310938 -68.142571 
L 134.860938 -67.508941 
L 136.410938 -66.829444 
L 137.960938 -65.878898 
L 139.510938 -64.541995 
L 141.060938 -64.370548 
L 142.610938 -64.327474 
L 144.160938 -63.587788 
L 145.710938 -61.635002 
L 147.260938 -61.571302 
L 148.810938 -61.090293 
L 150.360938 -60.57612 
L 151.910938 -59.775028 
L 153.460938 -58.39662 
L 155.010938 -57.87955 
L 156.560938 -55.876899 
L 158.110938 -55.285746 
L 159.660938 -54.058751 
L 161.210938 -53.901008 
L 162.760938 -53.452569 
L 164.310938 -52.677429 
L 165.860938 -52.670859 
L 167.410938 -51.981429 
L 168.960938 -51.505539 
L 170.510938 -51.253135 
L 172.060938 -50.826813 
L 173.610938 -50.456108 
L 175.160938 -50.456108 
L 176.710938 -50.163129 
L 178.260938 -50.150825 
L 179.810937 -50.032846 
L 181.360938 -49.592782 
L 182.910938 -48.510701 
L 184.460938 -48.435023 
L 186.010938 -48.435023 
L 187.560937 -47.849133 
L 189.110938 -47.849133 
L 190.660938 -47.221981 
L 192.210938 -47.221981 
L 193.760938 -47.085434 
L 195.310937 -47.085434 
L 196.860938 -47.085434 
L 198.410938 -47.085434 
L 199.960938 -46.440762 
L 201.510938 -46.361093 
L 203.060937 -46.361093 
L 204.610938 -46.361093 
L 206.160938 -46.361093 
L 207.710938 -46.361093 
L 209.260938 -46.361093 
L 210.810937 -46.302397 
L 212.360938 -46.302397 
L 213.910938 -46.302397 
L 215.460938 -46.302397 
L 217.010938 -46.302397 
L 218.560937 -46.227263 
L 220.110938 -46.227263 
L 221.660938 -46.181571 
L 223.210938 -46.066437 
L 224.760938 -45.93449 
L 226.310937 -45.93449 
L 227.860938 -45.880363 
L 229.410938 -45.880363 
L 230.960938 -45.880363 
L 232.510938 -45.655588 
L 234.060937 -45.655588 
L 235.610938 -45.655588 
L 237.160938 -45.655588 
L 238.710938 -45.654093 
L 240.260938 -45.654093 
L 241.810937 -45.654093 
L 243.360938 -45.563477 
L 244.910938 -45.563477 
L 246.460938 -45.563477 
L 248.010938 -45.555474 
L 249.560937 -45.555474 
L 251.110938 -45.541993 
L 252.660938 -45.541993 
L 254.210938 -45.526954 
L 255.760938 -45.526954 
L 257.310938 -45.526954 
L 258.860938 -45.526954 
L 260.410938 -45.492209 
L 261.960938 -45.459132 
L 263.510938 -45.446315 
L 265.060938 -45.446315 
L 266.610938 -45.252809 
L 268.160938 -45.10135 
L 269.710938 -45.072472 
L 271.260938 -45.072472 
L 272.810938 -45.072472 
L 274.360938 -45.072472 
L 275.910938 -45.072472 
L 277.460938 -45.072472 
L 279.010938 -45.072472 
L 280.560938 -45.047335 
L 282.110938 -44.935943 
L 283.660938 -44.927922 
L 285.210938 -44.843627 
L 286.760938 -44.843627 
L 288.310938 -44.843627 
L 289.860938 -44.843627 
L 289.860938 -35.234562 
L 289.860938 -35.234562 
L 288.310938 -35.234562 
L 286.760938 -35.234562 
L 285.210938 -35.234562 
L 283.660938 -35.284119 
L 282.110938 -35.282894 
L 280.560938 -35.444329 
L 279.010938 -35.436993 
L 277.460938 -35.436993 
L 275.910938 -35.436993 
L 274.360938 -35.436993 
L 272.810938 -35.436993 
L 271.260938 -35.436993 
L 269.710938 -35.436993 
L 268.160938 -35.422081 
L 266.610938 -35.442247 
L 265.060938 -35.487185 
L 263.510938 -35.487185 
L 261.960938 -35.496209 
L 260.410938 -35.493108 
L 258.860938 -35.54208 
L 257.310938 -35.54208 
L 255.760938 -35.54208 
L 254.210938 -35.54208 
L 252.660938 -35.547058 
L 251.110938 -35.547058 
L 249.560937 -35.559539 
L 248.010938 -35.559539 
L 246.460938 -35.564758 
L 244.910938 -35.564758 
L 243.360938 -35.564758 
L 241.810937 -35.657806 
L 240.260938 -35.657806 
L 238.710938 -35.657806 
L 237.160938 -35.657656 
L 235.610938 -35.657656 
L 234.060937 -35.657656 
L 232.510938 -35.657656 
L 230.960938 -36.105384 
L 229.410938 -36.105384 
L 227.860938 -36.105384 
L 226.310937 -36.195392 
L 224.760938 -36.195392 
L 223.210938 -36.278553 
L 221.660938 -36.504904 
L 220.110938 -36.567436 
L 218.560937 -36.567436 
L 217.010938 -36.619616 
L 215.460938 -36.619616 
L 213.910938 -36.619616 
L 212.360938 -36.619616 
L 210.810937 -36.619616 
L 209.260938 -36.715221 
L 207.710938 -36.715221 
L 206.160938 -36.715221 
L 204.610938 -36.715221 
L 203.060937 -36.715221 
L 201.510938 -36.715221 
L 199.960938 -36.718447 
L 198.410938 -37.7701 
L 196.860938 -37.7701 
L 195.310937 -37.7701 
L 193.760938 -37.7701 
L 192.210938 -37.885524 
L 190.660938 -37.885524 
L 189.110938 -38.609594 
L 187.560937 -38.609594 
L 186.010938 -38.795034 
L 184.460938 -38.795034 
L 182.910938 -38.834672 
L 181.360938 -40.3842 
L 179.810937 -40.378586 
L 178.260938 -40.518585 
L 176.710938 -40.539502 
L 175.160938 -40.558306 
L 173.610938 -40.558306 
L 172.060938 -40.885746 
L 170.510938 -41.326355 
L 168.960938 -41.372989 
L 167.410938 -42.538444 
L 165.860938 -43.142785 
L 164.310938 -43.140153 
L 162.760938 -43.768503 
L 161.210938 -44.163354 
L 159.660938 -44.664694 
L 158.110938 -45.859592 
L 156.560938 -46.174533 
L 155.010938 -48.809583 
L 153.460938 -49.617556 
L 151.910938 -50.703863 
L 150.360938 -51.530756 
L 148.810938 -51.761665 
L 147.260938 -52.102696 
L 145.710938 -52.154272 
L 144.160938 -53.97181 
L 142.610938 -54.257034 
L 141.060938 -54.36351 
L 139.510938 -54.394844 
L 137.960938 -55.562841 
L 136.410938 -57.198067 
L 134.860938 -57.526775 
L 133.310938 -57.957303 
L 131.760938 -58.46006 
L 130.210938 -59.148078 
L 128.660938 -59.769935 
L 127.110938 -59.975021 
L 125.560938 -60.040673 
L 124.010938 -61.039858 
L 122.460938 -63.10535 
L 120.910938 -63.540639 
L 119.360938 -63.545406 
L 117.810938 -64.074962 
L 116.260938 -64.308575 
L 114.710938 -65.905335 
L 113.160938 -65.885515 
L 111.610938 -66.155492 
L 110.060938 -66.833568 
L 108.510938 -67.324345 
L 106.960938 -67.612798 
L 105.410938 -69.247602 
L 103.860938 -69.784263 
L 102.310938 -70.534082 
L 100.760938 -70.880845 
L 99.210938 -71.633017 
L 97.660938 -71.785946 
L 96.110938 -72.172521 
L 94.560938 -73.156036 
L 93.010938 -72.365438 
L 91.460938 -73.352074 
L 89.910938 -73.737387 
L 88.360938 -73.636407 
L 86.810938 -74.282558 
L 85.260938 -73.31882 
L 83.710938 -73.788971 
L 82.160938 -75.813286 
L 80.610938 -77.444749 
L 79.060938 -79.062069 
L 77.510938 -80.974908 
L 75.960938 -86.748476 
L 74.410938 -89.948383 
L 72.860938 -94.974475 
L 71.310938 -99.717035 
L 69.760938 -105.299733 
L 68.210938 -116.122179 
L 66.660938 -127.533432 
L 65.110938 -135.121086 
L 63.560938 -137.826959 
L 62.010938 -138.951428 
L 60.460938 -140.42284 
L 58.910938 -141.657806 
L 57.360938 -142.00374 
L 55.810938 -142.606038 
L 54.260938 -148.874591 
L 52.710938 -150.442051 
L 51.160938 -152.564391 
L 49.610938 -155.074408 
L 48.060938 -169.876414 
L 46.510938 -178.798837 
L 44.960938 -231.107375 
z
" style="stroke: #ff1493; stroke-opacity: 0.2"/>
    </defs>
    <g clip-path="url(#p8ce35df6f0)">
     <use xlink:href="#m25be437a0f" x="0" y="255.915469" style="fill: #ff1493; fill-opacity: 0.2; stroke: #ff1493; stroke-opacity: 0.2"/>
    </g>
   </g>
   <g id="PolyCollection_3">
    <defs>
     <path id="m0934e8d2ad" d="M 44.960938 -231.107375 
L 44.960938 -231.107375 
L 46.510938 -229.860379 
L 48.060938 -215.499388 
L 49.610938 -207.607252 
L 51.160938 -200.456274 
L 52.710938 -196.095929 
L 54.260938 -186.901932 
L 55.810938 -178.324485 
L 57.360938 -175.622526 
L 58.910938 -173.930228 
L 60.460938 -172.787598 
L 62.010938 -171.177556 
L 63.560938 -169.831941 
L 65.110938 -164.869304 
L 66.660938 -161.713888 
L 68.210938 -157.581667 
L 69.760938 -157.444497 
L 71.310938 -155.50848 
L 72.860938 -154.944911 
L 74.410938 -153.351893 
L 75.960938 -150.951666 
L 77.510938 -150.710383 
L 79.060938 -148.606805 
L 80.610938 -148.141951 
L 82.160938 -146.314235 
L 83.710938 -145.567308 
L 85.260938 -144.491576 
L 86.810938 -142.984137 
L 88.360938 -142.35308 
L 89.910938 -141.390393 
L 91.460938 -140.782635 
L 93.010938 -140.321132 
L 94.560938 -139.298493 
L 96.110938 -138.44383 
L 97.660938 -137.848285 
L 99.210938 -136.599991 
L 100.760938 -135.848717 
L 102.310938 -134.724841 
L 103.860938 -133.979831 
L 105.410938 -133.615575 
L 106.960938 -132.514944 
L 108.510938 -131.61886 
L 110.060938 -128.977462 
L 111.610938 -127.431082 
L 113.160938 -127.001094 
L 114.710938 -126.449977 
L 116.260938 -125.709491 
L 117.810938 -124.917771 
L 119.360938 -124.756714 
L 120.910938 -123.655403 
L 122.460938 -123.284999 
L 124.010938 -121.08277 
L 125.560938 -120.319052 
L 127.110938 -117.365116 
L 128.660938 -116.960472 
L 130.210938 -116.117412 
L 131.760938 -114.579024 
L 133.310938 -113.494383 
L 134.860938 -113.12151 
L 136.410938 -111.213675 
L 137.960938 -110.090536 
L 139.510938 -109.656884 
L 141.060938 -108.201242 
L 142.610938 -108.201242 
L 144.160938 -106.879428 
L 145.710938 -106.024219 
L 147.260938 -103.880776 
L 148.810938 -102.843472 
L 150.360938 -102.248036 
L 151.910938 -100.510622 
L 153.460938 -99.613707 
L 155.010938 -97.469212 
L 156.560938 -96.978801 
L 158.110938 -95.694116 
L 159.660938 -94.951701 
L 161.210938 -93.205234 
L 162.760938 -92.654783 
L 164.310938 -90.834477 
L 165.860938 -90.715611 
L 167.410938 -88.957678 
L 168.960938 -87.132343 
L 170.510938 -87.005853 
L 172.060938 -86.284536 
L 173.610938 -84.028948 
L 175.160938 -83.866791 
L 176.710938 -83.866791 
L 178.260938 -82.537989 
L 179.810937 -82.278939 
L 181.360938 -81.646718 
L 182.910938 -80.334619 
L 184.460938 -79.782735 
L 186.010938 -79.453676 
L 187.560937 -78.727665 
L 189.110938 -78.642033 
L 190.660938 -78.365637 
L 192.210938 -77.093255 
L 193.760938 -76.764715 
L 195.310937 -76.810713 
L 196.860938 -76.757132 
L 198.410938 -76.55681 
L 199.960938 -76.12311 
L 201.510938 -75.698336 
L 203.060937 -75.06288 
L 204.610938 -75.023138 
L 206.160938 -75.023138 
L 207.710938 -74.095117 
L 209.260938 -73.871573 
L 210.810937 -73.207664 
L 212.360938 -72.901958 
L 213.910938 -72.874003 
L 215.460938 -72.802727 
L 217.010938 -72.773353 
L 218.560937 -71.942859 
L 220.110938 -71.907433 
L 221.660938 -71.74677 
L 223.210938 -70.948269 
L 224.760938 -70.484707 
L 226.310937 -70.484707 
L 227.860938 -70.274467 
L 229.410938 -70.274467 
L 230.960938 -69.149429 
L 232.510938 -68.799299 
L 234.060937 -68.708067 
L 235.610938 -68.640301 
L 237.160938 -68.588867 
L 238.710938 -68.416365 
L 240.260938 -68.370436 
L 241.810937 -68.360984 
L 243.360938 -68.326137 
L 244.910938 -68.175095 
L 246.460938 -68.149011 
L 248.010938 -68.000644 
L 249.560937 -67.502961 
L 251.110938 -66.849729 
L 252.660938 -66.62105 
L 254.210938 -65.905677 
L 255.760938 -65.905677 
L 257.310938 -65.781693 
L 258.860938 -65.456681 
L 260.410938 -64.997484 
L 261.960938 -64.621303 
L 263.510938 -64.609467 
L 265.060938 -64.602745 
L 266.610938 -64.554767 
L 268.160938 -63.909607 
L 269.710938 -62.830444 
L 271.260938 -62.829909 
L 272.810938 -62.643106 
L 274.360938 -62.643106 
L 275.910938 -62.505985 
L 277.460938 -62.505985 
L 279.010938 -62.160217 
L 280.560938 -61.95949 
L 282.110938 -61.861146 
L 283.660938 -61.861146 
L 285.210938 -61.683142 
L 286.760938 -61.683142 
L 288.310938 -61.683142 
L 289.860938 -61.657592 
L 289.860938 -49.05483 
L 289.860938 -49.05483 
L 288.310938 -49.106839 
L 286.760938 -49.106839 
L 285.210938 -49.106839 
L 283.660938 -49.3271 
L 282.110938 -49.3271 
L 280.560938 -49.469006 
L 279.010938 -49.669764 
L 277.460938 -49.602382 
L 275.910938 -49.602382 
L 274.360938 -49.553905 
L 272.810938 -49.553905 
L 271.260938 -49.483733 
L 269.710938 -49.484456 
L 268.160938 -49.949664 
L 266.610938 -50.85368 
L 265.060938 -51.074082 
L 263.510938 -51.087505 
L 261.960938 -51.089186 
L 260.410938 -51.259045 
L 258.860938 -51.43935 
L 257.310938 -51.35992 
L 255.760938 -51.407926 
L 254.210938 -51.407926 
L 252.660938 -51.441977 
L 251.110938 -51.587004 
L 249.560937 -51.870428 
L 248.010938 -51.697151 
L 246.460938 -51.69228 
L 244.910938 -51.751877 
L 243.360938 -52.055536 
L 241.810937 -52.120884 
L 240.260938 -52.139796 
L 238.710938 -52.18428 
L 237.160938 -52.326809 
L 235.610938 -52.379575 
L 234.060937 -52.537897 
L 232.510938 -52.49049 
L 230.960938 -52.805449 
L 229.410938 -52.632174 
L 227.860938 -52.632174 
L 226.310937 -52.692949 
L 224.760938 -52.692949 
L 223.210938 -53.287372 
L 221.660938 -53.705224 
L 220.110938 -54.164679 
L 218.560937 -54.437046 
L 217.010938 -54.59536 
L 215.460938 -54.845638 
L 213.910938 -54.972769 
L 212.360938 -54.968498 
L 210.810937 -55.026727 
L 209.260938 -54.989658 
L 207.710938 -55.125682 
L 206.160938 -55.105182 
L 204.610938 -55.105182 
L 203.060937 -55.116929 
L 201.510938 -55.248976 
L 199.960938 -55.958392 
L 198.410938 -56.463857 
L 196.860938 -56.686354 
L 195.310937 -56.713501 
L 193.760938 -57.089648 
L 192.210938 -57.013637 
L 190.660938 -57.325065 
L 189.110938 -57.527874 
L 187.560937 -57.559308 
L 186.010938 -58.599436 
L 184.460938 -59.208191 
L 182.910938 -60.279721 
L 181.360938 -61.29878 
L 179.810937 -61.669796 
L 178.260938 -61.89501 
L 176.710938 -62.7086 
L 175.160938 -62.7086 
L 173.610938 -62.68166 
L 172.060938 -63.722839 
L 170.510938 -64.868155 
L 168.960938 -65.428883 
L 167.410938 -67.282676 
L 165.860938 -67.360215 
L 164.310938 -67.324553 
L 162.760938 -69.305787 
L 161.210938 -70.904782 
L 159.660938 -70.703754 
L 158.110938 -72.91464 
L 156.560938 -74.490674 
L 155.010938 -75.301128 
L 153.460938 -76.321211 
L 151.910938 -77.208053 
L 150.360938 -78.322538 
L 148.810938 -79.097782 
L 147.260938 -79.028184 
L 145.710938 -80.454009 
L 144.160938 -81.137404 
L 142.610938 -81.798999 
L 141.060938 -81.798999 
L 139.510938 -82.702201 
L 137.960938 -83.464746 
L 136.410938 -85.229513 
L 134.860938 -86.800585 
L 133.310938 -86.941972 
L 131.760938 -88.083242 
L 130.210938 -88.43957 
L 128.660938 -89.987499 
L 127.110938 -91.400175 
L 125.560938 -92.149237 
L 124.010938 -93.371695 
L 122.460938 -95.101843 
L 120.910938 -95.880755 
L 119.360938 -97.027376 
L 117.810938 -97.018018 
L 116.260938 -97.251301 
L 114.710938 -97.576479 
L 113.160938 -98.463596 
L 111.610938 -98.545718 
L 110.060938 -100.354808 
L 108.510938 -101.622668 
L 106.960938 -103.484811 
L 105.410938 -104.15097 
L 103.860938 -104.264844 
L 102.310938 -108.194396 
L 100.760938 -108.509838 
L 99.210938 -109.115924 
L 97.660938 -110.013004 
L 96.110938 -110.044684 
L 94.560938 -109.889883 
L 93.010938 -109.876911 
L 91.460938 -110.758165 
L 89.910938 -110.853574 
L 88.360938 -111.973687 
L 86.810938 -112.240916 
L 85.260938 -113.478281 
L 83.710938 -114.165497 
L 82.160938 -113.912111 
L 80.610938 -117.579791 
L 79.060938 -117.907439 
L 77.510938 -118.767302 
L 75.960938 -118.952893 
L 74.410938 -119.730755 
L 72.860938 -123.047548 
L 71.310938 -123.274501 
L 69.760938 -124.297058 
L 68.210938 -129.954869 
L 66.660938 -130.062179 
L 65.110938 -130.503161 
L 63.560938 -135.634897 
L 62.010938 -137.004241 
L 60.460938 -138.285021 
L 58.910938 -140.206129 
L 57.360938 -143.656662 
L 55.810938 -146.410869 
L 54.260938 -149.547008 
L 52.710938 -155.106221 
L 51.160938 -157.319874 
L 49.610938 -164.043704 
L 48.060938 -171.643278 
L 46.510938 -183.892494 
L 44.960938 -231.107375 
z
" style="stroke: #0091ea; stroke-opacity: 0.2"/>
    </defs>
    <g clip-path="url(#p8ce35df6f0)">
     <use xlink:href="#m0934e8d2ad" x="0" y="255.915469" style="fill: #0091ea; fill-opacity: 0.2; stroke: #0091ea; stroke-opacity: 0.2"/>
    </g>
   </g>
   <g id="PolyCollection_4">
    <defs>
     <path id="m4f80cda5ac" d="M 44.960938 -231.107375 
L 44.960938 -231.107375 
L 46.510938 -231.248255 
L 48.060938 -218.897129 
L 49.610938 -205.527455 
L 51.160938 -199.8402 
L 52.710938 -195.620594 
L 54.260938 -188.763832 
L 55.810938 -184.785463 
L 57.360938 -180.073172 
L 58.910938 -175.045307 
L 60.460938 -174.430301 
L 62.010938 -173.4966 
L 63.560938 -171.411524 
L 65.110938 -170.437578 
L 66.660938 -168.828383 
L 68.210938 -166.844735 
L 69.760938 -166.436484 
L 71.310938 -166.643145 
L 72.860938 -165.488643 
L 74.410938 -165.094743 
L 75.960938 -164.289391 
L 77.510938 -164.183966 
L 79.060938 -162.607525 
L 80.610938 -159.160693 
L 82.160938 -157.892076 
L 83.710938 -157.864584 
L 85.260938 -156.952948 
L 86.810938 -156.774522 
L 88.360938 -156.15792 
L 89.910938 -155.499946 
L 91.460938 -154.506269 
L 93.010938 -154.401242 
L 94.560938 -153.930853 
L 96.110938 -153.153914 
L 97.660938 -151.164106 
L 99.210938 -150.295325 
L 100.760938 -149.097076 
L 102.310938 -147.308672 
L 103.860938 -146.555918 
L 105.410938 -145.795637 
L 106.960938 -145.807356 
L 108.510938 -145.671479 
L 110.060938 -145.451565 
L 111.610938 -145.058301 
L 113.160938 -143.940986 
L 114.710938 -143.040103 
L 116.260938 -142.022098 
L 117.810938 -141.126403 
L 119.360938 -140.231575 
L 120.910938 -138.519944 
L 122.460938 -138.115523 
L 124.010938 -137.450959 
L 125.560938 -136.694765 
L 127.110938 -136.256501 
L 128.660938 -136.029394 
L 130.210938 -134.864663 
L 131.760938 -133.507298 
L 133.310938 -132.502904 
L 134.860938 -132.177835 
L 136.410938 -131.815055 
L 137.960938 -131.771918 
L 139.510938 -131.495938 
L 141.060938 -130.945443 
L 142.610938 -130.262777 
L 144.160938 -129.327421 
L 145.710938 -128.75833 
L 147.260938 -127.471419 
L 148.810938 -126.293649 
L 150.360938 -125.659666 
L 151.910938 -125.382549 
L 153.460938 -124.355818 
L 155.010938 -124.163053 
L 156.560938 -123.09821 
L 158.110938 -122.672922 
L 159.660938 -122.069512 
L 161.210938 -121.678754 
L 162.760938 -121.128047 
L 164.310938 -120.894995 
L 165.860938 -120.26281 
L 167.410938 -120.098005 
L 168.960938 -118.440104 
L 170.510938 -117.548967 
L 172.060938 -117.44123 
L 173.610938 -116.99547 
L 175.160938 -116.921567 
L 176.710938 -116.818615 
L 178.260938 -116.65565 
L 179.810937 -116.652473 
L 181.360938 -115.533869 
L 182.910938 -115.478071 
L 184.460938 -115.439916 
L 186.010938 -115.077077 
L 187.560937 -114.931838 
L 189.110938 -114.880585 
L 190.660938 -114.787171 
L 192.210938 -114.613272 
L 193.760938 -114.365399 
L 195.310937 -114.222365 
L 196.860938 -114.17446 
L 198.410938 -114.169134 
L 199.960938 -114.077553 
L 201.510938 -114.077553 
L 203.060937 -114.080744 
L 204.610938 -114.051025 
L 206.160938 -114.027638 
L 207.710938 -113.938502 
L 209.260938 -113.936611 
L 210.810937 -113.875738 
L 212.360938 -113.864466 
L 213.910938 -113.864466 
L 215.460938 -113.864003 
L 217.010938 -113.840711 
L 218.560937 -113.800532 
L 220.110938 -113.799554 
L 221.660938 -113.753973 
L 223.210938 -113.583095 
L 224.760938 -113.326775 
L 226.310937 -113.301383 
L 227.860938 -113.300226 
L 229.410938 -113.300226 
L 230.960938 -113.213464 
L 232.510938 -113.147827 
L 234.060937 -113.104156 
L 235.610938 -113.103052 
L 237.160938 -113.071401 
L 238.710938 -113.037132 
L 240.260938 -113.011738 
L 241.810937 -113.011738 
L 243.360938 -112.878619 
L 244.910938 -112.843672 
L 246.460938 -112.771849 
L 248.010938 -112.76086 
L 249.560937 -112.714007 
L 251.110938 -112.671594 
L 252.660938 -112.643455 
L 254.210938 -112.64116 
L 255.760938 -112.64116 
L 257.310938 -112.621466 
L 258.860938 -112.621466 
L 260.410938 -112.62061 
L 261.960938 -112.525961 
L 263.510938 -112.521291 
L 265.060938 -112.521291 
L 266.610938 -112.519368 
L 268.160938 -112.480821 
L 269.710938 -112.422519 
L 271.260938 -112.422519 
L 272.810938 -112.187333 
L 274.360938 -112.187333 
L 275.910938 -112.063422 
L 277.460938 -112.050359 
L 279.010938 -112.050359 
L 280.560938 -112.050272 
L 282.110938 -112.031176 
L 283.660938 -112.002777 
L 285.210938 -111.99055 
L 286.760938 -111.975798 
L 288.310938 -111.975798 
L 289.860938 -111.975798 
L 289.860938 -56.276162 
L 289.860938 -56.276162 
L 288.310938 -56.276162 
L 286.760938 -56.276162 
L 285.210938 -56.273147 
L 283.660938 -56.294431 
L 282.110938 -56.323504 
L 280.560938 -56.42841 
L 279.010938 -56.430126 
L 277.460938 -56.430126 
L 275.910938 -56.427425 
L 274.360938 -56.536095 
L 272.810938 -56.536095 
L 271.260938 -56.497158 
L 269.710938 -56.497158 
L 268.160938 -56.555496 
L 266.610938 -56.899852 
L 265.060938 -56.914994 
L 263.510938 -56.914994 
L 261.960938 -56.948442 
L 260.410938 -56.987937 
L 258.860938 -57.015586 
L 257.310938 -57.015586 
L 255.760938 -57.011612 
L 254.210938 -57.011612 
L 252.660938 -57.066997 
L 251.110938 -57.101697 
L 249.560937 -57.206058 
L 248.010938 -57.213206 
L 246.460938 -57.210945 
L 244.910938 -57.187614 
L 243.360938 -57.236564 
L 241.810937 -57.338067 
L 240.260938 -57.338067 
L 238.710938 -57.547387 
L 237.160938 -57.60969 
L 235.610938 -57.61189 
L 234.060937 -57.611751 
L 232.510938 -57.764304 
L 230.960938 -58.572687 
L 229.410938 -58.553819 
L 227.860938 -58.553819 
L 226.310937 -58.573169 
L 224.760938 -58.730186 
L 223.210938 -58.952417 
L 221.660938 -59.435889 
L 220.110938 -59.534292 
L 218.560937 -59.7832 
L 217.010938 -59.897378 
L 215.460938 -59.901386 
L 213.910938 -59.910103 
L 212.360938 -59.910103 
L 210.810937 -59.912447 
L 209.260938 -60.062417 
L 207.710938 -60.069583 
L 206.160938 -60.377438 
L 204.610938 -60.472908 
L 203.060937 -60.512857 
L 201.510938 -60.6592 
L 199.960938 -60.6592 
L 198.410938 -61.33149 
L 196.860938 -61.485575 
L 195.310937 -61.520726 
L 193.760938 -61.48511 
L 192.210938 -62.133669 
L 190.660938 -62.354667 
L 189.110938 -63.012182 
L 187.560937 -63.048508 
L 186.010938 -63.110513 
L 184.460938 -63.064177 
L 182.910938 -63.156208 
L 181.360938 -63.281421 
L 179.810937 -64.064124 
L 178.260938 -64.151182 
L 176.710938 -64.270241 
L 175.160938 -64.373056 
L 173.610938 -64.410622 
L 172.060938 -64.851297 
L 170.510938 -65.971841 
L 168.960938 -66.575699 
L 167.410938 -67.162954 
L 165.860938 -67.478184 
L 164.310938 -67.339313 
L 162.760938 -68.649591 
L 161.210938 -69.625804 
L 159.660938 -69.969198 
L 158.110938 -72.753166 
L 156.560938 -73.441413 
L 155.010938 -77.221399 
L 153.460938 -78.616021 
L 151.910938 -78.850315 
L 150.360938 -79.248326 
L 148.810938 -79.675223 
L 147.260938 -79.884791 
L 145.710938 -80.983709 
L 144.160938 -83.072656 
L 142.610938 -83.870885 
L 141.060938 -84.235747 
L 139.510938 -85.118889 
L 137.960938 -85.976908 
L 136.410938 -87.029242 
L 134.860938 -87.281743 
L 133.310938 -88.17994 
L 131.760938 -89.029687 
L 130.210938 -89.355758 
L 128.660938 -90.739055 
L 127.110938 -91.723094 
L 125.560938 -92.579984 
L 124.010938 -93.586601 
L 122.460938 -95.031133 
L 120.910938 -96.503207 
L 119.360938 -97.910997 
L 117.810938 -98.999406 
L 116.260938 -100.013212 
L 114.710938 -100.110475 
L 113.160938 -100.76758 
L 111.610938 -101.234776 
L 110.060938 -102.201508 
L 108.510938 -102.408615 
L 106.960938 -104.399932 
L 105.410938 -105.048135 
L 103.860938 -105.506589 
L 102.310938 -105.986455 
L 100.760938 -108.002265 
L 99.210938 -109.961668 
L 97.660938 -113.576257 
L 96.110938 -115.50914 
L 94.560938 -115.765069 
L 93.010938 -116.78018 
L 91.460938 -116.792284 
L 89.910938 -117.568979 
L 88.360938 -117.803549 
L 86.810938 -119.073179 
L 85.260938 -119.2424 
L 83.710938 -120.234984 
L 82.160938 -120.235518 
L 80.610938 -121.920719 
L 79.060938 -122.306554 
L 77.510938 -123.950599 
L 75.960938 -124.176391 
L 74.410938 -124.868994 
L 72.860938 -125.384713 
L 71.310938 -128.699408 
L 69.760938 -131.699886 
L 68.210938 -133.44588 
L 66.660938 -134.060869 
L 65.110938 -134.306232 
L 63.560938 -136.736835 
L 62.010938 -140.950338 
L 60.460938 -141.132829 
L 58.910938 -142.415522 
L 57.360938 -143.792226 
L 55.810938 -147.017508 
L 54.260938 -147.352838 
L 52.710938 -153.686406 
L 51.160938 -158.752059 
L 49.610938 -164.327049 
L 48.060938 -174.899162 
L 46.510938 -188.483495 
L 44.960938 -231.107375 
z
" style="stroke: #00c853; stroke-opacity: 0.2"/>
    </defs>
    <g clip-path="url(#p8ce35df6f0)">
     <use xlink:href="#m4f80cda5ac" x="0" y="255.915469" style="fill: #00c853; fill-opacity: 0.2; stroke: #00c853; stroke-opacity: 0.2"/>
    </g>
   </g>
   <g id="matplotlib.axis_1">
    <g id="xtick_1">
     <g id="line2d_1">
      <defs>
       <path id="me1cdf30e70" d="M 0 0 
L 0 3.5 
" style="stroke: #000000; stroke-width: 0.8"/>
      </defs>
      <g>
       <use xlink:href="#me1cdf30e70" x="44.960938" y="225.559219" style="stroke: #000000; stroke-width: 0.8"/>
      </g>
     </g>
     <g id="text_1">
      <!-- 0 -->
      <g transform="translate(41.779688 240.157656)scale(0.1 -0.1)">
       <defs>
        <path id="DejaVuSans-30" d="M 2034 4250 
Q 1547 4250 1301 3770 
Q 1056 3291 1056 2328 
Q 1056 1369 1301 889 
Q 1547 409 2034 409 
Q 2525 409 2770 889 
Q 3016 1369 3016 2328 
Q 3016 3291 2770 3770 
Q 2525 4250 2034 4250 
z
M 2034 4750 
Q 2819 4750 3233 4129 
Q 3647 3509 3647 2328 
Q 3647 1150 3233 529 
Q 2819 -91 2034 -91 
Q 1250 -91 836 529 
Q 422 1150 422 2328 
Q 422 3509 836 4129 
Q 1250 4750 2034 4750 
z
" transform="scale(0.015625)"/>
       </defs>
       <use xlink:href="#DejaVuSans-30"/>
      </g>
     </g>
    </g>
    <g id="xtick_2">
     <g id="line2d_2">
      <g>
       <use xlink:href="#me1cdf30e70" x="75.960938" y="225.559219" style="stroke: #000000; stroke-width: 0.8"/>
      </g>
     </g>
     <g id="text_2">
      <!-- 20 -->
      <g transform="translate(69.598438 240.157656)scale(0.1 -0.1)">
       <defs>
        <path id="DejaVuSans-32" d="M 1228 531 
L 3431 531 
L 3431 0 
L 469 0 
L 469 531 
Q 828 903 1448 1529 
Q 2069 2156 2228 2338 
Q 2531 2678 2651 2914 
Q 2772 3150 2772 3378 
Q 2772 3750 2511 3984 
Q 2250 4219 1831 4219 
Q 1534 4219 1204 4116 
Q 875 4013 500 3803 
L 500 4441 
Q 881 4594 1212 4672 
Q 1544 4750 1819 4750 
Q 2544 4750 2975 4387 
Q 3406 4025 3406 3419 
Q 3406 3131 3298 2873 
Q 3191 2616 2906 2266 
Q 2828 2175 2409 1742 
Q 1991 1309 1228 531 
z
" transform="scale(0.015625)"/>
       </defs>
       <use xlink:href="#DejaVuSans-32"/>
       <use xlink:href="#DejaVuSans-30" x="63.623047"/>
      </g>
     </g>
    </g>
    <g id="xtick_3">
     <g id="line2d_3">
      <g>
       <use xlink:href="#me1cdf30e70" x="106.960938" y="225.559219" style="stroke: #000000; stroke-width: 0.8"/>
      </g>
     </g>
     <g id="text_3">
      <!-- 40 -->
      <g transform="translate(100.598438 240.157656)scale(0.1 -0.1)">
       <defs>
        <path id="DejaVuSans-34" d="M 2419 4116 
L 825 1625 
L 2419 1625 
L 2419 4116 
z
M 2253 4666 
L 3047 4666 
L 3047 1625 
L 3713 1625 
L 3713 1100 
L 3047 1100 
L 3047 0 
L 2419 0 
L 2419 1100 
L 313 1100 
L 313 1709 
L 2253 4666 
z
" transform="scale(0.015625)"/>
       </defs>
       <use xlink:href="#DejaVuSans-34"/>
       <use xlink:href="#DejaVuSans-30" x="63.623047"/>
      </g>
     </g>
    </g>
    <g id="xtick_4">
     <g id="line2d_4">
      <g>
       <use xlink:href="#me1cdf30e70" x="137.960938" y="225.559219" style="stroke: #000000; stroke-width: 0.8"/>
      </g>
     </g>
     <g id="text_4">
      <!-- 60 -->
      <g transform="translate(131.598437 240.157656)scale(0.1 -0.1)">
       <defs>
        <path id="DejaVuSans-36" d="M 2113 2584 
Q 1688 2584 1439 2293 
Q 1191 2003 1191 1497 
Q 1191 994 1439 701 
Q 1688 409 2113 409 
Q 2538 409 2786 701 
Q 3034 994 3034 1497 
Q 3034 2003 2786 2293 
Q 2538 2584 2113 2584 
z
M 3366 4563 
L 3366 3988 
Q 3128 4100 2886 4159 
Q 2644 4219 2406 4219 
Q 1781 4219 1451 3797 
Q 1122 3375 1075 2522 
Q 1259 2794 1537 2939 
Q 1816 3084 2150 3084 
Q 2853 3084 3261 2657 
Q 3669 2231 3669 1497 
Q 3669 778 3244 343 
Q 2819 -91 2113 -91 
Q 1303 -91 875 529 
Q 447 1150 447 2328 
Q 447 3434 972 4092 
Q 1497 4750 2381 4750 
Q 2619 4750 2861 4703 
Q 3103 4656 3366 4563 
z
" transform="scale(0.015625)"/>
       </defs>
       <use xlink:href="#DejaVuSans-36"/>
       <use xlink:href="#DejaVuSans-30" x="63.623047"/>
      </g>
     </g>
    </g>
    <g id="xtick_5">
     <g id="line2d_5">
      <g>
       <use xlink:href="#me1cdf30e70" x="168.960938" y="225.559219" style="stroke: #000000; stroke-width: 0.8"/>
      </g>
     </g>
     <g id="text_5">
      <!-- 80 -->
      <g transform="translate(162.598437 240.157656)scale(0.1 -0.1)">
       <defs>
        <path id="DejaVuSans-38" d="M 2034 2216 
Q 1584 2216 1326 1975 
Q 1069 1734 1069 1313 
Q 1069 891 1326 650 
Q 1584 409 2034 409 
Q 2484 409 2743 651 
Q 3003 894 3003 1313 
Q 3003 1734 2745 1975 
Q 2488 2216 2034 2216 
z
M 1403 2484 
Q 997 2584 770 2862 
Q 544 3141 544 3541 
Q 544 4100 942 4425 
Q 1341 4750 2034 4750 
Q 2731 4750 3128 4425 
Q 3525 4100 3525 3541 
Q 3525 3141 3298 2862 
Q 3072 2584 2669 2484 
Q 3125 2378 3379 2068 
Q 3634 1759 3634 1313 
Q 3634 634 3220 271 
Q 2806 -91 2034 -91 
Q 1263 -91 848 271 
Q 434 634 434 1313 
Q 434 1759 690 2068 
Q 947 2378 1403 2484 
z
M 1172 3481 
Q 1172 3119 1398 2916 
Q 1625 2713 2034 2713 
Q 2441 2713 2670 2916 
Q 2900 3119 2900 3481 
Q 2900 3844 2670 4047 
Q 2441 4250 2034 4250 
Q 1625 4250 1398 4047 
Q 1172 3844 1172 3481 
z
" transform="scale(0.015625)"/>
       </defs>
       <use xlink:href="#DejaVuSans-38"/>
       <use xlink:href="#DejaVuSans-30" x="63.623047"/>
      </g>
     </g>
    </g>
    <g id="xtick_6">
     <g id="line2d_6">
      <g>
       <use xlink:href="#me1cdf30e70" x="199.960938" y="225.559219" style="stroke: #000000; stroke-width: 0.8"/>
      </g>
     </g>
     <g id="text_6">
      <!-- 100 -->
      <g transform="translate(190.417188 240.157656)scale(0.1 -0.1)">
       <defs>
        <path id="DejaVuSans-31" d="M 794 531 
L 1825 531 
L 1825 4091 
L 703 3866 
L 703 4441 
L 1819 4666 
L 2450 4666 
L 2450 531 
L 3481 531 
L 3481 0 
L 794 0 
L 794 531 
z
" transform="scale(0.015625)"/>
       </defs>
       <use xlink:href="#DejaVuSans-31"/>
       <use xlink:href="#DejaVuSans-30" x="63.623047"/>
       <use xlink:href="#DejaVuSans-30" x="127.246094"/>
      </g>
     </g>
    </g>
    <g id="xtick_7">
     <g id="line2d_7">
      <g>
       <use xlink:href="#me1cdf30e70" x="230.960938" y="225.559219" style="stroke: #000000; stroke-width: 0.8"/>
      </g>
     </g>
     <g id="text_7">
      <!-- 120 -->
      <g transform="translate(221.417188 240.157656)scale(0.1 -0.1)">
       <use xlink:href="#DejaVuSans-31"/>
       <use xlink:href="#DejaVuSans-32" x="63.623047"/>
       <use xlink:href="#DejaVuSans-30" x="127.246094"/>
      </g>
     </g>
    </g>
    <g id="xtick_8">
     <g id="line2d_8">
      <g>
       <use xlink:href="#me1cdf30e70" x="261.960938" y="225.559219" style="stroke: #000000; stroke-width: 0.8"/>
      </g>
     </g>
     <g id="text_8">
      <!-- 140 -->
      <g transform="translate(252.417188 240.157656)scale(0.1 -0.1)">
       <use xlink:href="#DejaVuSans-31"/>
       <use xlink:href="#DejaVuSans-34" x="63.623047"/>
       <use xlink:href="#DejaVuSans-30" x="127.246094"/>
      </g>
     </g>
    </g>
    <g id="xtick_9">
     <g id="line2d_9">
      <g>
       <use xlink:href="#me1cdf30e70" x="292.960938" y="225.559219" style="stroke: #000000; stroke-width: 0.8"/>
      </g>
     </g>
     <g id="text_9">
      <!-- 160 -->
      <g transform="translate(283.417188 240.157656)scale(0.1 -0.1)">
       <use xlink:href="#DejaVuSans-31"/>
       <use xlink:href="#DejaVuSans-36" x="63.623047"/>
       <use xlink:href="#DejaVuSans-30" x="127.246094"/>
      </g>
     </g>
    </g>
    <g id="xtick_10">
     <g id="line2d_10">
      <g>
       <use xlink:href="#me1cdf30e70" x="323.960938" y="225.559219" style="stroke: #000000; stroke-width: 0.8"/>
      </g>
     </g>
     <g id="text_10">
      <!-- 180 -->
      <g transform="translate(314.417188 240.157656)scale(0.1 -0.1)">
       <use xlink:href="#DejaVuSans-31"/>
       <use xlink:href="#DejaVuSans-38" x="63.623047"/>
       <use xlink:href="#DejaVuSans-30" x="127.246094"/>
      </g>
     </g>
    </g>
    <g id="text_11">
     <!-- Number of parameter sets evaluated -->
     <g transform="translate(91.623437 253.835781)scale(0.1 -0.1)">
      <defs>
       <path id="DejaVuSans-4e" d="M 628 4666 
L 1478 4666 
L 3547 763 
L 3547 4666 
L 4159 4666 
L 4159 0 
L 3309 0 
L 1241 3903 
L 1241 0 
L 628 0 
L 628 4666 
z
" transform="scale(0.015625)"/>
       <path id="DejaVuSans-75" d="M 544 1381 
L 544 3500 
L 1119 3500 
L 1119 1403 
Q 1119 906 1312 657 
Q 1506 409 1894 409 
Q 2359 409 2629 706 
Q 2900 1003 2900 1516 
L 2900 3500 
L 3475 3500 
L 3475 0 
L 2900 0 
L 2900 538 
Q 2691 219 2414 64 
Q 2138 -91 1772 -91 
Q 1169 -91 856 284 
Q 544 659 544 1381 
z
M 1991 3584 
L 1991 3584 
z
" transform="scale(0.015625)"/>
       <path id="DejaVuSans-6d" d="M 3328 2828 
Q 3544 3216 3844 3400 
Q 4144 3584 4550 3584 
Q 5097 3584 5394 3201 
Q 5691 2819 5691 2113 
L 5691 0 
L 5113 0 
L 5113 2094 
Q 5113 2597 4934 2840 
Q 4756 3084 4391 3084 
Q 3944 3084 3684 2787 
Q 3425 2491 3425 1978 
L 3425 0 
L 2847 0 
L 2847 2094 
Q 2847 2600 2669 2842 
Q 2491 3084 2119 3084 
Q 1678 3084 1418 2786 
Q 1159 2488 1159 1978 
L 1159 0 
L 581 0 
L 581 3500 
L 1159 3500 
L 1159 2956 
Q 1356 3278 1631 3431 
Q 1906 3584 2284 3584 
Q 2666 3584 2933 3390 
Q 3200 3197 3328 2828 
z
" transform="scale(0.015625)"/>
       <path id="DejaVuSans-62" d="M 3116 1747 
Q 3116 2381 2855 2742 
Q 2594 3103 2138 3103 
Q 1681 3103 1420 2742 
Q 1159 2381 1159 1747 
Q 1159 1113 1420 752 
Q 1681 391 2138 391 
Q 2594 391 2855 752 
Q 3116 1113 3116 1747 
z
M 1159 2969 
Q 1341 3281 1617 3432 
Q 1894 3584 2278 3584 
Q 2916 3584 3314 3078 
Q 3713 2572 3713 1747 
Q 3713 922 3314 415 
Q 2916 -91 2278 -91 
Q 1894 -91 1617 61 
Q 1341 213 1159 525 
L 1159 0 
L 581 0 
L 581 4863 
L 1159 4863 
L 1159 2969 
z
" transform="scale(0.015625)"/>
       <path id="DejaVuSans-65" d="M 3597 1894 
L 3597 1613 
L 953 1613 
Q 991 1019 1311 708 
Q 1631 397 2203 397 
Q 2534 397 2845 478 
Q 3156 559 3463 722 
L 3463 178 
Q 3153 47 2828 -22 
Q 2503 -91 2169 -91 
Q 1331 -91 842 396 
Q 353 884 353 1716 
Q 353 2575 817 3079 
Q 1281 3584 2069 3584 
Q 2775 3584 3186 3129 
Q 3597 2675 3597 1894 
z
M 3022 2063 
Q 3016 2534 2758 2815 
Q 2500 3097 2075 3097 
Q 1594 3097 1305 2825 
Q 1016 2553 972 2059 
L 3022 2063 
z
" transform="scale(0.015625)"/>
       <path id="DejaVuSans-72" d="M 2631 2963 
Q 2534 3019 2420 3045 
Q 2306 3072 2169 3072 
Q 1681 3072 1420 2755 
Q 1159 2438 1159 1844 
L 1159 0 
L 581 0 
L 581 3500 
L 1159 3500 
L 1159 2956 
Q 1341 3275 1631 3429 
Q 1922 3584 2338 3584 
Q 2397 3584 2469 3576 
Q 2541 3569 2628 3553 
L 2631 2963 
z
" transform="scale(0.015625)"/>
       <path id="DejaVuSans-20" transform="scale(0.015625)"/>
       <path id="DejaVuSans-6f" d="M 1959 3097 
Q 1497 3097 1228 2736 
Q 959 2375 959 1747 
Q 959 1119 1226 758 
Q 1494 397 1959 397 
Q 2419 397 2687 759 
Q 2956 1122 2956 1747 
Q 2956 2369 2687 2733 
Q 2419 3097 1959 3097 
z
M 1959 3584 
Q 2709 3584 3137 3096 
Q 3566 2609 3566 1747 
Q 3566 888 3137 398 
Q 2709 -91 1959 -91 
Q 1206 -91 779 398 
Q 353 888 353 1747 
Q 353 2609 779 3096 
Q 1206 3584 1959 3584 
z
" transform="scale(0.015625)"/>
       <path id="DejaVuSans-66" d="M 2375 4863 
L 2375 4384 
L 1825 4384 
Q 1516 4384 1395 4259 
Q 1275 4134 1275 3809 
L 1275 3500 
L 2222 3500 
L 2222 3053 
L 1275 3053 
L 1275 0 
L 697 0 
L 697 3053 
L 147 3053 
L 147 3500 
L 697 3500 
L 697 3744 
Q 697 4328 969 4595 
Q 1241 4863 1831 4863 
L 2375 4863 
z
" transform="scale(0.015625)"/>
       <path id="DejaVuSans-70" d="M 1159 525 
L 1159 -1331 
L 581 -1331 
L 581 3500 
L 1159 3500 
L 1159 2969 
Q 1341 3281 1617 3432 
Q 1894 3584 2278 3584 
Q 2916 3584 3314 3078 
Q 3713 2572 3713 1747 
Q 3713 922 3314 415 
Q 2916 -91 2278 -91 
Q 1894 -91 1617 61 
Q 1341 213 1159 525 
z
M 3116 1747 
Q 3116 2381 2855 2742 
Q 2594 3103 2138 3103 
Q 1681 3103 1420 2742 
Q 1159 2381 1159 1747 
Q 1159 1113 1420 752 
Q 1681 391 2138 391 
Q 2594 391 2855 752 
Q 3116 1113 3116 1747 
z
" transform="scale(0.015625)"/>
       <path id="DejaVuSans-61" d="M 2194 1759 
Q 1497 1759 1228 1600 
Q 959 1441 959 1056 
Q 959 750 1161 570 
Q 1363 391 1709 391 
Q 2188 391 2477 730 
Q 2766 1069 2766 1631 
L 2766 1759 
L 2194 1759 
z
M 3341 1997 
L 3341 0 
L 2766 0 
L 2766 531 
Q 2569 213 2275 61 
Q 1981 -91 1556 -91 
Q 1019 -91 701 211 
Q 384 513 384 1019 
Q 384 1609 779 1909 
Q 1175 2209 1959 2209 
L 2766 2209 
L 2766 2266 
Q 2766 2663 2505 2880 
Q 2244 3097 1772 3097 
Q 1472 3097 1187 3025 
Q 903 2953 641 2809 
L 641 3341 
Q 956 3463 1253 3523 
Q 1550 3584 1831 3584 
Q 2591 3584 2966 3190 
Q 3341 2797 3341 1997 
z
" transform="scale(0.015625)"/>
       <path id="DejaVuSans-74" d="M 1172 4494 
L 1172 3500 
L 2356 3500 
L 2356 3053 
L 1172 3053 
L 1172 1153 
Q 1172 725 1289 603 
Q 1406 481 1766 481 
L 2356 481 
L 2356 0 
L 1766 0 
Q 1100 0 847 248 
Q 594 497 594 1153 
L 594 3053 
L 172 3053 
L 172 3500 
L 594 3500 
L 594 4494 
L 1172 4494 
z
" transform="scale(0.015625)"/>
       <path id="DejaVuSans-73" d="M 2834 3397 
L 2834 2853 
Q 2591 2978 2328 3040 
Q 2066 3103 1784 3103 
Q 1356 3103 1142 2972 
Q 928 2841 928 2578 
Q 928 2378 1081 2264 
Q 1234 2150 1697 2047 
L 1894 2003 
Q 2506 1872 2764 1633 
Q 3022 1394 3022 966 
Q 3022 478 2636 193 
Q 2250 -91 1575 -91 
Q 1294 -91 989 -36 
Q 684 19 347 128 
L 347 722 
Q 666 556 975 473 
Q 1284 391 1588 391 
Q 1994 391 2212 530 
Q 2431 669 2431 922 
Q 2431 1156 2273 1281 
Q 2116 1406 1581 1522 
L 1381 1569 
Q 847 1681 609 1914 
Q 372 2147 372 2553 
Q 372 3047 722 3315 
Q 1072 3584 1716 3584 
Q 2034 3584 2315 3537 
Q 2597 3491 2834 3397 
z
" transform="scale(0.015625)"/>
       <path id="DejaVuSans-76" d="M 191 3500 
L 800 3500 
L 1894 563 
L 2988 3500 
L 3597 3500 
L 2284 0 
L 1503 0 
L 191 3500 
z
" transform="scale(0.015625)"/>
       <path id="DejaVuSans-6c" d="M 603 4863 
L 1178 4863 
L 1178 0 
L 603 0 
L 603 4863 
z
" transform="scale(0.015625)"/>
       <path id="DejaVuSans-64" d="M 2906 2969 
L 2906 4863 
L 3481 4863 
L 3481 0 
L 2906 0 
L 2906 525 
Q 2725 213 2448 61 
Q 2172 -91 1784 -91 
Q 1150 -91 751 415 
Q 353 922 353 1747 
Q 353 2572 751 3078 
Q 1150 3584 1784 3584 
Q 2172 3584 2448 3432 
Q 2725 3281 2906 2969 
z
M 947 1747 
Q 947 1113 1208 752 
Q 1469 391 1925 391 
Q 2381 391 2643 752 
Q 2906 1113 2906 1747 
Q 2906 2381 2643 2742 
Q 2381 3103 1925 3103 
Q 1469 3103 1208 2742 
Q 947 2381 947 1747 
z
" transform="scale(0.015625)"/>
      </defs>
      <use xlink:href="#DejaVuSans-4e"/>
      <use xlink:href="#DejaVuSans-75" x="74.804688"/>
      <use xlink:href="#DejaVuSans-6d" x="138.183594"/>
      <use xlink:href="#DejaVuSans-62" x="235.595703"/>
      <use xlink:href="#DejaVuSans-65" x="299.072266"/>
      <use xlink:href="#DejaVuSans-72" x="360.595703"/>
      <use xlink:href="#DejaVuSans-20" x="401.708984"/>
      <use xlink:href="#DejaVuSans-6f" x="433.496094"/>
      <use xlink:href="#DejaVuSans-66" x="494.677734"/>
      <use xlink:href="#DejaVuSans-20" x="529.882812"/>
      <use xlink:href="#DejaVuSans-70" x="561.669922"/>
      <use xlink:href="#DejaVuSans-61" x="625.146484"/>
      <use xlink:href="#DejaVuSans-72" x="686.425781"/>
      <use xlink:href="#DejaVuSans-61" x="727.539062"/>
      <use xlink:href="#DejaVuSans-6d" x="788.818359"/>
      <use xlink:href="#DejaVuSans-65" x="886.230469"/>
      <use xlink:href="#DejaVuSans-74" x="947.753906"/>
      <use xlink:href="#DejaVuSans-65" x="986.962891"/>
      <use xlink:href="#DejaVuSans-72" x="1048.486328"/>
      <use xlink:href="#DejaVuSans-20" x="1089.599609"/>
      <use xlink:href="#DejaVuSans-73" x="1121.386719"/>
      <use xlink:href="#DejaVuSans-65" x="1173.486328"/>
      <use xlink:href="#DejaVuSans-74" x="1235.009766"/>
      <use xlink:href="#DejaVuSans-73" x="1274.21875"/>
      <use xlink:href="#DejaVuSans-20" x="1326.318359"/>
      <use xlink:href="#DejaVuSans-65" x="1358.105469"/>
      <use xlink:href="#DejaVuSans-76" x="1419.628906"/>
      <use xlink:href="#DejaVuSans-61" x="1478.808594"/>
      <use xlink:href="#DejaVuSans-6c" x="1540.087891"/>
      <use xlink:href="#DejaVuSans-75" x="1567.871094"/>
      <use xlink:href="#DejaVuSans-61" x="1631.25"/>
      <use xlink:href="#DejaVuSans-74" x="1692.529297"/>
      <use xlink:href="#DejaVuSans-65" x="1731.738281"/>
      <use xlink:href="#DejaVuSans-64" x="1793.261719"/>
     </g>
    </g>
   </g>
   <g id="matplotlib.axis_2">
    <g id="ytick_1">
     <g id="line2d_11">
      <defs>
       <path id="m41370cab40" d="M 0 0 
L -3.5 0 
" style="stroke: #000000; stroke-width: 0.8"/>
      </defs>
      <g>
       <use xlink:href="#m41370cab40" x="44.960938" y="225.559219" style="stroke: #000000; stroke-width: 0.8"/>
      </g>
     </g>
     <g id="text_12">
      <!-- 1.0 -->
      <g transform="translate(13.678125 229.358438)scale(0.1 -0.1)">
       <defs>
        <path id="DejaVuSans-2212" d="M 678 2272 
L 4684 2272 
L 4684 1741 
L 678 1741 
L 678 2272 
z
" transform="scale(0.015625)"/>
        <path id="DejaVuSans-2e" d="M 684 794 
L 1344 794 
L 1344 0 
L 684 0 
L 684 794 
z
" transform="scale(0.015625)"/>
       </defs>
       <use xlink:href="#DejaVuSans-2212"/>
       <use xlink:href="#DejaVuSans-31" x="83.789062"/>
       <use xlink:href="#DejaVuSans-2e" x="147.412109"/>
       <use xlink:href="#DejaVuSans-30" x="179.199219"/>
      </g>
     </g>
    </g>
    <g id="ytick_2">
     <g id="line2d_12">
      <g>
       <use xlink:href="#m41370cab40" x="44.960938" y="181.207219" style="stroke: #000000; stroke-width: 0.8"/>
      </g>
     </g>
     <g id="text_13">
      <!-- 0.5 -->
      <g transform="translate(13.678125 185.006438)scale(0.1 -0.1)">
       <defs>
        <path id="DejaVuSans-35" d="M 691 4666 
L 3169 4666 
L 3169 4134 
L 1269 4134 
L 1269 2991 
Q 1406 3038 1543 3061 
Q 1681 3084 1819 3084 
Q 2600 3084 3056 2656 
Q 3513 2228 3513 1497 
Q 3513 744 3044 326 
Q 2575 -91 1722 -91 
Q 1428 -91 1123 -41 
Q 819 9 494 109 
L 494 744 
Q 775 591 1075 516 
Q 1375 441 1709 441 
Q 2250 441 2565 725 
Q 2881 1009 2881 1497 
Q 2881 1984 2565 2268 
Q 2250 2553 1709 2553 
Q 1456 2553 1204 2497 
Q 953 2441 691 2322 
L 691 4666 
z
" transform="scale(0.015625)"/>
       </defs>
       <use xlink:href="#DejaVuSans-2212"/>
       <use xlink:href="#DejaVuSans-30" x="83.789062"/>
       <use xlink:href="#DejaVuSans-2e" x="147.412109"/>
       <use xlink:href="#DejaVuSans-35" x="179.199219"/>
      </g>
     </g>
    </g>
    <g id="ytick_3">
     <g id="line2d_13">
      <g>
       <use xlink:href="#m41370cab40" x="44.960938" y="136.855219" style="stroke: #000000; stroke-width: 0.8"/>
      </g>
     </g>
     <g id="text_14">
      <!-- 0.0 -->
      <g transform="translate(22.057813 140.654438)scale(0.1 -0.1)">
       <use xlink:href="#DejaVuSans-30"/>
       <use xlink:href="#DejaVuSans-2e" x="63.623047"/>
       <use xlink:href="#DejaVuSans-30" x="95.410156"/>
      </g>
     </g>
    </g>
    <g id="ytick_4">
     <g id="line2d_14">
      <g>
       <use xlink:href="#m41370cab40" x="44.960938" y="92.503219" style="stroke: #000000; stroke-width: 0.8"/>
      </g>
     </g>
     <g id="text_15">
      <!-- 0.5 -->
      <g transform="translate(22.057813 96.302437)scale(0.1 -0.1)">
       <use xlink:href="#DejaVuSans-30"/>
       <use xlink:href="#DejaVuSans-2e" x="63.623047"/>
       <use xlink:href="#DejaVuSans-35" x="95.410156"/>
      </g>
     </g>
    </g>
    <g id="ytick_5">
     <g id="line2d_15">
      <g>
       <use xlink:href="#m41370cab40" x="44.960938" y="48.151219" style="stroke: #000000; stroke-width: 0.8"/>
      </g>
     </g>
     <g id="text_16">
      <!-- 1.0 -->
      <g transform="translate(22.057813 51.950438)scale(0.1 -0.1)">
       <use xlink:href="#DejaVuSans-31"/>
       <use xlink:href="#DejaVuSans-2e" x="63.623047"/>
       <use xlink:href="#DejaVuSans-30" x="95.410156"/>
      </g>
     </g>
    </g>
    <g id="ytick_6">
     <g id="line2d_16">
      <g>
       <use xlink:href="#m41370cab40" x="44.960938" y="3.799219" style="stroke: #000000; stroke-width: 0.8"/>
      </g>
     </g>
     <g id="text_17">
      <!-- 1.5 -->
      <g transform="translate(22.057813 7.598437)scale(0.1 -0.1)">
       <use xlink:href="#DejaVuSans-31"/>
       <use xlink:href="#DejaVuSans-2e" x="63.623047"/>
       <use xlink:href="#DejaVuSans-35" x="95.410156"/>
      </g>
     </g>
    </g>
    <g id="text_18">
     <!-- Normalized metabolic cost -->
     <g transform="translate(7.598438 181.318281)rotate(-90)scale(0.1 -0.1)">
      <defs>
       <path id="DejaVuSans-69" d="M 603 3500 
L 1178 3500 
L 1178 0 
L 603 0 
L 603 3500 
z
M 603 4863 
L 1178 4863 
L 1178 4134 
L 603 4134 
L 603 4863 
z
" transform="scale(0.015625)"/>
       <path id="DejaVuSans-7a" d="M 353 3500 
L 3084 3500 
L 3084 2975 
L 922 459 
L 3084 459 
L 3084 0 
L 275 0 
L 275 525 
L 2438 3041 
L 353 3041 
L 353 3500 
z
" transform="scale(0.015625)"/>
       <path id="DejaVuSans-63" d="M 3122 3366 
L 3122 2828 
Q 2878 2963 2633 3030 
Q 2388 3097 2138 3097 
Q 1578 3097 1268 2742 
Q 959 2388 959 1747 
Q 959 1106 1268 751 
Q 1578 397 2138 397 
Q 2388 397 2633 464 
Q 2878 531 3122 666 
L 3122 134 
Q 2881 22 2623 -34 
Q 2366 -91 2075 -91 
Q 1284 -91 818 406 
Q 353 903 353 1747 
Q 353 2603 823 3093 
Q 1294 3584 2113 3584 
Q 2378 3584 2631 3529 
Q 2884 3475 3122 3366 
z
" transform="scale(0.015625)"/>
      </defs>
      <use xlink:href="#DejaVuSans-4e"/>
      <use xlink:href="#DejaVuSans-6f" x="74.804688"/>
      <use xlink:href="#DejaVuSans-72" x="135.986328"/>
      <use xlink:href="#DejaVuSans-6d" x="175.349609"/>
      <use xlink:href="#DejaVuSans-61" x="272.761719"/>
      <use xlink:href="#DejaVuSans-6c" x="334.041016"/>
      <use xlink:href="#DejaVuSans-69" x="361.824219"/>
      <use xlink:href="#DejaVuSans-7a" x="389.607422"/>
      <use xlink:href="#DejaVuSans-65" x="442.097656"/>
      <use xlink:href="#DejaVuSans-64" x="503.621094"/>
      <use xlink:href="#DejaVuSans-20" x="567.097656"/>
      <use xlink:href="#DejaVuSans-6d" x="598.884766"/>
      <use xlink:href="#DejaVuSans-65" x="696.296875"/>
      <use xlink:href="#DejaVuSans-74" x="757.820312"/>
      <use xlink:href="#DejaVuSans-61" x="797.029297"/>
      <use xlink:href="#DejaVuSans-62" x="858.308594"/>
      <use xlink:href="#DejaVuSans-6f" x="921.785156"/>
      <use xlink:href="#DejaVuSans-6c" x="982.966797"/>
      <use xlink:href="#DejaVuSans-69" x="1010.75"/>
      <use xlink:href="#DejaVuSans-63" x="1038.533203"/>
      <use xlink:href="#DejaVuSans-20" x="1093.513672"/>
      <use xlink:href="#DejaVuSans-63" x="1125.300781"/>
      <use xlink:href="#DejaVuSans-6f" x="1180.28125"/>
      <use xlink:href="#DejaVuSans-73" x="1241.462891"/>
      <use xlink:href="#DejaVuSans-74" x="1293.5625"/>
     </g>
    </g>
   </g>
   <g id="line2d_17">
    <path d="M 44.960938 24.808094 
L 46.510938 49.003405 
L 48.060938 69.671197 
L 49.610938 80.800114 
L 51.160938 85.996442 
L 52.710938 88.417537 
L 54.260938 89.984422 
L 55.810938 93.330102 
L 57.360938 95.176171 
L 58.910938 98.978991 
L 60.460938 100.852823 
L 62.010938 103.436239 
L 65.110938 111.267975 
L 66.660938 116.467168 
L 68.210938 119.476482 
L 69.760938 124.973152 
L 71.310938 128.464308 
L 72.860938 135.764502 
L 74.410938 139.273144 
L 75.960938 141.140217 
L 77.510938 146.452386 
L 80.610938 154.38598 
L 82.160938 156.657186 
L 83.710938 159.478558 
L 85.260938 161.90319 
L 86.810938 164.732477 
L 89.910938 167.552671 
L 91.460938 169.803812 
L 93.010938 170.652183 
L 94.560938 171.959389 
L 97.660938 173.264105 
L 99.210938 173.640391 
L 100.760938 174.299467 
L 102.310938 174.605838 
L 105.410938 175.523239 
L 106.960938 176.479826 
L 114.710938 177.559011 
L 116.260938 177.623012 
L 120.910938 178.561292 
L 122.460938 179.355459 
L 124.010938 179.897131 
L 127.110938 181.25802 
L 130.210938 181.299564 
L 134.860938 181.750882 
L 136.410938 182.264258 
L 139.510938 182.424069 
L 141.060938 182.424069 
L 142.610938 183.01191 
L 144.160938 183.884225 
L 145.710938 184.536676 
L 147.260938 184.642206 
L 150.360938 185.39787 
L 158.110938 186.532607 
L 159.660938 187.427153 
L 161.210938 187.427153 
L 162.760938 188.026138 
L 164.310938 189.078648 
L 165.860938 189.694484 
L 167.410938 189.921357 
L 168.960938 191.481439 
L 170.510938 191.490625 
L 173.610938 191.946859 
L 175.160938 192.675871 
L 176.710938 192.724923 
L 178.260938 192.965658 
L 179.810937 193.687706 
L 182.910938 194.312545 
L 184.460938 194.348189 
L 187.560937 194.906 
L 189.110938 194.906 
L 190.660938 195.97292 
L 192.210938 196.086366 
L 193.760938 196.574968 
L 195.310937 196.639008 
L 196.860938 196.977164 
L 198.410938 197.161631 
L 201.510938 198.095661 
L 203.060937 198.095661 
L 204.610938 198.412181 
L 206.160938 198.860185 
L 207.710938 199.053307 
L 212.360938 199.175063 
L 213.910938 199.175063 
L 220.110938 199.812503 
L 221.660938 200.046823 
L 224.760938 201.041736 
L 226.310937 201.073875 
L 229.410938 201.838346 
L 230.960938 202.056924 
L 232.510938 202.662488 
L 235.610938 202.662488 
L 237.160938 203.075764 
L 241.810937 203.081827 
L 243.360938 203.443342 
L 246.460938 203.660434 
L 251.110938 204.291196 
L 252.660938 204.307631 
L 260.410938 204.921896 
L 266.610938 205.063544 
L 268.160938 205.3021 
L 271.260938 205.309446 
L 272.810938 205.549278 
L 274.360938 205.549278 
L 275.910938 205.726601 
L 279.010938 205.840584 
L 280.560938 205.952289 
L 282.110938 206.337629 
L 283.660938 206.337629 
L 286.760938 206.589926 
L 289.860938 206.609333 
L 289.860938 206.609333 
" clip-path="url(#p8ce35df6f0)" style="fill: none; stroke: #bf32e7; stroke-width: 1.5; stroke-linecap: square"/>
   </g>
   <g id="line2d_18">
    <path d="M 44.960938 24.808094 
L 46.510938 53.436787 
L 49.610938 76.243111 
L 51.160938 79.686708 
L 54.260938 84.6259 
L 55.810938 92.163354 
L 57.360938 93.119505 
L 58.910938 96.007255 
L 60.460938 97.988513 
L 62.010938 100.733425 
L 63.560938 102.657377 
L 65.110938 105.395569 
L 66.660938 110.179783 
L 69.760938 123.944651 
L 71.310938 128.255629 
L 74.410938 138.7303 
L 75.960938 142.839125 
L 77.510938 149.992175 
L 79.060938 153.643576 
L 80.610938 156.086774 
L 82.160938 158.297312 
L 83.710938 162.812553 
L 85.260938 165.472369 
L 88.360938 169.334537 
L 89.910938 170.175702 
L 91.460938 171.167639 
L 93.010938 172.323491 
L 94.560938 174.025686 
L 96.110938 175.234768 
L 97.660938 176.166144 
L 99.210938 176.940828 
L 100.760938 178.071741 
L 105.410938 180.081736 
L 106.960938 181.414683 
L 113.160938 183.719751 
L 114.710938 184.065436 
L 116.260938 185.179454 
L 117.810938 185.633326 
L 119.360938 186.389734 
L 120.910938 186.583623 
L 122.460938 187.030066 
L 124.010938 188.873148 
L 125.560938 189.987633 
L 128.660938 190.388833 
L 130.210938 191.209933 
L 131.760938 192.242956 
L 134.860938 193.397611 
L 136.410938 193.901713 
L 139.510938 196.447049 
L 142.610938 196.623215 
L 144.160938 197.13567 
L 145.710938 199.020832 
L 147.260938 199.07847 
L 150.360938 199.862031 
L 151.910938 200.676023 
L 153.460938 201.908381 
L 155.010938 202.570902 
L 156.560938 204.889753 
L 158.110938 205.3428 
L 159.660938 206.553746 
L 162.760938 207.304933 
L 164.310938 208.006678 
L 165.860938 208.008647 
L 167.410938 208.655532 
L 168.960938 209.476205 
L 170.510938 209.625724 
L 173.610938 210.408262 
L 175.160938 210.408262 
L 176.710938 210.564153 
L 178.260938 210.580764 
L 181.360938 210.926978 
L 182.910938 212.242782 
L 186.010938 212.30044 
L 187.560937 212.686105 
L 189.110938 212.686105 
L 190.660938 213.361716 
L 192.210938 213.361716 
L 193.760938 213.487702 
L 198.410938 213.487702 
L 199.960938 214.335864 
L 204.610938 214.377311 
L 217.010938 214.454462 
L 230.960938 214.922595 
L 232.510938 215.258847 
L 249.560937 215.357962 
L 266.610938 215.567941 
L 269.710938 215.660736 
L 280.560938 215.669637 
L 282.110938 215.80605 
L 289.860938 215.876374 
L 289.860938 215.876374 
" clip-path="url(#p8ce35df6f0)" style="fill: none; stroke: #ff1493; stroke-width: 1.5; stroke-linecap: square"/>
   </g>
   <g id="line2d_19">
    <path d="M 44.960938 24.808094 
L 46.510938 49.039032 
L 48.060938 62.344135 
L 49.610938 70.089991 
L 51.160938 77.027395 
L 52.710938 80.314393 
L 54.260938 87.690999 
L 55.810938 93.547791 
L 58.910938 98.84729 
L 62.010938 101.82457 
L 63.560938 103.18205 
L 65.110938 108.229236 
L 66.660938 110.027435 
L 68.210938 112.147201 
L 69.760938 115.044691 
L 71.310938 116.523979 
L 72.860938 116.91924 
L 74.410938 119.374145 
L 75.960938 120.96319 
L 77.510938 121.176626 
L 79.060938 122.658347 
L 80.610938 123.054598 
L 82.160938 125.802296 
L 83.710938 126.049066 
L 85.260938 126.93054 
L 86.810938 128.302942 
L 88.360938 128.752085 
L 89.910938 129.793485 
L 91.460938 130.145069 
L 93.010938 130.816447 
L 94.560938 131.321281 
L 97.660938 131.984824 
L 99.210938 133.057511 
L 102.310938 134.455851 
L 103.860938 136.793131 
L 105.410938 137.032196 
L 106.960938 137.915591 
L 108.510938 139.294705 
L 110.060938 141.249334 
L 111.610938 142.927069 
L 113.160938 143.183124 
L 114.710938 143.902241 
L 117.810938 144.947574 
L 119.360938 145.023424 
L 120.910938 146.14739 
L 122.460938 146.722048 
L 124.010938 148.688236 
L 125.560938 149.681324 
L 127.110938 151.532823 
L 128.660938 152.441483 
L 130.210938 153.636978 
L 131.760938 154.584336 
L 133.310938 155.697291 
L 134.860938 155.954421 
L 136.410938 157.693875 
L 137.960938 159.137828 
L 139.510938 159.735926 
L 141.060938 160.915348 
L 142.610938 160.915348 
L 144.160938 161.907053 
L 145.710938 162.676355 
L 147.260938 164.460989 
L 148.810938 164.944842 
L 150.360938 165.630182 
L 151.910938 167.056131 
L 153.460938 167.94801 
L 155.010938 169.530299 
L 156.560938 170.180732 
L 159.660938 173.087741 
L 161.210938 173.860461 
L 162.760938 174.935184 
L 164.310938 176.835954 
L 165.860938 176.877556 
L 167.410938 177.795292 
L 168.960938 179.634856 
L 170.510938 179.978465 
L 172.060938 180.911781 
L 173.610938 182.560165 
L 176.710938 182.627773 
L 178.260938 183.698969 
L 179.810937 183.941101 
L 181.360938 184.44272 
L 182.910938 185.608299 
L 184.460938 186.420006 
L 186.010938 186.888913 
L 187.560937 187.771982 
L 189.110938 187.830515 
L 190.660938 188.070118 
L 192.210938 188.862023 
L 198.410938 189.405136 
L 203.060937 190.825564 
L 206.160938 190.851308 
L 207.710938 191.305069 
L 209.260938 191.484853 
L 210.810937 191.798273 
L 212.360938 191.98024 
L 215.460938 192.091287 
L 217.010938 192.231112 
L 218.560937 192.725516 
L 220.110938 192.879413 
L 221.660938 193.189472 
L 224.760938 194.326641 
L 226.310937 194.326641 
L 227.860938 194.462149 
L 229.410938 194.462149 
L 230.960938 194.93803 
L 232.510938 195.270574 
L 235.610938 195.405531 
L 243.360938 195.724632 
L 244.910938 195.951983 
L 248.010938 196.066571 
L 249.560937 196.228774 
L 251.110938 196.697102 
L 252.660938 196.883956 
L 254.210938 197.258667 
L 257.310938 197.344662 
L 258.860938 197.467453 
L 261.960938 198.060224 
L 265.060938 198.077056 
L 266.610938 198.211245 
L 269.710938 199.758019 
L 277.460938 199.861286 
L 285.210938 200.520478 
L 289.860938 200.559258 
L 289.860938 200.559258 
" clip-path="url(#p8ce35df6f0)" style="fill: none; stroke: #0091ea; stroke-width: 1.5; stroke-linecap: square"/>
   </g>
   <g id="line2d_20">
    <path d="M 44.960938 24.808094 
L 46.510938 46.049594 
L 48.060938 59.017323 
L 49.610938 70.988217 
L 51.160938 76.619339 
L 52.710938 81.261969 
L 54.260938 87.857134 
L 55.810938 90.013983 
L 57.360938 93.98277 
L 58.910938 97.185054 
L 60.460938 98.133903 
L 62.010938 98.692 
L 63.560938 101.841289 
L 65.110938 103.543564 
L 66.660938 104.470843 
L 68.210938 105.770161 
L 69.760938 106.847284 
L 71.310938 108.244192 
L 72.860938 110.47879 
L 74.410938 110.9336 
L 75.960938 111.682578 
L 77.510938 111.848186 
L 79.060938 113.458429 
L 80.610938 115.374763 
L 82.160938 116.851672 
L 83.710938 116.865685 
L 85.260938 117.817795 
L 86.810938 117.991618 
L 88.360938 118.934734 
L 89.910938 119.381006 
L 91.460938 120.266193 
L 93.010938 120.324758 
L 94.560938 121.067508 
L 96.110938 121.583942 
L 97.660938 123.545288 
L 99.210938 125.786972 
L 100.760938 127.365798 
L 102.310938 129.267905 
L 105.410938 130.493583 
L 106.960938 130.811825 
L 108.510938 131.875422 
L 110.060938 132.088932 
L 113.160938 133.561186 
L 114.710938 134.34018 
L 116.260938 134.897814 
L 119.360938 136.844183 
L 120.910938 138.403893 
L 125.560938 141.278094 
L 128.660938 142.531244 
L 130.210938 143.805258 
L 133.310938 145.574047 
L 134.860938 146.18568 
L 136.410938 146.49332 
L 139.510938 147.608055 
L 141.060938 148.324874 
L 142.610938 148.848638 
L 144.160938 149.715431 
L 147.260938 152.237364 
L 148.810938 152.931033 
L 150.360938 153.461472 
L 151.910938 153.799036 
L 153.460938 154.429549 
L 155.010938 155.223243 
L 156.560938 157.645657 
L 158.110938 158.202425 
L 159.660938 159.896114 
L 161.210938 160.26319 
L 164.310938 161.798315 
L 167.410938 162.284989 
L 168.960938 163.407567 
L 170.510938 164.155065 
L 172.060938 164.769205 
L 173.610938 165.212422 
L 176.710938 165.371041 
L 179.810937 165.55717 
L 181.360938 166.507823 
L 189.110938 166.969086 
L 190.660938 167.344549 
L 192.210938 167.541998 
L 193.760938 167.990214 
L 198.410938 168.165156 
L 199.960938 168.547092 
L 204.610938 168.653502 
L 206.160938 168.712931 
L 207.710938 168.911427 
L 217.010938 169.046424 
L 221.660938 169.320538 
L 224.760938 169.886988 
L 227.860938 169.988446 
L 230.960938 170.022393 
L 232.510938 170.459403 
L 235.610938 170.557998 
L 238.710938 170.623209 
L 240.260938 170.740566 
L 241.810937 170.740566 
L 244.910938 170.899826 
L 266.610938 171.205859 
L 268.160938 171.39731 
L 277.460938 171.675227 
L 285.210938 171.78362 
L 289.860938 171.789489 
L 289.860938 171.789489 
" clip-path="url(#p8ce35df6f0)" style="fill: none; stroke: #00c853; stroke-width: 1.5; stroke-linecap: square"/>
   </g>
   <g id="line2d_21">
    <path d="M 44.960938 8.982647 
L 46.510938 17.837864 
L 48.060938 34.44357 
L 49.610938 38.949794 
L 51.160938 44.708373 
L 52.710938 48.378863 
L 54.260938 49.171918 
L 55.810938 49.171918 
L 57.360938 56.291263 
L 58.910938 76.966734 
L 60.460938 76.966734 
L 62.010938 84.678534 
L 63.560938 95.130773 
L 68.210938 95.130773 
L 69.760938 100.156704 
L 71.310938 100.156704 
L 72.860938 100.913287 
L 75.960938 100.913287 
L 77.510938 103.507077 
L 80.610938 103.507077 
L 82.160938 104.317594 
L 85.260938 104.317594 
L 86.810938 107.778688 
L 88.360938 107.778688 
L 89.910938 114.577677 
L 91.460938 120.643188 
L 93.010938 120.643188 
L 94.560938 120.97131 
L 96.110938 123.982463 
L 105.410938 123.982463 
L 106.960938 124.409238 
L 122.460938 124.414169 
L 124.010938 125.880048 
L 133.310938 125.880048 
L 134.860938 127.61021 
L 148.810938 127.61021 
L 150.360938 136.978954 
L 155.010938 136.978954 
L 156.560938 148.635721 
L 158.110938 157.322823 
L 159.660938 159.538868 
L 162.760938 167.174356 
L 164.310938 167.174356 
L 165.860938 169.257802 
L 167.410938 169.257802 
L 168.960938 169.817799 
L 178.260938 169.817799 
L 179.810937 170.61125 
L 181.360938 174.619639 
L 184.460938 174.619639 
L 186.010938 176.027147 
L 187.560937 181.063436 
L 193.760938 181.063436 
L 195.310937 185.250673 
L 196.860938 188.316493 
L 210.810937 188.316493 
L 212.360938 191.313348 
L 215.460938 191.313348 
L 217.010938 192.242216 
L 220.110938 192.242216 
L 221.660938 194.312457 
L 226.310937 194.312457 
L 227.860938 194.954032 
L 238.710938 194.954032 
L 240.260938 200.041892 
L 261.960938 200.041892 
L 263.510938 200.269904 
L 313.110938 200.269904 
L 314.660937 201.247793 
L 334.504687 201.247793 
L 334.504687 201.247793 
" clip-path="url(#p8ce35df6f0)" style="fill: none; stroke: #000000; stroke-width: 1.5; stroke-linecap: square"/>
   </g>
   <g id="patch_3">
    <path d="M 44.960938 225.559219 
L 44.960938 3.799219 
" style="fill: none; stroke: #000000; stroke-width: 1.2; stroke-linejoin: miter; stroke-linecap: square"/>
   </g>
   <g id="patch_4">
    <path d="M 323.960938 225.559219 
L 323.960938 3.799219 
" style="fill: none"/>
   </g>
   <g id="patch_5">
    <path d="M 44.960938 225.559219 
L 323.960938 225.559219 
" style="fill: none; stroke: #000000; stroke-width: 1.2; stroke-linejoin: miter; stroke-linecap: square"/>
   </g>
   <g id="patch_6">
    <path d="M 44.960938 3.799219 
L 323.960938 3.799219 
" style="fill: none"/>
   </g>
   <g id="legend_1">
    <g id="line2d_22">
     <path d="M 144.259375 16.897656 
L 144.259375 16.897656 
L 144.259375 16.897656 
" style="fill: none; stroke: #bf32e7; stroke-width: 1.5; stroke-linecap: square"/>
     <defs>
      <path id="mcf33c4c825" d="M -3.5 3.5 
L 3.5 3.5 
L 3.5 -3.5 
L -3.5 -3.5 
z
" style="stroke: #bf32e7; stroke-linejoin: miter"/>
     </defs>
     <g>
      <use xlink:href="#mcf33c4c825" x="144.259375" y="16.897656" style="fill: #bf32e7; stroke: #bf32e7; stroke-linejoin: miter"/>
     </g>
    </g>
    <g id="text_19">
     <!-- Bayesian Optimization -->
     <g transform="translate(152.259375 20.397656)scale(0.1 -0.1)">
      <defs>
       <path id="DejaVuSans-42" d="M 1259 2228 
L 1259 519 
L 2272 519 
Q 2781 519 3026 730 
Q 3272 941 3272 1375 
Q 3272 1813 3026 2020 
Q 2781 2228 2272 2228 
L 1259 2228 
z
M 1259 4147 
L 1259 2741 
L 2194 2741 
Q 2656 2741 2882 2914 
Q 3109 3088 3109 3444 
Q 3109 3797 2882 3972 
Q 2656 4147 2194 4147 
L 1259 4147 
z
M 628 4666 
L 2241 4666 
Q 2963 4666 3353 4366 
Q 3744 4066 3744 3513 
Q 3744 3084 3544 2831 
Q 3344 2578 2956 2516 
Q 3422 2416 3680 2098 
Q 3938 1781 3938 1306 
Q 3938 681 3513 340 
Q 3088 0 2303 0 
L 628 0 
L 628 4666 
z
" transform="scale(0.015625)"/>
       <path id="DejaVuSans-79" d="M 2059 -325 
Q 1816 -950 1584 -1140 
Q 1353 -1331 966 -1331 
L 506 -1331 
L 506 -850 
L 844 -850 
Q 1081 -850 1212 -737 
Q 1344 -625 1503 -206 
L 1606 56 
L 191 3500 
L 800 3500 
L 1894 763 
L 2988 3500 
L 3597 3500 
L 2059 -325 
z
" transform="scale(0.015625)"/>
       <path id="DejaVuSans-6e" d="M 3513 2113 
L 3513 0 
L 2938 0 
L 2938 2094 
Q 2938 2591 2744 2837 
Q 2550 3084 2163 3084 
Q 1697 3084 1428 2787 
Q 1159 2491 1159 1978 
L 1159 0 
L 581 0 
L 581 3500 
L 1159 3500 
L 1159 2956 
Q 1366 3272 1645 3428 
Q 1925 3584 2291 3584 
Q 2894 3584 3203 3211 
Q 3513 2838 3513 2113 
z
" transform="scale(0.015625)"/>
       <path id="DejaVuSans-4f" d="M 2522 4238 
Q 1834 4238 1429 3725 
Q 1025 3213 1025 2328 
Q 1025 1447 1429 934 
Q 1834 422 2522 422 
Q 3209 422 3611 934 
Q 4013 1447 4013 2328 
Q 4013 3213 3611 3725 
Q 3209 4238 2522 4238 
z
M 2522 4750 
Q 3503 4750 4090 4092 
Q 4678 3434 4678 2328 
Q 4678 1225 4090 567 
Q 3503 -91 2522 -91 
Q 1538 -91 948 565 
Q 359 1222 359 2328 
Q 359 3434 948 4092 
Q 1538 4750 2522 4750 
z
" transform="scale(0.015625)"/>
      </defs>
      <use xlink:href="#DejaVuSans-42"/>
      <use xlink:href="#DejaVuSans-61" x="68.603516"/>
      <use xlink:href="#DejaVuSans-79" x="129.882812"/>
      <use xlink:href="#DejaVuSans-65" x="189.0625"/>
      <use xlink:href="#DejaVuSans-73" x="250.585938"/>
      <use xlink:href="#DejaVuSans-69" x="302.685547"/>
      <use xlink:href="#DejaVuSans-61" x="330.46875"/>
      <use xlink:href="#DejaVuSans-6e" x="391.748047"/>
      <use xlink:href="#DejaVuSans-20" x="455.126953"/>
      <use xlink:href="#DejaVuSans-4f" x="486.914062"/>
      <use xlink:href="#DejaVuSans-70" x="565.625"/>
      <use xlink:href="#DejaVuSans-74" x="629.101562"/>
      <use xlink:href="#DejaVuSans-69" x="668.310547"/>
      <use xlink:href="#DejaVuSans-6d" x="696.09375"/>
      <use xlink:href="#DejaVuSans-69" x="793.505859"/>
      <use xlink:href="#DejaVuSans-7a" x="821.289062"/>
      <use xlink:href="#DejaVuSans-61" x="873.779297"/>
      <use xlink:href="#DejaVuSans-74" x="935.058594"/>
      <use xlink:href="#DejaVuSans-69" x="974.267578"/>
      <use xlink:href="#DejaVuSans-6f" x="1002.050781"/>
      <use xlink:href="#DejaVuSans-6e" x="1063.232422"/>
     </g>
    </g>
    <g id="line2d_23">
     <path d="M 144.259375 31.575781 
L 144.259375 31.575781 
L 144.259375 31.575781 
" style="fill: none; stroke: #ff1493; stroke-width: 1.5; stroke-linecap: square"/>
     <defs>
      <path id="m37dddd8f50" d="M -3.5 3.5 
L 3.5 3.5 
L 3.5 -3.5 
L -3.5 -3.5 
z
" style="stroke: #ff1493; stroke-linejoin: miter"/>
     </defs>
     <g>
      <use xlink:href="#m37dddd8f50" x="144.259375" y="31.575781" style="fill: #ff1493; stroke: #ff1493; stroke-linejoin: miter"/>
     </g>
    </g>
    <g id="text_20">
     <!-- Decaying Bayesian Optimization -->
     <g transform="translate(152.259375 35.075781)scale(0.1 -0.1)">
      <defs>
       <path id="DejaVuSans-44" d="M 1259 4147 
L 1259 519 
L 2022 519 
Q 2988 519 3436 956 
Q 3884 1394 3884 2338 
Q 3884 3275 3436 3711 
Q 2988 4147 2022 4147 
L 1259 4147 
z
M 628 4666 
L 1925 4666 
Q 3281 4666 3915 4102 
Q 4550 3538 4550 2338 
Q 4550 1131 3912 565 
Q 3275 0 1925 0 
L 628 0 
L 628 4666 
z
" transform="scale(0.015625)"/>
       <path id="DejaVuSans-67" d="M 2906 1791 
Q 2906 2416 2648 2759 
Q 2391 3103 1925 3103 
Q 1463 3103 1205 2759 
Q 947 2416 947 1791 
Q 947 1169 1205 825 
Q 1463 481 1925 481 
Q 2391 481 2648 825 
Q 2906 1169 2906 1791 
z
M 3481 434 
Q 3481 -459 3084 -895 
Q 2688 -1331 1869 -1331 
Q 1566 -1331 1297 -1286 
Q 1028 -1241 775 -1147 
L 775 -588 
Q 1028 -725 1275 -790 
Q 1522 -856 1778 -856 
Q 2344 -856 2625 -561 
Q 2906 -266 2906 331 
L 2906 616 
Q 2728 306 2450 153 
Q 2172 0 1784 0 
Q 1141 0 747 490 
Q 353 981 353 1791 
Q 353 2603 747 3093 
Q 1141 3584 1784 3584 
Q 2172 3584 2450 3431 
Q 2728 3278 2906 2969 
L 2906 3500 
L 3481 3500 
L 3481 434 
z
" transform="scale(0.015625)"/>
      </defs>
      <use xlink:href="#DejaVuSans-44"/>
      <use xlink:href="#DejaVuSans-65" x="77.001953"/>
      <use xlink:href="#DejaVuSans-63" x="138.525391"/>
      <use xlink:href="#DejaVuSans-61" x="193.505859"/>
      <use xlink:href="#DejaVuSans-79" x="254.785156"/>
      <use xlink:href="#DejaVuSans-69" x="313.964844"/>
      <use xlink:href="#DejaVuSans-6e" x="341.748047"/>
      <use xlink:href="#DejaVuSans-67" x="405.126953"/>
      <use xlink:href="#DejaVuSans-20" x="468.603516"/>
      <use xlink:href="#DejaVuSans-42" x="500.390625"/>
      <use xlink:href="#DejaVuSans-61" x="568.994141"/>
      <use xlink:href="#DejaVuSans-79" x="630.273438"/>
      <use xlink:href="#DejaVuSans-65" x="689.453125"/>
      <use xlink:href="#DejaVuSans-73" x="750.976562"/>
      <use xlink:href="#DejaVuSans-69" x="803.076172"/>
      <use xlink:href="#DejaVuSans-61" x="830.859375"/>
      <use xlink:href="#DejaVuSans-6e" x="892.138672"/>
      <use xlink:href="#DejaVuSans-20" x="955.517578"/>
      <use xlink:href="#DejaVuSans-4f" x="987.304688"/>
      <use xlink:href="#DejaVuSans-70" x="1066.015625"/>
      <use xlink:href="#DejaVuSans-74" x="1129.492188"/>
      <use xlink:href="#DejaVuSans-69" x="1168.701172"/>
      <use xlink:href="#DejaVuSans-6d" x="1196.484375"/>
      <use xlink:href="#DejaVuSans-69" x="1293.896484"/>
      <use xlink:href="#DejaVuSans-7a" x="1321.679688"/>
      <use xlink:href="#DejaVuSans-61" x="1374.169922"/>
      <use xlink:href="#DejaVuSans-74" x="1435.449219"/>
      <use xlink:href="#DejaVuSans-69" x="1474.658203"/>
      <use xlink:href="#DejaVuSans-6f" x="1502.441406"/>
      <use xlink:href="#DejaVuSans-6e" x="1563.623047"/>
     </g>
    </g>
    <g id="line2d_24">
     <path d="M 144.259375 52.892656 
L 144.259375 52.892656 
L 144.259375 52.892656 
" style="fill: none; stroke: #0091ea; stroke-width: 1.5; stroke-linecap: square"/>
     <defs>
      <path id="m61261c524f" d="M -3.5 3.5 
L 3.5 3.5 
L 3.5 -3.5 
L -3.5 -3.5 
z
" style="stroke: #0091ea; stroke-linejoin: miter"/>
     </defs>
     <g>
      <use xlink:href="#m61261c524f" x="144.259375" y="52.892656" style="fill: #0091ea; stroke: #0091ea; stroke-linejoin: miter"/>
     </g>
    </g>
    <g id="text_21">
     <!-- Covariance Matrix Adaptation -->
     <g transform="translate(152.259375 49.753906)scale(0.1 -0.1)">
      <defs>
       <path id="DejaVuSans-43" d="M 4122 4306 
L 4122 3641 
Q 3803 3938 3442 4084 
Q 3081 4231 2675 4231 
Q 1875 4231 1450 3742 
Q 1025 3253 1025 2328 
Q 1025 1406 1450 917 
Q 1875 428 2675 428 
Q 3081 428 3442 575 
Q 3803 722 4122 1019 
L 4122 359 
Q 3791 134 3420 21 
Q 3050 -91 2638 -91 
Q 1578 -91 968 557 
Q 359 1206 359 2328 
Q 359 3453 968 4101 
Q 1578 4750 2638 4750 
Q 3056 4750 3426 4639 
Q 3797 4528 4122 4306 
z
" transform="scale(0.015625)"/>
       <path id="DejaVuSans-4d" d="M 628 4666 
L 1569 4666 
L 2759 1491 
L 3956 4666 
L 4897 4666 
L 4897 0 
L 4281 0 
L 4281 4097 
L 3078 897 
L 2444 897 
L 1241 4097 
L 1241 0 
L 628 0 
L 628 4666 
z
" transform="scale(0.015625)"/>
       <path id="DejaVuSans-78" d="M 3513 3500 
L 2247 1797 
L 3578 0 
L 2900 0 
L 1881 1375 
L 863 0 
L 184 0 
L 1544 1831 
L 300 3500 
L 978 3500 
L 1906 2253 
L 2834 3500 
L 3513 3500 
z
" transform="scale(0.015625)"/>
       <path id="DejaVuSans-41" d="M 2188 4044 
L 1331 1722 
L 3047 1722 
L 2188 4044 
z
M 1831 4666 
L 2547 4666 
L 4325 0 
L 3669 0 
L 3244 1197 
L 1141 1197 
L 716 0 
L 50 0 
L 1831 4666 
z
" transform="scale(0.015625)"/>
      </defs>
      <use xlink:href="#DejaVuSans-43"/>
      <use xlink:href="#DejaVuSans-6f" x="69.824219"/>
      <use xlink:href="#DejaVuSans-76" x="131.005859"/>
      <use xlink:href="#DejaVuSans-61" x="190.185547"/>
      <use xlink:href="#DejaVuSans-72" x="251.464844"/>
      <use xlink:href="#DejaVuSans-69" x="292.578125"/>
      <use xlink:href="#DejaVuSans-61" x="320.361328"/>
      <use xlink:href="#DejaVuSans-6e" x="381.640625"/>
      <use xlink:href="#DejaVuSans-63" x="445.019531"/>
      <use xlink:href="#DejaVuSans-65" x="500"/>
      <use xlink:href="#DejaVuSans-20" x="561.523438"/>
      <use xlink:href="#DejaVuSans-4d" x="593.310547"/>
      <use xlink:href="#DejaVuSans-61" x="679.589844"/>
      <use xlink:href="#DejaVuSans-74" x="740.869141"/>
      <use xlink:href="#DejaVuSans-72" x="780.078125"/>
      <use xlink:href="#DejaVuSans-69" x="821.191406"/>
      <use xlink:href="#DejaVuSans-78" x="848.974609"/>
      <use xlink:href="#DejaVuSans-20" x="908.154297"/>
      <use xlink:href="#DejaVuSans-41" x="939.941406"/>
      <use xlink:href="#DejaVuSans-64" x="1006.599609"/>
      <use xlink:href="#DejaVuSans-61" x="1070.076172"/>
      <use xlink:href="#DejaVuSans-70" x="1131.355469"/>
      <use xlink:href="#DejaVuSans-74" x="1194.832031"/>
      <use xlink:href="#DejaVuSans-61" x="1234.041016"/>
      <use xlink:href="#DejaVuSans-74" x="1295.320312"/>
      <use xlink:href="#DejaVuSans-69" x="1334.529297"/>
      <use xlink:href="#DejaVuSans-6f" x="1362.3125"/>
      <use xlink:href="#DejaVuSans-6e" x="1423.494141"/>
     </g>
     <!-- Evolutionary Strategy -->
     <g transform="translate(152.259375 60.951719)scale(0.1 -0.1)">
      <defs>
       <path id="DejaVuSans-45" d="M 628 4666 
L 3578 4666 
L 3578 4134 
L 1259 4134 
L 1259 2753 
L 3481 2753 
L 3481 2222 
L 1259 2222 
L 1259 531 
L 3634 531 
L 3634 0 
L 628 0 
L 628 4666 
z
" transform="scale(0.015625)"/>
       <path id="DejaVuSans-53" d="M 3425 4513 
L 3425 3897 
Q 3066 4069 2747 4153 
Q 2428 4238 2131 4238 
Q 1616 4238 1336 4038 
Q 1056 3838 1056 3469 
Q 1056 3159 1242 3001 
Q 1428 2844 1947 2747 
L 2328 2669 
Q 3034 2534 3370 2195 
Q 3706 1856 3706 1288 
Q 3706 609 3251 259 
Q 2797 -91 1919 -91 
Q 1588 -91 1214 -16 
Q 841 59 441 206 
L 441 856 
Q 825 641 1194 531 
Q 1563 422 1919 422 
Q 2459 422 2753 634 
Q 3047 847 3047 1241 
Q 3047 1584 2836 1778 
Q 2625 1972 2144 2069 
L 1759 2144 
Q 1053 2284 737 2584 
Q 422 2884 422 3419 
Q 422 4038 858 4394 
Q 1294 4750 2059 4750 
Q 2388 4750 2728 4690 
Q 3069 4631 3425 4513 
z
" transform="scale(0.015625)"/>
      </defs>
      <use xlink:href="#DejaVuSans-45"/>
      <use xlink:href="#DejaVuSans-76" x="63.183594"/>
      <use xlink:href="#DejaVuSans-6f" x="122.363281"/>
      <use xlink:href="#DejaVuSans-6c" x="183.544922"/>
      <use xlink:href="#DejaVuSans-75" x="211.328125"/>
      <use xlink:href="#DejaVuSans-74" x="274.707031"/>
      <use xlink:href="#DejaVuSans-69" x="313.916016"/>
      <use xlink:href="#DejaVuSans-6f" x="341.699219"/>
      <use xlink:href="#DejaVuSans-6e" x="402.880859"/>
      <use xlink:href="#DejaVuSans-61" x="466.259766"/>
      <use xlink:href="#DejaVuSans-72" x="527.539062"/>
      <use xlink:href="#DejaVuSans-79" x="568.652344"/>
      <use xlink:href="#DejaVuSans-20" x="627.832031"/>
      <use xlink:href="#DejaVuSans-53" x="659.619141"/>
      <use xlink:href="#DejaVuSans-74" x="723.095703"/>
      <use xlink:href="#DejaVuSans-72" x="762.304688"/>
      <use xlink:href="#DejaVuSans-61" x="803.417969"/>
      <use xlink:href="#DejaVuSans-74" x="864.697266"/>
      <use xlink:href="#DejaVuSans-65" x="903.90625"/>
      <use xlink:href="#DejaVuSans-67" x="965.429688"/>
      <use xlink:href="#DejaVuSans-79" x="1028.90625"/>
     </g>
    </g>
    <g id="line2d_25">
     <path d="M 144.259375 72.129844 
L 144.259375 72.129844 
L 144.259375 72.129844 
" style="fill: none; stroke: #00c853; stroke-width: 1.5; stroke-linecap: square"/>
     <defs>
      <path id="m2a70f2f75a" d="M -3.5 3.5 
L 3.5 3.5 
L 3.5 -3.5 
L -3.5 -3.5 
z
" style="stroke: #00c853; stroke-linejoin: miter"/>
     </defs>
     <g>
      <use xlink:href="#m2a70f2f75a" x="144.259375" y="72.129844" style="fill: #00c853; stroke: #00c853; stroke-linejoin: miter"/>
     </g>
    </g>
    <g id="text_22">
     <!-- Cross-Entropy -->
     <g transform="translate(152.259375 75.629844)scale(0.1 -0.1)">
      <defs>
       <path id="DejaVuSans-2d" d="M 313 2009 
L 1997 2009 
L 1997 1497 
L 313 1497 
L 313 2009 
z
" transform="scale(0.015625)"/>
      </defs>
      <use xlink:href="#DejaVuSans-43"/>
      <use xlink:href="#DejaVuSans-72" x="69.824219"/>
      <use xlink:href="#DejaVuSans-6f" x="108.6875"/>
      <use xlink:href="#DejaVuSans-73" x="169.869141"/>
      <use xlink:href="#DejaVuSans-73" x="221.96875"/>
      <use xlink:href="#DejaVuSans-2d" x="274.068359"/>
      <use xlink:href="#DejaVuSans-45" x="310.152344"/>
      <use xlink:href="#DejaVuSans-6e" x="373.335938"/>
      <use xlink:href="#DejaVuSans-74" x="436.714844"/>
      <use xlink:href="#DejaVuSans-72" x="475.923828"/>
      <use xlink:href="#DejaVuSans-6f" x="514.787109"/>
      <use xlink:href="#DejaVuSans-70" x="575.96875"/>
      <use xlink:href="#DejaVuSans-79" x="639.445312"/>
     </g>
    </g>
    <g id="line2d_26">
     <path d="M 144.259375 86.807969 
L 144.259375 86.807969 
L 144.259375 86.807969 
" style="fill: none; stroke: #000000; stroke-width: 1.5; stroke-linecap: square"/>
     <defs>
      <path id="m825863932a" d="M -3.5 3.5 
L 3.5 3.5 
L 3.5 -3.5 
L -3.5 -3.5 
z
" style="stroke: #000000; stroke-linejoin: miter"/>
     </defs>
     <g>
      <use xlink:href="#m825863932a" x="144.259375" y="86.807969" style="stroke: #000000; stroke-linejoin: miter"/>
     </g>
    </g>
    <g id="text_23">
     <!-- Experimental Data -->
     <g transform="translate(152.259375 90.307969)scale(0.1 -0.1)">
      <use xlink:href="#DejaVuSans-45"/>
      <use xlink:href="#DejaVuSans-78" x="63.183594"/>
      <use xlink:href="#DejaVuSans-70" x="122.363281"/>
      <use xlink:href="#DejaVuSans-65" x="185.839844"/>
      <use xlink:href="#DejaVuSans-72" x="247.363281"/>
      <use xlink:href="#DejaVuSans-69" x="288.476562"/>
      <use xlink:href="#DejaVuSans-6d" x="316.259766"/>
      <use xlink:href="#DejaVuSans-65" x="413.671875"/>
      <use xlink:href="#DejaVuSans-6e" x="475.195312"/>
      <use xlink:href="#DejaVuSans-74" x="538.574219"/>
      <use xlink:href="#DejaVuSans-61" x="577.783203"/>
      <use xlink:href="#DejaVuSans-6c" x="639.0625"/>
      <use xlink:href="#DejaVuSans-20" x="666.845703"/>
      <use xlink:href="#DejaVuSans-44" x="698.632812"/>
      <use xlink:href="#DejaVuSans-61" x="775.634766"/>
      <use xlink:href="#DejaVuSans-74" x="836.914062"/>
      <use xlink:href="#DejaVuSans-61" x="876.123047"/>
     </g>
    </g>
   </g>
  </g>
 </g>
 <defs>
  <clipPath id="p8ce35df6f0">
   <rect x="44.960938" y="3.799219" width="279" height="221.76"/>
  </clipPath>
 </defs>
</svg>
