<?xml version="1.0" encoding="utf-8" standalone="no"?>
<!DOCTYPE svg PUBLIC "-//W3C//DTD SVG 1.1//EN"
  "http://www.w3.org/Graphics/SVG/1.1/DTD/svg11.dtd">
<svg xmlns:xlink="http://www.w3.org/1999/xlink" width="333.504687pt" height="255.915469pt" viewBox="0 0 333.504687 255.915469" xmlns="http://www.w3.org/2000/svg" version="1.1">
 <metadata>
  <rdf:RDF xmlns:dc="http://purl.org/dc/elements/1.1/" xmlns:cc="http://creativecommons.org/ns#" xmlns:rdf="http://www.w3.org/1999/02/22-rdf-syntax-ns#">
   <cc:Work>
    <dc:type rdf:resource="http://purl.org/dc/dcmitype/StillImage"/>
    <dc:date>2024-04-10T08:59:33.114331</dc:date>
    <dc:format>image/svg+xml</dc:format>
    <dc:creator>
     <cc:Agent>
      <dc:title>Matplotlib v3.5.3, https://matplotlib.org/</dc:title>
     </cc:Agent>
    </dc:creator>
   </cc:Work>
  </rdf:RDF>
 </metadata>
 <defs>
  <style type="text/css">*{stroke-linejoin: round; stroke-linecap: butt}</style>
 </defs>
 <g id="figure_1">
  <g id="patch_1">
   <path d="M 0 255.915469 
L 333.504687 255.915469 
L 333.504687 0 
L 0 0 
z
" style="fill: #ffffff"/>
  </g>
  <g id="axes_1">
   <g id="patch_2">
    <path d="M 44.960938 225.559219 
L 323.960938 225.559219 
L 323.960938 3.799219 
L 44.960938 3.799219 
z
" style="fill: #ffffff"/>
   </g>
   <g id="PolyCollection_1">
    <defs>
     <path id="m9c94104a65" d="M 44.960938 -225.202712 
L 44.960938 -225.202712 
L 46.510938 -219.296875 
L 48.060938 -207.510885 
L 49.610938 -191.314032 
L 51.160938 -168.998074 
L 52.710938 -164.592527 
L 54.260938 -158.183609 
L 55.810938 -153.459795 
L 57.360938 -151.956191 
L 58.910938 -149.460308 
L 60.460938 -147.453598 
L 62.010938 -145.889816 
L 63.560938 -145.263665 
L 65.110938 -141.22467 
L 66.660938 -133.687536 
L 68.210938 -131.483616 
L 69.760938 -128.332631 
L 71.310938 -126.092737 
L 72.860938 -122.554852 
L 74.410938 -117.901856 
L 75.960938 -110.11826 
L 77.510938 -106.721159 
L 79.060938 -103.326785 
L 80.610938 -102.304881 
L 82.160938 -96.946 
L 83.710938 -91.519924 
L 85.260938 -90.327715 
L 86.810938 -88.322382 
L 88.360938 -87.208686 
L 89.910938 -83.710608 
L 91.460938 -80.556972 
L 93.010938 -75.457281 
L 94.560938 -72.628772 
L 96.110938 -71.826086 
L 97.660938 -71.828367 
L 99.210938 -71.345057 
L 100.760938 -70.418493 
L 102.310938 -70.256636 
L 103.860938 -69.636054 
L 105.410938 -68.827057 
L 106.960938 -67.921944 
L 108.510938 -65.873994 
L 110.060938 -65.08987 
L 111.610938 -64.970079 
L 113.160938 -63.743614 
L 114.710938 -63.47358 
L 116.260938 -62.392517 
L 117.810938 -62.171533 
L 119.360938 -61.865621 
L 120.910938 -61.865621 
L 122.460938 -61.647823 
L 124.010938 -60.799348 
L 125.560938 -60.827065 
L 127.110938 -60.803265 
L 128.660938 -60.803265 
L 130.210938 -60.620754 
L 131.760938 -60.573766 
L 133.310938 -60.421032 
L 134.860938 -60.050291 
L 136.410938 -60.050291 
L 137.960938 -59.661273 
L 139.510938 -59.68677 
L 141.060938 -59.68677 
L 142.610938 -59.68677 
L 144.160938 -59.68677 
L 145.710938 -59.427114 
L 147.260938 -59.427114 
L 148.810938 -58.785082 
L 150.360938 -58.785082 
L 151.910938 -58.699099 
L 153.460938 -58.699099 
L 155.010938 -58.503837 
L 156.560938 -58.336579 
L 158.110938 -58.173947 
L 159.660938 -58.114229 
L 161.210938 -58.084291 
L 162.760938 -58.084291 
L 164.310938 -58.084291 
L 165.860938 -58.084291 
L 167.410938 -58.084291 
L 168.960938 -58.061349 
L 170.510938 -58.061349 
L 172.060938 -58.061349 
L 173.610938 -58.061349 
L 175.160938 -58.061349 
L 176.710938 -58.061349 
L 178.260938 -58.048699 
L 179.810937 -57.98269 
L 181.360938 -57.98269 
L 182.910938 -57.98269 
L 184.460938 -57.983536 
L 186.010938 -57.956273 
L 187.560937 -57.2413 
L 189.110938 -57.2413 
L 190.660938 -57.129073 
L 192.210938 -57.129073 
L 193.760938 -57.129073 
L 195.310937 -57.129073 
L 196.860938 -57.129073 
L 198.410938 -57.129073 
L 199.960938 -57.102075 
L 201.510938 -57.102075 
L 203.060937 -57.102075 
L 204.610938 -57.102075 
L 206.160938 -57.102075 
L 207.710938 -57.102075 
L 209.260938 -57.061768 
L 210.810937 -57.061768 
L 212.360938 -57.061768 
L 213.910938 -57.061768 
L 215.460938 -57.061768 
L 217.010938 -57.061768 
L 218.560937 -57.061768 
L 220.110938 -57.044702 
L 221.660938 -57.044702 
L 223.210938 -57.044702 
L 224.760938 -56.943734 
L 226.310937 -56.943734 
L 227.860938 -56.943734 
L 229.410938 -56.943734 
L 230.960938 -56.943734 
L 232.510938 -56.767608 
L 234.060937 -56.767608 
L 235.610938 -56.767608 
L 237.160938 -56.767608 
L 238.710938 -56.767608 
L 240.260938 -56.767608 
L 241.810937 -56.767608 
L 243.360938 -56.767608 
L 244.910938 -56.275686 
L 246.460938 -56.275686 
L 248.010938 -56.275686 
L 249.560937 -56.275686 
L 251.110938 -56.275686 
L 252.660938 -55.833663 
L 254.210938 -55.833663 
L 255.760938 -55.779697 
L 257.310938 -55.779697 
L 258.860938 -55.779697 
L 260.410938 -55.626146 
L 261.960938 -55.626146 
L 263.510938 -55.626146 
L 265.060938 -55.626146 
L 266.610938 -55.626146 
L 268.160938 -55.6175 
L 269.710938 -55.6175 
L 271.260938 -55.6175 
L 272.810938 -55.6175 
L 274.360938 -55.6175 
L 275.910938 -55.6175 
L 277.460938 -55.6175 
L 279.010938 -55.6175 
L 280.560938 -55.6175 
L 282.110938 -55.6175 
L 283.660938 -55.591387 
L 285.210938 -55.338679 
L 286.760938 -55.338679 
L 288.310938 -55.338679 
L 289.860938 -55.338679 
L 291.410938 -55.280995 
L 292.960938 -55.280995 
L 294.510938 -55.280995 
L 296.060938 -55.280995 
L 297.610938 -55.279152 
L 299.160938 -55.279152 
L 300.710938 -55.279152 
L 302.260938 -55.279152 
L 303.810938 -55.279152 
L 305.360938 -55.279152 
L 306.910937 -55.279152 
L 308.460938 -55.251205 
L 310.010938 -55.251205 
L 311.560938 -55.251205 
L 313.110938 -55.212604 
L 314.660937 -55.212604 
L 316.210938 -55.212604 
L 317.760938 -55.188623 
L 319.310938 -55.188623 
L 320.860938 -55.176279 
L 320.860938 -51.416711 
L 320.860938 -51.416711 
L 319.310938 -51.428809 
L 317.760938 -51.428809 
L 316.210938 -51.429927 
L 314.660937 -51.429927 
L 313.110938 -51.429927 
L 311.560938 -51.482861 
L 310.010938 -51.482861 
L 308.460938 -51.482861 
L 306.910937 -51.561302 
L 305.360938 -51.561302 
L 303.810938 -51.561302 
L 302.260938 -51.561302 
L 300.710938 -51.561302 
L 299.160938 -51.561302 
L 297.610938 -51.561302 
L 296.060938 -51.563449 
L 294.510938 -51.563449 
L 292.960938 -51.563449 
L 291.410938 -51.563449 
L 289.860938 -51.939218 
L 288.310938 -51.939218 
L 286.760938 -51.939218 
L 285.210938 -51.939218 
L 283.660938 -51.866014 
L 282.110938 -51.921689 
L 280.560938 -51.921689 
L 279.010938 -51.921689 
L 277.460938 -51.921689 
L 275.910938 -51.921689 
L 274.360938 -51.921689 
L 272.810938 -51.921689 
L 271.260938 -51.921689 
L 269.710938 -51.921689 
L 268.160938 -51.921689 
L 266.610938 -51.993907 
L 265.060938 -51.993907 
L 263.510938 -51.993907 
L 261.960938 -51.993907 
L 260.410938 -51.993907 
L 258.860938 -52.076082 
L 257.310938 -52.076082 
L 255.760938 -52.076082 
L 254.210938 -52.078666 
L 252.660938 -52.078666 
L 251.110938 -51.97173 
L 249.560937 -51.97173 
L 248.010938 -51.97173 
L 246.460938 -51.97173 
L 244.910938 -51.97173 
L 243.360938 -52.39818 
L 241.810937 -52.39818 
L 240.260938 -52.39818 
L 238.710938 -52.39818 
L 237.160938 -52.39818 
L 235.610938 -52.39818 
L 234.060937 -52.39818 
L 232.510938 -52.39818 
L 230.960938 -52.584318 
L 229.410938 -52.584318 
L 227.860938 -52.584318 
L 226.310937 -52.584318 
L 224.760938 -52.584318 
L 223.210938 -52.593841 
L 221.660938 -52.593841 
L 220.110938 -52.593841 
L 218.560937 -52.588898 
L 217.010938 -52.588898 
L 215.460938 -52.588898 
L 213.910938 -52.588898 
L 212.360938 -52.588898 
L 210.810937 -52.588898 
L 209.260938 -52.588898 
L 207.710938 -52.591586 
L 206.160938 -52.591586 
L 204.610938 -52.591586 
L 203.060937 -52.591586 
L 201.510938 -52.591586 
L 199.960938 -52.591586 
L 198.410938 -52.606189 
L 196.860938 -52.606189 
L 195.310937 -52.606189 
L 193.760938 -52.606189 
L 192.210938 -52.606189 
L 190.660938 -52.606189 
L 189.110938 -52.793229 
L 187.560937 -52.793229 
L 186.010938 -52.834838 
L 184.460938 -52.836594 
L 182.910938 -52.840215 
L 181.360938 -52.840215 
L 179.810937 -52.840215 
L 178.260938 -52.852949 
L 176.710938 -52.850227 
L 175.160938 -52.850227 
L 173.610938 -52.850227 
L 172.060938 -52.850227 
L 170.510938 -52.850227 
L 168.960938 -52.850227 
L 167.410938 -52.843701 
L 165.860938 -52.843701 
L 164.310938 -52.843701 
L 162.760938 -52.843701 
L 161.210938 -52.843701 
L 159.660938 -52.856706 
L 158.110938 -52.928577 
L 156.560938 -53.020272 
L 155.010938 -53.228324 
L 153.460938 -53.24469 
L 151.910938 -53.24469 
L 150.360938 -53.230194 
L 148.810938 -53.230194 
L 147.260938 -53.053336 
L 145.710938 -53.053336 
L 144.160938 -53.207977 
L 142.610938 -53.207977 
L 141.060938 -53.207977 
L 139.510938 -53.207977 
L 137.960938 -53.520006 
L 136.410938 -53.848191 
L 134.860938 -53.848191 
L 133.310938 -54.065667 
L 131.760938 -54.070416 
L 130.210938 -54.29097 
L 128.660938 -54.46159 
L 127.110938 -54.46159 
L 125.560938 -54.464113 
L 124.010938 -55.279953 
L 122.460938 -55.600833 
L 120.910938 -55.59094 
L 119.360938 -55.59094 
L 117.810938 -55.701687 
L 116.260938 -55.99395 
L 114.710938 -56.281939 
L 113.160938 -56.301159 
L 111.610938 -56.513679 
L 110.060938 -56.833662 
L 108.510938 -57.208756 
L 106.960938 -57.348445 
L 105.410938 -61.279738 
L 103.860938 -61.368953 
L 102.310938 -61.551273 
L 100.760938 -61.999381 
L 99.210938 -63.751791 
L 97.660938 -63.867592 
L 96.110938 -63.93685 
L 94.560938 -64.121983 
L 93.010938 -63.586555 
L 91.460938 -63.156326 
L 89.910938 -63.571416 
L 88.360938 -64.114021 
L 86.810938 -65.092908 
L 85.260938 -67.38846 
L 83.710938 -68.743918 
L 82.160938 -72.178688 
L 80.610938 -73.335157 
L 79.060938 -73.745805 
L 77.510938 -73.461008 
L 75.960938 -75.296427 
L 74.410938 -78.772953 
L 72.860938 -83.24921 
L 71.310938 -83.693937 
L 69.760938 -85.597564 
L 68.210938 -86.317606 
L 66.660938 -94.491225 
L 65.110938 -96.844297 
L 63.560938 -109.583687 
L 62.010938 -116.049183 
L 60.460938 -119.379407 
L 58.910938 -124.655079 
L 57.360938 -129.408153 
L 55.810938 -131.621958 
L 54.260938 -134.022981 
L 52.710938 -138.729546 
L 51.160938 -140.925958 
L 49.610938 -144.909226 
L 48.060938 -155.215684 
L 46.510938 -167.908005 
L 44.960938 -225.202712 
z
" style="stroke: #bf32e7; stroke-opacity: 0.2"/>
    </defs>
    <g clip-path="url(#pa2861678d6)">
     <use xlink:href="#m9c94104a65" x="0" y="255.915469" style="fill: #bf32e7; fill-opacity: 0.2; stroke: #bf32e7; stroke-opacity: 0.2"/>
    </g>
   </g>
   <g id="PolyCollection_2">
    <defs>
     <path id="m6a9f1d9936" d="M 44.960938 -225.202712 
L 44.960938 -225.202712 
L 46.510938 -221.93794 
L 48.060938 -208.512742 
L 49.610938 -204.418665 
L 51.160938 -198.183101 
L 52.710938 -193.459171 
L 54.260938 -188.375189 
L 55.810938 -185.688462 
L 57.360938 -181.706212 
L 58.910938 -167.195192 
L 60.460938 -161.997194 
L 62.010938 -156.955489 
L 63.560938 -156.030726 
L 65.110938 -147.956764 
L 66.660938 -141.847356 
L 68.210938 -138.620599 
L 69.760938 -137.087408 
L 71.310938 -133.338692 
L 72.860938 -128.236777 
L 74.410938 -120.136012 
L 75.960938 -114.165955 
L 77.510938 -111.876992 
L 79.060938 -106.362007 
L 80.610938 -102.496808 
L 82.160938 -99.648058 
L 83.710938 -95.467313 
L 85.260938 -93.501647 
L 86.810938 -90.737435 
L 88.360938 -89.847756 
L 89.910938 -87.248611 
L 91.460938 -86.079041 
L 93.010938 -85.315399 
L 94.560938 -77.357438 
L 96.110938 -74.636603 
L 97.660938 -70.136746 
L 99.210938 -69.740425 
L 100.760938 -69.350152 
L 102.310938 -69.009034 
L 103.860938 -68.255838 
L 105.410938 -68.255838 
L 106.960938 -66.726291 
L 108.510938 -66.279156 
L 110.060938 -66.001114 
L 111.610938 -65.72053 
L 113.160938 -65.72053 
L 114.710938 -65.712015 
L 116.260938 -65.266212 
L 117.810938 -65.143595 
L 119.360938 -65.007396 
L 120.910938 -64.773605 
L 122.460938 -64.773605 
L 124.010938 -64.526526 
L 125.560938 -64.008651 
L 127.110938 -64.008651 
L 128.660938 -63.896245 
L 130.210938 -63.739896 
L 131.760938 -63.527331 
L 133.310938 -62.113563 
L 134.860938 -62.09717 
L 136.410938 -61.52886 
L 137.960938 -60.81607 
L 139.510938 -59.695672 
L 141.060938 -59.543805 
L 142.610938 -59.050066 
L 144.160938 -58.904841 
L 145.710938 -58.46326 
L 147.260938 -58.46326 
L 148.810938 -58.46326 
L 150.360938 -58.46326 
L 151.910938 -58.46326 
L 153.460938 -58.46326 
L 155.010938 -58.46326 
L 156.560938 -58.207505 
L 158.110938 -58.207505 
L 159.660938 -58.128002 
L 161.210938 -58.128002 
L 162.760938 -58.128002 
L 164.310938 -58.128002 
L 165.860938 -58.128002 
L 167.410938 -58.126601 
L 168.960938 -58.126601 
L 170.510938 -58.126601 
L 172.060938 -58.002324 
L 173.610938 -58.002324 
L 175.160938 -58.002324 
L 176.710938 -58.002324 
L 178.260938 -58.002324 
L 179.810937 -58.002324 
L 181.360938 -58.002324 
L 182.910938 -57.951847 
L 184.460938 -57.951847 
L 186.010938 -57.951847 
L 187.560937 -57.813725 
L 189.110938 -57.813725 
L 190.660938 -57.676425 
L 192.210938 -57.676425 
L 193.760938 -57.676425 
L 195.310937 -57.676425 
L 196.860938 -57.676425 
L 198.410938 -57.676425 
L 199.960938 -57.313529 
L 201.510938 -57.299412 
L 203.060937 -57.299412 
L 204.610938 -57.299412 
L 206.160938 -57.299412 
L 207.710938 -57.299412 
L 209.260938 -57.299412 
L 210.810937 -57.239704 
L 212.360938 -57.239704 
L 213.910938 -57.239704 
L 215.460938 -57.239704 
L 217.010938 -57.239704 
L 218.560937 -57.128337 
L 220.110938 -57.128337 
L 221.660938 -57.128337 
L 223.210938 -57.128337 
L 224.760938 -57.127742 
L 226.310937 -57.127742 
L 227.860938 -57.127742 
L 229.410938 -57.127742 
L 230.960938 -57.127742 
L 232.510938 -57.037652 
L 234.060937 -57.037652 
L 235.610938 -57.037652 
L 237.160938 -57.037652 
L 238.710938 -57.037652 
L 240.260938 -57.037652 
L 241.810937 -57.037652 
L 243.360938 -57.037652 
L 244.910938 -57.037652 
L 246.460938 -57.037652 
L 248.010938 -57.037652 
L 249.560937 -57.037652 
L 251.110938 -56.961966 
L 252.660938 -56.961966 
L 254.210938 -56.961966 
L 255.760938 -56.961966 
L 257.310938 -56.961966 
L 258.860938 -56.961966 
L 260.410938 -56.961966 
L 261.960938 -56.928419 
L 263.510938 -56.928419 
L 265.060938 -56.928419 
L 266.610938 -56.928419 
L 268.160938 -56.866743 
L 269.710938 -56.832642 
L 271.260938 -56.832642 
L 272.810938 -56.832642 
L 274.360938 -56.832642 
L 275.910938 -56.832642 
L 277.460938 -56.832642 
L 279.010938 -56.832642 
L 280.560938 -56.723772 
L 282.110938 -56.722392 
L 283.660938 -56.722392 
L 285.210938 -56.532501 
L 286.760938 -56.532501 
L 288.310938 -56.532501 
L 289.860938 -56.532501 
L 291.410938 -54.935238 
L 292.960938 -54.935238 
L 294.510938 -54.935238 
L 296.060938 -54.935238 
L 297.610938 -54.896616 
L 299.160938 -54.896616 
L 300.710938 -54.896616 
L 302.260938 -54.896616 
L 303.810938 -54.894442 
L 305.360938 -54.894442 
L 306.910937 -54.894442 
L 308.460938 -54.836164 
L 310.010938 -54.836164 
L 311.560938 -54.836164 
L 313.110938 -54.829084 
L 314.660937 -54.829084 
L 316.210938 -54.737764 
L 317.760938 -54.737764 
L 319.310938 -54.737764 
L 320.860938 -54.737764 
L 320.860938 -47.517422 
L 320.860938 -47.517422 
L 319.310938 -47.517422 
L 317.760938 -47.517422 
L 316.210938 -47.517422 
L 314.660937 -47.601313 
L 313.110938 -47.601313 
L 311.560938 -47.606996 
L 310.010938 -47.606996 
L 308.460938 -47.606996 
L 306.910937 -47.682027 
L 305.360938 -47.682027 
L 303.810938 -47.682027 
L 302.260938 -47.681861 
L 300.710938 -47.681861 
L 299.160938 -47.681861 
L 297.610938 -47.681861 
L 296.060938 -47.680234 
L 294.510938 -47.680234 
L 292.960938 -47.680234 
L 291.410938 -47.680234 
L 289.860938 -48.633186 
L 288.310938 -48.633186 
L 286.760938 -48.633186 
L 285.210938 -48.633186 
L 283.660938 -48.579042 
L 282.110938 -48.579042 
L 280.560938 -48.580902 
L 279.010938 -48.765453 
L 277.460938 -48.765453 
L 275.910938 -48.765453 
L 274.360938 -48.765453 
L 272.810938 -48.765453 
L 271.260938 -48.765453 
L 269.710938 -48.765453 
L 268.160938 -48.780928 
L 266.610938 -48.794815 
L 265.060938 -48.794815 
L 263.510938 -48.794815 
L 261.960938 -48.794815 
L 260.410938 -48.843972 
L 258.860938 -48.843972 
L 257.310938 -48.843972 
L 255.760938 -48.843972 
L 254.210938 -48.843972 
L 252.660938 -48.843972 
L 251.110938 -48.843972 
L 249.560937 -48.836355 
L 248.010938 -48.836355 
L 246.460938 -48.836355 
L 244.910938 -48.836355 
L 243.360938 -48.836355 
L 241.810937 -48.836355 
L 240.260938 -48.836355 
L 238.710938 -48.836355 
L 237.160938 -48.836355 
L 235.610938 -48.836355 
L 234.060937 -48.836355 
L 232.510938 -48.836355 
L 230.960938 -48.943551 
L 229.410938 -48.943551 
L 227.860938 -48.943551 
L 226.310937 -48.943551 
L 224.760938 -48.943551 
L 223.210938 -48.943678 
L 221.660938 -48.943678 
L 220.110938 -48.943678 
L 218.560937 -48.943678 
L 217.010938 -48.902833 
L 215.460938 -48.902833 
L 213.910938 -48.902833 
L 212.360938 -48.902833 
L 210.810937 -48.902833 
L 209.260938 -48.975528 
L 207.710938 -48.975528 
L 206.160938 -48.975528 
L 204.610938 -48.975528 
L 203.060937 -48.975528 
L 201.510938 -48.975528 
L 199.960938 -48.9725 
L 198.410938 -49.364674 
L 196.860938 -49.364674 
L 195.310937 -49.364674 
L 193.760938 -49.364674 
L 192.210938 -49.364674 
L 190.660938 -49.364674 
L 189.110938 -49.41128 
L 187.560937 -49.41128 
L 186.010938 -49.529564 
L 184.460938 -49.529564 
L 182.910938 -49.529564 
L 181.360938 -49.615603 
L 179.810937 -49.615603 
L 178.260938 -49.615603 
L 176.710938 -49.615603 
L 175.160938 -49.615603 
L 173.610938 -49.615603 
L 172.060938 -49.615603 
L 170.510938 -49.640533 
L 168.960938 -49.640533 
L 167.410938 -49.640533 
L 165.860938 -49.640392 
L 164.310938 -49.640392 
L 162.760938 -49.640392 
L 161.210938 -49.640392 
L 159.660938 -49.640392 
L 158.110938 -49.670627 
L 156.560938 -49.670627 
L 155.010938 -49.803026 
L 153.460938 -49.803026 
L 151.910938 -49.803026 
L 150.360938 -49.803026 
L 148.810938 -49.803026 
L 147.260938 -49.803026 
L 145.710938 -49.803026 
L 144.160938 -49.74629 
L 142.610938 -49.683311 
L 141.060938 -49.468084 
L 139.510938 -49.401591 
L 137.960938 -49.106803 
L 136.410938 -48.790073 
L 134.860938 -48.536864 
L 133.310938 -48.553732 
L 131.760938 -48.355335 
L 130.210938 -48.444633 
L 128.660938 -48.495567 
L 127.110938 -48.523803 
L 125.560938 -48.523803 
L 124.010938 -48.543848 
L 122.460938 -48.690103 
L 120.910938 -48.690103 
L 119.360938 -48.592007 
L 117.810938 -48.676732 
L 116.260938 -48.625617 
L 114.710938 -48.662949 
L 113.160938 -48.664271 
L 111.610938 -48.664271 
L 110.060938 -48.886323 
L 108.510938 -48.923307 
L 106.960938 -48.91876 
L 105.410938 -51.052197 
L 103.860938 -51.052197 
L 102.310938 -51.472886 
L 100.760938 -51.366437 
L 99.210938 -51.494789 
L 97.660938 -51.500728 
L 96.110938 -50.759029 
L 94.560938 -51.176617 
L 93.010938 -47.914643 
L 91.460938 -48.7461 
L 89.910938 -48.417843 
L 88.360938 -48.396592 
L 86.810938 -48.306204 
L 85.260938 -49.163331 
L 83.710938 -49.957371 
L 82.160938 -53.208881 
L 80.610938 -54.417754 
L 79.060938 -54.39836 
L 77.510938 -57.581222 
L 75.960938 -61.517535 
L 74.410938 -65.190472 
L 72.860938 -70.336547 
L 71.310938 -76.503552 
L 69.760938 -92.09928 
L 68.210938 -99.127912 
L 66.660938 -101.061992 
L 65.110938 -108.168753 
L 63.560938 -113.831064 
L 62.010938 -117.202449 
L 60.460938 -121.968942 
L 58.910938 -124.314392 
L 57.360938 -125.911437 
L 55.810938 -126.648936 
L 54.260938 -131.110181 
L 52.710938 -133.114292 
L 51.160938 -150.572037 
L 49.610938 -154.207379 
L 48.060938 -160.985213 
L 46.510938 -175.685872 
L 44.960938 -225.202712 
z
" style="stroke: #ff1493; stroke-opacity: 0.2"/>
    </defs>
    <g clip-path="url(#pa2861678d6)">
     <use xlink:href="#m6a9f1d9936" x="0" y="255.915469" style="fill: #ff1493; fill-opacity: 0.2; stroke: #ff1493; stroke-opacity: 0.2"/>
    </g>
   </g>
   <g id="PolyCollection_3">
    <defs>
     <path id="m69f5316425" d="M 44.960938 -225.202712 
L 44.960938 -225.202712 
L 46.510938 -225.443596 
L 48.060938 -213.161017 
L 49.610938 -205.656176 
L 51.160938 -192.645702 
L 52.710938 -190.406008 
L 54.260938 -183.888082 
L 55.810938 -179.243721 
L 57.360938 -177.251508 
L 58.910938 -175.622428 
L 60.460938 -173.854114 
L 62.010938 -172.720327 
L 63.560938 -171.457573 
L 65.110938 -170.690522 
L 66.660938 -163.115591 
L 68.210938 -162.410516 
L 69.760938 -161.325976 
L 71.310938 -160.68369 
L 72.860938 -160.04393 
L 74.410938 -156.631839 
L 75.960938 -155.148799 
L 77.510938 -151.279939 
L 79.060938 -148.935053 
L 80.610938 -148.458639 
L 82.160938 -144.181754 
L 83.710938 -142.999123 
L 85.260938 -142.025175 
L 86.810938 -141.503891 
L 88.360938 -141.269384 
L 89.910938 -139.301718 
L 91.460938 -138.897861 
L 93.010938 -138.236387 
L 94.560938 -137.560004 
L 96.110938 -137.652121 
L 97.660938 -136.84121 
L 99.210938 -135.859731 
L 100.760938 -133.456959 
L 102.310938 -130.914228 
L 103.860938 -130.914228 
L 105.410938 -130.531272 
L 106.960938 -129.20493 
L 108.510938 -128.717299 
L 110.060938 -128.132184 
L 111.610938 -126.944417 
L 113.160938 -125.3071 
L 114.710938 -124.849095 
L 116.260938 -123.360865 
L 117.810938 -121.327754 
L 119.360938 -117.368044 
L 120.910938 -117.256497 
L 122.460938 -116.264278 
L 124.010938 -116.264278 
L 125.560938 -116.202279 
L 127.110938 -116.143751 
L 128.660938 -114.980686 
L 130.210938 -114.886825 
L 131.760938 -114.619144 
L 133.310938 -114.619144 
L 134.860938 -113.572771 
L 136.410938 -112.777683 
L 137.960938 -112.735807 
L 139.510938 -112.721168 
L 141.060938 -111.880896 
L 142.610938 -111.808412 
L 144.160938 -110.717309 
L 145.710938 -110.148389 
L 147.260938 -109.378164 
L 148.810938 -108.589233 
L 150.360938 -108.084435 
L 151.910938 -107.886568 
L 153.460938 -107.588408 
L 155.010938 -106.802508 
L 156.560938 -105.082275 
L 158.110938 -104.624111 
L 159.660938 -103.499305 
L 161.210938 -102.876957 
L 162.760938 -101.231436 
L 164.310938 -101.132919 
L 165.860938 -100.614531 
L 167.410938 -100.662409 
L 168.960938 -99.837719 
L 170.510938 -99.567437 
L 172.060938 -99.144512 
L 173.610938 -98.821949 
L 175.160938 -97.992785 
L 176.710938 -97.873421 
L 178.260938 -94.437548 
L 179.810937 -94.334428 
L 181.360938 -94.334428 
L 182.910938 -93.683082 
L 184.460938 -93.630543 
L 186.010938 -91.51227 
L 187.560937 -91.118592 
L 189.110938 -91.118592 
L 190.660938 -90.608647 
L 192.210938 -89.466379 
L 193.760938 -89.466379 
L 195.310937 -89.377397 
L 196.860938 -89.196566 
L 198.410938 -87.184141 
L 199.960938 -87.184141 
L 201.510938 -86.509679 
L 203.060937 -85.166926 
L 204.610938 -85.146984 
L 206.160938 -84.890949 
L 207.710938 -84.661906 
L 209.260938 -84.110099 
L 210.810937 -84.023759 
L 212.360938 -84.023759 
L 213.910938 -84.00787 
L 215.460938 -83.946366 
L 217.010938 -83.946366 
L 218.560937 -82.552975 
L 220.110938 -81.900544 
L 221.660938 -81.900544 
L 223.210938 -81.900544 
L 224.760938 -80.197174 
L 226.310937 -80.145441 
L 227.860938 -80.055005 
L 229.410938 -80.055005 
L 230.960938 -79.928768 
L 232.510938 -79.632404 
L 234.060937 -79.478873 
L 235.610938 -79.241011 
L 237.160938 -79.264775 
L 238.710938 -78.814965 
L 240.260938 -78.679933 
L 241.810937 -78.679933 
L 243.360938 -78.402573 
L 244.910938 -78.136917 
L 246.460938 -77.713777 
L 248.010938 -77.304986 
L 249.560937 -75.799411 
L 251.110938 -75.805399 
L 252.660938 -75.721325 
L 254.210938 -75.583145 
L 255.760938 -74.92216 
L 257.310938 -74.850889 
L 258.860938 -74.246248 
L 260.410938 -74.173229 
L 261.960938 -74.2638 
L 263.510938 -73.773425 
L 265.060938 -73.773425 
L 266.610938 -73.732081 
L 268.160938 -72.991786 
L 269.710938 -72.820065 
L 271.260938 -72.805948 
L 272.810938 -72.035604 
L 274.360938 -71.997955 
L 275.910938 -71.997955 
L 277.460938 -71.525005 
L 279.010938 -71.36741 
L 280.560938 -71.307702 
L 282.110938 -71.230577 
L 283.660938 -71.13271 
L 285.210938 -70.954049 
L 286.760938 -70.954049 
L 288.310938 -70.954049 
L 289.860938 -70.407256 
L 291.410938 -69.746124 
L 292.960938 -69.617675 
L 294.510938 -69.617675 
L 296.060938 -69.512731 
L 297.610938 -69.354465 
L 299.160938 -69.187171 
L 300.710938 -69.187171 
L 302.260938 -69.187171 
L 303.810938 -69.101963 
L 305.360938 -68.437246 
L 306.910937 -68.328132 
L 308.460938 -68.26807 
L 310.010938 -68.221223 
L 311.560938 -68.221223 
L 313.110938 -67.878721 
L 314.660937 -67.878721 
L 316.210938 -67.762841 
L 317.760938 -67.627467 
L 319.310938 -67.573683 
L 320.860938 -67.266912 
L 320.860938 -52.230493 
L 320.860938 -52.230493 
L 319.310938 -52.095236 
L 317.760938 -52.134037 
L 316.210938 -52.303951 
L 314.660937 -52.353346 
L 313.110938 -52.353346 
L 311.560938 -52.501653 
L 310.010938 -52.501653 
L 308.460938 -52.507616 
L 306.910937 -52.784276 
L 305.360938 -52.866367 
L 303.810938 -52.650837 
L 302.260938 -52.731536 
L 300.710938 -52.731536 
L 299.160938 -52.731536 
L 297.610938 -52.723277 
L 296.060938 -52.764956 
L 294.510938 -52.92499 
L 292.960938 -52.92499 
L 291.410938 -52.968102 
L 289.860938 -54.848742 
L 288.310938 -54.903822 
L 286.760938 -54.903822 
L 285.210938 -54.903822 
L 283.660938 -55.260906 
L 282.110938 -55.328885 
L 280.560938 -55.468726 
L 279.010938 -55.469114 
L 277.460938 -55.667556 
L 275.910938 -55.614568 
L 274.360938 -55.614568 
L 272.810938 -55.649233 
L 271.260938 -55.609341 
L 269.710938 -55.83788 
L 268.160938 -55.92638 
L 266.610938 -57.32655 
L 265.060938 -57.356586 
L 263.510938 -57.356586 
L 261.960938 -57.519656 
L 260.410938 -58.173823 
L 258.860938 -58.241707 
L 257.310938 -58.377712 
L 255.760938 -58.388068 
L 254.210938 -58.464719 
L 252.660938 -58.501519 
L 251.110938 -58.743612 
L 249.560937 -59.420811 
L 248.010938 -59.396653 
L 246.460938 -59.36553 
L 244.910938 -59.400149 
L 243.360938 -59.452576 
L 241.810937 -59.802024 
L 240.260938 -59.802024 
L 238.710938 -60.15748 
L 237.160938 -60.610859 
L 235.610938 -60.888083 
L 234.060937 -61.06973 
L 232.510938 -61.111678 
L 230.960938 -62.468035 
L 229.410938 -62.91893 
L 227.860938 -62.91893 
L 226.310937 -63.421497 
L 224.760938 -63.436694 
L 223.210938 -62.905025 
L 221.660938 -62.905025 
L 220.110938 -62.905025 
L 218.560937 -63.893554 
L 217.010938 -63.765109 
L 215.460938 -63.765109 
L 213.910938 -63.890771 
L 212.360938 -63.940307 
L 210.810937 -63.940307 
L 209.260938 -64.143259 
L 207.710938 -64.26087 
L 206.160938 -64.643042 
L 204.610938 -64.627138 
L 203.060937 -64.721537 
L 201.510938 -64.217548 
L 199.960938 -65.12901 
L 198.410938 -65.12901 
L 196.860938 -65.647519 
L 195.310937 -65.80789 
L 193.760938 -65.835596 
L 192.210938 -65.835596 
L 190.660938 -66.546906 
L 189.110938 -66.71117 
L 187.560937 -66.71117 
L 186.010938 -66.753613 
L 184.460938 -68.694608 
L 182.910938 -69.174393 
L 181.360938 -70.207641 
L 179.810937 -70.207641 
L 178.260938 -70.722684 
L 176.710938 -70.240122 
L 175.160938 -70.488679 
L 173.610938 -70.831348 
L 172.060938 -71.155365 
L 170.510938 -71.238211 
L 168.960938 -71.568744 
L 167.410938 -71.698149 
L 165.860938 -73.57314 
L 164.310938 -73.601309 
L 162.760938 -73.659114 
L 161.210938 -73.490852 
L 159.660938 -74.453231 
L 158.110938 -74.64043 
L 156.560938 -75.682553 
L 155.010938 -75.821156 
L 153.460938 -75.541502 
L 151.910938 -75.857334 
L 150.360938 -75.827918 
L 148.810938 -77.212635 
L 147.260938 -77.555578 
L 145.710938 -77.872618 
L 144.160938 -79.182865 
L 142.610938 -79.721482 
L 141.060938 -79.757319 
L 139.510938 -79.734492 
L 137.960938 -79.776598 
L 136.410938 -82.878106 
L 134.860938 -84.487502 
L 133.310938 -85.159145 
L 131.760938 -85.159145 
L 130.210938 -85.176925 
L 128.660938 -85.3858 
L 127.110938 -86.911179 
L 125.560938 -86.955455 
L 124.010938 -87.115446 
L 122.460938 -87.115446 
L 120.910938 -87.02734 
L 119.360938 -87.165441 
L 117.810938 -88.437857 
L 116.260938 -88.146629 
L 114.710938 -88.650037 
L 113.160938 -89.207844 
L 111.610938 -88.683667 
L 110.060938 -89.283387 
L 108.510938 -89.298881 
L 106.960938 -89.78621 
L 105.410938 -91.322115 
L 103.860938 -91.667809 
L 102.310938 -91.667809 
L 100.760938 -92.178954 
L 99.210938 -93.895621 
L 97.660938 -95.254826 
L 96.110938 -95.870743 
L 94.560938 -97.032911 
L 93.010938 -97.768641 
L 91.460938 -97.728325 
L 89.910938 -97.691816 
L 88.360938 -97.64041 
L 86.810938 -99.682169 
L 85.260938 -100.433392 
L 83.710938 -100.630392 
L 82.160938 -104.543904 
L 80.610938 -104.16446 
L 79.060938 -104.934186 
L 77.510938 -106.167089 
L 75.960938 -107.564922 
L 74.410938 -109.078072 
L 72.860938 -111.000099 
L 71.310938 -115.171665 
L 69.760938 -120.846072 
L 68.210938 -121.800171 
L 66.660938 -122.364863 
L 65.110938 -126.463267 
L 63.560938 -126.491633 
L 62.010938 -130.576551 
L 60.460938 -131.773559 
L 58.910938 -134.128756 
L 57.360938 -137.028662 
L 55.810938 -141.521714 
L 54.260938 -143.570157 
L 52.710938 -147.556169 
L 51.160938 -150.811158 
L 49.610938 -155.817406 
L 48.060938 -160.795206 
L 46.510938 -183.71499 
L 44.960938 -225.202712 
z
" style="stroke: #0091ea; stroke-opacity: 0.2"/>
    </defs>
    <g clip-path="url(#pa2861678d6)">
     <use xlink:href="#m69f5316425" x="0" y="255.915469" style="fill: #0091ea; fill-opacity: 0.2; stroke: #0091ea; stroke-opacity: 0.2"/>
    </g>
   </g>
   <g id="PolyCollection_4">
    <defs>
     <path id="m150dffae74" d="M 44.960938 -225.202712 
L 44.960938 -225.202712 
L 46.510938 -224.994888 
L 48.060938 -213.491852 
L 49.610938 -208.735425 
L 51.160938 -203.136037 
L 52.710938 -192.08464 
L 54.260938 -182.135378 
L 55.810938 -179.970376 
L 57.360938 -179.332865 
L 58.910938 -174.484555 
L 60.460938 -171.245878 
L 62.010938 -166.622035 
L 63.560938 -165.301723 
L 65.110938 -163.840832 
L 66.660938 -159.542019 
L 68.210938 -157.643107 
L 69.760938 -158.25127 
L 71.310938 -157.67933 
L 72.860938 -156.855447 
L 74.410938 -156.273586 
L 75.960938 -155.304839 
L 77.510938 -153.214777 
L 79.060938 -152.599609 
L 80.610938 -152.375154 
L 82.160938 -152.059277 
L 83.710938 -152.059277 
L 85.260938 -152.059277 
L 86.810938 -151.680277 
L 88.360938 -150.215735 
L 89.910938 -149.424206 
L 91.460938 -149.395752 
L 93.010938 -149.020814 
L 94.560938 -148.992917 
L 96.110938 -148.299624 
L 97.660938 -148.299624 
L 99.210938 -148.08934 
L 100.760938 -147.513937 
L 102.310938 -147.046993 
L 103.860938 -146.075499 
L 105.410938 -146.075499 
L 106.960938 -145.774193 
L 108.510938 -145.006971 
L 110.060938 -144.269299 
L 111.610938 -143.870168 
L 113.160938 -143.576001 
L 114.710938 -142.791549 
L 116.260938 -142.791549 
L 117.810938 -142.756495 
L 119.360938 -142.553545 
L 120.910938 -141.874092 
L 122.460938 -141.867821 
L 124.010938 -141.283246 
L 125.560938 -141.326039 
L 127.110938 -141.139051 
L 128.660938 -139.280315 
L 130.210938 -139.280315 
L 131.760938 -139.254581 
L 133.310938 -138.098218 
L 134.860938 -137.527485 
L 136.410938 -137.403719 
L 137.960938 -137.403535 
L 139.510938 -137.427064 
L 141.060938 -137.371973 
L 142.610938 -136.640557 
L 144.160938 -136.494396 
L 145.710938 -136.377945 
L 147.260938 -135.797822 
L 148.810938 -135.593532 
L 150.360938 -135.585536 
L 151.910938 -135.669478 
L 153.460938 -135.67047 
L 155.010938 -135.232682 
L 156.560938 -135.361983 
L 158.110938 -135.286931 
L 159.660938 -134.936313 
L 161.210938 -134.921621 
L 162.760938 -134.921621 
L 164.310938 -134.822014 
L 165.860938 -134.697504 
L 167.410938 -134.697504 
L 168.960938 -134.5965 
L 170.510938 -134.605576 
L 172.060938 -134.606504 
L 173.610938 -134.20525 
L 175.160938 -133.871133 
L 176.710938 -133.871133 
L 178.260938 -133.897213 
L 179.810937 -133.897213 
L 181.360938 -133.718629 
L 182.910938 -133.836324 
L 184.460938 -133.826432 
L 186.010938 -133.487535 
L 187.560937 -133.487535 
L 189.110938 -133.487535 
L 190.660938 -133.485661 
L 192.210938 -133.485661 
L 193.760938 -133.449421 
L 195.310937 -133.069827 
L 196.860938 -132.913815 
L 198.410938 -132.891704 
L 199.960938 -132.857119 
L 201.510938 -132.859921 
L 203.060937 -132.753919 
L 204.610938 -132.720122 
L 206.160938 -132.720122 
L 207.710938 -132.720122 
L 209.260938 -132.627035 
L 210.810937 -132.444831 
L 212.360938 -132.44154 
L 213.910938 -132.44154 
L 215.460938 -132.44154 
L 217.010938 -132.051724 
L 218.560937 -131.997627 
L 220.110938 -131.951438 
L 221.660938 -131.959571 
L 223.210938 -131.898221 
L 224.760938 -131.773711 
L 226.310937 -131.589872 
L 227.860938 -131.588137 
L 229.410938 -131.551486 
L 230.960938 -131.513467 
L 232.510938 -131.554578 
L 234.060937 -131.554578 
L 235.610938 -131.554578 
L 237.160938 -131.554578 
L 238.710938 -131.548305 
L 240.260938 -131.548305 
L 241.810937 -131.548305 
L 243.360938 -131.548305 
L 244.910938 -131.507187 
L 246.460938 -131.465344 
L 248.010938 -131.465344 
L 249.560937 -131.475955 
L 251.110938 -131.390759 
L 252.660938 -131.390759 
L 254.210938 -131.283253 
L 255.760938 -131.076218 
L 257.310938 -131.076218 
L 258.860938 -131.076218 
L 260.410938 -130.877053 
L 261.960938 -130.899652 
L 263.510938 -130.884348 
L 265.060938 -130.885691 
L 266.610938 -130.885691 
L 268.160938 -130.862701 
L 269.710938 -130.838837 
L 271.260938 -130.838837 
L 272.810938 -130.838837 
L 274.360938 -130.723604 
L 275.910938 -130.723604 
L 277.460938 -130.723604 
L 279.010938 -130.723604 
L 280.560938 -130.723604 
L 282.110938 -130.723258 
L 283.660938 -130.723169 
L 285.210938 -130.72061 
L 286.760938 -130.72061 
L 288.310938 -130.713373 
L 289.860938 -130.713373 
L 291.410938 -130.688653 
L 292.960938 -130.687554 
L 294.510938 -130.687554 
L 296.060938 -130.687554 
L 297.610938 -130.675679 
L 299.160938 -130.648113 
L 300.710938 -130.648113 
L 302.260938 -130.648113 
L 303.810938 -130.633486 
L 305.360938 -130.633486 
L 306.910937 -130.633486 
L 308.460938 -130.516587 
L 310.010938 -130.516587 
L 311.560938 -130.516587 
L 313.110938 -130.521939 
L 314.660937 -130.521939 
L 316.210938 -130.506145 
L 317.760938 -130.506145 
L 319.310938 -130.506145 
L 320.860938 -130.506145 
L 320.860938 -70.461014 
L 320.860938 -70.461014 
L 319.310938 -70.461014 
L 317.760938 -70.461014 
L 316.210938 -70.461014 
L 314.660937 -70.55061 
L 313.110938 -70.55061 
L 311.560938 -70.639405 
L 310.010938 -70.639405 
L 308.460938 -70.639405 
L 306.910937 -70.814618 
L 305.360938 -70.814618 
L 303.810938 -70.814618 
L 302.260938 -70.820543 
L 300.710938 -70.820543 
L 299.160938 -70.820543 
L 297.610938 -70.81757 
L 296.060938 -70.833517 
L 294.510938 -70.833517 
L 292.960938 -70.833517 
L 291.410938 -70.834583 
L 289.860938 -71.788768 
L 288.310938 -71.788768 
L 286.760938 -71.786795 
L 285.210938 -71.786795 
L 283.660938 -71.80659 
L 282.110938 -71.806608 
L 280.560938 -71.806966 
L 279.010938 -71.806966 
L 277.460938 -71.806966 
L 275.910938 -71.806966 
L 274.360938 -71.806966 
L 272.810938 -71.825816 
L 271.260938 -71.825816 
L 269.710938 -71.825816 
L 268.160938 -71.893059 
L 266.610938 -72.103341 
L 265.060938 -72.103341 
L 263.510938 -72.175523 
L 261.960938 -72.193124 
L 260.410938 -72.39999 
L 258.860938 -72.469552 
L 257.310938 -72.469552 
L 255.760938 -72.469552 
L 254.210938 -72.537909 
L 252.660938 -72.597505 
L 251.110938 -72.597505 
L 249.560937 -72.646865 
L 248.010938 -72.752614 
L 246.460938 -72.752614 
L 244.910938 -72.774136 
L 243.360938 -72.764283 
L 241.810937 -72.764283 
L 240.260938 -72.764283 
L 238.710938 -72.764283 
L 237.160938 -72.776583 
L 235.610938 -72.776583 
L 234.060937 -72.776583 
L 232.510938 -72.776583 
L 230.960938 -73.174789 
L 229.410938 -73.216881 
L 227.860938 -73.445959 
L 226.310937 -73.498917 
L 224.760938 -73.474714 
L 223.210938 -73.644954 
L 221.660938 -73.757812 
L 220.110938 -73.935435 
L 218.560937 -74.033974 
L 217.010938 -74.31123 
L 215.460938 -74.43437 
L 213.910938 -74.43437 
L 212.360938 -74.43437 
L 210.810937 -74.510994 
L 209.260938 -74.608573 
L 207.710938 -74.632251 
L 206.160938 -74.632251 
L 204.610938 -74.632251 
L 203.060937 -74.658727 
L 201.510938 -76.25644 
L 199.960938 -76.26783 
L 198.410938 -76.463909 
L 196.860938 -76.470995 
L 195.310937 -76.439565 
L 193.760938 -76.524772 
L 192.210938 -76.544756 
L 190.660938 -76.544756 
L 189.110938 -76.661855 
L 187.560937 -76.661855 
L 186.010938 -76.661855 
L 184.460938 -76.676264 
L 182.910938 -76.680295 
L 181.360938 -78.264366 
L 179.810937 -78.392518 
L 178.260938 -78.392518 
L 176.710938 -78.502573 
L 175.160938 -78.502573 
L 173.610938 -78.634722 
L 172.060938 -78.610856 
L 170.510938 -78.673832 
L 168.960938 -78.982155 
L 167.410938 -79.351615 
L 165.860938 -79.351615 
L 164.310938 -79.325788 
L 162.760938 -79.522954 
L 161.210938 -79.522954 
L 159.660938 -79.591765 
L 158.110938 -79.99385 
L 156.560938 -80.079863 
L 155.010938 -80.729554 
L 153.460938 -81.783208 
L 151.910938 -82.120978 
L 150.360938 -82.566142 
L 148.810938 -82.640135 
L 147.260938 -83.065175 
L 145.710938 -83.294284 
L 144.160938 -83.523479 
L 142.610938 -84.268864 
L 141.060938 -85.017638 
L 139.510938 -85.884644 
L 137.960938 -86.132442 
L 136.410938 -86.435877 
L 134.860938 -86.455552 
L 133.310938 -86.76774 
L 131.760938 -86.830757 
L 130.210938 -87.022751 
L 128.660938 -87.022751 
L 127.110938 -86.864296 
L 125.560938 -87.5107 
L 124.010938 -88.022654 
L 122.460938 -89.344565 
L 120.910938 -89.388615 
L 119.360938 -89.718462 
L 117.810938 -90.106545 
L 116.260938 -90.114674 
L 114.710938 -90.114674 
L 113.160938 -89.975368 
L 111.610938 -91.398919 
L 110.060938 -91.324149 
L 108.510938 -91.570219 
L 106.960938 -92.826007 
L 105.410938 -95.545118 
L 103.860938 -95.545118 
L 102.310938 -96.293692 
L 100.760938 -97.909238 
L 99.210938 -98.865373 
L 97.660938 -98.852266 
L 96.110938 -98.852266 
L 94.560938 -98.785325 
L 93.010938 -100.276111 
L 91.460938 -100.182905 
L 89.910938 -100.301774 
L 88.360938 -101.520689 
L 86.810938 -103.817257 
L 85.260938 -106.361448 
L 83.710938 -106.361448 
L 82.160938 -106.361448 
L 80.610938 -106.392668 
L 79.060938 -106.440286 
L 77.510938 -106.72689 
L 75.960938 -108.022176 
L 74.410938 -108.843818 
L 72.860938 -109.927837 
L 71.310938 -113.619086 
L 69.760938 -113.938952 
L 68.210938 -116.123875 
L 66.660938 -116.046193 
L 65.110938 -116.08484 
L 63.560938 -116.993612 
L 62.010938 -120.704969 
L 60.460938 -122.073568 
L 58.910938 -125.211178 
L 57.360938 -126.883637 
L 55.810938 -126.981239 
L 54.260938 -128.083954 
L 52.710938 -131.000387 
L 51.160938 -144.314547 
L 49.610938 -162.532844 
L 48.060938 -167.253443 
L 46.510938 -180.238143 
L 44.960938 -225.202712 
z
" style="stroke: #00c853; stroke-opacity: 0.2"/>
    </defs>
    <g clip-path="url(#pa2861678d6)">
     <use xlink:href="#m150dffae74" x="0" y="255.915469" style="fill: #00c853; fill-opacity: 0.2; stroke: #00c853; stroke-opacity: 0.2"/>
    </g>
   </g>
   <g id="matplotlib.axis_1">
    <g id="xtick_1">
     <g id="line2d_1">
      <defs>
       <path id="m33bc01c5ef" d="M 0 0 
L 0 3.5 
" style="stroke: #000000; stroke-width: 0.8"/>
      </defs>
      <g>
       <use xlink:href="#m33bc01c5ef" x="44.960938" y="225.559219" style="stroke: #000000; stroke-width: 0.8"/>
      </g>
     </g>
     <g id="text_1">
      <!-- 0 -->
      <g transform="translate(41.779688 240.157656)scale(0.1 -0.1)">
       <defs>
        <path id="DejaVuSans-30" d="M 2034 4250 
Q 1547 4250 1301 3770 
Q 1056 3291 1056 2328 
Q 1056 1369 1301 889 
Q 1547 409 2034 409 
Q 2525 409 2770 889 
Q 3016 1369 3016 2328 
Q 3016 3291 2770 3770 
Q 2525 4250 2034 4250 
z
M 2034 4750 
Q 2819 4750 3233 4129 
Q 3647 3509 3647 2328 
Q 3647 1150 3233 529 
Q 2819 -91 2034 -91 
Q 1250 -91 836 529 
Q 422 1150 422 2328 
Q 422 3509 836 4129 
Q 1250 4750 2034 4750 
z
" transform="scale(0.015625)"/>
       </defs>
       <use xlink:href="#DejaVuSans-30"/>
      </g>
     </g>
    </g>
    <g id="xtick_2">
     <g id="line2d_2">
      <g>
       <use xlink:href="#m33bc01c5ef" x="75.960938" y="225.559219" style="stroke: #000000; stroke-width: 0.8"/>
      </g>
     </g>
     <g id="text_2">
      <!-- 20 -->
      <g transform="translate(69.598438 240.157656)scale(0.1 -0.1)">
       <defs>
        <path id="DejaVuSans-32" d="M 1228 531 
L 3431 531 
L 3431 0 
L 469 0 
L 469 531 
Q 828 903 1448 1529 
Q 2069 2156 2228 2338 
Q 2531 2678 2651 2914 
Q 2772 3150 2772 3378 
Q 2772 3750 2511 3984 
Q 2250 4219 1831 4219 
Q 1534 4219 1204 4116 
Q 875 4013 500 3803 
L 500 4441 
Q 881 4594 1212 4672 
Q 1544 4750 1819 4750 
Q 2544 4750 2975 4387 
Q 3406 4025 3406 3419 
Q 3406 3131 3298 2873 
Q 3191 2616 2906 2266 
Q 2828 2175 2409 1742 
Q 1991 1309 1228 531 
z
" transform="scale(0.015625)"/>
       </defs>
       <use xlink:href="#DejaVuSans-32"/>
       <use xlink:href="#DejaVuSans-30" x="63.623047"/>
      </g>
     </g>
    </g>
    <g id="xtick_3">
     <g id="line2d_3">
      <g>
       <use xlink:href="#m33bc01c5ef" x="106.960938" y="225.559219" style="stroke: #000000; stroke-width: 0.8"/>
      </g>
     </g>
     <g id="text_3">
      <!-- 40 -->
      <g transform="translate(100.598438 240.157656)scale(0.1 -0.1)">
       <defs>
        <path id="DejaVuSans-34" d="M 2419 4116 
L 825 1625 
L 2419 1625 
L 2419 4116 
z
M 2253 4666 
L 3047 4666 
L 3047 1625 
L 3713 1625 
L 3713 1100 
L 3047 1100 
L 3047 0 
L 2419 0 
L 2419 1100 
L 313 1100 
L 313 1709 
L 2253 4666 
z
" transform="scale(0.015625)"/>
       </defs>
       <use xlink:href="#DejaVuSans-34"/>
       <use xlink:href="#DejaVuSans-30" x="63.623047"/>
      </g>
     </g>
    </g>
    <g id="xtick_4">
     <g id="line2d_4">
      <g>
       <use xlink:href="#m33bc01c5ef" x="137.960938" y="225.559219" style="stroke: #000000; stroke-width: 0.8"/>
      </g>
     </g>
     <g id="text_4">
      <!-- 60 -->
      <g transform="translate(131.598437 240.157656)scale(0.1 -0.1)">
       <defs>
        <path id="DejaVuSans-36" d="M 2113 2584 
Q 1688 2584 1439 2293 
Q 1191 2003 1191 1497 
Q 1191 994 1439 701 
Q 1688 409 2113 409 
Q 2538 409 2786 701 
Q 3034 994 3034 1497 
Q 3034 2003 2786 2293 
Q 2538 2584 2113 2584 
z
M 3366 4563 
L 3366 3988 
Q 3128 4100 2886 4159 
Q 2644 4219 2406 4219 
Q 1781 4219 1451 3797 
Q 1122 3375 1075 2522 
Q 1259 2794 1537 2939 
Q 1816 3084 2150 3084 
Q 2853 3084 3261 2657 
Q 3669 2231 3669 1497 
Q 3669 778 3244 343 
Q 2819 -91 2113 -91 
Q 1303 -91 875 529 
Q 447 1150 447 2328 
Q 447 3434 972 4092 
Q 1497 4750 2381 4750 
Q 2619 4750 2861 4703 
Q 3103 4656 3366 4563 
z
" transform="scale(0.015625)"/>
       </defs>
       <use xlink:href="#DejaVuSans-36"/>
       <use xlink:href="#DejaVuSans-30" x="63.623047"/>
      </g>
     </g>
    </g>
    <g id="xtick_5">
     <g id="line2d_5">
      <g>
       <use xlink:href="#m33bc01c5ef" x="168.960938" y="225.559219" style="stroke: #000000; stroke-width: 0.8"/>
      </g>
     </g>
     <g id="text_5">
      <!-- 80 -->
      <g transform="translate(162.598437 240.157656)scale(0.1 -0.1)">
       <defs>
        <path id="DejaVuSans-38" d="M 2034 2216 
Q 1584 2216 1326 1975 
Q 1069 1734 1069 1313 
Q 1069 891 1326 650 
Q 1584 409 2034 409 
Q 2484 409 2743 651 
Q 3003 894 3003 1313 
Q 3003 1734 2745 1975 
Q 2488 2216 2034 2216 
z
M 1403 2484 
Q 997 2584 770 2862 
Q 544 3141 544 3541 
Q 544 4100 942 4425 
Q 1341 4750 2034 4750 
Q 2731 4750 3128 4425 
Q 3525 4100 3525 3541 
Q 3525 3141 3298 2862 
Q 3072 2584 2669 2484 
Q 3125 2378 3379 2068 
Q 3634 1759 3634 1313 
Q 3634 634 3220 271 
Q 2806 -91 2034 -91 
Q 1263 -91 848 271 
Q 434 634 434 1313 
Q 434 1759 690 2068 
Q 947 2378 1403 2484 
z
M 1172 3481 
Q 1172 3119 1398 2916 
Q 1625 2713 2034 2713 
Q 2441 2713 2670 2916 
Q 2900 3119 2900 3481 
Q 2900 3844 2670 4047 
Q 2441 4250 2034 4250 
Q 1625 4250 1398 4047 
Q 1172 3844 1172 3481 
z
" transform="scale(0.015625)"/>
       </defs>
       <use xlink:href="#DejaVuSans-38"/>
       <use xlink:href="#DejaVuSans-30" x="63.623047"/>
      </g>
     </g>
    </g>
    <g id="xtick_6">
     <g id="line2d_6">
      <g>
       <use xlink:href="#m33bc01c5ef" x="199.960938" y="225.559219" style="stroke: #000000; stroke-width: 0.8"/>
      </g>
     </g>
     <g id="text_6">
      <!-- 100 -->
      <g transform="translate(190.417188 240.157656)scale(0.1 -0.1)">
       <defs>
        <path id="DejaVuSans-31" d="M 794 531 
L 1825 531 
L 1825 4091 
L 703 3866 
L 703 4441 
L 1819 4666 
L 2450 4666 
L 2450 531 
L 3481 531 
L 3481 0 
L 794 0 
L 794 531 
z
" transform="scale(0.015625)"/>
       </defs>
       <use xlink:href="#DejaVuSans-31"/>
       <use xlink:href="#DejaVuSans-30" x="63.623047"/>
       <use xlink:href="#DejaVuSans-30" x="127.246094"/>
      </g>
     </g>
    </g>
    <g id="xtick_7">
     <g id="line2d_7">
      <g>
       <use xlink:href="#m33bc01c5ef" x="230.960938" y="225.559219" style="stroke: #000000; stroke-width: 0.8"/>
      </g>
     </g>
     <g id="text_7">
      <!-- 120 -->
      <g transform="translate(221.417188 240.157656)scale(0.1 -0.1)">
       <use xlink:href="#DejaVuSans-31"/>
       <use xlink:href="#DejaVuSans-32" x="63.623047"/>
       <use xlink:href="#DejaVuSans-30" x="127.246094"/>
      </g>
     </g>
    </g>
    <g id="xtick_8">
     <g id="line2d_8">
      <g>
       <use xlink:href="#m33bc01c5ef" x="261.960938" y="225.559219" style="stroke: #000000; stroke-width: 0.8"/>
      </g>
     </g>
     <g id="text_8">
      <!-- 140 -->
      <g transform="translate(252.417188 240.157656)scale(0.1 -0.1)">
       <use xlink:href="#DejaVuSans-31"/>
       <use xlink:href="#DejaVuSans-34" x="63.623047"/>
       <use xlink:href="#DejaVuSans-30" x="127.246094"/>
      </g>
     </g>
    </g>
    <g id="xtick_9">
     <g id="line2d_9">
      <g>
       <use xlink:href="#m33bc01c5ef" x="292.960938" y="225.559219" style="stroke: #000000; stroke-width: 0.8"/>
      </g>
     </g>
     <g id="text_9">
      <!-- 160 -->
      <g transform="translate(283.417188 240.157656)scale(0.1 -0.1)">
       <use xlink:href="#DejaVuSans-31"/>
       <use xlink:href="#DejaVuSans-36" x="63.623047"/>
       <use xlink:href="#DejaVuSans-30" x="127.246094"/>
      </g>
     </g>
    </g>
    <g id="xtick_10">
     <g id="line2d_10">
      <g>
       <use xlink:href="#m33bc01c5ef" x="323.960938" y="225.559219" style="stroke: #000000; stroke-width: 0.8"/>
      </g>
     </g>
     <g id="text_10">
      <!-- 180 -->
      <g transform="translate(314.417188 240.157656)scale(0.1 -0.1)">
       <use xlink:href="#DejaVuSans-31"/>
       <use xlink:href="#DejaVuSans-38" x="63.623047"/>
       <use xlink:href="#DejaVuSans-30" x="127.246094"/>
      </g>
     </g>
    </g>
    <g id="text_11">
     <!-- Parameter set evaluations -->
     <g transform="translate(118.725 253.835781)scale(0.1 -0.1)">
      <defs>
       <path id="DejaVuSans-50" d="M 1259 4147 
L 1259 2394 
L 2053 2394 
Q 2494 2394 2734 2622 
Q 2975 2850 2975 3272 
Q 2975 3691 2734 3919 
Q 2494 4147 2053 4147 
L 1259 4147 
z
M 628 4666 
L 2053 4666 
Q 2838 4666 3239 4311 
Q 3641 3956 3641 3272 
Q 3641 2581 3239 2228 
Q 2838 1875 2053 1875 
L 1259 1875 
L 1259 0 
L 628 0 
L 628 4666 
z
" transform="scale(0.015625)"/>
       <path id="DejaVuSans-61" d="M 2194 1759 
Q 1497 1759 1228 1600 
Q 959 1441 959 1056 
Q 959 750 1161 570 
Q 1363 391 1709 391 
Q 2188 391 2477 730 
Q 2766 1069 2766 1631 
L 2766 1759 
L 2194 1759 
z
M 3341 1997 
L 3341 0 
L 2766 0 
L 2766 531 
Q 2569 213 2275 61 
Q 1981 -91 1556 -91 
Q 1019 -91 701 211 
Q 384 513 384 1019 
Q 384 1609 779 1909 
Q 1175 2209 1959 2209 
L 2766 2209 
L 2766 2266 
Q 2766 2663 2505 2880 
Q 2244 3097 1772 3097 
Q 1472 3097 1187 3025 
Q 903 2953 641 2809 
L 641 3341 
Q 956 3463 1253 3523 
Q 1550 3584 1831 3584 
Q 2591 3584 2966 3190 
Q 3341 2797 3341 1997 
z
" transform="scale(0.015625)"/>
       <path id="DejaVuSans-72" d="M 2631 2963 
Q 2534 3019 2420 3045 
Q 2306 3072 2169 3072 
Q 1681 3072 1420 2755 
Q 1159 2438 1159 1844 
L 1159 0 
L 581 0 
L 581 3500 
L 1159 3500 
L 1159 2956 
Q 1341 3275 1631 3429 
Q 1922 3584 2338 3584 
Q 2397 3584 2469 3576 
Q 2541 3569 2628 3553 
L 2631 2963 
z
" transform="scale(0.015625)"/>
       <path id="DejaVuSans-6d" d="M 3328 2828 
Q 3544 3216 3844 3400 
Q 4144 3584 4550 3584 
Q 5097 3584 5394 3201 
Q 5691 2819 5691 2113 
L 5691 0 
L 5113 0 
L 5113 2094 
Q 5113 2597 4934 2840 
Q 4756 3084 4391 3084 
Q 3944 3084 3684 2787 
Q 3425 2491 3425 1978 
L 3425 0 
L 2847 0 
L 2847 2094 
Q 2847 2600 2669 2842 
Q 2491 3084 2119 3084 
Q 1678 3084 1418 2786 
Q 1159 2488 1159 1978 
L 1159 0 
L 581 0 
L 581 3500 
L 1159 3500 
L 1159 2956 
Q 1356 3278 1631 3431 
Q 1906 3584 2284 3584 
Q 2666 3584 2933 3390 
Q 3200 3197 3328 2828 
z
" transform="scale(0.015625)"/>
       <path id="DejaVuSans-65" d="M 3597 1894 
L 3597 1613 
L 953 1613 
Q 991 1019 1311 708 
Q 1631 397 2203 397 
Q 2534 397 2845 478 
Q 3156 559 3463 722 
L 3463 178 
Q 3153 47 2828 -22 
Q 2503 -91 2169 -91 
Q 1331 -91 842 396 
Q 353 884 353 1716 
Q 353 2575 817 3079 
Q 1281 3584 2069 3584 
Q 2775 3584 3186 3129 
Q 3597 2675 3597 1894 
z
M 3022 2063 
Q 3016 2534 2758 2815 
Q 2500 3097 2075 3097 
Q 1594 3097 1305 2825 
Q 1016 2553 972 2059 
L 3022 2063 
z
" transform="scale(0.015625)"/>
       <path id="DejaVuSans-74" d="M 1172 4494 
L 1172 3500 
L 2356 3500 
L 2356 3053 
L 1172 3053 
L 1172 1153 
Q 1172 725 1289 603 
Q 1406 481 1766 481 
L 2356 481 
L 2356 0 
L 1766 0 
Q 1100 0 847 248 
Q 594 497 594 1153 
L 594 3053 
L 172 3053 
L 172 3500 
L 594 3500 
L 594 4494 
L 1172 4494 
z
" transform="scale(0.015625)"/>
       <path id="DejaVuSans-20" transform="scale(0.015625)"/>
       <path id="DejaVuSans-73" d="M 2834 3397 
L 2834 2853 
Q 2591 2978 2328 3040 
Q 2066 3103 1784 3103 
Q 1356 3103 1142 2972 
Q 928 2841 928 2578 
Q 928 2378 1081 2264 
Q 1234 2150 1697 2047 
L 1894 2003 
Q 2506 1872 2764 1633 
Q 3022 1394 3022 966 
Q 3022 478 2636 193 
Q 2250 -91 1575 -91 
Q 1294 -91 989 -36 
Q 684 19 347 128 
L 347 722 
Q 666 556 975 473 
Q 1284 391 1588 391 
Q 1994 391 2212 530 
Q 2431 669 2431 922 
Q 2431 1156 2273 1281 
Q 2116 1406 1581 1522 
L 1381 1569 
Q 847 1681 609 1914 
Q 372 2147 372 2553 
Q 372 3047 722 3315 
Q 1072 3584 1716 3584 
Q 2034 3584 2315 3537 
Q 2597 3491 2834 3397 
z
" transform="scale(0.015625)"/>
       <path id="DejaVuSans-76" d="M 191 3500 
L 800 3500 
L 1894 563 
L 2988 3500 
L 3597 3500 
L 2284 0 
L 1503 0 
L 191 3500 
z
" transform="scale(0.015625)"/>
       <path id="DejaVuSans-6c" d="M 603 4863 
L 1178 4863 
L 1178 0 
L 603 0 
L 603 4863 
z
" transform="scale(0.015625)"/>
       <path id="DejaVuSans-75" d="M 544 1381 
L 544 3500 
L 1119 3500 
L 1119 1403 
Q 1119 906 1312 657 
Q 1506 409 1894 409 
Q 2359 409 2629 706 
Q 2900 1003 2900 1516 
L 2900 3500 
L 3475 3500 
L 3475 0 
L 2900 0 
L 2900 538 
Q 2691 219 2414 64 
Q 2138 -91 1772 -91 
Q 1169 -91 856 284 
Q 544 659 544 1381 
z
M 1991 3584 
L 1991 3584 
z
" transform="scale(0.015625)"/>
       <path id="DejaVuSans-69" d="M 603 3500 
L 1178 3500 
L 1178 0 
L 603 0 
L 603 3500 
z
M 603 4863 
L 1178 4863 
L 1178 4134 
L 603 4134 
L 603 4863 
z
" transform="scale(0.015625)"/>
       <path id="DejaVuSans-6f" d="M 1959 3097 
Q 1497 3097 1228 2736 
Q 959 2375 959 1747 
Q 959 1119 1226 758 
Q 1494 397 1959 397 
Q 2419 397 2687 759 
Q 2956 1122 2956 1747 
Q 2956 2369 2687 2733 
Q 2419 3097 1959 3097 
z
M 1959 3584 
Q 2709 3584 3137 3096 
Q 3566 2609 3566 1747 
Q 3566 888 3137 398 
Q 2709 -91 1959 -91 
Q 1206 -91 779 398 
Q 353 888 353 1747 
Q 353 2609 779 3096 
Q 1206 3584 1959 3584 
z
" transform="scale(0.015625)"/>
       <path id="DejaVuSans-6e" d="M 3513 2113 
L 3513 0 
L 2938 0 
L 2938 2094 
Q 2938 2591 2744 2837 
Q 2550 3084 2163 3084 
Q 1697 3084 1428 2787 
Q 1159 2491 1159 1978 
L 1159 0 
L 581 0 
L 581 3500 
L 1159 3500 
L 1159 2956 
Q 1366 3272 1645 3428 
Q 1925 3584 2291 3584 
Q 2894 3584 3203 3211 
Q 3513 2838 3513 2113 
z
" transform="scale(0.015625)"/>
      </defs>
      <use xlink:href="#DejaVuSans-50"/>
      <use xlink:href="#DejaVuSans-61" x="55.802734"/>
      <use xlink:href="#DejaVuSans-72" x="117.082031"/>
      <use xlink:href="#DejaVuSans-61" x="158.195312"/>
      <use xlink:href="#DejaVuSans-6d" x="219.474609"/>
      <use xlink:href="#DejaVuSans-65" x="316.886719"/>
      <use xlink:href="#DejaVuSans-74" x="378.410156"/>
      <use xlink:href="#DejaVuSans-65" x="417.619141"/>
      <use xlink:href="#DejaVuSans-72" x="479.142578"/>
      <use xlink:href="#DejaVuSans-20" x="520.255859"/>
      <use xlink:href="#DejaVuSans-73" x="552.042969"/>
      <use xlink:href="#DejaVuSans-65" x="604.142578"/>
      <use xlink:href="#DejaVuSans-74" x="665.666016"/>
      <use xlink:href="#DejaVuSans-20" x="704.875"/>
      <use xlink:href="#DejaVuSans-65" x="736.662109"/>
      <use xlink:href="#DejaVuSans-76" x="798.185547"/>
      <use xlink:href="#DejaVuSans-61" x="857.365234"/>
      <use xlink:href="#DejaVuSans-6c" x="918.644531"/>
      <use xlink:href="#DejaVuSans-75" x="946.427734"/>
      <use xlink:href="#DejaVuSans-61" x="1009.806641"/>
      <use xlink:href="#DejaVuSans-74" x="1071.085938"/>
      <use xlink:href="#DejaVuSans-69" x="1110.294922"/>
      <use xlink:href="#DejaVuSans-6f" x="1138.078125"/>
      <use xlink:href="#DejaVuSans-6e" x="1199.259766"/>
      <use xlink:href="#DejaVuSans-73" x="1262.638672"/>
     </g>
    </g>
   </g>
   <g id="matplotlib.axis_2">
    <g id="ytick_1">
     <g id="line2d_11">
      <defs>
       <path id="m452f19082b" d="M 0 0 
L -3.5 0 
" style="stroke: #000000; stroke-width: 0.8"/>
      </defs>
      <g>
       <use xlink:href="#m452f19082b" x="44.960938" y="225.559219" style="stroke: #000000; stroke-width: 0.8"/>
      </g>
     </g>
     <g id="text_12">
      <!-- 1.0 -->
      <g transform="translate(13.678125 229.358438)scale(0.1 -0.1)">
       <defs>
        <path id="DejaVuSans-2212" d="M 678 2272 
L 4684 2272 
L 4684 1741 
L 678 1741 
L 678 2272 
z
" transform="scale(0.015625)"/>
        <path id="DejaVuSans-2e" d="M 684 794 
L 1344 794 
L 1344 0 
L 684 0 
L 684 794 
z
" transform="scale(0.015625)"/>
       </defs>
       <use xlink:href="#DejaVuSans-2212"/>
       <use xlink:href="#DejaVuSans-31" x="83.789062"/>
       <use xlink:href="#DejaVuSans-2e" x="147.412109"/>
       <use xlink:href="#DejaVuSans-30" x="179.199219"/>
      </g>
     </g>
    </g>
    <g id="ytick_2">
     <g id="line2d_12">
      <g>
       <use xlink:href="#m452f19082b" x="44.960938" y="181.207219" style="stroke: #000000; stroke-width: 0.8"/>
      </g>
     </g>
     <g id="text_13">
      <!-- 0.5 -->
      <g transform="translate(13.678125 185.006438)scale(0.1 -0.1)">
       <defs>
        <path id="DejaVuSans-35" d="M 691 4666 
L 3169 4666 
L 3169 4134 
L 1269 4134 
L 1269 2991 
Q 1406 3038 1543 3061 
Q 1681 3084 1819 3084 
Q 2600 3084 3056 2656 
Q 3513 2228 3513 1497 
Q 3513 744 3044 326 
Q 2575 -91 1722 -91 
Q 1428 -91 1123 -41 
Q 819 9 494 109 
L 494 744 
Q 775 591 1075 516 
Q 1375 441 1709 441 
Q 2250 441 2565 725 
Q 2881 1009 2881 1497 
Q 2881 1984 2565 2268 
Q 2250 2553 1709 2553 
Q 1456 2553 1204 2497 
Q 953 2441 691 2322 
L 691 4666 
z
" transform="scale(0.015625)"/>
       </defs>
       <use xlink:href="#DejaVuSans-2212"/>
       <use xlink:href="#DejaVuSans-30" x="83.789062"/>
       <use xlink:href="#DejaVuSans-2e" x="147.412109"/>
       <use xlink:href="#DejaVuSans-35" x="179.199219"/>
      </g>
     </g>
    </g>
    <g id="ytick_3">
     <g id="line2d_13">
      <g>
       <use xlink:href="#m452f19082b" x="44.960938" y="136.855219" style="stroke: #000000; stroke-width: 0.8"/>
      </g>
     </g>
     <g id="text_14">
      <!-- 0.0 -->
      <g transform="translate(22.057813 140.654438)scale(0.1 -0.1)">
       <use xlink:href="#DejaVuSans-30"/>
       <use xlink:href="#DejaVuSans-2e" x="63.623047"/>
       <use xlink:href="#DejaVuSans-30" x="95.410156"/>
      </g>
     </g>
    </g>
    <g id="ytick_4">
     <g id="line2d_14">
      <g>
       <use xlink:href="#m452f19082b" x="44.960938" y="92.503219" style="stroke: #000000; stroke-width: 0.8"/>
      </g>
     </g>
     <g id="text_15">
      <!-- 0.5 -->
      <g transform="translate(22.057813 96.302437)scale(0.1 -0.1)">
       <use xlink:href="#DejaVuSans-30"/>
       <use xlink:href="#DejaVuSans-2e" x="63.623047"/>
       <use xlink:href="#DejaVuSans-35" x="95.410156"/>
      </g>
     </g>
    </g>
    <g id="ytick_5">
     <g id="line2d_15">
      <g>
       <use xlink:href="#m452f19082b" x="44.960938" y="48.151219" style="stroke: #000000; stroke-width: 0.8"/>
      </g>
     </g>
     <g id="text_16">
      <!-- 1.0 -->
      <g transform="translate(22.057813 51.950438)scale(0.1 -0.1)">
       <use xlink:href="#DejaVuSans-31"/>
       <use xlink:href="#DejaVuSans-2e" x="63.623047"/>
       <use xlink:href="#DejaVuSans-30" x="95.410156"/>
      </g>
     </g>
    </g>
    <g id="ytick_6">
     <g id="line2d_16">
      <g>
       <use xlink:href="#m452f19082b" x="44.960938" y="3.799219" style="stroke: #000000; stroke-width: 0.8"/>
      </g>
     </g>
     <g id="text_17">
      <!-- 1.5 -->
      <g transform="translate(22.057813 7.598437)scale(0.1 -0.1)">
       <use xlink:href="#DejaVuSans-31"/>
       <use xlink:href="#DejaVuSans-2e" x="63.623047"/>
       <use xlink:href="#DejaVuSans-35" x="95.410156"/>
      </g>
     </g>
    </g>
    <g id="text_18">
     <!-- Normalized metabolic cost -->
     <g transform="translate(7.598438 181.318281)rotate(-90)scale(0.1 -0.1)">
      <defs>
       <path id="DejaVuSans-4e" d="M 628 4666 
L 1478 4666 
L 3547 763 
L 3547 4666 
L 4159 4666 
L 4159 0 
L 3309 0 
L 1241 3903 
L 1241 0 
L 628 0 
L 628 4666 
z
" transform="scale(0.015625)"/>
       <path id="DejaVuSans-7a" d="M 353 3500 
L 3084 3500 
L 3084 2975 
L 922 459 
L 3084 459 
L 3084 0 
L 275 0 
L 275 525 
L 2438 3041 
L 353 3041 
L 353 3500 
z
" transform="scale(0.015625)"/>
       <path id="DejaVuSans-64" d="M 2906 2969 
L 2906 4863 
L 3481 4863 
L 3481 0 
L 2906 0 
L 2906 525 
Q 2725 213 2448 61 
Q 2172 -91 1784 -91 
Q 1150 -91 751 415 
Q 353 922 353 1747 
Q 353 2572 751 3078 
Q 1150 3584 1784 3584 
Q 2172 3584 2448 3432 
Q 2725 3281 2906 2969 
z
M 947 1747 
Q 947 1113 1208 752 
Q 1469 391 1925 391 
Q 2381 391 2643 752 
Q 2906 1113 2906 1747 
Q 2906 2381 2643 2742 
Q 2381 3103 1925 3103 
Q 1469 3103 1208 2742 
Q 947 2381 947 1747 
z
" transform="scale(0.015625)"/>
       <path id="DejaVuSans-62" d="M 3116 1747 
Q 3116 2381 2855 2742 
Q 2594 3103 2138 3103 
Q 1681 3103 1420 2742 
Q 1159 2381 1159 1747 
Q 1159 1113 1420 752 
Q 1681 391 2138 391 
Q 2594 391 2855 752 
Q 3116 1113 3116 1747 
z
M 1159 2969 
Q 1341 3281 1617 3432 
Q 1894 3584 2278 3584 
Q 2916 3584 3314 3078 
Q 3713 2572 3713 1747 
Q 3713 922 3314 415 
Q 2916 -91 2278 -91 
Q 1894 -91 1617 61 
Q 1341 213 1159 525 
L 1159 0 
L 581 0 
L 581 4863 
L 1159 4863 
L 1159 2969 
z
" transform="scale(0.015625)"/>
       <path id="DejaVuSans-63" d="M 3122 3366 
L 3122 2828 
Q 2878 2963 2633 3030 
Q 2388 3097 2138 3097 
Q 1578 3097 1268 2742 
Q 959 2388 959 1747 
Q 959 1106 1268 751 
Q 1578 397 2138 397 
Q 2388 397 2633 464 
Q 2878 531 3122 666 
L 3122 134 
Q 2881 22 2623 -34 
Q 2366 -91 2075 -91 
Q 1284 -91 818 406 
Q 353 903 353 1747 
Q 353 2603 823 3093 
Q 1294 3584 2113 3584 
Q 2378 3584 2631 3529 
Q 2884 3475 3122 3366 
z
" transform="scale(0.015625)"/>
      </defs>
      <use xlink:href="#DejaVuSans-4e"/>
      <use xlink:href="#DejaVuSans-6f" x="74.804688"/>
      <use xlink:href="#DejaVuSans-72" x="135.986328"/>
      <use xlink:href="#DejaVuSans-6d" x="175.349609"/>
      <use xlink:href="#DejaVuSans-61" x="272.761719"/>
      <use xlink:href="#DejaVuSans-6c" x="334.041016"/>
      <use xlink:href="#DejaVuSans-69" x="361.824219"/>
      <use xlink:href="#DejaVuSans-7a" x="389.607422"/>
      <use xlink:href="#DejaVuSans-65" x="442.097656"/>
      <use xlink:href="#DejaVuSans-64" x="503.621094"/>
      <use xlink:href="#DejaVuSans-20" x="567.097656"/>
      <use xlink:href="#DejaVuSans-6d" x="598.884766"/>
      <use xlink:href="#DejaVuSans-65" x="696.296875"/>
      <use xlink:href="#DejaVuSans-74" x="757.820312"/>
      <use xlink:href="#DejaVuSans-61" x="797.029297"/>
      <use xlink:href="#DejaVuSans-62" x="858.308594"/>
      <use xlink:href="#DejaVuSans-6f" x="921.785156"/>
      <use xlink:href="#DejaVuSans-6c" x="982.966797"/>
      <use xlink:href="#DejaVuSans-69" x="1010.75"/>
      <use xlink:href="#DejaVuSans-63" x="1038.533203"/>
      <use xlink:href="#DejaVuSans-20" x="1093.513672"/>
      <use xlink:href="#DejaVuSans-63" x="1125.300781"/>
      <use xlink:href="#DejaVuSans-6f" x="1180.28125"/>
      <use xlink:href="#DejaVuSans-73" x="1241.462891"/>
      <use xlink:href="#DejaVuSans-74" x="1293.5625"/>
     </g>
    </g>
   </g>
   <g id="line2d_17">
    <path d="M 44.960938 30.712756 
L 46.510938 62.313029 
L 48.060938 74.552185 
L 51.160938 100.953453 
L 52.710938 104.254433 
L 54.260938 109.812174 
L 55.810938 113.374592 
L 57.360938 115.233297 
L 60.460938 122.498966 
L 62.010938 124.94597 
L 63.560938 128.491793 
L 65.110938 136.880985 
L 68.210938 147.014858 
L 71.310938 151.022132 
L 72.860938 153.013438 
L 74.410938 157.578064 
L 75.960938 163.208125 
L 77.510938 165.824386 
L 79.060938 167.379174 
L 80.610938 168.09545 
L 82.160938 171.353125 
L 83.710938 175.783548 
L 85.260938 177.057381 
L 86.810938 179.207824 
L 88.360938 180.254115 
L 89.910938 182.274456 
L 91.460938 184.05882 
L 93.010938 186.393551 
L 94.560938 187.540091 
L 96.110938 188.034 
L 97.660938 188.067489 
L 99.210938 188.367045 
L 100.760938 189.706532 
L 103.860938 190.412965 
L 105.410938 190.862071 
L 106.960938 193.280274 
L 108.510938 194.374094 
L 110.060938 194.953703 
L 111.610938 195.17359 
L 113.160938 195.893082 
L 114.710938 196.037709 
L 116.260938 196.722236 
L 119.360938 197.187188 
L 122.460938 197.291141 
L 124.010938 197.875818 
L 125.560938 198.26988 
L 128.660938 198.283041 
L 131.760938 198.593378 
L 133.310938 198.672119 
L 134.860938 198.966228 
L 136.410938 198.966228 
L 137.960938 199.324829 
L 139.510938 199.468095 
L 144.160938 199.468095 
L 145.710938 199.675244 
L 147.260938 199.675244 
L 148.810938 199.907831 
L 153.460938 199.943574 
L 161.210938 200.451473 
L 186.010938 200.519913 
L 187.560937 200.898204 
L 189.110938 200.898204 
L 190.660938 201.047838 
L 230.960938 201.151443 
L 232.510938 201.332575 
L 243.360938 201.332575 
L 244.910938 201.791761 
L 251.110938 201.791761 
L 252.660938 201.959304 
L 258.860938 201.987579 
L 260.410938 202.105442 
L 283.660938 202.186768 
L 286.760938 202.27652 
L 289.860938 202.27652 
L 291.410938 202.493247 
L 316.210938 202.594204 
L 320.860938 202.618974 
L 320.860938 202.618974 
" clip-path="url(#pa2861678d6)" style="fill: none; stroke: #bf32e7; stroke-width: 1.5; stroke-linecap: square"/>
   </g>
   <g id="line2d_18">
    <path d="M 44.960938 30.712756 
L 46.510938 57.103563 
L 48.060938 71.166491 
L 49.610938 76.602447 
L 51.160938 81.537899 
L 52.710938 92.628737 
L 55.810938 99.74677 
L 57.360938 102.106644 
L 58.910938 110.160677 
L 60.460938 113.932401 
L 62.010938 118.8365 
L 63.560938 120.984574 
L 66.660938 134.460795 
L 68.210938 137.041214 
L 69.760938 141.322125 
L 71.310938 150.994347 
L 72.860938 156.628807 
L 74.410938 163.252226 
L 75.960938 168.073724 
L 77.510938 171.186361 
L 79.060938 175.535285 
L 82.160938 179.486999 
L 83.710938 183.203127 
L 85.260938 184.582979 
L 86.810938 186.39365 
L 88.360938 186.793295 
L 89.910938 188.082242 
L 91.460938 188.502899 
L 93.010938 189.300448 
L 94.560938 191.648441 
L 96.110938 193.217653 
L 97.660938 195.096732 
L 102.310938 195.674509 
L 103.860938 196.261451 
L 105.410938 196.261451 
L 106.960938 198.092943 
L 111.610938 198.723068 
L 114.710938 198.727987 
L 116.260938 198.969554 
L 122.460938 199.183615 
L 125.560938 199.649242 
L 128.660938 199.719563 
L 131.760938 199.974136 
L 133.310938 200.581821 
L 134.860938 200.598452 
L 137.960938 200.954033 
L 139.510938 201.366837 
L 144.160938 201.589903 
L 145.710938 201.782326 
L 155.010938 201.782326 
L 156.560938 201.976402 
L 170.510938 202.031902 
L 173.610938 202.106505 
L 186.010938 202.174763 
L 187.560937 202.302966 
L 198.410938 202.394919 
L 199.960938 202.772454 
L 279.010938 203.116421 
L 280.560938 203.263132 
L 289.860938 203.332625 
L 291.410938 204.607733 
L 314.660937 204.70027 
L 317.760938 204.787876 
L 320.860938 204.787876 
L 320.860938 204.787876 
" clip-path="url(#pa2861678d6)" style="fill: none; stroke: #ff1493; stroke-width: 1.5; stroke-linecap: square"/>
   </g>
   <g id="line2d_19">
    <path d="M 44.960938 30.712756 
L 46.510938 51.336176 
L 48.060938 68.937357 
L 49.610938 75.178678 
L 51.160938 84.187039 
L 52.710938 86.93438 
L 54.260938 92.18635 
L 57.360938 98.775384 
L 58.910938 101.039877 
L 60.460938 103.101632 
L 62.010938 104.26703 
L 63.560938 106.940865 
L 65.110938 107.338574 
L 66.660938 113.175242 
L 68.210938 113.810125 
L 69.760938 114.829445 
L 71.310938 117.987791 
L 72.860938 120.393454 
L 74.410938 123.060513 
L 75.960938 124.558608 
L 77.510938 127.191955 
L 79.060938 128.980849 
L 80.610938 129.603919 
L 82.160938 131.55264 
L 83.710938 134.100712 
L 86.810938 135.322439 
L 88.360938 136.460572 
L 89.910938 137.418702 
L 91.460938 137.602376 
L 93.010938 137.912955 
L 94.560938 138.619011 
L 96.110938 139.154037 
L 97.660938 139.867451 
L 99.210938 141.037793 
L 100.760938 143.097512 
L 102.310938 144.62445 
L 103.860938 144.62445 
L 105.410938 144.988775 
L 106.960938 146.419899 
L 108.510938 146.907379 
L 110.060938 147.207684 
L 111.610938 148.101427 
L 114.710938 149.165903 
L 117.810938 151.032663 
L 119.360938 153.648726 
L 120.910938 153.77355 
L 122.460938 154.225607 
L 125.560938 154.336602 
L 127.110938 154.388004 
L 128.660938 155.732226 
L 131.760938 156.026324 
L 133.310938 156.026324 
L 134.860938 156.885332 
L 136.410938 158.087574 
L 137.960938 159.659266 
L 139.510938 159.687639 
L 141.060938 160.096361 
L 142.610938 160.150521 
L 145.710938 161.904965 
L 148.810938 163.014534 
L 150.360938 163.959292 
L 151.910938 164.043518 
L 155.010938 164.603637 
L 156.560938 165.533054 
L 162.760938 168.470194 
L 164.310938 168.548355 
L 165.860938 168.821633 
L 167.410938 169.73519 
L 168.960938 170.212237 
L 173.610938 171.08882 
L 175.160938 171.674737 
L 176.710938 171.858697 
L 178.260938 173.335353 
L 179.810937 173.644434 
L 181.360938 173.644434 
L 182.910938 174.486731 
L 184.460938 174.752893 
L 186.010938 176.782527 
L 187.560937 177.000588 
L 189.110938 177.000588 
L 190.660938 177.337693 
L 192.210938 178.264481 
L 195.310937 178.322825 
L 196.860938 178.493426 
L 198.410938 179.758893 
L 199.960938 179.758893 
L 201.510938 180.551855 
L 203.060937 180.971238 
L 206.160938 181.148473 
L 209.260938 181.78879 
L 210.810937 181.933436 
L 213.910938 181.966148 
L 217.010938 182.059731 
L 218.560937 182.692204 
L 220.110938 183.512684 
L 223.210938 183.512684 
L 224.760938 184.098535 
L 226.310937 184.132 
L 227.860938 184.428501 
L 229.410938 184.428501 
L 230.960938 184.717067 
L 232.510938 185.543428 
L 234.060937 185.641167 
L 237.160938 185.977652 
L 238.710938 186.429246 
L 240.260938 186.674491 
L 241.810937 186.674491 
L 243.360938 186.987894 
L 248.010938 187.564649 
L 249.560937 188.305357 
L 251.110938 188.640963 
L 254.210938 188.891537 
L 255.760938 189.260355 
L 257.310938 189.301168 
L 258.860938 189.671491 
L 260.410938 189.741943 
L 263.510938 190.350463 
L 266.610938 190.386153 
L 268.160938 191.456386 
L 271.260938 191.707824 
L 272.810938 192.073051 
L 275.910938 192.109207 
L 279.010938 192.497207 
L 282.110938 192.635738 
L 283.660938 192.718661 
L 285.210938 192.986533 
L 288.310938 192.986533 
L 289.860938 193.28747 
L 291.410938 194.558356 
L 299.160938 194.956115 
L 303.810938 195.039069 
L 305.360938 195.263662 
L 320.860938 196.166766 
L 320.860938 196.166766 
" clip-path="url(#pa2861678d6)" style="fill: none; stroke: #0091ea; stroke-width: 1.5; stroke-linecap: square"/>
   </g>
   <g id="line2d_20">
    <path d="M 44.960938 30.712756 
L 46.510938 53.298953 
L 48.060938 65.542821 
L 49.610938 70.281334 
L 52.710938 94.372955 
L 54.260938 100.805803 
L 55.810938 102.439661 
L 57.360938 102.807218 
L 60.460938 109.255746 
L 62.010938 112.251967 
L 63.560938 114.767801 
L 65.110938 115.952632 
L 66.660938 118.121363 
L 69.760938 119.820357 
L 71.310938 120.266261 
L 72.860938 122.523827 
L 75.960938 124.251961 
L 77.510938 125.944635 
L 79.060938 126.395521 
L 83.710938 126.705106 
L 85.260938 126.705106 
L 86.810938 128.166702 
L 88.360938 130.047257 
L 89.910938 131.052479 
L 93.010938 131.267006 
L 94.560938 132.026348 
L 96.110938 132.339524 
L 99.210938 132.438112 
L 100.760938 133.203881 
L 102.310938 134.245126 
L 103.860938 135.10516 
L 105.410938 135.10516 
L 106.960938 136.615369 
L 108.510938 137.626874 
L 110.060938 138.118745 
L 111.610938 138.280925 
L 113.160938 139.139784 
L 114.710938 139.462357 
L 117.810938 139.483949 
L 119.360938 139.779465 
L 120.910938 140.284115 
L 122.460938 140.309276 
L 124.010938 141.262519 
L 125.560938 141.497099 
L 127.110938 141.913795 
L 128.660938 142.763936 
L 131.760938 142.8728 
L 133.310938 143.48249 
L 134.860938 143.92395 
L 137.960938 144.14748 
L 139.510938 144.259615 
L 141.060938 144.720663 
L 142.610938 145.460758 
L 144.160938 145.906531 
L 145.710938 146.079354 
L 148.810938 146.798635 
L 150.360938 146.83963 
L 153.460938 147.18863 
L 155.010938 147.934351 
L 156.560938 148.194545 
L 158.110938 148.275078 
L 159.660938 148.651429 
L 167.410938 148.89091 
L 170.510938 149.275765 
L 172.060938 149.306789 
L 175.160938 149.728616 
L 179.810937 149.770603 
L 181.360938 149.923972 
L 182.910938 150.657159 
L 184.460938 150.664121 
L 186.010938 150.840774 
L 193.760938 150.928372 
L 195.310937 151.160773 
L 201.510938 151.357288 
L 203.060937 152.209146 
L 215.460938 152.477514 
L 218.560937 152.899668 
L 227.860938 153.398421 
L 232.510938 153.749888 
L 249.560937 153.854059 
L 257.310938 154.142584 
L 258.860938 154.142584 
L 261.960938 154.369081 
L 268.160938 154.537589 
L 274.360938 154.650183 
L 289.860938 154.664399 
L 291.410938 155.153851 
L 306.910937 155.191416 
L 308.460938 155.337473 
L 320.860938 155.431889 
L 320.860938 155.431889 
" clip-path="url(#pa2861678d6)" style="fill: none; stroke: #00c853; stroke-width: 1.5; stroke-linecap: square"/>
   </g>
   <g id="patch_3">
    <path d="M 44.960938 225.559219 
L 44.960938 3.799219 
" style="fill: none; stroke: #000000; stroke-width: 1.2; stroke-linejoin: miter; stroke-linecap: square"/>
   </g>
   <g id="patch_4">
    <path d="M 323.960938 225.559219 
L 323.960938 3.799219 
" style="fill: none"/>
   </g>
   <g id="patch_5">
    <path d="M 44.960938 225.559219 
L 323.960938 225.559219 
" style="fill: none; stroke: #000000; stroke-width: 1.2; stroke-linejoin: miter; stroke-linecap: square"/>
   </g>
   <g id="patch_6">
    <path d="M 44.960938 3.799219 
L 323.960938 3.799219 
" style="fill: none"/>
   </g>
   <g id="legend_1">
    <g id="line2d_21">
     <path d="M 132.042187 16.897656 
L 132.042187 16.897656 
L 132.042187 16.897656 
" style="fill: none; stroke: #bf32e7; stroke-width: 1.5; stroke-linecap: square"/>
     <defs>
      <path id="m7b9ec56deb" d="M -3.5 3.5 
L 3.5 3.5 
L 3.5 -3.5 
L -3.5 -3.5 
z
" style="stroke: #bf32e7; stroke-linejoin: miter"/>
     </defs>
     <g>
      <use xlink:href="#m7b9ec56deb" x="132.042187" y="16.897656" style="fill: #bf32e7; stroke: #bf32e7; stroke-linejoin: miter"/>
     </g>
    </g>
    <g id="text_19">
     <!-- Bayesian Optimization -->
     <g transform="translate(140.042187 20.397656)scale(0.1 -0.1)">
      <defs>
       <path id="DejaVuSans-42" d="M 1259 2228 
L 1259 519 
L 2272 519 
Q 2781 519 3026 730 
Q 3272 941 3272 1375 
Q 3272 1813 3026 2020 
Q 2781 2228 2272 2228 
L 1259 2228 
z
M 1259 4147 
L 1259 2741 
L 2194 2741 
Q 2656 2741 2882 2914 
Q 3109 3088 3109 3444 
Q 3109 3797 2882 3972 
Q 2656 4147 2194 4147 
L 1259 4147 
z
M 628 4666 
L 2241 4666 
Q 2963 4666 3353 4366 
Q 3744 4066 3744 3513 
Q 3744 3084 3544 2831 
Q 3344 2578 2956 2516 
Q 3422 2416 3680 2098 
Q 3938 1781 3938 1306 
Q 3938 681 3513 340 
Q 3088 0 2303 0 
L 628 0 
L 628 4666 
z
" transform="scale(0.015625)"/>
       <path id="DejaVuSans-79" d="M 2059 -325 
Q 1816 -950 1584 -1140 
Q 1353 -1331 966 -1331 
L 506 -1331 
L 506 -850 
L 844 -850 
Q 1081 -850 1212 -737 
Q 1344 -625 1503 -206 
L 1606 56 
L 191 3500 
L 800 3500 
L 1894 763 
L 2988 3500 
L 3597 3500 
L 2059 -325 
z
" transform="scale(0.015625)"/>
       <path id="DejaVuSans-4f" d="M 2522 4238 
Q 1834 4238 1429 3725 
Q 1025 3213 1025 2328 
Q 1025 1447 1429 934 
Q 1834 422 2522 422 
Q 3209 422 3611 934 
Q 4013 1447 4013 2328 
Q 4013 3213 3611 3725 
Q 3209 4238 2522 4238 
z
M 2522 4750 
Q 3503 4750 4090 4092 
Q 4678 3434 4678 2328 
Q 4678 1225 4090 567 
Q 3503 -91 2522 -91 
Q 1538 -91 948 565 
Q 359 1222 359 2328 
Q 359 3434 948 4092 
Q 1538 4750 2522 4750 
z
" transform="scale(0.015625)"/>
       <path id="DejaVuSans-70" d="M 1159 525 
L 1159 -1331 
L 581 -1331 
L 581 3500 
L 1159 3500 
L 1159 2969 
Q 1341 3281 1617 3432 
Q 1894 3584 2278 3584 
Q 2916 3584 3314 3078 
Q 3713 2572 3713 1747 
Q 3713 922 3314 415 
Q 2916 -91 2278 -91 
Q 1894 -91 1617 61 
Q 1341 213 1159 525 
z
M 3116 1747 
Q 3116 2381 2855 2742 
Q 2594 3103 2138 3103 
Q 1681 3103 1420 2742 
Q 1159 2381 1159 1747 
Q 1159 1113 1420 752 
Q 1681 391 2138 391 
Q 2594 391 2855 752 
Q 3116 1113 3116 1747 
z
" transform="scale(0.015625)"/>
      </defs>
      <use xlink:href="#DejaVuSans-42"/>
      <use xlink:href="#DejaVuSans-61" x="68.603516"/>
      <use xlink:href="#DejaVuSans-79" x="129.882812"/>
      <use xlink:href="#DejaVuSans-65" x="189.0625"/>
      <use xlink:href="#DejaVuSans-73" x="250.585938"/>
      <use xlink:href="#DejaVuSans-69" x="302.685547"/>
      <use xlink:href="#DejaVuSans-61" x="330.46875"/>
      <use xlink:href="#DejaVuSans-6e" x="391.748047"/>
      <use xlink:href="#DejaVuSans-20" x="455.126953"/>
      <use xlink:href="#DejaVuSans-4f" x="486.914062"/>
      <use xlink:href="#DejaVuSans-70" x="565.625"/>
      <use xlink:href="#DejaVuSans-74" x="629.101562"/>
      <use xlink:href="#DejaVuSans-69" x="668.310547"/>
      <use xlink:href="#DejaVuSans-6d" x="696.09375"/>
      <use xlink:href="#DejaVuSans-69" x="793.505859"/>
      <use xlink:href="#DejaVuSans-7a" x="821.289062"/>
      <use xlink:href="#DejaVuSans-61" x="873.779297"/>
      <use xlink:href="#DejaVuSans-74" x="935.058594"/>
      <use xlink:href="#DejaVuSans-69" x="974.267578"/>
      <use xlink:href="#DejaVuSans-6f" x="1002.050781"/>
      <use xlink:href="#DejaVuSans-6e" x="1063.232422"/>
     </g>
    </g>
    <g id="line2d_22">
     <path d="M 132.042187 31.575781 
L 132.042187 31.575781 
L 132.042187 31.575781 
" style="fill: none; stroke: #ff1493; stroke-width: 1.5; stroke-linecap: square"/>
     <defs>
      <path id="m1db2779778" d="M -3.5 3.5 
L 3.5 3.5 
L 3.5 -3.5 
L -3.5 -3.5 
z
" style="stroke: #ff1493; stroke-linejoin: miter"/>
     </defs>
     <g>
      <use xlink:href="#m1db2779778" x="132.042187" y="31.575781" style="fill: #ff1493; stroke: #ff1493; stroke-linejoin: miter"/>
     </g>
    </g>
    <g id="text_20">
     <!-- Exploitative Bayesian Optimization -->
     <g transform="translate(140.042187 35.075781)scale(0.1 -0.1)">
      <defs>
       <path id="DejaVuSans-45" d="M 628 4666 
L 3578 4666 
L 3578 4134 
L 1259 4134 
L 1259 2753 
L 3481 2753 
L 3481 2222 
L 1259 2222 
L 1259 531 
L 3634 531 
L 3634 0 
L 628 0 
L 628 4666 
z
" transform="scale(0.015625)"/>
       <path id="DejaVuSans-78" d="M 3513 3500 
L 2247 1797 
L 3578 0 
L 2900 0 
L 1881 1375 
L 863 0 
L 184 0 
L 1544 1831 
L 300 3500 
L 978 3500 
L 1906 2253 
L 2834 3500 
L 3513 3500 
z
" transform="scale(0.015625)"/>
      </defs>
      <use xlink:href="#DejaVuSans-45"/>
      <use xlink:href="#DejaVuSans-78" x="63.183594"/>
      <use xlink:href="#DejaVuSans-70" x="122.363281"/>
      <use xlink:href="#DejaVuSans-6c" x="185.839844"/>
      <use xlink:href="#DejaVuSans-6f" x="213.623047"/>
      <use xlink:href="#DejaVuSans-69" x="274.804688"/>
      <use xlink:href="#DejaVuSans-74" x="302.587891"/>
      <use xlink:href="#DejaVuSans-61" x="341.796875"/>
      <use xlink:href="#DejaVuSans-74" x="403.076172"/>
      <use xlink:href="#DejaVuSans-69" x="442.285156"/>
      <use xlink:href="#DejaVuSans-76" x="470.068359"/>
      <use xlink:href="#DejaVuSans-65" x="529.248047"/>
      <use xlink:href="#DejaVuSans-20" x="590.771484"/>
      <use xlink:href="#DejaVuSans-42" x="622.558594"/>
      <use xlink:href="#DejaVuSans-61" x="691.162109"/>
      <use xlink:href="#DejaVuSans-79" x="752.441406"/>
      <use xlink:href="#DejaVuSans-65" x="811.621094"/>
      <use xlink:href="#DejaVuSans-73" x="873.144531"/>
      <use xlink:href="#DejaVuSans-69" x="925.244141"/>
      <use xlink:href="#DejaVuSans-61" x="953.027344"/>
      <use xlink:href="#DejaVuSans-6e" x="1014.306641"/>
      <use xlink:href="#DejaVuSans-20" x="1077.685547"/>
      <use xlink:href="#DejaVuSans-4f" x="1109.472656"/>
      <use xlink:href="#DejaVuSans-70" x="1188.183594"/>
      <use xlink:href="#DejaVuSans-74" x="1251.660156"/>
      <use xlink:href="#DejaVuSans-69" x="1290.869141"/>
      <use xlink:href="#DejaVuSans-6d" x="1318.652344"/>
      <use xlink:href="#DejaVuSans-69" x="1416.064453"/>
      <use xlink:href="#DejaVuSans-7a" x="1443.847656"/>
      <use xlink:href="#DejaVuSans-61" x="1496.337891"/>
      <use xlink:href="#DejaVuSans-74" x="1557.617188"/>
      <use xlink:href="#DejaVuSans-69" x="1596.826172"/>
      <use xlink:href="#DejaVuSans-6f" x="1624.609375"/>
      <use xlink:href="#DejaVuSans-6e" x="1685.791016"/>
     </g>
    </g>
    <g id="line2d_23">
     <path d="M 132.042187 52.892656 
L 132.042187 52.892656 
L 132.042187 52.892656 
" style="fill: none; stroke: #0091ea; stroke-width: 1.5; stroke-linecap: square"/>
     <defs>
      <path id="m58591ca090" d="M -3.5 3.5 
L 3.5 3.5 
L 3.5 -3.5 
L -3.5 -3.5 
z
" style="stroke: #0091ea; stroke-linejoin: miter"/>
     </defs>
     <g>
      <use xlink:href="#m58591ca090" x="132.042187" y="52.892656" style="fill: #0091ea; stroke: #0091ea; stroke-linejoin: miter"/>
     </g>
    </g>
    <g id="text_21">
     <!-- Covariance Matrix Adaptation -->
     <g transform="translate(140.042187 49.753906)scale(0.1 -0.1)">
      <defs>
       <path id="DejaVuSans-43" d="M 4122 4306 
L 4122 3641 
Q 3803 3938 3442 4084 
Q 3081 4231 2675 4231 
Q 1875 4231 1450 3742 
Q 1025 3253 1025 2328 
Q 1025 1406 1450 917 
Q 1875 428 2675 428 
Q 3081 428 3442 575 
Q 3803 722 4122 1019 
L 4122 359 
Q 3791 134 3420 21 
Q 3050 -91 2638 -91 
Q 1578 -91 968 557 
Q 359 1206 359 2328 
Q 359 3453 968 4101 
Q 1578 4750 2638 4750 
Q 3056 4750 3426 4639 
Q 3797 4528 4122 4306 
z
" transform="scale(0.015625)"/>
       <path id="DejaVuSans-4d" d="M 628 4666 
L 1569 4666 
L 2759 1491 
L 3956 4666 
L 4897 4666 
L 4897 0 
L 4281 0 
L 4281 4097 
L 3078 897 
L 2444 897 
L 1241 4097 
L 1241 0 
L 628 0 
L 628 4666 
z
" transform="scale(0.015625)"/>
       <path id="DejaVuSans-41" d="M 2188 4044 
L 1331 1722 
L 3047 1722 
L 2188 4044 
z
M 1831 4666 
L 2547 4666 
L 4325 0 
L 3669 0 
L 3244 1197 
L 1141 1197 
L 716 0 
L 50 0 
L 1831 4666 
z
" transform="scale(0.015625)"/>
      </defs>
      <use xlink:href="#DejaVuSans-43"/>
      <use xlink:href="#DejaVuSans-6f" x="69.824219"/>
      <use xlink:href="#DejaVuSans-76" x="131.005859"/>
      <use xlink:href="#DejaVuSans-61" x="190.185547"/>
      <use xlink:href="#DejaVuSans-72" x="251.464844"/>
      <use xlink:href="#DejaVuSans-69" x="292.578125"/>
      <use xlink:href="#DejaVuSans-61" x="320.361328"/>
      <use xlink:href="#DejaVuSans-6e" x="381.640625"/>
      <use xlink:href="#DejaVuSans-63" x="445.019531"/>
      <use xlink:href="#DejaVuSans-65" x="500"/>
      <use xlink:href="#DejaVuSans-20" x="561.523438"/>
      <use xlink:href="#DejaVuSans-4d" x="593.310547"/>
      <use xlink:href="#DejaVuSans-61" x="679.589844"/>
      <use xlink:href="#DejaVuSans-74" x="740.869141"/>
      <use xlink:href="#DejaVuSans-72" x="780.078125"/>
      <use xlink:href="#DejaVuSans-69" x="821.191406"/>
      <use xlink:href="#DejaVuSans-78" x="848.974609"/>
      <use xlink:href="#DejaVuSans-20" x="908.154297"/>
      <use xlink:href="#DejaVuSans-41" x="939.941406"/>
      <use xlink:href="#DejaVuSans-64" x="1006.599609"/>
      <use xlink:href="#DejaVuSans-61" x="1070.076172"/>
      <use xlink:href="#DejaVuSans-70" x="1131.355469"/>
      <use xlink:href="#DejaVuSans-74" x="1194.832031"/>
      <use xlink:href="#DejaVuSans-61" x="1234.041016"/>
      <use xlink:href="#DejaVuSans-74" x="1295.320312"/>
      <use xlink:href="#DejaVuSans-69" x="1334.529297"/>
      <use xlink:href="#DejaVuSans-6f" x="1362.3125"/>
      <use xlink:href="#DejaVuSans-6e" x="1423.494141"/>
     </g>
     <!-- Evolutionary Strategy -->
     <g transform="translate(140.042187 60.951719)scale(0.1 -0.1)">
      <defs>
       <path id="DejaVuSans-53" d="M 3425 4513 
L 3425 3897 
Q 3066 4069 2747 4153 
Q 2428 4238 2131 4238 
Q 1616 4238 1336 4038 
Q 1056 3838 1056 3469 
Q 1056 3159 1242 3001 
Q 1428 2844 1947 2747 
L 2328 2669 
Q 3034 2534 3370 2195 
Q 3706 1856 3706 1288 
Q 3706 609 3251 259 
Q 2797 -91 1919 -91 
Q 1588 -91 1214 -16 
Q 841 59 441 206 
L 441 856 
Q 825 641 1194 531 
Q 1563 422 1919 422 
Q 2459 422 2753 634 
Q 3047 847 3047 1241 
Q 3047 1584 2836 1778 
Q 2625 1972 2144 2069 
L 1759 2144 
Q 1053 2284 737 2584 
Q 422 2884 422 3419 
Q 422 4038 858 4394 
Q 1294 4750 2059 4750 
Q 2388 4750 2728 4690 
Q 3069 4631 3425 4513 
z
" transform="scale(0.015625)"/>
       <path id="DejaVuSans-67" d="M 2906 1791 
Q 2906 2416 2648 2759 
Q 2391 3103 1925 3103 
Q 1463 3103 1205 2759 
Q 947 2416 947 1791 
Q 947 1169 1205 825 
Q 1463 481 1925 481 
Q 2391 481 2648 825 
Q 2906 1169 2906 1791 
z
M 3481 434 
Q 3481 -459 3084 -895 
Q 2688 -1331 1869 -1331 
Q 1566 -1331 1297 -1286 
Q 1028 -1241 775 -1147 
L 775 -588 
Q 1028 -725 1275 -790 
Q 1522 -856 1778 -856 
Q 2344 -856 2625 -561 
Q 2906 -266 2906 331 
L 2906 616 
Q 2728 306 2450 153 
Q 2172 0 1784 0 
Q 1141 0 747 490 
Q 353 981 353 1791 
Q 353 2603 747 3093 
Q 1141 3584 1784 3584 
Q 2172 3584 2450 3431 
Q 2728 3278 2906 2969 
L 2906 3500 
L 3481 3500 
L 3481 434 
z
" transform="scale(0.015625)"/>
      </defs>
      <use xlink:href="#DejaVuSans-45"/>
      <use xlink:href="#DejaVuSans-76" x="63.183594"/>
      <use xlink:href="#DejaVuSans-6f" x="122.363281"/>
      <use xlink:href="#DejaVuSans-6c" x="183.544922"/>
      <use xlink:href="#DejaVuSans-75" x="211.328125"/>
      <use xlink:href="#DejaVuSans-74" x="274.707031"/>
      <use xlink:href="#DejaVuSans-69" x="313.916016"/>
      <use xlink:href="#DejaVuSans-6f" x="341.699219"/>
      <use xlink:href="#DejaVuSans-6e" x="402.880859"/>
      <use xlink:href="#DejaVuSans-61" x="466.259766"/>
      <use xlink:href="#DejaVuSans-72" x="527.539062"/>
      <use xlink:href="#DejaVuSans-79" x="568.652344"/>
      <use xlink:href="#DejaVuSans-20" x="627.832031"/>
      <use xlink:href="#DejaVuSans-53" x="659.619141"/>
      <use xlink:href="#DejaVuSans-74" x="723.095703"/>
      <use xlink:href="#DejaVuSans-72" x="762.304688"/>
      <use xlink:href="#DejaVuSans-61" x="803.417969"/>
      <use xlink:href="#DejaVuSans-74" x="864.697266"/>
      <use xlink:href="#DejaVuSans-65" x="903.90625"/>
      <use xlink:href="#DejaVuSans-67" x="965.429688"/>
      <use xlink:href="#DejaVuSans-79" x="1028.90625"/>
     </g>
    </g>
    <g id="line2d_24">
     <path d="M 132.042187 72.129844 
L 132.042187 72.129844 
L 132.042187 72.129844 
" style="fill: none; stroke: #00c853; stroke-width: 1.5; stroke-linecap: square"/>
     <defs>
      <path id="mc3a93430a7" d="M -3.5 3.5 
L 3.5 3.5 
L 3.5 -3.5 
L -3.5 -3.5 
z
" style="stroke: #00c853; stroke-linejoin: miter"/>
     </defs>
     <g>
      <use xlink:href="#mc3a93430a7" x="132.042187" y="72.129844" style="fill: #00c853; stroke: #00c853; stroke-linejoin: miter"/>
     </g>
    </g>
    <g id="text_22">
     <!-- Cross-Entropy -->
     <g transform="translate(140.042187 75.629844)scale(0.1 -0.1)">
      <defs>
       <path id="DejaVuSans-2d" d="M 313 2009 
L 1997 2009 
L 1997 1497 
L 313 1497 
L 313 2009 
z
" transform="scale(0.015625)"/>
      </defs>
      <use xlink:href="#DejaVuSans-43"/>
      <use xlink:href="#DejaVuSans-72" x="69.824219"/>
      <use xlink:href="#DejaVuSans-6f" x="108.6875"/>
      <use xlink:href="#DejaVuSans-73" x="169.869141"/>
      <use xlink:href="#DejaVuSans-73" x="221.96875"/>
      <use xlink:href="#DejaVuSans-2d" x="274.068359"/>
      <use xlink:href="#DejaVuSans-45" x="310.152344"/>
      <use xlink:href="#DejaVuSans-6e" x="373.335938"/>
      <use xlink:href="#DejaVuSans-74" x="436.714844"/>
      <use xlink:href="#DejaVuSans-72" x="475.923828"/>
      <use xlink:href="#DejaVuSans-6f" x="514.787109"/>
      <use xlink:href="#DejaVuSans-70" x="575.96875"/>
      <use xlink:href="#DejaVuSans-79" x="639.445312"/>
     </g>
    </g>
   </g>
  </g>
 </g>
 <defs>
  <clipPath id="pa2861678d6">
   <rect x="44.960938" y="3.799219" width="279" height="221.76"/>
  </clipPath>
 </defs>
</svg>
