<?xml version="1.0" encoding="utf-8" standalone="no"?>
<!DOCTYPE svg PUBLIC "-//W3C//DTD SVG 1.1//EN"
  "http://www.w3.org/Graphics/SVG/1.1/DTD/svg11.dtd">
<svg xmlns:xlink="http://www.w3.org/1999/xlink" width="333.504687pt" height="255.915469pt" viewBox="0 0 333.504687 255.915469" xmlns="http://www.w3.org/2000/svg" version="1.1">
 <metadata>
  <rdf:RDF xmlns:dc="http://purl.org/dc/elements/1.1/" xmlns:cc="http://creativecommons.org/ns#" xmlns:rdf="http://www.w3.org/1999/02/22-rdf-syntax-ns#">
   <cc:Work>
    <dc:type rdf:resource="http://purl.org/dc/dcmitype/StillImage"/>
    <dc:date>2024-04-10T18:09:07.159035</dc:date>
    <dc:format>image/svg+xml</dc:format>
    <dc:creator>
     <cc:Agent>
      <dc:title>Matplotlib v3.5.3, https://matplotlib.org/</dc:title>
     </cc:Agent>
    </dc:creator>
   </cc:Work>
  </rdf:RDF>
 </metadata>
 <defs>
  <style type="text/css">*{stroke-linejoin: round; stroke-linecap: butt}</style>
 </defs>
 <g id="figure_1">
  <g id="patch_1">
   <path d="M 0 255.915469 
L 333.504687 255.915469 
L 333.504687 0 
L 0 0 
z
" style="fill: #ffffff"/>
  </g>
  <g id="axes_1">
   <g id="patch_2">
    <path d="M 44.960938 225.559219 
L 323.960938 225.559219 
L 323.960938 3.799219 
L 44.960938 3.799219 
z
" style="fill: #ffffff"/>
   </g>
   <g id="PolyCollection_1">
    <path d="M 44.960938 -522.939238 
L 44.960938 -522.939238 
L 46.510938 -534.531151 
L 48.060938 -333.203694 
L 49.610938 -241.440106 
L 51.160938 -189.366546 
L 52.710938 -189.366546 
L 54.260938 -177.396817 
L 55.810938 -145.02361 
L 57.360938 -145.02361 
L 58.910938 -145.02361 
L 60.460938 -145.02361 
L 62.010938 -145.02361 
L 63.560938 -146.693475 
L 65.110938 -146.693475 
L 66.660938 -136.109403 
L 68.210938 -136.109403 
L 69.760938 -136.109403 
L 71.310938 -136.109403 
L 72.860938 -136.109403 
L 74.410938 -136.109403 
L 75.960938 -136.109403 
L 77.510938 -136.109403 
L 79.060938 -136.109403 
L 80.610938 -136.109403 
L 82.160938 -135.777798 
L 83.710938 -132.44599 
L 85.260938 -132.44599 
L 86.810938 -132.44599 
L 88.360938 -113.597508 
L 89.910938 -113.597508 
L 91.460938 -113.597508 
L 93.010938 -113.597508 
L 94.560938 -113.597508 
L 96.110938 -113.597508 
L 97.660938 -113.597508 
L 99.210938 -113.597508 
L 100.760938 -113.597508 
L 102.310938 -109.086834 
L 103.860938 -109.086834 
L 105.410938 -103.607633 
L 106.960938 -103.607633 
L 108.510938 -103.607633 
L 110.060938 -103.607633 
L 111.610938 -103.607633 
L 113.160938 -102.538643 
L 114.710938 -76.646162 
L 116.260938 -76.646162 
L 117.810938 -76.801302 
L 119.360938 -76.801302 
L 120.910938 -73.658121 
L 122.460938 -72.886375 
L 124.010938 -72.886375 
L 125.560938 -72.886375 
L 127.110938 -72.886375 
L 128.660938 -70.448567 
L 130.210938 -70.448567 
L 131.760938 -67.376128 
L 133.310938 -67.376128 
L 134.860938 -66.471535 
L 136.410938 -66.303942 
L 137.960938 -66.303942 
L 139.510938 -66.303942 
L 141.060938 -66.303942 
L 142.610938 -55.549264 
L 144.160938 -55.549264 
L 145.710938 -55.549264 
L 147.260938 -52.104959 
L 148.810938 -52.104959 
L 150.360938 -38.592392 
L 151.910938 -38.592392 
L 153.460938 -38.592392 
L 155.010938 -38.592392 
L 156.560938 -38.592392 
L 158.110938 -38.592392 
L 159.660938 -38.592392 
L 161.210938 -34.718655 
L 162.760938 -34.718655 
L 164.310938 -34.718655 
L 165.860938 26.104601 
L 167.410938 26.104601 
L 168.960938 26.104601 
L 170.510938 26.104601 
L 172.060938 26.104601 
L 173.610938 26.248644 
L 175.160938 36.741798 
L 176.710938 36.741798 
L 178.260938 36.741798 
L 179.810937 36.741798 
L 181.360938 36.741798 
L 182.910938 36.741798 
L 184.460938 36.741798 
L 186.010938 36.741798 
L 187.560937 36.741798 
L 189.110938 36.741798 
L 190.660938 36.741798 
L 192.210938 36.741798 
L 193.760938 36.741798 
L 195.310937 36.741798 
L 196.860938 36.741798 
L 198.410938 36.741798 
L 199.960938 36.741798 
L 201.510938 36.741798 
L 203.060937 36.741798 
L 204.610938 36.741798 
L 206.160938 36.741798 
L 207.710938 36.741798 
L 209.260938 36.741798 
L 210.810937 36.741798 
L 212.360938 36.741798 
L 213.910938 36.741798 
L 215.460938 42.542443 
L 217.010938 42.542443 
L 218.560937 42.542443 
L 220.110938 50.089663 
L 221.660938 50.089663 
L 223.210938 50.089663 
L 224.760938 51.889861 
L 226.310937 51.889861 
L 227.860938 51.889861 
L 229.410938 52.162683 
L 230.960938 52.162683 
L 232.510938 52.162683 
L 234.060937 52.162683 
L 235.610938 52.162683 
L 237.160938 52.162683 
L 238.710938 57.208288 
L 240.260938 57.208288 
L 241.810937 58.61379 
L 243.360938 58.61379 
L 244.910938 58.61379 
L 246.460938 58.61379 
L 248.010938 58.61379 
L 249.560937 58.61379 
L 251.110938 58.61379 
L 252.660938 58.808819 
L 254.210938 58.808819 
L 255.760938 58.808819 
L 257.310938 58.808819 
L 258.860938 58.808819 
L 260.410938 58.808819 
L 261.960938 58.808819 
L 263.510938 62.948626 
L 265.060938 62.948626 
L 266.610938 62.948626 
L 268.160938 64.304188 
L 269.710938 61.376339 
L 271.260938 61.376339 
L 272.810938 61.376339 
L 274.360938 61.89141 
L 275.910938 61.89141 
L 277.460938 61.89141 
L 279.010938 61.89141 
L 280.560938 61.640407 
L 282.110938 61.640407 
L 283.660938 61.640407 
L 285.210938 61.640407 
L 286.760938 61.640407 
L 288.310938 63.279368 
L 289.860938 63.279368 
L 291.410938 63.279368 
L 292.960938 63.279368 
L 294.510938 63.279368 
L 296.060938 63.279368 
L 297.610938 63.279368 
L 299.160938 68.078446 
L 300.710938 68.078446 
L 302.260938 68.078446 
L 303.810938 74.42078 
L 305.360938 74.387427 
L 306.910937 74.387427 
L 308.460938 74.387427 
L 310.010938 74.387427 
L 311.560938 74.387427 
L 313.110938 74.387427 
L 314.660937 74.387427 
L 316.210938 79.09872 
L 317.760938 79.09872 
L 319.310938 79.09872 
L 320.860938 79.09872 
L 322.410937 85.268798 
L 323.960938 85.268798 
L 325.510938 85.268798 
L 327.060938 85.268798 
L 328.610938 85.268798 
L 330.160937 85.268798 
L 331.710938 85.268798 
L 333.260938 85.268798 
L 334.810938 85.268798 
L 336.360938 85.268798 
L 337.910937 85.894435 
L 339.460938 85.894435 
L 341.010938 85.894435 
L 342.560938 85.894435 
L 344.110938 85.894435 
L 345.660937 94.125508 
L 347.210938 94.125508 
L 348.760938 94.125508 
L 350.310938 94.125508 
L 351.860938 94.125508 
L 353.410937 94.125508 
L 354.960938 94.125508 
L 356.510938 94.125508 
L 358.060938 94.125508 
L 359.610938 94.125508 
L 361.160937 94.685691 
L 362.710938 94.685691 
L 364.260938 94.685691 
L 365.810938 94.685691 
L 367.360938 94.685691 
L 368.910937 94.685691 
L 370.460938 100.482571 
L 372.010938 109.650964 
L 373.560938 109.650964 
L 375.110938 109.650964 
L 376.660937 109.650964 
L 378.210938 109.650964 
L 379.760938 114.146214 
L 381.310938 114.146214 
L 382.860938 114.146214 
L 384.410937 114.146214 
L 385.960938 114.146214 
L 387.510938 114.146214 
L 389.060938 114.146214 
L 390.610938 114.146214 
L 392.160937 114.146214 
L 393.710938 115.331815 
L 395.260938 115.331815 
L 396.810938 115.331815 
L 398.360938 117.376683 
L 399.910937 117.376683 
L 401.460938 117.376683 
L 403.010938 117.376683 
L 404.560938 117.376683 
L 406.110938 117.376683 
L 407.660937 117.376683 
L 409.210938 117.376683 
L 410.760938 117.376683 
L 412.310938 117.376683 
L 413.860938 117.376683 
L 415.410937 117.376683 
L 416.960938 117.376683 
L 418.510938 117.376683 
L 420.060938 120.628012 
L 421.610938 122.12726 
L 423.160937 122.303867 
L 424.710938 122.303867 
L 426.260938 122.303867 
L 427.810938 122.313408 
L 429.360938 122.313408 
L 430.910937 123.047334 
L 432.460938 123.047334 
L 434.010938 123.047334 
L 435.560938 123.047334 
L 437.110938 123.047334 
L 438.660937 121.579228 
L 440.210938 121.579228 
L 441.760938 121.579228 
L 443.310938 121.579228 
L 444.860938 121.579228 
L 446.410937 121.579228 
L 447.960938 121.579228 
L 449.510938 121.579228 
L 451.060938 121.674293 
L 452.610938 121.674293 
L 454.160937 123.931088 
L 455.710938 123.931088 
L 457.260938 123.931088 
L 458.810938 123.931088 
L 460.360938 123.931088 
L 461.910937 123.931088 
L 463.460938 123.931088 
L 465.010938 124.798501 
L 466.560938 124.798501 
L 468.110938 127.28669 
L 469.660937 127.28669 
L 471.210938 127.28669 
L 472.760938 127.28669 
L 474.310938 127.28669 
L 475.860938 124.011539 
L 477.410937 123.490156 
L 478.960938 123.490156 
L 480.510938 123.490156 
L 482.060938 124.40097 
L 483.610938 124.40097 
L 485.160937 124.40097 
L 486.710938 124.40097 
L 488.260938 124.40097 
L 489.810938 124.40097 
L 491.360938 124.40097 
L 492.910937 128.176671 
L 494.460938 134.148132 
L 496.010938 134.148132 
L 497.560938 134.148132 
L 499.110938 134.148132 
L 500.660937 134.416395 
L 502.210938 134.416395 
L 503.760938 138.10957 
L 505.310938 138.10957 
L 506.860938 138.10957 
L 508.410937 138.10957 
L 509.960938 138.10957 
L 511.510938 138.10957 
L 513.060938 138.10957 
L 514.610938 138.10957 
L 516.160938 138.10957 
L 517.710938 144.447602 
L 519.260938 144.447602 
L 520.810938 144.447602 
L 522.360938 144.447602 
L 523.910938 144.447602 
L 525.460938 144.447602 
L 527.010938 144.447602 
L 528.560938 144.761421 
L 530.110938 144.761421 
L 531.660938 144.761421 
L 533.210938 144.761421 
L 534.760938 146.184692 
L 536.310938 146.184692 
L 537.860938 146.184692 
L 539.410938 146.184692 
L 540.960938 146.184692 
L 542.510938 146.184692 
L 544.060938 146.184692 
L 545.610938 146.184692 
L 547.160938 146.184692 
L 548.710938 146.184692 
L 550.260938 148.817393 
L 551.810938 148.817393 
L 553.360938 148.817393 
L 554.910938 148.817393 
L 556.460938 148.817393 
L 558.010938 148.817393 
L 559.560938 148.817393 
L 561.110937 148.817393 
L 562.660938 148.817393 
L 564.210938 150.658748 
L 565.760938 150.658748 
L 567.310938 150.658748 
L 568.860937 150.658748 
L 570.410938 150.658748 
L 571.960938 152.128403 
L 573.510938 152.128403 
L 575.060938 152.349674 
L 576.610937 152.349674 
L 578.160938 152.695595 
L 579.710938 152.957354 
L 581.260938 152.957354 
L 582.810938 152.957354 
L 584.360937 152.957354 
L 585.910938 152.957354 
L 587.460938 155.512111 
L 589.010938 155.512111 
L 590.560938 155.132478 
L 592.110937 155.132478 
L 593.660938 155.132478 
L 595.210938 158.994863 
L 596.760938 158.994863 
L 598.310938 158.994863 
L 599.860937 158.994863 
L 601.410938 158.994863 
L 602.960938 160.661421 
L 604.510938 160.661421 
L 606.060938 163.904635 
L 607.610937 163.910807 
L 609.160938 163.910807 
L 610.710938 163.910807 
L 612.260938 163.910807 
L 613.810938 163.910807 
L 615.360937 163.910807 
L 616.910938 163.910807 
L 618.460938 174.878944 
L 620.010938 175.39405 
L 621.560938 175.459966 
L 623.110937 175.459966 
L 624.660938 175.459966 
L 626.210938 175.459966 
L 627.760938 176.402027 
L 629.310938 176.994476 
L 630.860937 176.994476 
L 632.410938 180.533376 
L 633.960938 180.533376 
L 635.510938 180.533376 
L 637.060938 180.533376 
L 638.610937 180.533376 
L 640.160938 180.533376 
L 641.710938 180.533376 
L 643.260938 183.490674 
L 644.810938 183.490674 
L 646.360937 183.490674 
L 647.910938 183.490674 
L 649.460938 183.490674 
L 651.010938 185.643778 
L 652.560938 185.643778 
L 654.110937 185.643778 
L 655.660938 190.68766 
L 657.210938 190.282873 
L 658.760938 191.66533 
L 660.310938 191.66533 
L 661.860937 191.66533 
L 663.410938 191.66533 
L 664.960938 191.500703 
L 666.510938 191.500703 
L 668.060938 191.500703 
L 669.610937 191.500703 
L 671.160938 191.500703 
L 672.710938 191.500703 
L 674.260938 191.500703 
L 675.810938 191.500703 
L 677.360937 192.978755 
L 678.910938 192.978755 
L 680.460938 192.978755 
L 682.010938 193.922471 
L 683.560938 193.922471 
L 685.110937 193.922471 
L 686.660938 193.922471 
L 688.210938 196.113164 
L 689.760938 198.925558 
L 691.310938 198.925558 
L 692.860937 198.989633 
L 694.410938 198.989633 
L 695.960938 205.249108 
L 697.510938 205.249108 
L 699.060938 205.249108 
L 700.610937 203.75653 
L 702.160938 203.75653 
L 703.710938 205.135782 
L 705.260938 205.135782 
L 706.810938 205.135782 
L 708.360937 205.135782 
L 709.910938 205.135782 
L 711.460938 205.135782 
L 713.010938 207.46445 
L 714.560938 207.46445 
L 716.110937 208.828504 
L 717.660938 208.828504 
L 719.210938 209.427763 
L 720.760938 209.427763 
L 722.310938 209.427763 
L 723.860937 209.427763 
L 725.410938 214.275047 
L 726.960938 214.275047 
L 728.510938 214.275047 
L 730.060938 214.275047 
L 731.610937 214.275047 
L 733.160938 214.275047 
L 734.710938 214.275047 
L 736.260938 214.275047 
L 737.810938 214.275047 
L 739.360937 214.275047 
L 740.910938 214.275047 
L 742.460938 214.275047 
L 744.010938 214.275047 
L 745.560938 214.275047 
L 747.110937 214.275047 
L 748.660938 216.187342 
L 750.210938 216.187342 
L 751.760938 216.187342 
L 753.310938 216.187342 
L 754.860937 216.187342 
L 756.410938 216.187342 
L 757.960938 216.187342 
L 759.510938 216.187342 
L 761.060938 216.187342 
L 762.610937 216.187342 
L 764.160938 216.187342 
L 765.710938 216.187342 
L 767.260938 216.187342 
L 768.810938 216.187342 
L 770.360937 216.187342 
L 771.910938 216.187342 
L 773.460938 216.57338 
L 775.010938 216.57338 
L 776.560938 216.57338 
L 778.110937 216.57338 
L 779.660938 216.57338 
L 781.210938 216.57338 
L 782.760938 216.57338 
L 784.310938 215.838373 
L 785.860937 215.838373 
L 787.410938 215.838373 
L 788.960938 215.142614 
L 790.510938 215.142614 
L 792.060938 215.142614 
L 793.610937 215.142614 
L 795.160938 215.142614 
L 796.710938 215.142614 
L 798.260938 215.142614 
L 799.810938 215.142614 
L 801.360937 215.142614 
L 802.910938 217.17917 
L 804.460938 217.17917 
L 806.010938 217.17917 
L 807.560938 217.17917 
L 809.110937 217.17917 
L 810.660938 219.941668 
L 812.210938 219.941668 
L 813.760938 222.649359 
L 815.310938 222.649359 
L 816.860937 222.649359 
L 818.410938 222.649359 
L 819.960938 222.649359 
L 821.510938 222.649359 
L 823.060938 222.649359 
L 824.610937 222.649359 
L 826.160938 222.649359 
L 827.710938 224.343548 
L 829.260938 224.343548 
L 830.810938 224.343548 
L 832.360937 225.084099 
L 833.910938 225.084099 
L 835.460938 225.084099 
L 837.010938 225.084099 
L 838.560938 225.084099 
L 840.110937 225.084099 
L 841.660938 225.084099 
L 843.210938 225.084099 
L 844.760938 225.084099 
L 846.310938 225.084099 
L 847.860937 225.084099 
L 849.410938 225.084099 
L 850.960938 225.084099 
L 852.510938 225.084099 
L 854.060938 225.084099 
L 855.610937 225.084099 
L 857.160938 225.084099 
L 858.710938 225.084099 
L 860.260938 225.084099 
L 861.810938 225.084099 
L 863.360937 225.084099 
L 864.910938 225.084099 
L 866.460938 225.084099 
L 868.010938 225.084099 
L 869.560938 225.084099 
L 871.110937 225.084099 
L 872.660938 225.084099 
L 874.210938 225.954429 
L 875.760938 225.954429 
L 877.310938 225.954429 
L 878.860937 226.342211 
L 880.410938 226.342211 
L 881.960938 226.342211 
L 883.510938 226.342211 
L 885.060938 226.342211 
L 886.610937 226.342211 
L 888.160938 226.342211 
L 889.710938 226.342211 
L 891.260938 226.342211 
L 892.810938 226.342211 
L 894.360937 226.342211 
L 894.360937 328.752831 
L 894.360937 328.752831 
L 892.810938 328.752831 
L 891.260938 328.752831 
L 889.710938 328.752831 
L 888.160938 328.752831 
L 886.610937 328.752831 
L 885.060938 328.752831 
L 883.510938 328.752831 
L 881.960938 328.752831 
L 880.410938 328.752831 
L 878.860937 328.752831 
L 877.310938 328.313858 
L 875.760938 328.313858 
L 874.210938 328.313858 
L 872.660938 328.237219 
L 871.110937 328.237219 
L 869.560938 328.237219 
L 868.010938 328.237219 
L 866.460938 328.237219 
L 864.910938 328.237219 
L 863.360937 328.237219 
L 861.810938 328.237219 
L 860.260938 328.237219 
L 858.710938 328.237219 
L 857.160938 328.237219 
L 855.610937 328.237219 
L 854.060938 328.237219 
L 852.510938 328.237219 
L 850.960938 328.237219 
L 849.410938 328.237219 
L 847.860937 328.237219 
L 846.310938 328.237219 
L 844.760938 328.237219 
L 843.210938 328.237219 
L 841.660938 328.237219 
L 840.110937 328.237219 
L 838.560938 328.237219 
L 837.010938 328.237219 
L 835.460938 328.237219 
L 833.910938 328.237219 
L 832.360937 328.237219 
L 830.810938 327.92627 
L 829.260938 327.92627 
L 827.710938 327.92627 
L 826.160938 326.512738 
L 824.610937 326.512738 
L 823.060938 326.512738 
L 821.510938 326.512738 
L 819.960938 326.512738 
L 818.410938 326.512738 
L 816.860937 326.512738 
L 815.310938 326.512738 
L 813.760938 326.512738 
L 812.210938 325.763803 
L 810.660938 325.763803 
L 809.110937 326.184655 
L 807.560938 326.184655 
L 806.010938 326.184655 
L 804.460938 326.184655 
L 802.910938 326.184655 
L 801.360937 318.653549 
L 799.810938 318.653549 
L 798.260938 318.653549 
L 796.710938 318.653549 
L 795.160938 318.653549 
L 793.610937 318.653549 
L 792.060938 318.653549 
L 790.510938 318.653549 
L 788.960938 318.653549 
L 787.410938 315.465796 
L 785.860937 315.465796 
L 784.310938 315.465796 
L 782.760938 308.28442 
L 781.210938 308.28442 
L 779.660938 308.28442 
L 778.110937 308.28442 
L 776.560938 308.28442 
L 775.010938 308.28442 
L 773.460938 308.28442 
L 771.910938 308.191682 
L 770.360937 308.191682 
L 768.810938 308.191682 
L 767.260938 308.191682 
L 765.710938 308.191682 
L 764.160938 308.191682 
L 762.610937 308.191682 
L 761.060938 308.191682 
L 759.510938 308.191682 
L 757.960938 308.191682 
L 756.410938 308.191682 
L 754.860937 308.191682 
L 753.310938 308.191682 
L 751.760938 308.191682 
L 750.210938 308.191682 
L 748.660938 308.191682 
L 747.110937 304.994161 
L 745.560938 304.994161 
L 744.010938 304.994161 
L 742.460938 304.994161 
L 740.910938 304.994161 
L 739.360937 304.994161 
L 737.810938 304.994161 
L 736.260938 304.994161 
L 734.710938 304.994161 
L 733.160938 304.994161 
L 731.610937 304.994161 
L 730.060938 304.994161 
L 728.510938 304.994161 
L 726.960938 304.994161 
L 725.410938 304.994161 
L 723.860937 300.825148 
L 722.310938 300.825148 
L 720.760938 300.825148 
L 719.210938 300.825148 
L 717.660938 297.631656 
L 716.110937 297.631656 
L 714.560938 296.856865 
L 713.010938 296.856865 
L 711.460938 296.280656 
L 709.910938 296.280656 
L 708.360937 296.280656 
L 706.810938 296.280656 
L 705.260938 296.280656 
L 703.710938 296.280656 
L 702.160938 294.546044 
L 700.610937 294.546044 
L 699.060938 283.795333 
L 697.510938 283.795333 
L 695.960938 283.795333 
L 694.410938 283.847973 
L 692.860937 283.847973 
L 691.310938 283.010981 
L 689.760938 283.010981 
L 688.210938 280.790023 
L 686.660938 281.093668 
L 685.110937 281.093668 
L 683.560938 281.093668 
L 682.010938 281.093668 
L 680.460938 280.585594 
L 678.910938 280.585594 
L 677.360937 280.585594 
L 675.810938 280.844767 
L 674.260938 280.844767 
L 672.710938 280.844767 
L 671.160938 280.844767 
L 669.610937 280.844767 
L 668.060938 280.844767 
L 666.510938 280.844767 
L 664.960938 280.844767 
L 663.410938 261.249569 
L 661.860937 261.249569 
L 660.310938 261.249569 
L 658.760938 261.249569 
L 657.210938 260.444013 
L 655.660938 255.819987 
L 654.110937 255.080379 
L 652.560938 255.080379 
L 651.010938 255.080379 
L 649.460938 255.525917 
L 647.910938 255.525917 
L 646.360937 255.525917 
L 644.810938 255.525917 
L 643.260938 255.525917 
L 641.710938 255.765611 
L 640.160938 255.765611 
L 638.610937 255.765611 
L 637.060938 255.765611 
L 635.510938 255.765611 
L 633.960938 255.765611 
L 632.410938 255.765611 
L 630.860937 255.941448 
L 629.310938 255.941448 
L 627.760938 254.208982 
L 626.210938 254.330991 
L 624.660938 254.330991 
L 623.110937 254.330991 
L 621.560938 254.330991 
L 620.010938 252.862717 
L 618.460938 245.07687 
L 616.910938 247.51611 
L 615.360937 247.51611 
L 613.810938 247.51611 
L 612.260938 247.51611 
L 610.710938 247.51611 
L 609.160938 247.51611 
L 607.610937 247.51611 
L 606.060938 240.440537 
L 604.510938 236.266326 
L 602.960938 236.266326 
L 601.410938 235.63266 
L 599.860937 235.63266 
L 598.310938 235.63266 
L 596.760938 235.63266 
L 595.210938 235.63266 
L 593.660938 230.300756 
L 592.110937 230.300756 
L 590.560938 230.300756 
L 589.010938 216.633487 
L 587.460938 216.633487 
L 585.910938 216.166016 
L 584.360937 216.166016 
L 582.810938 216.166016 
L 581.260938 216.166016 
L 579.710938 216.166016 
L 578.160938 215.482429 
L 576.610937 214.82718 
L 575.060938 214.82718 
L 573.510938 214.753594 
L 571.960938 214.753594 
L 570.410938 208.236036 
L 568.860937 208.236036 
L 567.310938 208.236036 
L 565.760938 208.236036 
L 564.210938 208.236036 
L 562.660938 208.258151 
L 561.110937 208.258151 
L 559.560938 208.258151 
L 558.010938 208.258151 
L 556.460938 208.258151 
L 554.910938 208.258151 
L 553.360938 208.258151 
L 551.810938 208.258151 
L 550.260938 208.258151 
L 548.710938 207.640562 
L 547.160938 207.640562 
L 545.610938 207.640562 
L 544.060938 207.640562 
L 542.510938 207.640562 
L 540.960938 207.640562 
L 539.410938 207.640562 
L 537.860938 207.640562 
L 536.310938 207.640562 
L 534.760938 207.640562 
L 533.210938 205.507543 
L 531.660938 205.507543 
L 530.110938 205.507543 
L 528.560938 205.507543 
L 527.010938 205.33057 
L 525.460938 205.33057 
L 523.910938 205.33057 
L 522.360938 205.33057 
L 520.810938 205.33057 
L 519.260938 205.33057 
L 517.710938 205.33057 
L 516.160938 202.919819 
L 514.610938 202.919819 
L 513.060938 202.919819 
L 511.510938 202.919819 
L 509.960938 202.919819 
L 508.410937 202.919819 
L 506.860938 202.919819 
L 505.310938 202.919819 
L 503.760938 202.919819 
L 502.210938 202.033149 
L 500.660937 202.033149 
L 499.110938 201.720999 
L 497.560938 201.720999 
L 496.010938 201.720999 
L 494.460938 201.720999 
L 492.910937 199.64854 
L 491.360938 199.559847 
L 489.810938 199.559847 
L 488.260938 199.559847 
L 486.710938 199.559847 
L 485.160937 199.559847 
L 483.610938 199.559847 
L 482.060938 199.559847 
L 480.510938 196.789137 
L 478.960938 196.789137 
L 477.410937 196.789137 
L 475.860938 192.922237 
L 474.310938 181.953961 
L 472.760938 181.953961 
L 471.210938 181.953961 
L 469.660937 181.953961 
L 468.110938 181.953961 
L 466.560938 182.41586 
L 465.010938 182.41586 
L 463.460938 180.501937 
L 461.910937 180.501937 
L 460.360938 180.501937 
L 458.810938 180.501937 
L 457.260938 180.501937 
L 455.710938 180.501937 
L 454.160937 180.501937 
L 452.610938 171.159861 
L 451.060938 171.159861 
L 449.510938 170.042362 
L 447.960938 170.042362 
L 446.410937 170.042362 
L 444.860938 170.042362 
L 443.310938 170.042362 
L 441.760938 170.042362 
L 440.210938 170.042362 
L 438.660937 170.042362 
L 437.110938 160.400905 
L 435.560938 160.400905 
L 434.010938 160.400905 
L 432.460938 160.400905 
L 430.910937 160.400905 
L 429.360938 159.892377 
L 427.810938 159.892377 
L 426.260938 159.796828 
L 424.710938 159.796828 
L 423.160937 159.796828 
L 421.610938 159.696372 
L 420.060938 159.145567 
L 418.510938 157.49729 
L 416.960938 157.49729 
L 415.410937 157.49729 
L 413.860938 157.49729 
L 412.310938 157.49729 
L 410.760938 157.49729 
L 409.210938 157.49729 
L 407.660937 157.49729 
L 406.110938 157.49729 
L 404.560938 157.49729 
L 403.010938 157.49729 
L 401.460938 157.49729 
L 399.910937 157.49729 
L 398.360938 157.49729 
L 396.810938 153.764448 
L 395.260938 153.764448 
L 393.710938 153.764448 
L 392.160937 153.696679 
L 390.610938 153.696679 
L 389.060938 153.696679 
L 387.510938 153.696679 
L 385.960938 153.696679 
L 384.410937 153.696679 
L 382.860938 153.696679 
L 381.310938 153.696679 
L 379.760938 153.696679 
L 378.210938 153.852593 
L 376.660937 153.852593 
L 375.110938 153.852593 
L 373.560938 153.852593 
L 372.010938 153.852593 
L 370.460938 154.091873 
L 368.910937 149.471289 
L 367.360938 149.471289 
L 365.810938 149.471289 
L 364.260938 149.471289 
L 362.710938 149.471289 
L 361.160937 149.471289 
L 359.610938 149.472446 
L 358.060938 149.472446 
L 356.510938 149.472446 
L 354.960938 149.472446 
L 353.410937 149.472446 
L 351.860938 149.472446 
L 350.310938 149.472446 
L 348.760938 149.472446 
L 347.210938 149.472446 
L 345.660937 149.472446 
L 344.110938 147.188596 
L 342.560938 147.188596 
L 341.010938 147.188596 
L 339.460938 147.188596 
L 337.910937 147.188596 
L 336.360938 146.745221 
L 334.810938 146.745221 
L 333.260938 146.745221 
L 331.710938 146.745221 
L 330.160937 146.745221 
L 328.610938 146.745221 
L 327.060938 146.745221 
L 325.510938 146.745221 
L 323.960938 146.745221 
L 322.410937 146.745221 
L 320.860938 144.853345 
L 319.310938 144.853345 
L 317.760938 144.853345 
L 316.210938 144.853345 
L 314.660937 145.483074 
L 313.110938 145.483074 
L 311.560938 145.483074 
L 310.010938 145.483074 
L 308.460938 145.483074 
L 306.910937 145.483074 
L 305.360938 145.483074 
L 303.810938 145.287488 
L 302.260938 146.965132 
L 300.710938 146.965132 
L 299.160938 146.965132 
L 297.610938 145.593482 
L 296.060938 145.593482 
L 294.510938 145.593482 
L 292.960938 145.593482 
L 291.410938 145.593482 
L 289.860938 145.593482 
L 288.310938 145.593482 
L 286.760938 144.387611 
L 285.210938 144.387611 
L 283.660938 144.387611 
L 282.110938 144.387611 
L 280.560938 144.387611 
L 279.010938 138.147378 
L 277.460938 138.147378 
L 275.910938 138.147378 
L 274.360938 138.147378 
L 272.810938 138.292009 
L 271.260938 138.292009 
L 269.710938 138.292009 
L 268.160938 127.091575 
L 266.610938 119.464609 
L 265.060938 119.464609 
L 263.510938 119.464609 
L 261.960938 117.699038 
L 260.410938 117.699038 
L 258.860938 117.699038 
L 257.310938 117.699038 
L 255.760938 117.699038 
L 254.210938 117.699038 
L 252.660938 117.699038 
L 251.110938 111.170975 
L 249.560937 111.170975 
L 248.010938 111.170975 
L 246.460938 111.170975 
L 244.910938 111.170975 
L 243.360938 111.170975 
L 241.810937 111.170975 
L 240.260938 111.146951 
L 238.710938 111.146951 
L 237.160938 104.672815 
L 235.610938 104.672815 
L 234.060937 104.672815 
L 232.510938 104.672815 
L 230.960938 104.672815 
L 229.410938 104.672815 
L 227.860938 103.687982 
L 226.310937 103.687982 
L 224.760938 103.687982 
L 223.210938 101.443447 
L 221.660938 101.443447 
L 220.110938 101.443447 
L 218.560937 87.942662 
L 217.010938 87.942662 
L 215.460938 87.942662 
L 213.910938 87.840702 
L 212.360938 87.840702 
L 210.810937 87.840702 
L 209.260938 87.840702 
L 207.710938 87.840702 
L 206.160938 87.840702 
L 204.610938 87.840702 
L 203.060937 87.840702 
L 201.510938 87.840702 
L 199.960938 87.840702 
L 198.410938 87.840702 
L 196.860938 87.840702 
L 195.310937 87.840702 
L 193.760938 87.840702 
L 192.210938 87.840702 
L 190.660938 87.840702 
L 189.110938 87.840702 
L 187.560937 87.840702 
L 186.010938 87.840702 
L 184.460938 87.840702 
L 182.910938 87.840702 
L 181.360938 87.840702 
L 179.810937 87.840702 
L 178.260938 87.840702 
L 176.710938 87.840702 
L 175.160938 87.840702 
L 173.610938 89.8482 
L 172.060938 89.893006 
L 170.510938 89.893006 
L 168.960938 89.893006 
L 167.410938 89.893006 
L 165.860938 89.893006 
L 164.310938 65.892201 
L 162.760938 65.892201 
L 161.210938 65.892201 
L 159.660938 63.055428 
L 158.110938 63.055428 
L 156.560938 63.055428 
L 155.010938 63.055428 
L 153.460938 63.055428 
L 151.910938 63.055428 
L 150.360938 63.055428 
L 148.810938 55.532523 
L 147.260938 55.532523 
L 145.710938 42.143144 
L 144.160938 42.143144 
L 142.610938 42.143144 
L 141.060938 30.671071 
L 139.510938 30.671071 
L 137.960938 30.671071 
L 136.410938 30.671071 
L 134.860938 30.661139 
L 133.310938 28.99242 
L 131.760938 28.99242 
L 130.210938 26.978499 
L 128.660938 26.978499 
L 127.110938 25.630681 
L 125.560938 25.630681 
L 124.010938 25.630681 
L 122.460938 25.630681 
L 120.910938 25.062748 
L 119.360938 24.179587 
L 117.810938 24.179587 
L 116.260938 5.693121 
L 114.710938 5.693121 
L 113.160938 3.536988 
L 111.610938 -1.226592 
L 110.060938 -1.226592 
L 108.510938 -1.226592 
L 106.960938 -1.226592 
L 105.410938 -1.226592 
L 103.860938 -0.918284 
L 102.310938 -0.918284 
L 100.760938 -27.311725 
L 99.210938 -27.311725 
L 97.660938 -27.311725 
L 96.110938 -27.311725 
L 94.560938 -27.311725 
L 93.010938 -27.311725 
L 91.460938 -27.311725 
L 89.910938 -27.311725 
L 88.360938 -27.311725 
L 86.810938 -28.583787 
L 85.260938 -28.583787 
L 83.710938 -28.583787 
L 82.160938 -28.473515 
L 80.610938 -31.084967 
L 79.060938 -31.084967 
L 77.510938 -31.084967 
L 75.960938 -31.084967 
L 74.410938 -31.084967 
L 72.860938 -31.084967 
L 71.310938 -31.084967 
L 69.760938 -31.084967 
L 68.210938 -31.084967 
L 66.660938 -31.084967 
L 65.110938 -79.937142 
L 63.560938 -79.937142 
L 62.010938 -86.312635 
L 60.460938 -86.312635 
L 58.910938 -86.312635 
L 57.360938 -86.312635 
L 55.810938 -86.312635 
L 54.260938 -103.380688 
L 52.710938 -119.397451 
L 51.160938 -119.397451 
L 49.610938 -141.426937 
L 48.060938 -172.403038 
L 46.510938 -287.655283 
L 44.960938 -522.939238 
z
" clip-path="url(#p15d9be738a)" style="fill: #bf32e7; fill-opacity: 0.2; stroke: #bf32e7; stroke-opacity: 0.2"/>
   </g>
   <g id="PolyCollection_2">
    <path d="M 44.960938 -522.939238 
L 44.960938 -522.939238 
L 46.510938 -477.860931 
L 48.060938 -349.130283 
L 49.610938 -249.055205 
L 51.160938 -195.027691 
L 52.710938 -195.027691 
L 54.260938 -180.660275 
L 55.810938 -158.376198 
L 57.360938 -158.376198 
L 58.910938 -158.376198 
L 60.460938 -158.376198 
L 62.010938 -158.376198 
L 63.560938 -158.376198 
L 65.110938 -158.376198 
L 66.660938 -113.045969 
L 68.210938 -113.045969 
L 69.760938 -113.045969 
L 71.310938 -113.045969 
L 72.860938 -113.045969 
L 74.410938 -113.045969 
L 75.960938 -113.045969 
L 77.510938 -113.045969 
L 79.060938 -113.045969 
L 80.610938 -113.045969 
L 82.160938 -113.045969 
L 83.710938 -113.045969 
L 85.260938 -113.045969 
L 86.810938 -113.045969 
L 88.360938 -113.045969 
L 89.910938 -113.045969 
L 91.460938 -113.045969 
L 93.010938 -113.045969 
L 94.560938 -113.045969 
L 96.110938 -113.045969 
L 97.660938 -109.491242 
L 99.210938 -109.491242 
L 100.760938 -109.491242 
L 102.310938 -109.491242 
L 103.860938 -109.491242 
L 105.410938 -108.506982 
L 106.960938 -108.506982 
L 108.510938 -108.506982 
L 110.060938 -108.506982 
L 111.610938 -108.506982 
L 113.160938 -108.506982 
L 114.710938 -105.675306 
L 116.260938 -105.675306 
L 117.810938 -105.675306 
L 119.360938 -105.675306 
L 120.910938 -104.983502 
L 122.460938 -104.983502 
L 124.010938 -104.983502 
L 125.560938 -104.983502 
L 127.110938 -104.983502 
L 128.660938 -96.553219 
L 130.210938 -96.553219 
L 131.760938 -96.553219 
L 133.310938 -96.553219 
L 134.860938 -96.553219 
L 136.410938 -96.553219 
L 137.960938 -96.553219 
L 139.510938 -96.553219 
L 141.060938 -96.553219 
L 142.610938 -95.267804 
L 144.160938 -95.267804 
L 145.710938 -95.267804 
L 147.260938 -89.527316 
L 148.810938 -89.527316 
L 150.360938 -85.371881 
L 151.910938 -85.371881 
L 153.460938 -85.371881 
L 155.010938 -85.371881 
L 156.560938 -85.371881 
L 158.110938 -85.371881 
L 159.660938 -85.371881 
L 161.210938 -85.371881 
L 162.760938 -85.371881 
L 164.310938 -85.371881 
L 165.860938 5.924655 
L 167.410938 5.924655 
L 168.960938 5.924655 
L 170.510938 5.924655 
L 172.060938 5.924655 
L 173.610938 5.924655 
L 175.160938 10.052166 
L 176.710938 10.052166 
L 178.260938 10.052166 
L 179.810937 10.052166 
L 181.360938 10.052166 
L 182.910938 10.052166 
L 184.460938 10.052166 
L 186.010938 10.052166 
L 187.560937 10.052166 
L 189.110938 10.052166 
L 190.660938 10.052166 
L 192.210938 10.052166 
L 193.760938 10.052166 
L 195.310937 10.052166 
L 196.860938 10.052166 
L 198.410938 10.052166 
L 199.960938 10.052166 
L 201.510938 10.052166 
L 203.060937 10.052166 
L 204.610938 10.052166 
L 206.160938 10.052166 
L 207.710938 10.052166 
L 209.260938 10.052166 
L 210.810937 10.052166 
L 212.360938 10.052166 
L 213.910938 10.052166 
L 215.460938 10.052166 
L 217.010938 10.052166 
L 218.560937 10.052166 
L 220.110938 10.052166 
L 221.660938 10.052166 
L 223.210938 10.052166 
L 224.760938 10.052166 
L 226.310937 10.052166 
L 227.860938 10.052166 
L 229.410938 10.052166 
L 230.960938 10.052166 
L 232.510938 10.052166 
L 234.060937 10.052166 
L 235.610938 10.052166 
L 237.160938 10.052166 
L 238.710938 10.052166 
L 240.260938 10.052166 
L 241.810937 10.052166 
L 243.360938 10.052166 
L 244.910938 10.052166 
L 246.460938 10.052166 
L 248.010938 10.052166 
L 249.560937 10.052166 
L 251.110938 10.052166 
L 252.660938 10.052166 
L 254.210938 10.052166 
L 255.760938 10.052166 
L 257.310938 10.052166 
L 258.860938 10.052166 
L 260.410938 10.052166 
L 261.960938 10.052166 
L 263.510938 10.052166 
L 265.060938 10.052166 
L 266.610938 10.052166 
L 268.160938 10.052166 
L 269.710938 10.052166 
L 271.260938 10.052166 
L 272.810938 10.052166 
L 274.360938 10.052166 
L 275.910938 10.052166 
L 277.460938 10.052166 
L 279.010938 10.052166 
L 280.560938 10.052166 
L 282.110938 10.052166 
L 283.660938 10.052166 
L 285.210938 10.052166 
L 286.760938 10.052166 
L 288.310938 10.052166 
L 289.860938 10.052166 
L 291.410938 10.052166 
L 292.960938 10.052166 
L 294.510938 10.662741 
L 296.060938 10.662741 
L 297.610938 10.662741 
L 299.160938 10.662741 
L 300.710938 10.662741 
L 302.260938 10.662741 
L 303.810938 10.662741 
L 305.360938 10.662741 
L 306.910937 10.662741 
L 308.460938 10.662741 
L 310.010938 10.662741 
L 311.560938 10.662741 
L 313.110938 10.662741 
L 314.660937 10.662741 
L 316.210938 10.662741 
L 317.760938 10.662741 
L 319.310938 10.662741 
L 320.860938 10.662741 
L 322.410937 10.662741 
L 323.960938 10.662741 
L 325.510938 10.662741 
L 327.060938 10.662741 
L 328.610938 10.707027 
L 330.160937 10.707027 
L 331.710938 10.707027 
L 333.260938 10.707027 
L 334.810938 10.707027 
L 336.360938 10.707027 
L 337.910937 10.707027 
L 339.460938 10.707027 
L 341.010938 10.707027 
L 342.560938 10.707027 
L 344.110938 10.707027 
L 345.660937 10.707027 
L 347.210938 10.707027 
L 348.760938 10.707027 
L 350.310938 10.707027 
L 351.860938 10.707027 
L 353.410937 10.707027 
L 354.960938 10.707027 
L 356.510938 10.707027 
L 358.060938 10.707027 
L 359.610938 10.707027 
L 361.160937 10.707027 
L 362.710938 10.707027 
L 364.260938 10.707027 
L 365.810938 10.707027 
L 367.360938 10.707027 
L 368.910937 10.707027 
L 370.460938 10.707027 
L 372.010938 10.707027 
L 373.560938 10.707027 
L 375.110938 10.707027 
L 376.660937 10.707027 
L 378.210938 10.707027 
L 379.760938 40.105428 
L 381.310938 40.105428 
L 382.860938 40.105428 
L 384.410937 40.105428 
L 385.960938 40.105428 
L 387.510938 40.105428 
L 389.060938 40.105428 
L 390.610938 40.105428 
L 392.160937 40.105428 
L 393.710938 40.105428 
L 395.260938 40.105428 
L 396.810938 40.105428 
L 398.360938 40.105428 
L 399.910937 40.105428 
L 401.460938 40.105428 
L 403.010938 40.105428 
L 404.560938 40.105428 
L 406.110938 40.105428 
L 407.660937 40.105428 
L 409.210938 40.105428 
L 410.760938 40.105428 
L 412.310938 40.105428 
L 413.860938 40.105428 
L 415.410937 40.105428 
L 416.960938 40.105428 
L 418.510938 40.105428 
L 420.060938 40.105428 
L 421.610938 40.105428 
L 423.160937 40.105428 
L 424.710938 40.105428 
L 426.260938 40.105428 
L 427.810938 40.105428 
L 429.360938 40.105428 
L 430.910937 40.105428 
L 432.460938 40.105428 
L 434.010938 40.105428 
L 435.560938 40.105428 
L 437.110938 40.105428 
L 438.660937 40.105428 
L 440.210938 40.105428 
L 441.760938 40.105428 
L 443.310938 40.56251 
L 444.860938 40.56251 
L 446.410937 40.56251 
L 447.960938 40.56251 
L 449.510938 40.56251 
L 451.060938 40.56251 
L 452.610938 40.56251 
L 454.160937 40.56251 
L 455.710938 40.56251 
L 457.260938 40.56251 
L 458.810938 40.56251 
L 460.360938 40.56251 
L 461.910937 40.56251 
L 463.460938 40.56251 
L 465.010938 40.56251 
L 466.560938 40.56251 
L 468.110938 40.56251 
L 469.660937 40.56251 
L 471.210938 40.56251 
L 472.760938 40.56251 
L 474.310938 40.56251 
L 475.860938 40.56251 
L 477.410937 40.56251 
L 478.960938 40.56251 
L 480.510938 40.56251 
L 482.060938 40.56251 
L 483.610938 40.56251 
L 485.160937 40.56251 
L 486.710938 40.56251 
L 488.260938 40.56251 
L 489.810938 40.56251 
L 491.360938 40.56251 
L 492.910937 40.56251 
L 494.460938 40.56251 
L 496.010938 40.56251 
L 497.560938 40.56251 
L 499.110938 40.56251 
L 500.660937 40.56251 
L 502.210938 40.56251 
L 503.760938 40.56251 
L 505.310938 43.853573 
L 506.860938 43.853573 
L 508.410937 43.853573 
L 509.960938 43.853573 
L 511.510938 43.853573 
L 513.060938 43.853573 
L 514.610938 43.853573 
L 516.160938 43.853573 
L 517.710938 43.853573 
L 519.260938 44.451526 
L 520.810938 44.451526 
L 522.360938 44.451526 
L 523.910938 44.451526 
L 525.460938 44.451526 
L 527.010938 44.451526 
L 528.560938 44.451526 
L 530.110938 44.451526 
L 531.660938 44.451526 
L 533.210938 44.451526 
L 534.760938 44.451526 
L 536.310938 44.451526 
L 537.860938 44.451526 
L 539.410938 44.451526 
L 540.960938 44.451526 
L 542.510938 44.451526 
L 544.060938 44.451526 
L 545.610938 44.451526 
L 547.160938 44.451526 
L 548.710938 44.451526 
L 550.260938 44.451526 
L 551.810938 44.451526 
L 553.360938 44.451526 
L 554.910938 44.451526 
L 556.460938 44.656693 
L 558.010938 44.656693 
L 559.560938 44.656693 
L 561.110937 44.656693 
L 562.660938 44.656693 
L 564.210938 44.656693 
L 565.760938 44.656693 
L 567.310938 44.656693 
L 568.860937 44.656693 
L 570.410938 48.049404 
L 571.960938 48.049404 
L 573.510938 48.049404 
L 575.060938 48.049404 
L 576.610937 48.049404 
L 578.160938 48.049404 
L 579.710938 48.049404 
L 581.260938 48.049404 
L 582.810938 48.049404 
L 584.360937 48.049404 
L 585.910938 48.049404 
L 587.460938 48.049404 
L 589.010938 48.049404 
L 590.560938 48.049404 
L 592.110937 48.049404 
L 593.660938 48.049404 
L 595.210938 48.049404 
L 596.760938 48.049404 
L 598.310938 48.049404 
L 599.860937 48.049404 
L 601.410938 48.049404 
L 602.960938 48.049404 
L 604.510938 48.049404 
L 606.060938 48.049404 
L 607.610937 48.049404 
L 609.160938 48.049404 
L 610.710938 48.049404 
L 612.260938 48.049404 
L 613.810938 48.049404 
L 615.360937 48.049404 
L 616.910938 48.049404 
L 618.460938 48.049404 
L 620.010938 48.049404 
L 621.560938 48.049404 
L 623.110937 48.049404 
L 624.660938 48.049404 
L 626.210938 48.049404 
L 627.760938 48.049404 
L 629.310938 48.049404 
L 630.860937 48.049404 
L 632.410938 48.049404 
L 633.960938 48.049404 
L 635.510938 48.049404 
L 637.060938 48.049404 
L 638.610937 48.049404 
L 640.160938 48.049404 
L 641.710938 48.049404 
L 643.260938 48.049404 
L 644.810938 48.049404 
L 646.360937 48.049404 
L 647.910938 48.049404 
L 649.460938 48.049404 
L 651.010938 48.049404 
L 652.560938 48.049404 
L 654.110937 48.049404 
L 655.660938 48.049404 
L 657.210938 48.049404 
L 658.760938 48.049404 
L 660.310938 48.049404 
L 661.860937 48.049404 
L 663.410938 48.049404 
L 664.960938 48.049404 
L 666.510938 48.049404 
L 668.060938 48.049404 
L 669.610937 48.049404 
L 671.160938 48.049404 
L 672.710938 48.049404 
L 674.260938 48.049404 
L 675.810938 48.049404 
L 677.360937 48.049404 
L 678.910938 48.049404 
L 680.460938 48.049404 
L 682.010938 48.049404 
L 683.560938 48.049404 
L 685.110937 48.049404 
L 686.660938 48.049404 
L 688.210938 48.049404 
L 689.760938 48.049404 
L 691.310938 48.049404 
L 692.860937 48.049404 
L 694.410938 48.049404 
L 695.960938 48.049404 
L 697.510938 48.049404 
L 699.060938 48.049404 
L 700.610937 48.049404 
L 702.160938 48.049404 
L 703.710938 48.049404 
L 705.260938 48.049404 
L 706.810938 48.049404 
L 708.360937 48.049404 
L 709.910938 48.049404 
L 711.460938 48.049404 
L 713.010938 48.049404 
L 714.560938 48.049404 
L 716.110937 48.049404 
L 717.660938 48.049404 
L 719.210938 48.049404 
L 720.760938 48.049404 
L 722.310938 48.049404 
L 723.860937 48.049404 
L 725.410938 48.049404 
L 726.960938 48.049404 
L 728.510938 48.049404 
L 730.060938 48.049404 
L 731.610937 48.049404 
L 733.160938 48.049404 
L 734.710938 48.049404 
L 736.260938 48.049404 
L 737.810938 48.049404 
L 739.360937 48.049404 
L 740.910938 48.049404 
L 742.460938 48.049404 
L 744.010938 48.049404 
L 745.560938 48.049404 
L 747.110937 48.049404 
L 748.660938 48.049404 
L 750.210938 48.049404 
L 751.760938 48.049404 
L 753.310938 48.049404 
L 754.860937 48.049404 
L 756.410938 48.049404 
L 757.960938 48.049404 
L 759.510938 48.049404 
L 761.060938 48.049404 
L 762.610937 48.049404 
L 764.160938 48.049404 
L 765.710938 48.049404 
L 767.260938 48.049404 
L 768.810938 48.049404 
L 770.360937 48.049404 
L 771.910938 48.049404 
L 773.460938 48.049404 
L 775.010938 48.049404 
L 776.560938 48.049404 
L 778.110937 48.049404 
L 779.660938 48.049404 
L 781.210938 48.049404 
L 782.760938 48.049404 
L 784.310938 48.049404 
L 785.860937 48.049404 
L 787.410938 48.049404 
L 788.960938 48.049404 
L 790.510938 48.049404 
L 792.060938 48.049404 
L 793.610937 48.049404 
L 795.160938 48.049404 
L 796.710938 48.049404 
L 798.260938 48.049404 
L 799.810938 48.049404 
L 801.360937 48.049404 
L 802.910938 48.049404 
L 804.460938 48.049404 
L 806.010938 48.049404 
L 807.560938 48.049404 
L 809.110937 48.049404 
L 810.660938 48.049404 
L 812.210938 47.991031 
L 813.760938 47.991031 
L 815.310938 47.991031 
L 816.860937 47.991031 
L 818.410938 47.991031 
L 819.960938 47.991031 
L 821.510938 47.991031 
L 823.060938 47.991031 
L 824.610937 47.991031 
L 826.160938 47.991031 
L 827.710938 47.991031 
L 829.260938 47.991031 
L 830.810938 47.991031 
L 832.360937 47.991031 
L 833.910938 47.991031 
L 835.460938 47.991031 
L 837.010938 47.991031 
L 838.560938 47.991031 
L 840.110937 47.991031 
L 841.660938 47.991031 
L 843.210938 47.991031 
L 844.760938 47.991031 
L 846.310938 47.991031 
L 847.860937 47.991031 
L 849.410938 47.991031 
L 850.960938 47.991031 
L 852.510938 47.991031 
L 854.060938 47.991031 
L 855.610937 47.991031 
L 857.160938 47.991031 
L 858.710938 59.793276 
L 860.260938 59.793276 
L 861.810938 59.793276 
L 863.360937 59.793276 
L 864.910938 59.793276 
L 866.460938 59.793276 
L 868.010938 59.793276 
L 869.560938 59.793276 
L 871.110937 59.793276 
L 872.660938 59.793276 
L 874.210938 59.793276 
L 875.760938 59.793276 
L 877.310938 59.793276 
L 878.860937 59.793276 
L 880.410938 59.793276 
L 881.960938 59.793276 
L 883.510938 59.793276 
L 885.060938 59.793276 
L 886.610937 59.793276 
L 888.160938 59.793276 
L 889.710938 59.793276 
L 891.260938 59.793276 
L 892.810938 59.793276 
L 894.360937 59.793276 
L 894.360937 98.298639 
L 894.360937 98.298639 
L 892.810938 98.298639 
L 891.260938 98.298639 
L 889.710938 98.298639 
L 888.160938 98.298639 
L 886.610937 98.298639 
L 885.060938 98.298639 
L 883.510938 98.298639 
L 881.960938 98.298639 
L 880.410938 98.298639 
L 878.860937 98.298639 
L 877.310938 98.298639 
L 875.760938 98.298639 
L 874.210938 98.298639 
L 872.660938 98.298639 
L 871.110937 98.298639 
L 869.560938 98.298639 
L 868.010938 98.298639 
L 866.460938 98.298639 
L 864.910938 98.298639 
L 863.360937 98.298639 
L 861.810938 98.298639 
L 860.260938 98.298639 
L 858.710938 98.298639 
L 857.160938 92.485102 
L 855.610937 92.485102 
L 854.060938 92.485102 
L 852.510938 92.485102 
L 850.960938 92.485102 
L 849.410938 92.485102 
L 847.860937 92.485102 
L 846.310938 92.485102 
L 844.760938 92.485102 
L 843.210938 92.485102 
L 841.660938 92.485102 
L 840.110937 92.485102 
L 838.560938 92.485102 
L 837.010938 92.485102 
L 835.460938 92.485102 
L 833.910938 92.485102 
L 832.360937 92.485102 
L 830.810938 92.485102 
L 829.260938 92.485102 
L 827.710938 92.485102 
L 826.160938 92.485102 
L 824.610937 92.485102 
L 823.060938 92.485102 
L 821.510938 92.485102 
L 819.960938 92.485102 
L 818.410938 92.485102 
L 816.860937 92.485102 
L 815.310938 92.485102 
L 813.760938 92.485102 
L 812.210938 92.485102 
L 810.660938 92.264182 
L 809.110937 92.264182 
L 807.560938 92.264182 
L 806.010938 92.264182 
L 804.460938 92.264182 
L 802.910938 92.264182 
L 801.360937 92.264182 
L 799.810938 92.264182 
L 798.260938 92.264182 
L 796.710938 92.264182 
L 795.160938 92.264182 
L 793.610937 92.264182 
L 792.060938 92.264182 
L 790.510938 92.264182 
L 788.960938 92.264182 
L 787.410938 92.264182 
L 785.860937 92.264182 
L 784.310938 92.264182 
L 782.760938 92.264182 
L 781.210938 92.264182 
L 779.660938 92.264182 
L 778.110937 92.264182 
L 776.560938 92.264182 
L 775.010938 92.264182 
L 773.460938 92.264182 
L 771.910938 92.264182 
L 770.360937 92.264182 
L 768.810938 92.264182 
L 767.260938 92.264182 
L 765.710938 92.264182 
L 764.160938 92.264182 
L 762.610937 92.264182 
L 761.060938 92.264182 
L 759.510938 92.264182 
L 757.960938 92.264182 
L 756.410938 92.264182 
L 754.860937 92.264182 
L 753.310938 92.264182 
L 751.760938 92.264182 
L 750.210938 92.264182 
L 748.660938 92.264182 
L 747.110937 92.264182 
L 745.560938 92.264182 
L 744.010938 92.264182 
L 742.460938 92.264182 
L 740.910938 92.264182 
L 739.360937 92.264182 
L 737.810938 92.264182 
L 736.260938 92.264182 
L 734.710938 92.264182 
L 733.160938 92.264182 
L 731.610937 92.264182 
L 730.060938 92.264182 
L 728.510938 92.264182 
L 726.960938 92.264182 
L 725.410938 92.264182 
L 723.860937 92.264182 
L 722.310938 92.264182 
L 720.760938 92.264182 
L 719.210938 92.264182 
L 717.660938 92.264182 
L 716.110937 92.264182 
L 714.560938 92.264182 
L 713.010938 92.264182 
L 711.460938 92.264182 
L 709.910938 92.264182 
L 708.360937 92.264182 
L 706.810938 92.264182 
L 705.260938 92.264182 
L 703.710938 92.264182 
L 702.160938 92.264182 
L 700.610937 92.264182 
L 699.060938 92.264182 
L 697.510938 92.264182 
L 695.960938 92.264182 
L 694.410938 92.264182 
L 692.860937 92.264182 
L 691.310938 92.264182 
L 689.760938 92.264182 
L 688.210938 92.264182 
L 686.660938 92.264182 
L 685.110937 92.264182 
L 683.560938 92.264182 
L 682.010938 92.264182 
L 680.460938 92.264182 
L 678.910938 92.264182 
L 677.360937 92.264182 
L 675.810938 92.264182 
L 674.260938 92.264182 
L 672.710938 92.264182 
L 671.160938 92.264182 
L 669.610937 92.264182 
L 668.060938 92.264182 
L 666.510938 92.264182 
L 664.960938 92.264182 
L 663.410938 92.264182 
L 661.860937 92.264182 
L 660.310938 92.264182 
L 658.760938 92.264182 
L 657.210938 92.264182 
L 655.660938 92.264182 
L 654.110937 92.264182 
L 652.560938 92.264182 
L 651.010938 92.264182 
L 649.460938 92.264182 
L 647.910938 92.264182 
L 646.360937 92.264182 
L 644.810938 92.264182 
L 643.260938 92.264182 
L 641.710938 92.264182 
L 640.160938 92.264182 
L 638.610937 92.264182 
L 637.060938 92.264182 
L 635.510938 92.264182 
L 633.960938 92.264182 
L 632.410938 92.264182 
L 630.860937 92.264182 
L 629.310938 92.264182 
L 627.760938 92.264182 
L 626.210938 92.264182 
L 624.660938 92.264182 
L 623.110937 92.264182 
L 621.560938 92.264182 
L 620.010938 92.264182 
L 618.460938 92.264182 
L 616.910938 92.264182 
L 615.360937 92.264182 
L 613.810938 92.264182 
L 612.260938 92.264182 
L 610.710938 92.264182 
L 609.160938 92.264182 
L 607.610937 92.264182 
L 606.060938 92.264182 
L 604.510938 92.264182 
L 602.960938 92.264182 
L 601.410938 92.264182 
L 599.860937 92.264182 
L 598.310938 92.264182 
L 596.760938 92.264182 
L 595.210938 92.264182 
L 593.660938 92.264182 
L 592.110937 92.264182 
L 590.560938 92.264182 
L 589.010938 92.264182 
L 587.460938 92.264182 
L 585.910938 92.264182 
L 584.360937 92.264182 
L 582.810938 92.264182 
L 581.260938 92.264182 
L 579.710938 92.264182 
L 578.160938 92.264182 
L 576.610937 92.264182 
L 575.060938 92.264182 
L 573.510938 92.264182 
L 571.960938 92.264182 
L 570.410938 92.264182 
L 568.860937 82.966473 
L 567.310938 82.966473 
L 565.760938 82.966473 
L 564.210938 82.966473 
L 562.660938 82.966473 
L 561.110937 82.966473 
L 559.560938 82.966473 
L 558.010938 82.966473 
L 556.460938 82.966473 
L 554.910938 79.139191 
L 553.360938 79.139191 
L 551.810938 79.139191 
L 550.260938 79.139191 
L 548.710938 79.139191 
L 547.160938 79.139191 
L 545.610938 79.139191 
L 544.060938 79.139191 
L 542.510938 79.139191 
L 540.960938 79.139191 
L 539.410938 79.139191 
L 537.860938 79.139191 
L 536.310938 79.139191 
L 534.760938 79.139191 
L 533.210938 79.139191 
L 531.660938 79.139191 
L 530.110938 79.139191 
L 528.560938 79.139191 
L 527.010938 79.139191 
L 525.460938 79.139191 
L 523.910938 79.139191 
L 522.360938 79.139191 
L 520.810938 79.139191 
L 519.260938 79.139191 
L 517.710938 78.197301 
L 516.160938 78.197301 
L 514.610938 78.197301 
L 513.060938 78.197301 
L 511.510938 78.197301 
L 509.960938 78.197301 
L 508.410937 78.197301 
L 506.860938 78.197301 
L 505.310938 78.197301 
L 503.760938 77.173217 
L 502.210938 77.173217 
L 500.660937 77.173217 
L 499.110938 77.173217 
L 497.560938 77.173217 
L 496.010938 77.173217 
L 494.460938 77.173217 
L 492.910937 77.173217 
L 491.360938 77.173217 
L 489.810938 77.173217 
L 488.260938 77.173217 
L 486.710938 77.173217 
L 485.160937 77.173217 
L 483.610938 77.173217 
L 482.060938 77.173217 
L 480.510938 77.173217 
L 478.960938 77.173217 
L 477.410937 77.173217 
L 475.860938 77.173217 
L 474.310938 77.173217 
L 472.760938 77.173217 
L 471.210938 77.173217 
L 469.660937 77.173217 
L 468.110938 77.173217 
L 466.560938 77.173217 
L 465.010938 77.173217 
L 463.460938 77.173217 
L 461.910937 77.173217 
L 460.360938 77.173217 
L 458.810938 77.173217 
L 457.260938 77.173217 
L 455.710938 77.173217 
L 454.160937 77.173217 
L 452.610938 77.173217 
L 451.060938 77.173217 
L 449.510938 77.173217 
L 447.960938 77.173217 
L 446.410937 77.173217 
L 444.860938 77.173217 
L 443.310938 77.173217 
L 441.760938 77.19212 
L 440.210938 77.19212 
L 438.660937 77.19212 
L 437.110938 77.19212 
L 435.560938 77.19212 
L 434.010938 77.19212 
L 432.460938 77.19212 
L 430.910937 77.19212 
L 429.360938 77.19212 
L 427.810938 77.19212 
L 426.260938 77.19212 
L 424.710938 77.19212 
L 423.160937 77.19212 
L 421.610938 77.19212 
L 420.060938 77.19212 
L 418.510938 77.19212 
L 416.960938 77.19212 
L 415.410937 77.19212 
L 413.860938 77.19212 
L 412.310938 77.19212 
L 410.760938 77.19212 
L 409.210938 77.19212 
L 407.660937 77.19212 
L 406.110938 77.19212 
L 404.560938 77.19212 
L 403.010938 77.19212 
L 401.460938 77.19212 
L 399.910937 77.19212 
L 398.360938 77.19212 
L 396.810938 77.19212 
L 395.260938 77.19212 
L 393.710938 77.19212 
L 392.160937 77.19212 
L 390.610938 77.19212 
L 389.060938 77.19212 
L 387.510938 77.19212 
L 385.960938 77.19212 
L 384.410937 77.19212 
L 382.860938 77.19212 
L 381.310938 77.19212 
L 379.760938 77.19212 
L 378.210938 42.078035 
L 376.660937 42.078035 
L 375.110938 42.078035 
L 373.560938 42.078035 
L 372.010938 42.078035 
L 370.460938 42.078035 
L 368.910937 42.078035 
L 367.360938 42.078035 
L 365.810938 42.078035 
L 364.260938 42.078035 
L 362.710938 42.078035 
L 361.160937 42.078035 
L 359.610938 42.078035 
L 358.060938 42.078035 
L 356.510938 42.078035 
L 354.960938 42.078035 
L 353.410937 42.078035 
L 351.860938 42.078035 
L 350.310938 42.078035 
L 348.760938 42.078035 
L 347.210938 42.078035 
L 345.660937 42.078035 
L 344.110938 42.078035 
L 342.560938 42.078035 
L 341.010938 42.078035 
L 339.460938 42.078035 
L 337.910937 42.078035 
L 336.360938 42.078035 
L 334.810938 42.078035 
L 333.260938 42.078035 
L 331.710938 42.078035 
L 330.160937 42.078035 
L 328.610938 42.078035 
L 327.060938 42.085965 
L 325.510938 42.085965 
L 323.960938 42.085965 
L 322.410937 42.085965 
L 320.860938 42.085965 
L 319.310938 42.085965 
L 317.760938 42.085965 
L 316.210938 42.085965 
L 314.660937 42.085965 
L 313.110938 42.085965 
L 311.560938 42.085965 
L 310.010938 42.085965 
L 308.460938 42.085965 
L 306.910937 42.085965 
L 305.360938 42.085965 
L 303.810938 42.085965 
L 302.260938 42.085965 
L 300.710938 42.085965 
L 299.160938 42.085965 
L 297.610938 42.085965 
L 296.060938 42.085965 
L 294.510938 42.085965 
L 292.960938 41.716537 
L 291.410938 41.716537 
L 289.860938 41.716537 
L 288.310938 41.716537 
L 286.760938 41.716537 
L 285.210938 41.716537 
L 283.660938 41.716537 
L 282.110938 41.716537 
L 280.560938 41.716537 
L 279.010938 41.716537 
L 277.460938 41.716537 
L 275.910938 41.716537 
L 274.360938 41.716537 
L 272.810938 41.716537 
L 271.260938 41.716537 
L 269.710938 41.716537 
L 268.160938 41.716537 
L 266.610938 41.716537 
L 265.060938 41.716537 
L 263.510938 41.716537 
L 261.960938 41.716537 
L 260.410938 41.716537 
L 258.860938 41.716537 
L 257.310938 41.716537 
L 255.760938 41.716537 
L 254.210938 41.716537 
L 252.660938 41.716537 
L 251.110938 41.716537 
L 249.560937 41.716537 
L 248.010938 41.716537 
L 246.460938 41.716537 
L 244.910938 41.716537 
L 243.360938 41.716537 
L 241.810937 41.716537 
L 240.260938 41.716537 
L 238.710938 41.716537 
L 237.160938 41.716537 
L 235.610938 41.716537 
L 234.060937 41.716537 
L 232.510938 41.716537 
L 230.960938 41.716537 
L 229.410938 41.716537 
L 227.860938 41.716537 
L 226.310937 41.716537 
L 224.760938 41.716537 
L 223.210938 41.716537 
L 221.660938 41.716537 
L 220.110938 41.716537 
L 218.560937 41.716537 
L 217.010938 41.716537 
L 215.460938 41.716537 
L 213.910938 41.716537 
L 212.360938 41.716537 
L 210.810937 41.716537 
L 209.260938 41.716537 
L 207.710938 41.716537 
L 206.160938 41.716537 
L 204.610938 41.716537 
L 203.060937 41.716537 
L 201.510938 41.716537 
L 199.960938 41.716537 
L 198.410938 41.716537 
L 196.860938 41.716537 
L 195.310937 41.716537 
L 193.760938 41.716537 
L 192.210938 41.716537 
L 190.660938 41.716537 
L 189.110938 41.716537 
L 187.560937 41.716537 
L 186.010938 41.716537 
L 184.460938 41.716537 
L 182.910938 41.716537 
L 181.360938 41.716537 
L 179.810937 41.716537 
L 178.260938 41.716537 
L 176.710938 41.716537 
L 175.160938 41.716537 
L 173.610938 39.256955 
L 172.060938 39.256955 
L 170.510938 39.256955 
L 168.960938 39.256955 
L 167.410938 39.256955 
L 165.860938 39.256955 
L 164.310938 -34.160112 
L 162.760938 -34.160112 
L 161.210938 -34.160112 
L 159.660938 -34.160112 
L 158.110938 -34.160112 
L 156.560938 -34.160112 
L 155.010938 -34.160112 
L 153.460938 -34.160112 
L 151.910938 -34.160112 
L 150.360938 -34.160112 
L 148.810938 -38.172807 
L 147.260938 -38.172807 
L 145.710938 -51.593536 
L 144.160938 -51.593536 
L 142.610938 -51.593536 
L 141.060938 -51.42312 
L 139.510938 -51.42312 
L 137.960938 -51.42312 
L 136.410938 -51.42312 
L 134.860938 -51.42312 
L 133.310938 -51.42312 
L 131.760938 -51.42312 
L 130.210938 -51.42312 
L 128.660938 -51.42312 
L 127.110938 -53.785032 
L 125.560938 -53.785032 
L 124.010938 -53.785032 
L 122.460938 -53.785032 
L 120.910938 -53.785032 
L 119.360938 -53.933734 
L 117.810938 -53.933734 
L 116.260938 -53.933734 
L 114.710938 -53.933734 
L 113.160938 -58.048523 
L 111.610938 -58.048523 
L 110.060938 -58.048523 
L 108.510938 -58.048523 
L 106.960938 -58.048523 
L 105.410938 -58.048523 
L 103.860938 -58.241788 
L 102.310938 -58.241788 
L 100.760938 -58.241788 
L 99.210938 -58.241788 
L 97.660938 -58.241788 
L 96.110938 -61.793986 
L 94.560938 -61.793986 
L 93.010938 -61.793986 
L 91.460938 -61.793986 
L 89.910938 -61.793986 
L 88.360938 -61.793986 
L 86.810938 -61.793986 
L 85.260938 -61.793986 
L 83.710938 -61.793986 
L 82.160938 -61.793986 
L 80.610938 -61.793986 
L 79.060938 -61.793986 
L 77.510938 -61.793986 
L 75.960938 -61.793986 
L 74.410938 -61.793986 
L 72.860938 -61.793986 
L 71.310938 -61.793986 
L 69.760938 -61.793986 
L 68.210938 -61.793986 
L 66.660938 -61.793986 
L 65.110938 -65.264121 
L 63.560938 -65.264121 
L 62.010938 -65.264121 
L 60.460938 -65.264121 
L 58.910938 -65.264121 
L 57.360938 -65.264121 
L 55.810938 -65.264121 
L 54.260938 -84.336858 
L 52.710938 -116.139627 
L 51.160938 -116.139627 
L 49.610938 -143.691265 
L 48.060938 -237.377409 
L 46.510938 -332.107813 
L 44.960938 -522.939238 
z
" clip-path="url(#p15d9be738a)" style="fill: #ff1493; fill-opacity: 0.2; stroke: #ff1493; stroke-opacity: 0.2"/>
   </g>
   <g id="matplotlib.axis_1">
    <g id="xtick_1">
     <g id="line2d_1">
      <defs>
       <path id="m4a57ef914d" d="M 0 0 
L 0 3.5 
" style="stroke: #000000; stroke-width: 0.8"/>
      </defs>
      <g>
       <use xlink:href="#m4a57ef914d" x="44.960938" y="225.559219" style="stroke: #000000; stroke-width: 0.8"/>
      </g>
     </g>
     <g id="text_1">
      <!-- 0 -->
      <g transform="translate(41.779688 240.157656)scale(0.1 -0.1)">
       <defs>
        <path id="DejaVuSans-30" d="M 2034 4250 
Q 1547 4250 1301 3770 
Q 1056 3291 1056 2328 
Q 1056 1369 1301 889 
Q 1547 409 2034 409 
Q 2525 409 2770 889 
Q 3016 1369 3016 2328 
Q 3016 3291 2770 3770 
Q 2525 4250 2034 4250 
z
M 2034 4750 
Q 2819 4750 3233 4129 
Q 3647 3509 3647 2328 
Q 3647 1150 3233 529 
Q 2819 -91 2034 -91 
Q 1250 -91 836 529 
Q 422 1150 422 2328 
Q 422 3509 836 4129 
Q 1250 4750 2034 4750 
z
" transform="scale(0.015625)"/>
       </defs>
       <use xlink:href="#DejaVuSans-30"/>
      </g>
     </g>
    </g>
    <g id="xtick_2">
     <g id="line2d_2">
      <g>
       <use xlink:href="#m4a57ef914d" x="75.960938" y="225.559219" style="stroke: #000000; stroke-width: 0.8"/>
      </g>
     </g>
     <g id="text_2">
      <!-- 20 -->
      <g transform="translate(69.598438 240.157656)scale(0.1 -0.1)">
       <defs>
        <path id="DejaVuSans-32" d="M 1228 531 
L 3431 531 
L 3431 0 
L 469 0 
L 469 531 
Q 828 903 1448 1529 
Q 2069 2156 2228 2338 
Q 2531 2678 2651 2914 
Q 2772 3150 2772 3378 
Q 2772 3750 2511 3984 
Q 2250 4219 1831 4219 
Q 1534 4219 1204 4116 
Q 875 4013 500 3803 
L 500 4441 
Q 881 4594 1212 4672 
Q 1544 4750 1819 4750 
Q 2544 4750 2975 4387 
Q 3406 4025 3406 3419 
Q 3406 3131 3298 2873 
Q 3191 2616 2906 2266 
Q 2828 2175 2409 1742 
Q 1991 1309 1228 531 
z
" transform="scale(0.015625)"/>
       </defs>
       <use xlink:href="#DejaVuSans-32"/>
       <use xlink:href="#DejaVuSans-30" x="63.623047"/>
      </g>
     </g>
    </g>
    <g id="xtick_3">
     <g id="line2d_3">
      <g>
       <use xlink:href="#m4a57ef914d" x="106.960938" y="225.559219" style="stroke: #000000; stroke-width: 0.8"/>
      </g>
     </g>
     <g id="text_3">
      <!-- 40 -->
      <g transform="translate(100.598438 240.157656)scale(0.1 -0.1)">
       <defs>
        <path id="DejaVuSans-34" d="M 2419 4116 
L 825 1625 
L 2419 1625 
L 2419 4116 
z
M 2253 4666 
L 3047 4666 
L 3047 1625 
L 3713 1625 
L 3713 1100 
L 3047 1100 
L 3047 0 
L 2419 0 
L 2419 1100 
L 313 1100 
L 313 1709 
L 2253 4666 
z
" transform="scale(0.015625)"/>
       </defs>
       <use xlink:href="#DejaVuSans-34"/>
       <use xlink:href="#DejaVuSans-30" x="63.623047"/>
      </g>
     </g>
    </g>
    <g id="xtick_4">
     <g id="line2d_4">
      <g>
       <use xlink:href="#m4a57ef914d" x="137.960938" y="225.559219" style="stroke: #000000; stroke-width: 0.8"/>
      </g>
     </g>
     <g id="text_4">
      <!-- 60 -->
      <g transform="translate(131.598437 240.157656)scale(0.1 -0.1)">
       <defs>
        <path id="DejaVuSans-36" d="M 2113 2584 
Q 1688 2584 1439 2293 
Q 1191 2003 1191 1497 
Q 1191 994 1439 701 
Q 1688 409 2113 409 
Q 2538 409 2786 701 
Q 3034 994 3034 1497 
Q 3034 2003 2786 2293 
Q 2538 2584 2113 2584 
z
M 3366 4563 
L 3366 3988 
Q 3128 4100 2886 4159 
Q 2644 4219 2406 4219 
Q 1781 4219 1451 3797 
Q 1122 3375 1075 2522 
Q 1259 2794 1537 2939 
Q 1816 3084 2150 3084 
Q 2853 3084 3261 2657 
Q 3669 2231 3669 1497 
Q 3669 778 3244 343 
Q 2819 -91 2113 -91 
Q 1303 -91 875 529 
Q 447 1150 447 2328 
Q 447 3434 972 4092 
Q 1497 4750 2381 4750 
Q 2619 4750 2861 4703 
Q 3103 4656 3366 4563 
z
" transform="scale(0.015625)"/>
       </defs>
       <use xlink:href="#DejaVuSans-36"/>
       <use xlink:href="#DejaVuSans-30" x="63.623047"/>
      </g>
     </g>
    </g>
    <g id="xtick_5">
     <g id="line2d_5">
      <g>
       <use xlink:href="#m4a57ef914d" x="168.960938" y="225.559219" style="stroke: #000000; stroke-width: 0.8"/>
      </g>
     </g>
     <g id="text_5">
      <!-- 80 -->
      <g transform="translate(162.598437 240.157656)scale(0.1 -0.1)">
       <defs>
        <path id="DejaVuSans-38" d="M 2034 2216 
Q 1584 2216 1326 1975 
Q 1069 1734 1069 1313 
Q 1069 891 1326 650 
Q 1584 409 2034 409 
Q 2484 409 2743 651 
Q 3003 894 3003 1313 
Q 3003 1734 2745 1975 
Q 2488 2216 2034 2216 
z
M 1403 2484 
Q 997 2584 770 2862 
Q 544 3141 544 3541 
Q 544 4100 942 4425 
Q 1341 4750 2034 4750 
Q 2731 4750 3128 4425 
Q 3525 4100 3525 3541 
Q 3525 3141 3298 2862 
Q 3072 2584 2669 2484 
Q 3125 2378 3379 2068 
Q 3634 1759 3634 1313 
Q 3634 634 3220 271 
Q 2806 -91 2034 -91 
Q 1263 -91 848 271 
Q 434 634 434 1313 
Q 434 1759 690 2068 
Q 947 2378 1403 2484 
z
M 1172 3481 
Q 1172 3119 1398 2916 
Q 1625 2713 2034 2713 
Q 2441 2713 2670 2916 
Q 2900 3119 2900 3481 
Q 2900 3844 2670 4047 
Q 2441 4250 2034 4250 
Q 1625 4250 1398 4047 
Q 1172 3844 1172 3481 
z
" transform="scale(0.015625)"/>
       </defs>
       <use xlink:href="#DejaVuSans-38"/>
       <use xlink:href="#DejaVuSans-30" x="63.623047"/>
      </g>
     </g>
    </g>
    <g id="xtick_6">
     <g id="line2d_6">
      <g>
       <use xlink:href="#m4a57ef914d" x="199.960938" y="225.559219" style="stroke: #000000; stroke-width: 0.8"/>
      </g>
     </g>
     <g id="text_6">
      <!-- 100 -->
      <g transform="translate(190.417188 240.157656)scale(0.1 -0.1)">
       <defs>
        <path id="DejaVuSans-31" d="M 794 531 
L 1825 531 
L 1825 4091 
L 703 3866 
L 703 4441 
L 1819 4666 
L 2450 4666 
L 2450 531 
L 3481 531 
L 3481 0 
L 794 0 
L 794 531 
z
" transform="scale(0.015625)"/>
       </defs>
       <use xlink:href="#DejaVuSans-31"/>
       <use xlink:href="#DejaVuSans-30" x="63.623047"/>
       <use xlink:href="#DejaVuSans-30" x="127.246094"/>
      </g>
     </g>
    </g>
    <g id="xtick_7">
     <g id="line2d_7">
      <g>
       <use xlink:href="#m4a57ef914d" x="230.960938" y="225.559219" style="stroke: #000000; stroke-width: 0.8"/>
      </g>
     </g>
     <g id="text_7">
      <!-- 120 -->
      <g transform="translate(221.417188 240.157656)scale(0.1 -0.1)">
       <use xlink:href="#DejaVuSans-31"/>
       <use xlink:href="#DejaVuSans-32" x="63.623047"/>
       <use xlink:href="#DejaVuSans-30" x="127.246094"/>
      </g>
     </g>
    </g>
    <g id="xtick_8">
     <g id="line2d_8">
      <g>
       <use xlink:href="#m4a57ef914d" x="261.960938" y="225.559219" style="stroke: #000000; stroke-width: 0.8"/>
      </g>
     </g>
     <g id="text_8">
      <!-- 140 -->
      <g transform="translate(252.417188 240.157656)scale(0.1 -0.1)">
       <use xlink:href="#DejaVuSans-31"/>
       <use xlink:href="#DejaVuSans-34" x="63.623047"/>
       <use xlink:href="#DejaVuSans-30" x="127.246094"/>
      </g>
     </g>
    </g>
    <g id="xtick_9">
     <g id="line2d_9">
      <g>
       <use xlink:href="#m4a57ef914d" x="292.960938" y="225.559219" style="stroke: #000000; stroke-width: 0.8"/>
      </g>
     </g>
     <g id="text_9">
      <!-- 160 -->
      <g transform="translate(283.417188 240.157656)scale(0.1 -0.1)">
       <use xlink:href="#DejaVuSans-31"/>
       <use xlink:href="#DejaVuSans-36" x="63.623047"/>
       <use xlink:href="#DejaVuSans-30" x="127.246094"/>
      </g>
     </g>
    </g>
    <g id="xtick_10">
     <g id="line2d_10">
      <g>
       <use xlink:href="#m4a57ef914d" x="323.960938" y="225.559219" style="stroke: #000000; stroke-width: 0.8"/>
      </g>
     </g>
     <g id="text_10">
      <!-- 180 -->
      <g transform="translate(314.417188 240.157656)scale(0.1 -0.1)">
       <use xlink:href="#DejaVuSans-31"/>
       <use xlink:href="#DejaVuSans-38" x="63.623047"/>
       <use xlink:href="#DejaVuSans-30" x="127.246094"/>
      </g>
     </g>
    </g>
    <g id="text_11">
     <!-- Parameter set evaluations -->
     <g transform="translate(118.725 253.835781)scale(0.1 -0.1)">
      <defs>
       <path id="DejaVuSans-50" d="M 1259 4147 
L 1259 2394 
L 2053 2394 
Q 2494 2394 2734 2622 
Q 2975 2850 2975 3272 
Q 2975 3691 2734 3919 
Q 2494 4147 2053 4147 
L 1259 4147 
z
M 628 4666 
L 2053 4666 
Q 2838 4666 3239 4311 
Q 3641 3956 3641 3272 
Q 3641 2581 3239 2228 
Q 2838 1875 2053 1875 
L 1259 1875 
L 1259 0 
L 628 0 
L 628 4666 
z
" transform="scale(0.015625)"/>
       <path id="DejaVuSans-61" d="M 2194 1759 
Q 1497 1759 1228 1600 
Q 959 1441 959 1056 
Q 959 750 1161 570 
Q 1363 391 1709 391 
Q 2188 391 2477 730 
Q 2766 1069 2766 1631 
L 2766 1759 
L 2194 1759 
z
M 3341 1997 
L 3341 0 
L 2766 0 
L 2766 531 
Q 2569 213 2275 61 
Q 1981 -91 1556 -91 
Q 1019 -91 701 211 
Q 384 513 384 1019 
Q 384 1609 779 1909 
Q 1175 2209 1959 2209 
L 2766 2209 
L 2766 2266 
Q 2766 2663 2505 2880 
Q 2244 3097 1772 3097 
Q 1472 3097 1187 3025 
Q 903 2953 641 2809 
L 641 3341 
Q 956 3463 1253 3523 
Q 1550 3584 1831 3584 
Q 2591 3584 2966 3190 
Q 3341 2797 3341 1997 
z
" transform="scale(0.015625)"/>
       <path id="DejaVuSans-72" d="M 2631 2963 
Q 2534 3019 2420 3045 
Q 2306 3072 2169 3072 
Q 1681 3072 1420 2755 
Q 1159 2438 1159 1844 
L 1159 0 
L 581 0 
L 581 3500 
L 1159 3500 
L 1159 2956 
Q 1341 3275 1631 3429 
Q 1922 3584 2338 3584 
Q 2397 3584 2469 3576 
Q 2541 3569 2628 3553 
L 2631 2963 
z
" transform="scale(0.015625)"/>
       <path id="DejaVuSans-6d" d="M 3328 2828 
Q 3544 3216 3844 3400 
Q 4144 3584 4550 3584 
Q 5097 3584 5394 3201 
Q 5691 2819 5691 2113 
L 5691 0 
L 5113 0 
L 5113 2094 
Q 5113 2597 4934 2840 
Q 4756 3084 4391 3084 
Q 3944 3084 3684 2787 
Q 3425 2491 3425 1978 
L 3425 0 
L 2847 0 
L 2847 2094 
Q 2847 2600 2669 2842 
Q 2491 3084 2119 3084 
Q 1678 3084 1418 2786 
Q 1159 2488 1159 1978 
L 1159 0 
L 581 0 
L 581 3500 
L 1159 3500 
L 1159 2956 
Q 1356 3278 1631 3431 
Q 1906 3584 2284 3584 
Q 2666 3584 2933 3390 
Q 3200 3197 3328 2828 
z
" transform="scale(0.015625)"/>
       <path id="DejaVuSans-65" d="M 3597 1894 
L 3597 1613 
L 953 1613 
Q 991 1019 1311 708 
Q 1631 397 2203 397 
Q 2534 397 2845 478 
Q 3156 559 3463 722 
L 3463 178 
Q 3153 47 2828 -22 
Q 2503 -91 2169 -91 
Q 1331 -91 842 396 
Q 353 884 353 1716 
Q 353 2575 817 3079 
Q 1281 3584 2069 3584 
Q 2775 3584 3186 3129 
Q 3597 2675 3597 1894 
z
M 3022 2063 
Q 3016 2534 2758 2815 
Q 2500 3097 2075 3097 
Q 1594 3097 1305 2825 
Q 1016 2553 972 2059 
L 3022 2063 
z
" transform="scale(0.015625)"/>
       <path id="DejaVuSans-74" d="M 1172 4494 
L 1172 3500 
L 2356 3500 
L 2356 3053 
L 1172 3053 
L 1172 1153 
Q 1172 725 1289 603 
Q 1406 481 1766 481 
L 2356 481 
L 2356 0 
L 1766 0 
Q 1100 0 847 248 
Q 594 497 594 1153 
L 594 3053 
L 172 3053 
L 172 3500 
L 594 3500 
L 594 4494 
L 1172 4494 
z
" transform="scale(0.015625)"/>
       <path id="DejaVuSans-20" transform="scale(0.015625)"/>
       <path id="DejaVuSans-73" d="M 2834 3397 
L 2834 2853 
Q 2591 2978 2328 3040 
Q 2066 3103 1784 3103 
Q 1356 3103 1142 2972 
Q 928 2841 928 2578 
Q 928 2378 1081 2264 
Q 1234 2150 1697 2047 
L 1894 2003 
Q 2506 1872 2764 1633 
Q 3022 1394 3022 966 
Q 3022 478 2636 193 
Q 2250 -91 1575 -91 
Q 1294 -91 989 -36 
Q 684 19 347 128 
L 347 722 
Q 666 556 975 473 
Q 1284 391 1588 391 
Q 1994 391 2212 530 
Q 2431 669 2431 922 
Q 2431 1156 2273 1281 
Q 2116 1406 1581 1522 
L 1381 1569 
Q 847 1681 609 1914 
Q 372 2147 372 2553 
Q 372 3047 722 3315 
Q 1072 3584 1716 3584 
Q 2034 3584 2315 3537 
Q 2597 3491 2834 3397 
z
" transform="scale(0.015625)"/>
       <path id="DejaVuSans-76" d="M 191 3500 
L 800 3500 
L 1894 563 
L 2988 3500 
L 3597 3500 
L 2284 0 
L 1503 0 
L 191 3500 
z
" transform="scale(0.015625)"/>
       <path id="DejaVuSans-6c" d="M 603 4863 
L 1178 4863 
L 1178 0 
L 603 0 
L 603 4863 
z
" transform="scale(0.015625)"/>
       <path id="DejaVuSans-75" d="M 544 1381 
L 544 3500 
L 1119 3500 
L 1119 1403 
Q 1119 906 1312 657 
Q 1506 409 1894 409 
Q 2359 409 2629 706 
Q 2900 1003 2900 1516 
L 2900 3500 
L 3475 3500 
L 3475 0 
L 2900 0 
L 2900 538 
Q 2691 219 2414 64 
Q 2138 -91 1772 -91 
Q 1169 -91 856 284 
Q 544 659 544 1381 
z
M 1991 3584 
L 1991 3584 
z
" transform="scale(0.015625)"/>
       <path id="DejaVuSans-69" d="M 603 3500 
L 1178 3500 
L 1178 0 
L 603 0 
L 603 3500 
z
M 603 4863 
L 1178 4863 
L 1178 4134 
L 603 4134 
L 603 4863 
z
" transform="scale(0.015625)"/>
       <path id="DejaVuSans-6f" d="M 1959 3097 
Q 1497 3097 1228 2736 
Q 959 2375 959 1747 
Q 959 1119 1226 758 
Q 1494 397 1959 397 
Q 2419 397 2687 759 
Q 2956 1122 2956 1747 
Q 2956 2369 2687 2733 
Q 2419 3097 1959 3097 
z
M 1959 3584 
Q 2709 3584 3137 3096 
Q 3566 2609 3566 1747 
Q 3566 888 3137 398 
Q 2709 -91 1959 -91 
Q 1206 -91 779 398 
Q 353 888 353 1747 
Q 353 2609 779 3096 
Q 1206 3584 1959 3584 
z
" transform="scale(0.015625)"/>
       <path id="DejaVuSans-6e" d="M 3513 2113 
L 3513 0 
L 2938 0 
L 2938 2094 
Q 2938 2591 2744 2837 
Q 2550 3084 2163 3084 
Q 1697 3084 1428 2787 
Q 1159 2491 1159 1978 
L 1159 0 
L 581 0 
L 581 3500 
L 1159 3500 
L 1159 2956 
Q 1366 3272 1645 3428 
Q 1925 3584 2291 3584 
Q 2894 3584 3203 3211 
Q 3513 2838 3513 2113 
z
" transform="scale(0.015625)"/>
      </defs>
      <use xlink:href="#DejaVuSans-50"/>
      <use xlink:href="#DejaVuSans-61" x="55.802734"/>
      <use xlink:href="#DejaVuSans-72" x="117.082031"/>
      <use xlink:href="#DejaVuSans-61" x="158.195312"/>
      <use xlink:href="#DejaVuSans-6d" x="219.474609"/>
      <use xlink:href="#DejaVuSans-65" x="316.886719"/>
      <use xlink:href="#DejaVuSans-74" x="378.410156"/>
      <use xlink:href="#DejaVuSans-65" x="417.619141"/>
      <use xlink:href="#DejaVuSans-72" x="479.142578"/>
      <use xlink:href="#DejaVuSans-20" x="520.255859"/>
      <use xlink:href="#DejaVuSans-73" x="552.042969"/>
      <use xlink:href="#DejaVuSans-65" x="604.142578"/>
      <use xlink:href="#DejaVuSans-74" x="665.666016"/>
      <use xlink:href="#DejaVuSans-20" x="704.875"/>
      <use xlink:href="#DejaVuSans-65" x="736.662109"/>
      <use xlink:href="#DejaVuSans-76" x="798.185547"/>
      <use xlink:href="#DejaVuSans-61" x="857.365234"/>
      <use xlink:href="#DejaVuSans-6c" x="918.644531"/>
      <use xlink:href="#DejaVuSans-75" x="946.427734"/>
      <use xlink:href="#DejaVuSans-61" x="1009.806641"/>
      <use xlink:href="#DejaVuSans-74" x="1071.085938"/>
      <use xlink:href="#DejaVuSans-69" x="1110.294922"/>
      <use xlink:href="#DejaVuSans-6f" x="1138.078125"/>
      <use xlink:href="#DejaVuSans-6e" x="1199.259766"/>
      <use xlink:href="#DejaVuSans-73" x="1262.638672"/>
     </g>
    </g>
   </g>
   <g id="matplotlib.axis_2">
    <g id="ytick_1">
     <g id="line2d_11">
      <defs>
       <path id="ma81fd22c36" d="M 0 0 
L -3.5 0 
" style="stroke: #000000; stroke-width: 0.8"/>
      </defs>
      <g>
       <use xlink:href="#ma81fd22c36" x="44.960938" y="225.559219" style="stroke: #000000; stroke-width: 0.8"/>
      </g>
     </g>
     <g id="text_12">
      <!-- 1.0 -->
      <g transform="translate(13.678125 229.358438)scale(0.1 -0.1)">
       <defs>
        <path id="DejaVuSans-2212" d="M 678 2272 
L 4684 2272 
L 4684 1741 
L 678 1741 
L 678 2272 
z
" transform="scale(0.015625)"/>
        <path id="DejaVuSans-2e" d="M 684 794 
L 1344 794 
L 1344 0 
L 684 0 
L 684 794 
z
" transform="scale(0.015625)"/>
       </defs>
       <use xlink:href="#DejaVuSans-2212"/>
       <use xlink:href="#DejaVuSans-31" x="83.789062"/>
       <use xlink:href="#DejaVuSans-2e" x="147.412109"/>
       <use xlink:href="#DejaVuSans-30" x="179.199219"/>
      </g>
     </g>
    </g>
    <g id="ytick_2">
     <g id="line2d_12">
      <g>
       <use xlink:href="#ma81fd22c36" x="44.960938" y="181.207219" style="stroke: #000000; stroke-width: 0.8"/>
      </g>
     </g>
     <g id="text_13">
      <!-- 0.5 -->
      <g transform="translate(13.678125 185.006438)scale(0.1 -0.1)">
       <defs>
        <path id="DejaVuSans-35" d="M 691 4666 
L 3169 4666 
L 3169 4134 
L 1269 4134 
L 1269 2991 
Q 1406 3038 1543 3061 
Q 1681 3084 1819 3084 
Q 2600 3084 3056 2656 
Q 3513 2228 3513 1497 
Q 3513 744 3044 326 
Q 2575 -91 1722 -91 
Q 1428 -91 1123 -41 
Q 819 9 494 109 
L 494 744 
Q 775 591 1075 516 
Q 1375 441 1709 441 
Q 2250 441 2565 725 
Q 2881 1009 2881 1497 
Q 2881 1984 2565 2268 
Q 2250 2553 1709 2553 
Q 1456 2553 1204 2497 
Q 953 2441 691 2322 
L 691 4666 
z
" transform="scale(0.015625)"/>
       </defs>
       <use xlink:href="#DejaVuSans-2212"/>
       <use xlink:href="#DejaVuSans-30" x="83.789062"/>
       <use xlink:href="#DejaVuSans-2e" x="147.412109"/>
       <use xlink:href="#DejaVuSans-35" x="179.199219"/>
      </g>
     </g>
    </g>
    <g id="ytick_3">
     <g id="line2d_13">
      <g>
       <use xlink:href="#ma81fd22c36" x="44.960938" y="136.855219" style="stroke: #000000; stroke-width: 0.8"/>
      </g>
     </g>
     <g id="text_14">
      <!-- 0.0 -->
      <g transform="translate(22.057813 140.654438)scale(0.1 -0.1)">
       <use xlink:href="#DejaVuSans-30"/>
       <use xlink:href="#DejaVuSans-2e" x="63.623047"/>
       <use xlink:href="#DejaVuSans-30" x="95.410156"/>
      </g>
     </g>
    </g>
    <g id="ytick_4">
     <g id="line2d_14">
      <g>
       <use xlink:href="#ma81fd22c36" x="44.960938" y="92.503219" style="stroke: #000000; stroke-width: 0.8"/>
      </g>
     </g>
     <g id="text_15">
      <!-- 0.5 -->
      <g transform="translate(22.057813 96.302437)scale(0.1 -0.1)">
       <use xlink:href="#DejaVuSans-30"/>
       <use xlink:href="#DejaVuSans-2e" x="63.623047"/>
       <use xlink:href="#DejaVuSans-35" x="95.410156"/>
      </g>
     </g>
    </g>
    <g id="ytick_5">
     <g id="line2d_15">
      <g>
       <use xlink:href="#ma81fd22c36" x="44.960938" y="48.151219" style="stroke: #000000; stroke-width: 0.8"/>
      </g>
     </g>
     <g id="text_16">
      <!-- 1.0 -->
      <g transform="translate(22.057813 51.950438)scale(0.1 -0.1)">
       <use xlink:href="#DejaVuSans-31"/>
       <use xlink:href="#DejaVuSans-2e" x="63.623047"/>
       <use xlink:href="#DejaVuSans-30" x="95.410156"/>
      </g>
     </g>
    </g>
    <g id="ytick_6">
     <g id="line2d_16">
      <g>
       <use xlink:href="#ma81fd22c36" x="44.960938" y="3.799219" style="stroke: #000000; stroke-width: 0.8"/>
      </g>
     </g>
     <g id="text_17">
      <!-- 1.5 -->
      <g transform="translate(22.057813 7.598437)scale(0.1 -0.1)">
       <use xlink:href="#DejaVuSans-31"/>
       <use xlink:href="#DejaVuSans-2e" x="63.623047"/>
       <use xlink:href="#DejaVuSans-35" x="95.410156"/>
      </g>
     </g>
    </g>
    <g id="text_18">
     <!-- Normalized metabolic cost -->
     <g transform="translate(7.598438 181.318281)rotate(-90)scale(0.1 -0.1)">
      <defs>
       <path id="DejaVuSans-4e" d="M 628 4666 
L 1478 4666 
L 3547 763 
L 3547 4666 
L 4159 4666 
L 4159 0 
L 3309 0 
L 1241 3903 
L 1241 0 
L 628 0 
L 628 4666 
z
" transform="scale(0.015625)"/>
       <path id="DejaVuSans-7a" d="M 353 3500 
L 3084 3500 
L 3084 2975 
L 922 459 
L 3084 459 
L 3084 0 
L 275 0 
L 275 525 
L 2438 3041 
L 353 3041 
L 353 3500 
z
" transform="scale(0.015625)"/>
       <path id="DejaVuSans-64" d="M 2906 2969 
L 2906 4863 
L 3481 4863 
L 3481 0 
L 2906 0 
L 2906 525 
Q 2725 213 2448 61 
Q 2172 -91 1784 -91 
Q 1150 -91 751 415 
Q 353 922 353 1747 
Q 353 2572 751 3078 
Q 1150 3584 1784 3584 
Q 2172 3584 2448 3432 
Q 2725 3281 2906 2969 
z
M 947 1747 
Q 947 1113 1208 752 
Q 1469 391 1925 391 
Q 2381 391 2643 752 
Q 2906 1113 2906 1747 
Q 2906 2381 2643 2742 
Q 2381 3103 1925 3103 
Q 1469 3103 1208 2742 
Q 947 2381 947 1747 
z
" transform="scale(0.015625)"/>
       <path id="DejaVuSans-62" d="M 3116 1747 
Q 3116 2381 2855 2742 
Q 2594 3103 2138 3103 
Q 1681 3103 1420 2742 
Q 1159 2381 1159 1747 
Q 1159 1113 1420 752 
Q 1681 391 2138 391 
Q 2594 391 2855 752 
Q 3116 1113 3116 1747 
z
M 1159 2969 
Q 1341 3281 1617 3432 
Q 1894 3584 2278 3584 
Q 2916 3584 3314 3078 
Q 3713 2572 3713 1747 
Q 3713 922 3314 415 
Q 2916 -91 2278 -91 
Q 1894 -91 1617 61 
Q 1341 213 1159 525 
L 1159 0 
L 581 0 
L 581 4863 
L 1159 4863 
L 1159 2969 
z
" transform="scale(0.015625)"/>
       <path id="DejaVuSans-63" d="M 3122 3366 
L 3122 2828 
Q 2878 2963 2633 3030 
Q 2388 3097 2138 3097 
Q 1578 3097 1268 2742 
Q 959 2388 959 1747 
Q 959 1106 1268 751 
Q 1578 397 2138 397 
Q 2388 397 2633 464 
Q 2878 531 3122 666 
L 3122 134 
Q 2881 22 2623 -34 
Q 2366 -91 2075 -91 
Q 1284 -91 818 406 
Q 353 903 353 1747 
Q 353 2603 823 3093 
Q 1294 3584 2113 3584 
Q 2378 3584 2631 3529 
Q 2884 3475 3122 3366 
z
" transform="scale(0.015625)"/>
      </defs>
      <use xlink:href="#DejaVuSans-4e"/>
      <use xlink:href="#DejaVuSans-6f" x="74.804688"/>
      <use xlink:href="#DejaVuSans-72" x="135.986328"/>
      <use xlink:href="#DejaVuSans-6d" x="175.349609"/>
      <use xlink:href="#DejaVuSans-61" x="272.761719"/>
      <use xlink:href="#DejaVuSans-6c" x="334.041016"/>
      <use xlink:href="#DejaVuSans-69" x="361.824219"/>
      <use xlink:href="#DejaVuSans-7a" x="389.607422"/>
      <use xlink:href="#DejaVuSans-65" x="442.097656"/>
      <use xlink:href="#DejaVuSans-64" x="503.621094"/>
      <use xlink:href="#DejaVuSans-20" x="567.097656"/>
      <use xlink:href="#DejaVuSans-6d" x="598.884766"/>
      <use xlink:href="#DejaVuSans-65" x="696.296875"/>
      <use xlink:href="#DejaVuSans-74" x="757.820312"/>
      <use xlink:href="#DejaVuSans-61" x="797.029297"/>
      <use xlink:href="#DejaVuSans-62" x="858.308594"/>
      <use xlink:href="#DejaVuSans-6f" x="921.785156"/>
      <use xlink:href="#DejaVuSans-6c" x="982.966797"/>
      <use xlink:href="#DejaVuSans-69" x="1010.75"/>
      <use xlink:href="#DejaVuSans-63" x="1038.533203"/>
      <use xlink:href="#DejaVuSans-20" x="1093.513672"/>
      <use xlink:href="#DejaVuSans-63" x="1125.300781"/>
      <use xlink:href="#DejaVuSans-6f" x="1180.28125"/>
      <use xlink:href="#DejaVuSans-73" x="1241.462891"/>
      <use xlink:href="#DejaVuSans-74" x="1293.5625"/>
     </g>
    </g>
   </g>
   <g id="line2d_17">
    <path d="M 146.761182 -1 
L 147.260938 1.713782 
L 148.810938 1.713782 
L 150.360938 12.231518 
L 159.660938 12.231518 
L 161.210938 15.586773 
L 164.310938 15.586773 
L 165.860938 57.998804 
L 173.610938 58.048422 
L 175.160938 62.29125 
L 213.910938 62.29125 
L 215.460938 65.242552 
L 218.560937 65.242552 
L 220.110938 75.766555 
L 223.210938 75.766555 
L 224.760938 77.788922 
L 227.860938 77.788922 
L 229.410938 78.417749 
L 237.160938 78.417749 
L 238.710938 84.17762 
L 240.260938 84.17762 
L 241.810937 84.892382 
L 251.110938 84.892382 
L 252.660938 88.253928 
L 261.960938 88.253928 
L 263.510938 91.206618 
L 266.610938 91.206618 
L 268.160938 95.697882 
L 269.710938 99.834174 
L 272.810938 99.834174 
L 274.360938 100.019394 
L 279.010938 100.019394 
L 280.560938 103.014009 
L 286.760938 103.014009 
L 288.310938 104.436425 
L 297.610938 104.436425 
L 299.160938 107.521789 
L 302.260938 107.521789 
L 303.810938 109.854134 
L 306.910937 109.93525 
L 314.660937 109.93525 
L 316.210938 111.976033 
L 320.860938 111.976033 
L 322.410937 116.007009 
L 334.504687 116.007009 
L 334.504687 116.007009 
" clip-path="url(#p15d9be738a)" style="fill: none; stroke: #bf32e7; stroke-width: 1.5; stroke-linecap: square"/>
   </g>
   <g id="line2d_18">
    <path d="M 165.416946 -1 
L 165.860938 22.590805 
L 173.610938 22.590805 
L 175.160938 25.884351 
L 292.960938 25.884351 
L 294.510938 26.374353 
L 334.504687 26.392531 
L 334.504687 26.392531 
" clip-path="url(#p15d9be738a)" style="fill: none; stroke: #ff1493; stroke-width: 1.5; stroke-linecap: square"/>
   </g>
   <g id="patch_3">
    <path d="M 44.960938 225.559219 
L 44.960938 3.799219 
" style="fill: none; stroke: #000000; stroke-width: 1.2; stroke-linejoin: miter; stroke-linecap: square"/>
   </g>
   <g id="patch_4">
    <path d="M 323.960938 225.559219 
L 323.960938 3.799219 
" style="fill: none"/>
   </g>
   <g id="patch_5">
    <path d="M 44.960938 225.559219 
L 323.960938 225.559219 
" style="fill: none; stroke: #000000; stroke-width: 1.2; stroke-linejoin: miter; stroke-linecap: square"/>
   </g>
   <g id="patch_6">
    <path d="M 44.960938 3.799219 
L 323.960938 3.799219 
" style="fill: none"/>
   </g>
   <g id="legend_1">
    <g id="line2d_19">
     <path d="M 53.960938 191.742344 
L 53.960938 191.742344 
L 53.960938 191.742344 
" style="fill: none; stroke: #bf32e7; stroke-width: 1.5; stroke-linecap: square"/>
     <defs>
      <path id="mfd7b5014c3" d="M -3.5 3.5 
L 3.5 3.5 
L 3.5 -3.5 
L -3.5 -3.5 
z
" style="stroke: #bf32e7; stroke-linejoin: miter"/>
     </defs>
     <g>
      <use xlink:href="#mfd7b5014c3" x="53.960938" y="191.742344" style="fill: #bf32e7; stroke: #bf32e7; stroke-linejoin: miter"/>
     </g>
    </g>
    <g id="text_19">
     <!-- Covariance Matrix Adaptation -->
     <g transform="translate(61.960938 188.603594)scale(0.1 -0.1)">
      <defs>
       <path id="DejaVuSans-43" d="M 4122 4306 
L 4122 3641 
Q 3803 3938 3442 4084 
Q 3081 4231 2675 4231 
Q 1875 4231 1450 3742 
Q 1025 3253 1025 2328 
Q 1025 1406 1450 917 
Q 1875 428 2675 428 
Q 3081 428 3442 575 
Q 3803 722 4122 1019 
L 4122 359 
Q 3791 134 3420 21 
Q 3050 -91 2638 -91 
Q 1578 -91 968 557 
Q 359 1206 359 2328 
Q 359 3453 968 4101 
Q 1578 4750 2638 4750 
Q 3056 4750 3426 4639 
Q 3797 4528 4122 4306 
z
" transform="scale(0.015625)"/>
       <path id="DejaVuSans-4d" d="M 628 4666 
L 1569 4666 
L 2759 1491 
L 3956 4666 
L 4897 4666 
L 4897 0 
L 4281 0 
L 4281 4097 
L 3078 897 
L 2444 897 
L 1241 4097 
L 1241 0 
L 628 0 
L 628 4666 
z
" transform="scale(0.015625)"/>
       <path id="DejaVuSans-78" d="M 3513 3500 
L 2247 1797 
L 3578 0 
L 2900 0 
L 1881 1375 
L 863 0 
L 184 0 
L 1544 1831 
L 300 3500 
L 978 3500 
L 1906 2253 
L 2834 3500 
L 3513 3500 
z
" transform="scale(0.015625)"/>
       <path id="DejaVuSans-41" d="M 2188 4044 
L 1331 1722 
L 3047 1722 
L 2188 4044 
z
M 1831 4666 
L 2547 4666 
L 4325 0 
L 3669 0 
L 3244 1197 
L 1141 1197 
L 716 0 
L 50 0 
L 1831 4666 
z
" transform="scale(0.015625)"/>
       <path id="DejaVuSans-70" d="M 1159 525 
L 1159 -1331 
L 581 -1331 
L 581 3500 
L 1159 3500 
L 1159 2969 
Q 1341 3281 1617 3432 
Q 1894 3584 2278 3584 
Q 2916 3584 3314 3078 
Q 3713 2572 3713 1747 
Q 3713 922 3314 415 
Q 2916 -91 2278 -91 
Q 1894 -91 1617 61 
Q 1341 213 1159 525 
z
M 3116 1747 
Q 3116 2381 2855 2742 
Q 2594 3103 2138 3103 
Q 1681 3103 1420 2742 
Q 1159 2381 1159 1747 
Q 1159 1113 1420 752 
Q 1681 391 2138 391 
Q 2594 391 2855 752 
Q 3116 1113 3116 1747 
z
" transform="scale(0.015625)"/>
      </defs>
      <use xlink:href="#DejaVuSans-43"/>
      <use xlink:href="#DejaVuSans-6f" x="69.824219"/>
      <use xlink:href="#DejaVuSans-76" x="131.005859"/>
      <use xlink:href="#DejaVuSans-61" x="190.185547"/>
      <use xlink:href="#DejaVuSans-72" x="251.464844"/>
      <use xlink:href="#DejaVuSans-69" x="292.578125"/>
      <use xlink:href="#DejaVuSans-61" x="320.361328"/>
      <use xlink:href="#DejaVuSans-6e" x="381.640625"/>
      <use xlink:href="#DejaVuSans-63" x="445.019531"/>
      <use xlink:href="#DejaVuSans-65" x="500"/>
      <use xlink:href="#DejaVuSans-20" x="561.523438"/>
      <use xlink:href="#DejaVuSans-4d" x="593.310547"/>
      <use xlink:href="#DejaVuSans-61" x="679.589844"/>
      <use xlink:href="#DejaVuSans-74" x="740.869141"/>
      <use xlink:href="#DejaVuSans-72" x="780.078125"/>
      <use xlink:href="#DejaVuSans-69" x="821.191406"/>
      <use xlink:href="#DejaVuSans-78" x="848.974609"/>
      <use xlink:href="#DejaVuSans-20" x="908.154297"/>
      <use xlink:href="#DejaVuSans-41" x="939.941406"/>
      <use xlink:href="#DejaVuSans-64" x="1006.599609"/>
      <use xlink:href="#DejaVuSans-61" x="1070.076172"/>
      <use xlink:href="#DejaVuSans-70" x="1131.355469"/>
      <use xlink:href="#DejaVuSans-74" x="1194.832031"/>
      <use xlink:href="#DejaVuSans-61" x="1234.041016"/>
      <use xlink:href="#DejaVuSans-74" x="1295.320312"/>
      <use xlink:href="#DejaVuSans-69" x="1334.529297"/>
      <use xlink:href="#DejaVuSans-6f" x="1362.3125"/>
      <use xlink:href="#DejaVuSans-6e" x="1423.494141"/>
     </g>
     <!-- Evolutionary Strategy -->
     <g transform="translate(61.960938 199.801406)scale(0.1 -0.1)">
      <defs>
       <path id="DejaVuSans-45" d="M 628 4666 
L 3578 4666 
L 3578 4134 
L 1259 4134 
L 1259 2753 
L 3481 2753 
L 3481 2222 
L 1259 2222 
L 1259 531 
L 3634 531 
L 3634 0 
L 628 0 
L 628 4666 
z
" transform="scale(0.015625)"/>
       <path id="DejaVuSans-79" d="M 2059 -325 
Q 1816 -950 1584 -1140 
Q 1353 -1331 966 -1331 
L 506 -1331 
L 506 -850 
L 844 -850 
Q 1081 -850 1212 -737 
Q 1344 -625 1503 -206 
L 1606 56 
L 191 3500 
L 800 3500 
L 1894 763 
L 2988 3500 
L 3597 3500 
L 2059 -325 
z
" transform="scale(0.015625)"/>
       <path id="DejaVuSans-53" d="M 3425 4513 
L 3425 3897 
Q 3066 4069 2747 4153 
Q 2428 4238 2131 4238 
Q 1616 4238 1336 4038 
Q 1056 3838 1056 3469 
Q 1056 3159 1242 3001 
Q 1428 2844 1947 2747 
L 2328 2669 
Q 3034 2534 3370 2195 
Q 3706 1856 3706 1288 
Q 3706 609 3251 259 
Q 2797 -91 1919 -91 
Q 1588 -91 1214 -16 
Q 841 59 441 206 
L 441 856 
Q 825 641 1194 531 
Q 1563 422 1919 422 
Q 2459 422 2753 634 
Q 3047 847 3047 1241 
Q 3047 1584 2836 1778 
Q 2625 1972 2144 2069 
L 1759 2144 
Q 1053 2284 737 2584 
Q 422 2884 422 3419 
Q 422 4038 858 4394 
Q 1294 4750 2059 4750 
Q 2388 4750 2728 4690 
Q 3069 4631 3425 4513 
z
" transform="scale(0.015625)"/>
       <path id="DejaVuSans-67" d="M 2906 1791 
Q 2906 2416 2648 2759 
Q 2391 3103 1925 3103 
Q 1463 3103 1205 2759 
Q 947 2416 947 1791 
Q 947 1169 1205 825 
Q 1463 481 1925 481 
Q 2391 481 2648 825 
Q 2906 1169 2906 1791 
z
M 3481 434 
Q 3481 -459 3084 -895 
Q 2688 -1331 1869 -1331 
Q 1566 -1331 1297 -1286 
Q 1028 -1241 775 -1147 
L 775 -588 
Q 1028 -725 1275 -790 
Q 1522 -856 1778 -856 
Q 2344 -856 2625 -561 
Q 2906 -266 2906 331 
L 2906 616 
Q 2728 306 2450 153 
Q 2172 0 1784 0 
Q 1141 0 747 490 
Q 353 981 353 1791 
Q 353 2603 747 3093 
Q 1141 3584 1784 3584 
Q 2172 3584 2450 3431 
Q 2728 3278 2906 2969 
L 2906 3500 
L 3481 3500 
L 3481 434 
z
" transform="scale(0.015625)"/>
      </defs>
      <use xlink:href="#DejaVuSans-45"/>
      <use xlink:href="#DejaVuSans-76" x="63.183594"/>
      <use xlink:href="#DejaVuSans-6f" x="122.363281"/>
      <use xlink:href="#DejaVuSans-6c" x="183.544922"/>
      <use xlink:href="#DejaVuSans-75" x="211.328125"/>
      <use xlink:href="#DejaVuSans-74" x="274.707031"/>
      <use xlink:href="#DejaVuSans-69" x="313.916016"/>
      <use xlink:href="#DejaVuSans-6f" x="341.699219"/>
      <use xlink:href="#DejaVuSans-6e" x="402.880859"/>
      <use xlink:href="#DejaVuSans-61" x="466.259766"/>
      <use xlink:href="#DejaVuSans-72" x="527.539062"/>
      <use xlink:href="#DejaVuSans-79" x="568.652344"/>
      <use xlink:href="#DejaVuSans-20" x="627.832031"/>
      <use xlink:href="#DejaVuSans-53" x="659.619141"/>
      <use xlink:href="#DejaVuSans-74" x="723.095703"/>
      <use xlink:href="#DejaVuSans-72" x="762.304688"/>
      <use xlink:href="#DejaVuSans-61" x="803.417969"/>
      <use xlink:href="#DejaVuSans-74" x="864.697266"/>
      <use xlink:href="#DejaVuSans-65" x="903.90625"/>
      <use xlink:href="#DejaVuSans-67" x="965.429688"/>
      <use xlink:href="#DejaVuSans-79" x="1028.90625"/>
     </g>
    </g>
    <g id="line2d_20">
     <path d="M 53.960938 210.979531 
L 53.960938 210.979531 
L 53.960938 210.979531 
" style="fill: none; stroke: #ff1493; stroke-width: 1.5; stroke-linecap: square"/>
     <defs>
      <path id="m8051b56250" d="M -3.5 3.5 
L 3.5 3.5 
L 3.5 -3.5 
L -3.5 -3.5 
z
" style="stroke: #ff1493; stroke-linejoin: miter"/>
     </defs>
     <g>
      <use xlink:href="#m8051b56250" x="53.960938" y="210.979531" style="fill: #ff1493; stroke: #ff1493; stroke-linejoin: miter"/>
     </g>
    </g>
    <g id="text_20">
     <!-- Cross-Entropy -->
     <g transform="translate(61.960938 214.479531)scale(0.1 -0.1)">
      <defs>
       <path id="DejaVuSans-2d" d="M 313 2009 
L 1997 2009 
L 1997 1497 
L 313 1497 
L 313 2009 
z
" transform="scale(0.015625)"/>
      </defs>
      <use xlink:href="#DejaVuSans-43"/>
      <use xlink:href="#DejaVuSans-72" x="69.824219"/>
      <use xlink:href="#DejaVuSans-6f" x="108.6875"/>
      <use xlink:href="#DejaVuSans-73" x="169.869141"/>
      <use xlink:href="#DejaVuSans-73" x="221.96875"/>
      <use xlink:href="#DejaVuSans-2d" x="274.068359"/>
      <use xlink:href="#DejaVuSans-45" x="310.152344"/>
      <use xlink:href="#DejaVuSans-6e" x="373.335938"/>
      <use xlink:href="#DejaVuSans-74" x="436.714844"/>
      <use xlink:href="#DejaVuSans-72" x="475.923828"/>
      <use xlink:href="#DejaVuSans-6f" x="514.787109"/>
      <use xlink:href="#DejaVuSans-70" x="575.96875"/>
      <use xlink:href="#DejaVuSans-79" x="639.445312"/>
     </g>
    </g>
   </g>
  </g>
 </g>
 <defs>
  <clipPath id="p15d9be738a">
   <rect x="44.960938" y="3.799219" width="279" height="221.76"/>
  </clipPath>
 </defs>
</svg>
