<?xml version="1.0" encoding="utf-8" standalone="no"?>
<!DOCTYPE svg PUBLIC "-//W3C//DTD SVG 1.1//EN"
  "http://www.w3.org/Graphics/SVG/1.1/DTD/svg11.dtd">
<svg xmlns:xlink="http://www.w3.org/1999/xlink" width="333.504687pt" height="252.11625pt" viewBox="0 0 333.504687 252.11625" xmlns="http://www.w3.org/2000/svg" version="1.1">
 <metadata>
  <rdf:RDF xmlns:dc="http://purl.org/dc/elements/1.1/" xmlns:cc="http://creativecommons.org/ns#" xmlns:rdf="http://www.w3.org/1999/02/22-rdf-syntax-ns#">
   <cc:Work>
    <dc:type rdf:resource="http://purl.org/dc/dcmitype/StillImage"/>
    <dc:date>2024-04-10T08:59:40.009896</dc:date>
    <dc:format>image/svg+xml</dc:format>
    <dc:creator>
     <cc:Agent>
      <dc:title>Matplotlib v3.5.3, https://matplotlib.org/</dc:title>
     </cc:Agent>
    </dc:creator>
   </cc:Work>
  </rdf:RDF>
 </metadata>
 <defs>
  <style type="text/css">*{stroke-linejoin: round; stroke-linecap: butt}</style>
 </defs>
 <g id="figure_1">
  <g id="patch_1">
   <path d="M 0 252.11625 
L 333.504687 252.11625 
L 333.504687 0 
L 0 0 
z
" style="fill: #ffffff"/>
  </g>
  <g id="axes_1">
   <g id="patch_2">
    <path d="M 44.960938 221.76 
L 323.960938 221.76 
L 323.960938 0 
L 44.960938 0 
z
" style="fill: #ffffff"/>
   </g>
   <g id="PolyCollection_1">
    <defs>
     <path id="mb61a7fd3be" d="M 44.960938 -242.145883 
L 44.960938 -242.145883 
L 46.510938 -235.726494 
L 48.060938 -222.915636 
L 49.610938 -205.310361 
L 51.160938 -181.053885 
L 52.710938 -176.265246 
L 54.260938 -169.299031 
L 55.810938 -164.164451 
L 57.360938 -162.530098 
L 58.910938 -159.817182 
L 60.460938 -157.635976 
L 62.010938 -155.936213 
L 63.560938 -155.255614 
L 65.110938 -150.865402 
L 66.660938 -142.672865 
L 68.210938 -140.2773 
L 69.760938 -136.852316 
L 71.310938 -134.417649 
L 72.860938 -130.572121 
L 74.410938 -125.514518 
L 75.960938 -117.054087 
L 77.510938 -113.361585 
L 79.060938 -109.672049 
L 80.610938 -108.561284 
L 82.160938 -102.736413 
L 83.710938 -96.838504 
L 85.260938 -95.542625 
L 86.810938 -93.362915 
L 88.360938 -92.152376 
L 89.910938 -88.350118 
L 91.460938 -84.922253 
L 93.010938 -79.37911 
L 94.560938 -76.304644 
L 96.110938 -75.432159 
L 97.660938 -75.434638 
L 99.210938 -74.909301 
L 100.760938 -73.902167 
L 102.310938 -73.726235 
L 103.860938 -73.051689 
L 105.410938 -72.172344 
L 106.960938 -71.188527 
L 108.510938 -68.962494 
L 110.060938 -68.110185 
L 111.610938 -67.979977 
L 113.160938 -66.646863 
L 114.710938 -66.353348 
L 116.260938 -65.178279 
L 117.810938 -64.93808 
L 119.360938 -64.605567 
L 120.910938 -64.605567 
L 122.460938 -64.368829 
L 124.010938 -63.446574 
L 125.560938 -63.476701 
L 127.110938 -63.450832 
L 128.660938 -63.450832 
L 130.210938 -63.25245 
L 131.760938 -63.201376 
L 133.310938 -63.035361 
L 134.860938 -62.632381 
L 136.410938 -62.632381 
L 137.960938 -62.209535 
L 139.510938 -62.23725 
L 141.060938 -62.23725 
L 142.610938 -62.23725 
L 144.160938 -62.23725 
L 145.710938 -61.955015 
L 147.260938 -61.955015 
L 148.810938 -61.257154 
L 150.360938 -61.257154 
L 151.910938 -61.163695 
L 153.460938 -61.163695 
L 155.010938 -60.951453 
L 156.560938 -60.769651 
L 158.110938 -60.592877 
L 159.660938 -60.527966 
L 161.210938 -60.495425 
L 162.760938 -60.495425 
L 164.310938 -60.495425 
L 165.860938 -60.495425 
L 167.410938 -60.495425 
L 168.960938 -60.470488 
L 170.510938 -60.470488 
L 172.060938 -60.470488 
L 173.610938 -60.470488 
L 175.160938 -60.470488 
L 176.710938 -60.470488 
L 178.260938 -60.456738 
L 179.810937 -60.384989 
L 181.360938 -60.384989 
L 182.910938 -60.384989 
L 184.460938 -60.385909 
L 186.010938 -60.356275 
L 187.560937 -59.579131 
L 189.110938 -59.579131 
L 190.660938 -59.457144 
L 192.210938 -59.457144 
L 193.760938 -59.457144 
L 195.310937 -59.457144 
L 196.860938 -59.457144 
L 198.410938 -59.457144 
L 199.960938 -59.427798 
L 201.510938 -59.427798 
L 203.060937 -59.427798 
L 204.610938 -59.427798 
L 206.160938 -59.427798 
L 207.710938 -59.427798 
L 209.260938 -59.383987 
L 210.810937 -59.383987 
L 212.360938 -59.383987 
L 213.910938 -59.383987 
L 215.460938 -59.383987 
L 217.010938 -59.383987 
L 218.560937 -59.383987 
L 220.110938 -59.365437 
L 221.660938 -59.365437 
L 223.210938 -59.365437 
L 224.760938 -59.255689 
L 226.310937 -59.255689 
L 227.860938 -59.255689 
L 229.410938 -59.255689 
L 230.960938 -59.255689 
L 232.510938 -59.064248 
L 234.060937 -59.064248 
L 235.610938 -59.064248 
L 237.160938 -59.064248 
L 238.710938 -59.064248 
L 240.260938 -59.064248 
L 241.810937 -59.064248 
L 243.360938 -59.064248 
L 244.910938 -58.52955 
L 246.460938 -58.52955 
L 248.010938 -58.52955 
L 249.560937 -58.52955 
L 251.110938 -58.52955 
L 252.660938 -58.04909 
L 254.210938 -58.04909 
L 255.760938 -57.990432 
L 257.310938 -57.990432 
L 258.860938 -57.990432 
L 260.410938 -57.823528 
L 261.960938 -57.823528 
L 263.510938 -57.823528 
L 265.060938 -57.823528 
L 266.610938 -57.823528 
L 268.160938 -57.814131 
L 269.710938 -57.814131 
L 271.260938 -57.814131 
L 272.810938 -57.814131 
L 274.360938 -57.814131 
L 275.910938 -57.814131 
L 277.460938 -57.814131 
L 279.010938 -57.814131 
L 280.560938 -57.814131 
L 282.110938 -57.814131 
L 283.660938 -57.785747 
L 285.210938 -57.511064 
L 286.760938 -57.511064 
L 288.310938 -57.511064 
L 289.860938 -57.511064 
L 291.410938 -57.448364 
L 292.960938 -57.448364 
L 294.510938 -57.448364 
L 296.060938 -57.448364 
L 297.610938 -57.446361 
L 299.160938 -57.446361 
L 300.710938 -57.446361 
L 302.260938 -57.446361 
L 303.810938 -57.446361 
L 305.360938 -57.446361 
L 306.910937 -57.446361 
L 308.460938 -57.415984 
L 310.010938 -57.415984 
L 311.560938 -57.415984 
L 313.110938 -57.374026 
L 314.660937 -57.374026 
L 316.210938 -57.374026 
L 317.760938 -57.34796 
L 319.310938 -57.34796 
L 320.860938 -57.334542 
L 320.860938 -53.248055 
L 320.860938 -53.248055 
L 319.310938 -53.261206 
L 317.760938 -53.261206 
L 316.210938 -53.26242 
L 314.660937 -53.26242 
L 313.110938 -53.26242 
L 311.560938 -53.319957 
L 310.010938 -53.319957 
L 308.460938 -53.319957 
L 306.910937 -53.405219 
L 305.360938 -53.405219 
L 303.810938 -53.405219 
L 302.260938 -53.405219 
L 300.710938 -53.405219 
L 299.160938 -53.405219 
L 297.610938 -53.405219 
L 296.060938 -53.407553 
L 294.510938 -53.407553 
L 292.960938 -53.407553 
L 291.410938 -53.407553 
L 289.860938 -53.815997 
L 288.310938 -53.815997 
L 286.760938 -53.815997 
L 285.210938 -53.815997 
L 283.660938 -53.736428 
L 282.110938 -53.796945 
L 280.560938 -53.796945 
L 279.010938 -53.796945 
L 277.460938 -53.796945 
L 275.910938 -53.796945 
L 274.360938 -53.796945 
L 272.810938 -53.796945 
L 271.260938 -53.796945 
L 269.710938 -53.796945 
L 268.160938 -53.796945 
L 266.610938 -53.875442 
L 265.060938 -53.875442 
L 263.510938 -53.875442 
L 261.960938 -53.875442 
L 260.410938 -53.875442 
L 258.860938 -53.964763 
L 257.310938 -53.964763 
L 255.760938 -53.964763 
L 254.210938 -53.967571 
L 252.660938 -53.967571 
L 251.110938 -53.851337 
L 249.560937 -53.851337 
L 248.010938 -53.851337 
L 246.460938 -53.851337 
L 244.910938 -53.851337 
L 243.360938 -54.314869 
L 241.810937 -54.314869 
L 240.260938 -54.314869 
L 238.710938 -54.314869 
L 237.160938 -54.314869 
L 235.610938 -54.314869 
L 234.060937 -54.314869 
L 232.510938 -54.314869 
L 230.960938 -54.517193 
L 229.410938 -54.517193 
L 227.860938 -54.517193 
L 226.310937 -54.517193 
L 224.760938 -54.517193 
L 223.210938 -54.527545 
L 221.660938 -54.527545 
L 220.110938 -54.527545 
L 218.560937 -54.522171 
L 217.010938 -54.522171 
L 215.460938 -54.522171 
L 213.910938 -54.522171 
L 212.360938 -54.522171 
L 210.810937 -54.522171 
L 209.260938 -54.522171 
L 207.710938 -54.525094 
L 206.160938 -54.525094 
L 204.610938 -54.525094 
L 203.060937 -54.525094 
L 201.510938 -54.525094 
L 199.960938 -54.525094 
L 198.410938 -54.540966 
L 196.860938 -54.540966 
L 195.310937 -54.540966 
L 193.760938 -54.540966 
L 192.210938 -54.540966 
L 190.660938 -54.540966 
L 189.110938 -54.744271 
L 187.560937 -54.744271 
L 186.010938 -54.789498 
L 184.460938 -54.791407 
L 182.910938 -54.795342 
L 181.360938 -54.795342 
L 179.810937 -54.795342 
L 178.260938 -54.809183 
L 176.710938 -54.806225 
L 175.160938 -54.806225 
L 173.610938 -54.806225 
L 172.060938 -54.806225 
L 170.510938 -54.806225 
L 168.960938 -54.806225 
L 167.410938 -54.799131 
L 165.860938 -54.799131 
L 164.310938 -54.799131 
L 162.760938 -54.799131 
L 161.210938 -54.799131 
L 159.660938 -54.813267 
L 158.110938 -54.891388 
L 156.560938 -54.991056 
L 155.010938 -55.2172 
L 153.460938 -55.234989 
L 151.910938 -55.234989 
L 150.360938 -55.219233 
L 148.810938 -55.219233 
L 147.260938 -55.026996 
L 145.710938 -55.026996 
L 144.160938 -55.195084 
L 142.610938 -55.195084 
L 141.060938 -55.195084 
L 139.510938 -55.195084 
L 137.960938 -55.534246 
L 136.410938 -55.890968 
L 134.860938 -55.890968 
L 133.310938 -56.127356 
L 131.760938 -56.132517 
L 130.210938 -56.37225 
L 128.660938 -56.557707 
L 127.110938 -56.557707 
L 125.560938 -56.560449 
L 124.010938 -57.447231 
L 122.460938 -57.796014 
L 120.910938 -57.785261 
L 119.360938 -57.785261 
L 117.810938 -57.905638 
L 116.260938 -58.223315 
L 114.710938 -58.536347 
L 113.160938 -58.557238 
L 111.610938 -58.788238 
L 110.060938 -59.136046 
L 108.510938 -59.543757 
L 106.960938 -59.695593 
L 105.410938 -63.968737 
L 103.860938 -64.06571 
L 102.310938 -64.263884 
L 100.760938 -64.750958 
L 99.210938 -66.655751 
L 97.660938 -66.781622 
L 96.110938 -66.856902 
L 94.560938 -67.058134 
L 93.010938 -66.476147 
L 91.460938 -66.008506 
L 89.910938 -66.459691 
L 88.360938 -67.04948 
L 86.810938 -68.113487 
L 85.260938 -70.608652 
L 83.710938 -72.081976 
L 82.160938 -75.815421 
L 80.610938 -77.072453 
L 79.060938 -77.51881 
L 77.510938 -77.209247 
L 75.960938 -79.204268 
L 74.410938 -82.983101 
L 72.860938 -87.848598 
L 71.310938 -88.331996 
L 69.760938 -90.401157 
L 68.210938 -91.183811 
L 66.660938 -100.068179 
L 65.110938 -102.625866 
L 63.560938 -116.473029 
L 62.010938 -123.500742 
L 60.460938 -127.120551 
L 58.910938 -132.854977 
L 57.360938 -138.021362 
L 55.810938 -140.427672 
L 54.260938 -143.037479 
L 52.710938 -148.153311 
L 51.160938 -150.540715 
L 49.610938 -154.870355 
L 48.060938 -166.073026 
L 46.510938 -179.869027 
L 44.960938 -242.145883 
z
" style="stroke: #bf32e7; stroke-opacity: 0.2"/>
    </defs>
    <g clip-path="url(#pc900dd8072)">
     <use xlink:href="#mb61a7fd3be" x="0" y="252.11625" style="fill: #bf32e7; fill-opacity: 0.2; stroke: #bf32e7; stroke-opacity: 0.2"/>
    </g>
   </g>
   <g id="PolyCollection_2">
    <defs>
     <path id="md5b1bbd016" d="M 44.960938 -242.145883 
L 44.960938 -242.145883 
L 46.510938 -238.597218 
L 48.060938 -224.004611 
L 49.610938 -219.554528 
L 51.160938 -212.776741 
L 52.710938 -207.642034 
L 54.260938 -202.115967 
L 55.810938 -199.195611 
L 57.360938 -194.867078 
L 58.910938 -179.094231 
L 60.460938 -173.444232 
L 62.010938 -167.964118 
L 63.560938 -166.958941 
L 65.110938 -158.182896 
L 66.660938 -151.542234 
L 68.210938 -148.03489 
L 69.760938 -146.368378 
L 71.310938 -142.293687 
L 72.860938 -136.748127 
L 74.410938 -127.942948 
L 75.960938 -121.453756 
L 77.510938 -118.965752 
L 79.060938 -112.971203 
L 80.610938 -108.769899 
L 82.160938 -105.673433 
L 83.710938 -101.129145 
L 85.260938 -98.992552 
L 86.810938 -95.987973 
L 88.360938 -95.020931 
L 89.910938 -92.195772 
L 91.460938 -90.924501 
L 93.010938 -90.094456 
L 94.560938 -81.444498 
L 96.110938 -78.487068 
L 97.660938 -73.595919 
L 99.210938 -73.165136 
L 100.760938 -72.740926 
L 102.310938 -72.370145 
L 103.860938 -71.551455 
L 105.410938 -71.551455 
L 106.960938 -69.888903 
L 108.510938 -69.402887 
L 110.060938 -69.100668 
L 111.610938 -68.795684 
L 113.160938 -68.795684 
L 114.710938 -68.786429 
L 116.260938 -68.301861 
L 117.810938 -68.168582 
L 119.360938 -68.020539 
L 120.910938 -67.766419 
L 122.460938 -67.766419 
L 124.010938 -67.497854 
L 125.560938 -66.934946 
L 127.110938 -66.934946 
L 128.660938 -66.812766 
L 130.210938 -66.642822 
L 131.760938 -66.411772 
L 133.310938 -64.875069 
L 134.860938 -64.85725 
L 136.410938 -64.239521 
L 137.960938 -63.464749 
L 139.510938 -62.246926 
L 141.060938 -62.081853 
L 142.610938 -61.54518 
L 144.160938 -61.387327 
L 145.710938 -60.907347 
L 147.260938 -60.907347 
L 148.810938 -60.907347 
L 150.360938 -60.907347 
L 151.910938 -60.907347 
L 153.460938 -60.907347 
L 155.010938 -60.907347 
L 156.560938 -60.629354 
L 158.110938 -60.629354 
L 159.660938 -60.542937 
L 161.210938 -60.542937 
L 162.760938 -60.542937 
L 164.310938 -60.542937 
L 165.860938 -60.542937 
L 167.410938 -60.541414 
L 168.960938 -60.541414 
L 170.510938 -60.541414 
L 172.060938 -60.406331 
L 173.610938 -60.406331 
L 175.160938 -60.406331 
L 176.710938 -60.406331 
L 178.260938 -60.406331 
L 179.810937 -60.406331 
L 181.360938 -60.406331 
L 182.910938 -60.351465 
L 184.460938 -60.351465 
L 186.010938 -60.351465 
L 187.560937 -60.201331 
L 189.110938 -60.201331 
L 190.660938 -60.052092 
L 192.210938 -60.052092 
L 193.760938 -60.052092 
L 195.310937 -60.052092 
L 196.860938 -60.052092 
L 198.410938 -60.052092 
L 199.960938 -59.657641 
L 201.510938 -59.642296 
L 203.060937 -59.642296 
L 204.610938 -59.642296 
L 206.160938 -59.642296 
L 207.710938 -59.642296 
L 209.260938 -59.642296 
L 210.810937 -59.577395 
L 212.360938 -59.577395 
L 213.910938 -59.577395 
L 215.460938 -59.577395 
L 217.010938 -59.577395 
L 218.560937 -59.456344 
L 220.110938 -59.456344 
L 221.660938 -59.456344 
L 223.210938 -59.456344 
L 224.760938 -59.455698 
L 226.310937 -59.455698 
L 227.860938 -59.455698 
L 229.410938 -59.455698 
L 230.960938 -59.455698 
L 232.510938 -59.357774 
L 234.060937 -59.357774 
L 235.610938 -59.357774 
L 237.160938 -59.357774 
L 238.710938 -59.357774 
L 240.260938 -59.357774 
L 241.810937 -59.357774 
L 243.360938 -59.357774 
L 244.910938 -59.357774 
L 246.460938 -59.357774 
L 248.010938 -59.357774 
L 249.560937 -59.357774 
L 251.110938 -59.275507 
L 252.660938 -59.275507 
L 254.210938 -59.275507 
L 255.760938 -59.275507 
L 257.310938 -59.275507 
L 258.860938 -59.275507 
L 260.410938 -59.275507 
L 261.960938 -59.239042 
L 263.510938 -59.239042 
L 265.060938 -59.239042 
L 266.610938 -59.239042 
L 268.160938 -59.172003 
L 269.710938 -59.134937 
L 271.260938 -59.134937 
L 272.810938 -59.134937 
L 274.360938 -59.134937 
L 275.910938 -59.134937 
L 277.460938 -59.134937 
L 279.010938 -59.134937 
L 280.560938 -59.0166 
L 282.110938 -59.0151 
L 283.660938 -59.0151 
L 285.210938 -58.808697 
L 286.760938 -58.808697 
L 288.310938 -58.808697 
L 289.860938 -58.808697 
L 291.410938 -57.072541 
L 292.960938 -57.072541 
L 294.510938 -57.072541 
L 296.060938 -57.072541 
L 297.610938 -57.03056 
L 299.160938 -57.03056 
L 300.710938 -57.03056 
L 302.260938 -57.03056 
L 303.810938 -57.028197 
L 305.360938 -57.028197 
L 306.910937 -57.028197 
L 308.460938 -56.964853 
L 310.010938 -56.964853 
L 311.560938 -56.964853 
L 313.110938 -56.957156 
L 314.660937 -56.957156 
L 316.210938 -56.857895 
L 317.760938 -56.857895 
L 319.310938 -56.857895 
L 320.860938 -56.857895 
L 320.860938 -49.009698 
L 320.860938 -49.009698 
L 319.310938 -49.009698 
L 317.760938 -49.009698 
L 316.210938 -49.009698 
L 314.660937 -49.100884 
L 313.110938 -49.100884 
L 311.560938 -49.107061 
L 310.010938 -49.107061 
L 308.460938 -49.107061 
L 306.910937 -49.188616 
L 305.360938 -49.188616 
L 303.810938 -49.188616 
L 302.260938 -49.188436 
L 300.710938 -49.188436 
L 299.160938 -49.188436 
L 297.610938 -49.188436 
L 296.060938 -49.186667 
L 294.510938 -49.186667 
L 292.960938 -49.186667 
L 291.410938 -49.186667 
L 289.860938 -50.222485 
L 288.310938 -50.222485 
L 286.760938 -50.222485 
L 285.210938 -50.222485 
L 283.660938 -50.163633 
L 282.110938 -50.163633 
L 280.560938 -50.165655 
L 279.010938 -50.366253 
L 277.460938 -50.366253 
L 275.910938 -50.366253 
L 274.360938 -50.366253 
L 272.810938 -50.366253 
L 271.260938 -50.366253 
L 269.710938 -50.366253 
L 268.160938 -50.383074 
L 266.610938 -50.398169 
L 265.060938 -50.398169 
L 263.510938 -50.398169 
L 261.960938 -50.398169 
L 260.410938 -50.4516 
L 258.860938 -50.4516 
L 257.310938 -50.4516 
L 255.760938 -50.4516 
L 254.210938 -50.4516 
L 252.660938 -50.4516 
L 251.110938 -50.4516 
L 249.560937 -50.44332 
L 248.010938 -50.44332 
L 246.460938 -50.44332 
L 244.910938 -50.44332 
L 243.360938 -50.44332 
L 241.810937 -50.44332 
L 240.260938 -50.44332 
L 238.710938 -50.44332 
L 237.160938 -50.44332 
L 235.610938 -50.44332 
L 234.060937 -50.44332 
L 232.510938 -50.44332 
L 230.960938 -50.559838 
L 229.410938 -50.559838 
L 227.860938 -50.559838 
L 226.310937 -50.559838 
L 224.760938 -50.559838 
L 223.210938 -50.559976 
L 221.660938 -50.559976 
L 220.110938 -50.559976 
L 218.560937 -50.559976 
L 217.010938 -50.51558 
L 215.460938 -50.51558 
L 213.910938 -50.51558 
L 212.360938 -50.51558 
L 210.810937 -50.51558 
L 209.260938 -50.594596 
L 207.710938 -50.594596 
L 206.160938 -50.594596 
L 204.610938 -50.594596 
L 203.060937 -50.594596 
L 201.510938 -50.594596 
L 199.960938 -50.591304 
L 198.410938 -51.017581 
L 196.860938 -51.017581 
L 195.310937 -51.017581 
L 193.760938 -51.017581 
L 192.210938 -51.017581 
L 190.660938 -51.017581 
L 189.110938 -51.068239 
L 187.560937 -51.068239 
L 186.010938 -51.196809 
L 184.460938 -51.196809 
L 182.910938 -51.196809 
L 181.360938 -51.290329 
L 179.810937 -51.290329 
L 178.260938 -51.290329 
L 176.710938 -51.290329 
L 175.160938 -51.290329 
L 173.610938 -51.290329 
L 172.060938 -51.290329 
L 170.510938 -51.317427 
L 168.960938 -51.317427 
L 167.410938 -51.317427 
L 165.860938 -51.317274 
L 164.310938 -51.317274 
L 162.760938 -51.317274 
L 161.210938 -51.317274 
L 159.660938 -51.317274 
L 158.110938 -51.350138 
L 156.560938 -51.350138 
L 155.010938 -51.49405 
L 153.460938 -51.49405 
L 151.910938 -51.49405 
L 150.360938 -51.49405 
L 148.810938 -51.49405 
L 147.260938 -51.49405 
L 145.710938 -51.49405 
L 144.160938 -51.432381 
L 142.610938 -51.363925 
L 141.060938 -51.129982 
L 139.510938 -51.057708 
L 137.960938 -50.737285 
L 136.410938 -50.393015 
L 134.860938 -50.117787 
L 133.310938 -50.136121 
L 131.760938 -49.920472 
L 130.210938 -50.017536 
L 128.660938 -50.072899 
L 127.110938 -50.10359 
L 125.560938 -50.10359 
L 124.010938 -50.125378 
L 122.460938 -50.284351 
L 120.910938 -50.284351 
L 119.360938 -50.177725 
L 117.810938 -50.269817 
L 116.260938 -50.214258 
L 114.710938 -50.254836 
L 113.160938 -50.256273 
L 111.610938 -50.256273 
L 110.060938 -50.497633 
L 108.510938 -50.537833 
L 106.960938 -50.532891 
L 105.410938 -52.851845 
L 103.860938 -52.851845 
L 102.310938 -53.309115 
L 100.760938 -53.19341 
L 99.210938 -53.332923 
L 97.660938 -53.339378 
L 96.110938 -52.533184 
L 94.560938 -52.987084 
L 93.010938 -49.441459 
L 91.460938 -50.345217 
L 89.910938 -49.988416 
L 88.360938 -49.965317 
L 86.810938 -49.867069 
L 85.260938 -50.79873 
L 83.710938 -51.661816 
L 82.160938 -55.196067 
L 80.610938 -56.510059 
L 79.060938 -56.488979 
L 77.510938 -59.948611 
L 75.960938 -64.227212 
L 74.410938 -68.219535 
L 72.860938 -73.813094 
L 71.310938 -80.516361 
L 69.760938 -97.468239 
L 68.210938 -105.108056 
L 66.660938 -107.210318 
L 65.110938 -114.935057 
L 63.560938 -121.089743 
L 62.010938 -124.754292 
L 60.460938 -129.935263 
L 58.910938 -132.484665 
L 57.360938 -134.220584 
L 55.810938 -135.022213 
L 54.260938 -139.871393 
L 52.710938 -142.049774 
L 51.160938 -161.025584 
L 49.610938 -164.977042 
L 48.060938 -172.344253 
L 46.510938 -188.323231 
L 44.960938 -242.145883 
z
" style="stroke: #ff1493; stroke-opacity: 0.2"/>
    </defs>
    <g clip-path="url(#pc900dd8072)">
     <use xlink:href="#md5b1bbd016" x="0" y="252.11625" style="fill: #ff1493; fill-opacity: 0.2; stroke: #ff1493; stroke-opacity: 0.2"/>
    </g>
   </g>
   <g id="PolyCollection_3">
    <defs>
     <path id="m3362c16555" d="M 44.960938 -242.145883 
L 44.960938 -242.145883 
L 46.510938 -242.407713 
L 48.060938 -229.057084 
L 49.610938 -220.899648 
L 51.160938 -206.757828 
L 52.710938 -204.323379 
L 54.260938 -197.238676 
L 55.810938 -192.190458 
L 57.360938 -190.025009 
L 58.910938 -188.254269 
L 60.460938 -186.332189 
L 62.010938 -185.099812 
L 63.560938 -183.727254 
L 65.110938 -182.893502 
L 66.660938 -174.659882 
L 68.210938 -173.893495 
L 69.760938 -172.714648 
L 71.310938 -172.016511 
L 72.860938 -171.32112 
L 74.410938 -167.612325 
L 75.960938 -166.000325 
L 77.510938 -161.795042 
L 79.060938 -159.246253 
L 80.610938 -158.728412 
L 82.160938 -154.079624 
L 83.710938 -152.794155 
L 85.260938 -151.735516 
L 86.810938 -151.168903 
L 88.360938 -150.914005 
L 89.910938 -148.775237 
L 91.460938 -148.336262 
L 93.010938 -147.617268 
L 94.560938 -146.88207 
L 96.110938 -146.982197 
L 97.660938 -146.100771 
L 99.210938 -145.033947 
L 100.760938 -142.422238 
L 102.310938 -139.6584 
L 103.860938 -139.6584 
L 105.410938 -139.242143 
L 106.960938 -137.800467 
L 108.510938 -137.270433 
L 110.060938 -136.634439 
L 111.610938 -135.343388 
L 113.160938 -133.563696 
L 114.710938 -133.065864 
L 116.260938 -131.448222 
L 117.810938 -129.23832 
L 119.360938 -124.934287 
L 120.910938 -124.81304 
L 122.460938 -123.734542 
L 124.010938 -123.734542 
L 125.560938 -123.667151 
L 127.110938 -123.603534 
L 128.660938 -122.339333 
L 130.210938 -122.237309 
L 131.760938 -121.946352 
L 133.310938 -121.946352 
L 134.860938 -120.80899 
L 136.410938 -119.944764 
L 137.960938 -119.899247 
L 139.510938 -119.883335 
L 141.060938 -118.969995 
L 142.610938 -118.891209 
L 144.160938 -117.705228 
L 145.710938 -117.086836 
L 147.260938 -116.249634 
L 148.810938 -115.392101 
L 150.360938 -114.843408 
L 151.910938 -114.628335 
L 153.460938 -114.304248 
L 155.010938 -113.450009 
L 156.560938 -111.580191 
L 158.110938 -111.082186 
L 159.660938 -109.85957 
L 161.210938 -109.183106 
L 162.760938 -107.394496 
L 164.310938 -107.287412 
L 165.860938 -106.723947 
L 167.410938 -106.775988 
L 168.960938 -105.879586 
L 170.510938 -105.585801 
L 172.060938 -105.1261 
L 173.610938 -104.775488 
L 175.160938 -103.874222 
L 176.710938 -103.74448 
L 178.260938 -100.009835 
L 179.810937 -99.897748 
L 181.360938 -99.897748 
L 182.910938 -99.189763 
L 184.460938 -99.132655 
L 186.010938 -96.830184 
L 187.560937 -96.402274 
L 189.110938 -96.402274 
L 190.660938 -95.847985 
L 192.210938 -94.606391 
L 193.760938 -94.606391 
L 195.310937 -94.50967 
L 196.860938 -94.313115 
L 198.410938 -92.125697 
L 199.960938 -92.125697 
L 201.510938 -91.392585 
L 203.060937 -89.933072 
L 204.610938 -89.911396 
L 206.160938 -89.633097 
L 207.710938 -89.384137 
L 209.260938 -88.784346 
L 210.810937 -88.690499 
L 212.360938 -88.690499 
L 213.910938 -88.673228 
L 215.460938 -88.606376 
L 217.010938 -88.606376 
L 218.560937 -87.091821 
L 220.110938 -86.382657 
L 221.660938 -86.382657 
L 223.210938 -86.382657 
L 224.760938 -84.531167 
L 226.310937 -84.474936 
L 227.860938 -84.376636 
L 229.410938 -84.376636 
L 230.960938 -84.239421 
L 232.510938 -83.917287 
L 234.060937 -83.750406 
L 235.610938 -83.49186 
L 237.160938 -83.51769 
L 238.710938 -83.028766 
L 240.260938 -82.881992 
L 241.810937 -82.881992 
L 243.360938 -82.580515 
L 244.910938 -82.291758 
L 246.460938 -81.831822 
L 248.010938 -81.387485 
L 249.560937 -79.750991 
L 251.110938 -79.757499 
L 252.660938 -79.666114 
L 254.210938 -79.515919 
L 255.760938 -78.797457 
L 257.310938 -78.719988 
L 258.860938 -78.062769 
L 260.410938 -77.983401 
L 261.960938 -78.081848 
L 263.510938 -77.548831 
L 265.060938 -77.548831 
L 266.610938 -77.503893 
L 268.160938 -76.699224 
L 269.710938 -76.512571 
L 271.260938 -76.497226 
L 272.810938 -75.659895 
L 274.360938 -75.618973 
L 275.910938 -75.618973 
L 277.460938 -75.104897 
L 279.010938 -74.933598 
L 280.560938 -74.868698 
L 282.110938 -74.784867 
L 283.660938 -74.678489 
L 285.210938 -74.484292 
L 286.760938 -74.484292 
L 288.310938 -74.484292 
L 289.860938 -73.889952 
L 291.410938 -73.17133 
L 292.960938 -73.031712 
L 294.510938 -73.031712 
L 296.060938 -72.917642 
L 297.610938 -72.745615 
L 299.160938 -72.563773 
L 300.710938 -72.563773 
L 302.260938 -72.563773 
L 303.810938 -72.471155 
L 305.360938 -71.748637 
L 306.910937 -71.630034 
L 308.460938 -71.56475 
L 310.010938 -71.513829 
L 311.560938 -71.513829 
L 313.110938 -71.141545 
L 314.660937 -71.141545 
L 316.210938 -71.015588 
L 317.760938 -70.868442 
L 319.310938 -70.809981 
L 320.860938 -70.476535 
L 320.860938 -54.132601 
L 320.860938 -54.132601 
L 319.310938 -53.985583 
L 317.760938 -54.027758 
L 316.210938 -54.212447 
L 314.660937 -54.266137 
L 313.110938 -54.266137 
L 311.560938 -54.42734 
L 310.010938 -54.42734 
L 308.460938 -54.433821 
L 306.910937 -54.734539 
L 305.360938 -54.823769 
L 303.810938 -54.589497 
L 302.260938 -54.677213 
L 300.710938 -54.677213 
L 299.160938 -54.677213 
L 297.610938 -54.668236 
L 296.060938 -54.713539 
L 294.510938 -54.88749 
L 292.960938 -54.88749 
L 291.410938 -54.93435 
L 289.860938 -56.978524 
L 288.310938 -57.038393 
L 286.760938 -57.038393 
L 285.210938 -57.038393 
L 283.660938 -57.426528 
L 282.110938 -57.500418 
L 280.560938 -57.652419 
L 279.010938 -57.652841 
L 277.460938 -57.868539 
L 275.910938 -57.810944 
L 274.360938 -57.810944 
L 272.810938 -57.848622 
L 271.260938 -57.805262 
L 269.710938 -58.053674 
L 268.160938 -58.14987 
L 266.610938 -59.671793 
L 265.060938 -59.704441 
L 263.510938 -59.704441 
L 261.960938 -59.881691 
L 260.410938 -60.592742 
L 258.860938 -60.666529 
L 257.310938 -60.814361 
L 255.760938 -60.825617 
L 254.210938 -60.908933 
L 252.660938 -60.948934 
L 251.110938 -61.212078 
L 249.560937 -61.948164 
L 248.010938 -61.921906 
L 246.460938 -61.888076 
L 244.910938 -61.925706 
L 243.360938 -61.982691 
L 241.810937 -62.362526 
L 240.260938 -62.362526 
L 238.710938 -62.748891 
L 237.160938 -63.241695 
L 235.610938 -63.543024 
L 234.060937 -63.740467 
L 232.510938 -63.786063 
L 230.960938 -65.260365 
L 229.410938 -65.750468 
L 227.860938 -65.750468 
L 226.310937 -66.296736 
L 224.760938 -66.313254 
L 223.210938 -65.735354 
L 221.660938 -65.735354 
L 220.110938 -65.735354 
L 218.560937 -66.809841 
L 217.010938 -66.670227 
L 215.460938 -66.670227 
L 213.910938 -66.806817 
L 212.360938 -66.860659 
L 210.810937 -66.860659 
L 209.260938 -67.08126 
L 207.710938 -67.209098 
L 206.160938 -67.624503 
L 204.610938 -67.607215 
L 203.060937 -67.709822 
L 201.510938 -67.162009 
L 199.960938 -68.152729 
L 198.410938 -68.152729 
L 196.860938 -68.716325 
L 195.310937 -68.890641 
L 193.760938 -68.920756 
L 192.210938 -68.920756 
L 190.660938 -69.693919 
L 189.110938 -69.872467 
L 187.560937 -69.872467 
L 186.010938 -69.918602 
L 184.460938 -72.028378 
L 182.910938 -72.549884 
L 181.360938 -73.67298 
L 179.810937 -73.67298 
L 178.260938 -74.232808 
L 176.710938 -73.708285 
L 175.160938 -73.978455 
L 173.610938 -74.350922 
L 172.060938 -74.703114 
L 170.510938 -74.793164 
L 168.960938 -75.152439 
L 167.410938 -75.293097 
L 165.860938 -77.331131 
L 164.310938 -77.361749 
L 162.760938 -77.42458 
L 161.210938 -77.241687 
L 159.660938 -78.287751 
L 158.110938 -78.491229 
L 156.560938 -79.623971 
L 155.010938 -79.774626 
L 153.460938 -79.470654 
L 151.910938 -79.81395 
L 150.360938 -79.781976 
L 148.810938 -81.287104 
L 147.260938 -81.659868 
L 145.710938 -82.004476 
L 144.160938 -83.428657 
L 142.610938 -84.014111 
L 141.060938 -84.053064 
L 139.510938 -84.028252 
L 137.960938 -84.07402 
L 136.410938 -87.445224 
L 134.860938 -89.194567 
L 133.310938 -89.924614 
L 131.760938 -89.924614 
L 130.210938 -89.94394 
L 128.660938 -90.170978 
L 127.110938 -91.828998 
L 125.560938 -91.877124 
L 124.010938 -92.051028 
L 122.460938 -92.051028 
L 120.910938 -91.955261 
L 119.360938 -92.10537 
L 117.810938 -93.488431 
L 116.260938 -93.171879 
L 114.710938 -93.719062 
L 113.160938 -94.325374 
L 111.610938 -93.755616 
L 110.060938 -94.407486 
L 108.510938 -94.424327 
L 106.960938 -94.954032 
L 105.410938 -96.623494 
L 103.860938 -96.999249 
L 102.310938 -96.999249 
L 100.760938 -97.554841 
L 99.210938 -99.420784 
L 97.660938 -100.89818 
L 96.110938 -101.567655 
L 94.560938 -102.830881 
L 93.010938 -103.630588 
L 91.460938 -103.586766 
L 89.910938 -103.547083 
L 88.360938 -103.491206 
L 86.810938 -105.71051 
L 85.260938 -106.527056 
L 83.710938 -106.741187 
L 82.160938 -110.995004 
L 80.610938 -110.582565 
L 79.060938 -111.419223 
L 77.510938 -112.759336 
L 75.960938 -114.278719 
L 74.410938 -115.923448 
L 72.860938 -118.012608 
L 71.310938 -122.546919 
L 69.760938 -128.714752 
L 68.210938 -129.751817 
L 66.660938 -130.365612 
L 65.110938 -134.820399 
L 63.560938 -134.851232 
L 62.010938 -139.29136 
L 60.460938 -140.592456 
L 58.910938 -143.152452 
L 57.360938 -146.304524 
L 55.810938 -151.188276 
L 54.260938 -153.414844 
L 52.710938 -157.747467 
L 51.160938 -161.285498 
L 49.610938 -166.727072 
L 48.060938 -172.137724 
L 46.510938 -197.050533 
L 44.960938 -242.145883 
z
" style="stroke: #0091ea; stroke-opacity: 0.2"/>
    </defs>
    <g clip-path="url(#pc900dd8072)">
     <use xlink:href="#m3362c16555" x="0" y="252.11625" style="fill: #0091ea; fill-opacity: 0.2; stroke: #0091ea; stroke-opacity: 0.2"/>
    </g>
   </g>
   <g id="PolyCollection_4">
    <defs>
     <path id="mf9212b6cc5" d="M 44.960938 -242.145883 
L 44.960938 -242.145883 
L 46.510938 -241.919987 
L 48.060938 -229.416687 
L 49.610938 -224.246657 
L 51.160938 -218.160367 
L 52.710938 -206.147978 
L 54.260938 -195.333564 
L 55.810938 -192.9803 
L 57.360938 -192.287353 
L 58.910938 -187.017451 
L 60.460938 -183.49715 
L 62.010938 -178.471233 
L 63.560938 -177.036111 
L 65.110938 -175.448187 
L 66.660938 -170.775564 
L 68.210938 -168.71153 
L 69.760938 -169.372576 
L 71.310938 -168.750902 
L 72.860938 -167.855377 
L 74.410938 -167.22292 
L 75.960938 -166.169934 
L 77.510938 -163.898127 
L 79.060938 -163.229466 
L 80.610938 -162.985494 
L 82.160938 -162.642149 
L 83.710938 -162.642149 
L 85.260938 -162.642149 
L 86.810938 -162.230192 
L 88.360938 -160.638299 
L 89.910938 -159.777941 
L 91.460938 -159.747013 
L 93.010938 -159.339472 
L 94.560938 -159.309149 
L 96.110938 -158.55557 
L 97.660938 -158.55557 
L 99.210938 -158.327 
L 100.760938 -157.701562 
L 102.310938 -157.194014 
L 103.860938 -156.138043 
L 105.410938 -156.138043 
L 106.960938 -155.810536 
L 108.510938 -154.976599 
L 110.060938 -154.174781 
L 111.610938 -153.740943 
L 113.160938 -153.421197 
L 114.710938 -152.568532 
L 116.260938 -152.568532 
L 117.810938 -152.530429 
L 119.360938 -152.309832 
L 120.910938 -151.571295 
L 122.460938 -151.56448 
L 124.010938 -150.929072 
L 125.560938 -150.975585 
L 127.110938 -150.772338 
L 128.660938 -148.751973 
L 130.210938 -148.751973 
L 131.760938 -148.724002 
L 133.310938 -147.467084 
L 134.860938 -146.846723 
L 136.410938 -146.712195 
L 137.960938 -146.711995 
L 139.510938 -146.73757 
L 141.060938 -146.677688 
L 142.610938 -145.88267 
L 144.160938 -145.7238 
L 145.710938 -145.597223 
L 147.260938 -144.966655 
L 148.810938 -144.7446 
L 150.360938 -144.735908 
L 151.910938 -144.82715 
L 153.460938 -144.828228 
L 155.010938 -144.352372 
L 156.560938 -144.492917 
L 158.110938 -144.411338 
L 159.660938 -144.030232 
L 161.210938 -144.014262 
L 162.760938 -144.014262 
L 164.310938 -143.905994 
L 165.860938 -143.770656 
L 167.410938 -143.770656 
L 168.960938 -143.66087 
L 170.510938 -143.670735 
L 172.060938 -143.671744 
L 173.610938 -143.235598 
L 175.160938 -142.872427 
L 176.710938 -142.872427 
L 178.260938 -142.900775 
L 179.810937 -142.900775 
L 181.360938 -142.706661 
L 182.910938 -142.834591 
L 184.460938 -142.823839 
L 186.010938 -142.455472 
L 187.560937 -142.455472 
L 189.110938 -142.455472 
L 190.660938 -142.453436 
L 192.210938 -142.453436 
L 193.760938 -142.414045 
L 195.310937 -142.001443 
L 196.860938 -141.831864 
L 198.410938 -141.80783 
L 199.960938 -141.770238 
L 201.510938 -141.773283 
L 203.060937 -141.658064 
L 204.610938 -141.621328 
L 206.160938 -141.621328 
L 207.710938 -141.621328 
L 209.260938 -141.520147 
L 210.810937 -141.322099 
L 212.360938 -141.318521 
L 213.910938 -141.318521 
L 215.460938 -141.318521 
L 217.010938 -140.894809 
L 218.560937 -140.836007 
L 220.110938 -140.785802 
L 221.660938 -140.794642 
L 223.210938 -140.727958 
L 224.760938 -140.592621 
L 226.310937 -140.392795 
L 227.860938 -140.390909 
L 229.410938 -140.351071 
L 230.960938 -140.309747 
L 232.510938 -140.354433 
L 234.060937 -140.354433 
L 235.610938 -140.354433 
L 237.160938 -140.354433 
L 238.710938 -140.347614 
L 240.260938 -140.347614 
L 241.810937 -140.347614 
L 243.360938 -140.347614 
L 244.910938 -140.30292 
L 246.460938 -140.257439 
L 248.010938 -140.257439 
L 249.560937 -140.268973 
L 251.110938 -140.176368 
L 252.660938 -140.176368 
L 254.210938 -140.059514 
L 255.760938 -139.834476 
L 257.310938 -139.834476 
L 258.860938 -139.834476 
L 260.410938 -139.617993 
L 261.960938 -139.642556 
L 263.510938 -139.625922 
L 265.060938 -139.627382 
L 266.610938 -139.627382 
L 268.160938 -139.602393 
L 269.710938 -139.576453 
L 271.260938 -139.576453 
L 272.810938 -139.576453 
L 274.360938 -139.4512 
L 275.910938 -139.4512 
L 277.460938 -139.4512 
L 279.010938 -139.4512 
L 280.560938 -139.4512 
L 282.110938 -139.450824 
L 283.660938 -139.450727 
L 285.210938 -139.447946 
L 286.760938 -139.447946 
L 288.310938 -139.440079 
L 289.860938 -139.440079 
L 291.410938 -139.413209 
L 292.960938 -139.412015 
L 294.510938 -139.412015 
L 296.060938 -139.412015 
L 297.610938 -139.399108 
L 299.160938 -139.369145 
L 300.710938 -139.369145 
L 302.260938 -139.369145 
L 303.810938 -139.353246 
L 305.360938 -139.353246 
L 306.910937 -139.353246 
L 308.460938 -139.226181 
L 310.010938 -139.226181 
L 311.560938 -139.226181 
L 313.110938 -139.231999 
L 314.660937 -139.231999 
L 316.210938 -139.214831 
L 317.760938 -139.214831 
L 319.310938 -139.214831 
L 320.860938 -139.214831 
L 320.860938 -73.948385 
L 320.860938 -73.948385 
L 319.310938 -73.948385 
L 317.760938 -73.948385 
L 316.210938 -73.948385 
L 314.660937 -74.045771 
L 313.110938 -74.045771 
L 311.560938 -74.142289 
L 310.010938 -74.142289 
L 308.460938 -74.142289 
L 306.910937 -74.332737 
L 305.360938 -74.332737 
L 303.810938 -74.332737 
L 302.260938 -74.339177 
L 300.710938 -74.339177 
L 299.160938 -74.339177 
L 297.610938 -74.335945 
L 296.060938 -74.35328 
L 294.510938 -74.35328 
L 292.960938 -74.35328 
L 291.410938 -74.354438 
L 289.860938 -75.391595 
L 288.310938 -75.391595 
L 286.760938 -75.389451 
L 285.210938 -75.389451 
L 283.660938 -75.410967 
L 282.110938 -75.410987 
L 280.560938 -75.411376 
L 279.010938 -75.411376 
L 277.460938 -75.411376 
L 275.910938 -75.411376 
L 274.360938 -75.411376 
L 272.810938 -75.431865 
L 271.260938 -75.431865 
L 269.710938 -75.431865 
L 268.160938 -75.504955 
L 266.610938 -75.733523 
L 265.060938 -75.733523 
L 263.510938 -75.811981 
L 261.960938 -75.831113 
L 260.410938 -76.055968 
L 258.860938 -76.131579 
L 257.310938 -76.131579 
L 255.760938 -76.131579 
L 254.210938 -76.20588 
L 252.660938 -76.270658 
L 251.110938 -76.270658 
L 249.560937 -76.32431 
L 248.010938 -76.439254 
L 246.460938 -76.439254 
L 244.910938 -76.462648 
L 243.360938 -76.451938 
L 241.810937 -76.451938 
L 240.260938 -76.451938 
L 238.710938 -76.451938 
L 237.160938 -76.465308 
L 235.610938 -76.465308 
L 234.060937 -76.465308 
L 232.510938 -76.465308 
L 230.960938 -76.898141 
L 229.410938 -76.943893 
L 227.860938 -77.19289 
L 226.310937 -77.250453 
L 224.760938 -77.224145 
L 223.210938 -77.409189 
L 221.660938 -77.531861 
L 220.110938 -77.72493 
L 218.560937 -77.832037 
L 217.010938 -78.133403 
L 215.460938 -78.267249 
L 213.910938 -78.267249 
L 212.360938 -78.267249 
L 210.810937 -78.350537 
L 209.260938 -78.456601 
L 207.710938 -78.482338 
L 206.160938 -78.482338 
L 204.610938 -78.482338 
L 203.060937 -78.511116 
L 201.510938 -80.247761 
L 199.960938 -80.260141 
L 198.410938 -80.473271 
L 196.860938 -80.480973 
L 195.310937 -80.44681 
L 193.760938 -80.539426 
L 192.210938 -80.561148 
L 190.660938 -80.561148 
L 189.110938 -80.68843 
L 187.560937 -80.68843 
L 186.010938 -80.68843 
L 184.460938 -80.704091 
L 182.910938 -80.708473 
L 181.360938 -82.430289 
L 179.810937 -82.569585 
L 178.260938 -82.569585 
L 176.710938 -82.689209 
L 175.160938 -82.689209 
L 173.610938 -82.83285 
L 172.060938 -82.806908 
L 170.510938 -82.87536 
L 168.960938 -83.210494 
L 167.410938 -83.612081 
L 165.860938 -83.612081 
L 164.310938 -83.584009 
L 162.760938 -83.79832 
L 161.210938 -83.79832 
L 159.660938 -83.873115 
L 158.110938 -84.310163 
L 156.560938 -84.403656 
L 155.010938 -85.109841 
L 153.460938 -86.255118 
L 151.910938 -86.622259 
L 150.360938 -87.106133 
L 148.810938 -87.18656 
L 147.260938 -87.64856 
L 145.710938 -87.897591 
L 144.160938 -88.146717 
L 142.610938 -88.956918 
L 141.060938 -89.770802 
L 139.510938 -90.7132 
L 137.960938 -90.982546 
L 136.410938 -91.312366 
L 134.860938 -91.333752 
L 133.310938 -91.673087 
L 131.760938 -91.741584 
L 130.210938 -91.950273 
L 128.660938 -91.950273 
L 127.110938 -91.77804 
L 125.560938 -92.480652 
L 124.010938 -93.037124 
L 122.460938 -94.473983 
L 120.910938 -94.521865 
L 119.360938 -94.880393 
L 117.810938 -95.302223 
L 116.260938 -95.311059 
L 114.710938 -95.311059 
L 113.160938 -95.159639 
L 111.610938 -96.706977 
L 110.060938 -96.625705 
L 108.510938 -96.893173 
L 106.960938 -98.25816 
L 105.410938 -101.213715 
L 103.860938 -101.213715 
L 102.310938 -102.027382 
L 100.760938 -103.78341 
L 99.210938 -104.822688 
L 97.660938 -104.808441 
L 96.110938 -104.808441 
L 94.560938 -104.735679 
L 93.010938 -106.356099 
L 91.460938 -106.254788 
L 89.910938 -106.383994 
L 88.360938 -107.708902 
L 86.810938 -110.20517 
L 85.260938 -112.970596 
L 83.710938 -112.970596 
L 82.160938 -112.970596 
L 80.610938 -113.004531 
L 79.060938 -113.05629 
L 77.510938 -113.367815 
L 75.960938 -114.775735 
L 74.410938 -115.668824 
L 72.860938 -116.847105 
L 71.310938 -120.859333 
L 69.760938 -121.207013 
L 68.210938 -123.581929 
L 66.660938 -123.497493 
L 65.110938 -123.539501 
L 63.560938 -124.527296 
L 62.010938 -128.56138 
L 60.460938 -130.048987 
L 58.910938 -133.459433 
L 57.360938 -135.277323 
L 55.810938 -135.383412 
L 54.260938 -136.582015 
L 52.710938 -139.752051 
L 51.160938 -154.223964 
L 49.610938 -174.026461 
L 48.060938 -179.157547 
L 46.510938 -193.271351 
L 44.960938 -242.145883 
z
" style="stroke: #00c853; stroke-opacity: 0.2"/>
    </defs>
    <g clip-path="url(#pc900dd8072)">
     <use xlink:href="#mf9212b6cc5" x="0" y="252.11625" style="fill: #00c853; fill-opacity: 0.2; stroke: #00c853; stroke-opacity: 0.2"/>
    </g>
   </g>
   <g id="matplotlib.axis_1">
    <g id="xtick_1">
     <g id="line2d_1">
      <defs>
       <path id="m9ea0be1e08" d="M 0 0 
L 0 3.5 
" style="stroke: #000000; stroke-width: 0.8"/>
      </defs>
      <g>
       <use xlink:href="#m9ea0be1e08" x="44.960938" y="221.76" style="stroke: #000000; stroke-width: 0.8"/>
      </g>
     </g>
     <g id="text_1">
      <!-- 0 -->
      <g transform="translate(41.779688 236.358438)scale(0.1 -0.1)">
       <defs>
        <path id="DejaVuSans-30" d="M 2034 4250 
Q 1547 4250 1301 3770 
Q 1056 3291 1056 2328 
Q 1056 1369 1301 889 
Q 1547 409 2034 409 
Q 2525 409 2770 889 
Q 3016 1369 3016 2328 
Q 3016 3291 2770 3770 
Q 2525 4250 2034 4250 
z
M 2034 4750 
Q 2819 4750 3233 4129 
Q 3647 3509 3647 2328 
Q 3647 1150 3233 529 
Q 2819 -91 2034 -91 
Q 1250 -91 836 529 
Q 422 1150 422 2328 
Q 422 3509 836 4129 
Q 1250 4750 2034 4750 
z
" transform="scale(0.015625)"/>
       </defs>
       <use xlink:href="#DejaVuSans-30"/>
      </g>
     </g>
    </g>
    <g id="xtick_2">
     <g id="line2d_2">
      <g>
       <use xlink:href="#m9ea0be1e08" x="75.960938" y="221.76" style="stroke: #000000; stroke-width: 0.8"/>
      </g>
     </g>
     <g id="text_2">
      <!-- 20 -->
      <g transform="translate(69.598438 236.358438)scale(0.1 -0.1)">
       <defs>
        <path id="DejaVuSans-32" d="M 1228 531 
L 3431 531 
L 3431 0 
L 469 0 
L 469 531 
Q 828 903 1448 1529 
Q 2069 2156 2228 2338 
Q 2531 2678 2651 2914 
Q 2772 3150 2772 3378 
Q 2772 3750 2511 3984 
Q 2250 4219 1831 4219 
Q 1534 4219 1204 4116 
Q 875 4013 500 3803 
L 500 4441 
Q 881 4594 1212 4672 
Q 1544 4750 1819 4750 
Q 2544 4750 2975 4387 
Q 3406 4025 3406 3419 
Q 3406 3131 3298 2873 
Q 3191 2616 2906 2266 
Q 2828 2175 2409 1742 
Q 1991 1309 1228 531 
z
" transform="scale(0.015625)"/>
       </defs>
       <use xlink:href="#DejaVuSans-32"/>
       <use xlink:href="#DejaVuSans-30" x="63.623047"/>
      </g>
     </g>
    </g>
    <g id="xtick_3">
     <g id="line2d_3">
      <g>
       <use xlink:href="#m9ea0be1e08" x="106.960938" y="221.76" style="stroke: #000000; stroke-width: 0.8"/>
      </g>
     </g>
     <g id="text_3">
      <!-- 40 -->
      <g transform="translate(100.598438 236.358438)scale(0.1 -0.1)">
       <defs>
        <path id="DejaVuSans-34" d="M 2419 4116 
L 825 1625 
L 2419 1625 
L 2419 4116 
z
M 2253 4666 
L 3047 4666 
L 3047 1625 
L 3713 1625 
L 3713 1100 
L 3047 1100 
L 3047 0 
L 2419 0 
L 2419 1100 
L 313 1100 
L 313 1709 
L 2253 4666 
z
" transform="scale(0.015625)"/>
       </defs>
       <use xlink:href="#DejaVuSans-34"/>
       <use xlink:href="#DejaVuSans-30" x="63.623047"/>
      </g>
     </g>
    </g>
    <g id="xtick_4">
     <g id="line2d_4">
      <g>
       <use xlink:href="#m9ea0be1e08" x="137.960938" y="221.76" style="stroke: #000000; stroke-width: 0.8"/>
      </g>
     </g>
     <g id="text_4">
      <!-- 60 -->
      <g transform="translate(131.598437 236.358438)scale(0.1 -0.1)">
       <defs>
        <path id="DejaVuSans-36" d="M 2113 2584 
Q 1688 2584 1439 2293 
Q 1191 2003 1191 1497 
Q 1191 994 1439 701 
Q 1688 409 2113 409 
Q 2538 409 2786 701 
Q 3034 994 3034 1497 
Q 3034 2003 2786 2293 
Q 2538 2584 2113 2584 
z
M 3366 4563 
L 3366 3988 
Q 3128 4100 2886 4159 
Q 2644 4219 2406 4219 
Q 1781 4219 1451 3797 
Q 1122 3375 1075 2522 
Q 1259 2794 1537 2939 
Q 1816 3084 2150 3084 
Q 2853 3084 3261 2657 
Q 3669 2231 3669 1497 
Q 3669 778 3244 343 
Q 2819 -91 2113 -91 
Q 1303 -91 875 529 
Q 447 1150 447 2328 
Q 447 3434 972 4092 
Q 1497 4750 2381 4750 
Q 2619 4750 2861 4703 
Q 3103 4656 3366 4563 
z
" transform="scale(0.015625)"/>
       </defs>
       <use xlink:href="#DejaVuSans-36"/>
       <use xlink:href="#DejaVuSans-30" x="63.623047"/>
      </g>
     </g>
    </g>
    <g id="xtick_5">
     <g id="line2d_5">
      <g>
       <use xlink:href="#m9ea0be1e08" x="168.960938" y="221.76" style="stroke: #000000; stroke-width: 0.8"/>
      </g>
     </g>
     <g id="text_5">
      <!-- 80 -->
      <g transform="translate(162.598437 236.358438)scale(0.1 -0.1)">
       <defs>
        <path id="DejaVuSans-38" d="M 2034 2216 
Q 1584 2216 1326 1975 
Q 1069 1734 1069 1313 
Q 1069 891 1326 650 
Q 1584 409 2034 409 
Q 2484 409 2743 651 
Q 3003 894 3003 1313 
Q 3003 1734 2745 1975 
Q 2488 2216 2034 2216 
z
M 1403 2484 
Q 997 2584 770 2862 
Q 544 3141 544 3541 
Q 544 4100 942 4425 
Q 1341 4750 2034 4750 
Q 2731 4750 3128 4425 
Q 3525 4100 3525 3541 
Q 3525 3141 3298 2862 
Q 3072 2584 2669 2484 
Q 3125 2378 3379 2068 
Q 3634 1759 3634 1313 
Q 3634 634 3220 271 
Q 2806 -91 2034 -91 
Q 1263 -91 848 271 
Q 434 634 434 1313 
Q 434 1759 690 2068 
Q 947 2378 1403 2484 
z
M 1172 3481 
Q 1172 3119 1398 2916 
Q 1625 2713 2034 2713 
Q 2441 2713 2670 2916 
Q 2900 3119 2900 3481 
Q 2900 3844 2670 4047 
Q 2441 4250 2034 4250 
Q 1625 4250 1398 4047 
Q 1172 3844 1172 3481 
z
" transform="scale(0.015625)"/>
       </defs>
       <use xlink:href="#DejaVuSans-38"/>
       <use xlink:href="#DejaVuSans-30" x="63.623047"/>
      </g>
     </g>
    </g>
    <g id="xtick_6">
     <g id="line2d_6">
      <g>
       <use xlink:href="#m9ea0be1e08" x="199.960938" y="221.76" style="stroke: #000000; stroke-width: 0.8"/>
      </g>
     </g>
     <g id="text_6">
      <!-- 100 -->
      <g transform="translate(190.417188 236.358438)scale(0.1 -0.1)">
       <defs>
        <path id="DejaVuSans-31" d="M 794 531 
L 1825 531 
L 1825 4091 
L 703 3866 
L 703 4441 
L 1819 4666 
L 2450 4666 
L 2450 531 
L 3481 531 
L 3481 0 
L 794 0 
L 794 531 
z
" transform="scale(0.015625)"/>
       </defs>
       <use xlink:href="#DejaVuSans-31"/>
       <use xlink:href="#DejaVuSans-30" x="63.623047"/>
       <use xlink:href="#DejaVuSans-30" x="127.246094"/>
      </g>
     </g>
    </g>
    <g id="xtick_7">
     <g id="line2d_7">
      <g>
       <use xlink:href="#m9ea0be1e08" x="230.960938" y="221.76" style="stroke: #000000; stroke-width: 0.8"/>
      </g>
     </g>
     <g id="text_7">
      <!-- 120 -->
      <g transform="translate(221.417188 236.358438)scale(0.1 -0.1)">
       <use xlink:href="#DejaVuSans-31"/>
       <use xlink:href="#DejaVuSans-32" x="63.623047"/>
       <use xlink:href="#DejaVuSans-30" x="127.246094"/>
      </g>
     </g>
    </g>
    <g id="xtick_8">
     <g id="line2d_8">
      <g>
       <use xlink:href="#m9ea0be1e08" x="261.960938" y="221.76" style="stroke: #000000; stroke-width: 0.8"/>
      </g>
     </g>
     <g id="text_8">
      <!-- 140 -->
      <g transform="translate(252.417188 236.358438)scale(0.1 -0.1)">
       <use xlink:href="#DejaVuSans-31"/>
       <use xlink:href="#DejaVuSans-34" x="63.623047"/>
       <use xlink:href="#DejaVuSans-30" x="127.246094"/>
      </g>
     </g>
    </g>
    <g id="xtick_9">
     <g id="line2d_9">
      <g>
       <use xlink:href="#m9ea0be1e08" x="292.960938" y="221.76" style="stroke: #000000; stroke-width: 0.8"/>
      </g>
     </g>
     <g id="text_9">
      <!-- 160 -->
      <g transform="translate(283.417188 236.358438)scale(0.1 -0.1)">
       <use xlink:href="#DejaVuSans-31"/>
       <use xlink:href="#DejaVuSans-36" x="63.623047"/>
       <use xlink:href="#DejaVuSans-30" x="127.246094"/>
      </g>
     </g>
    </g>
    <g id="xtick_10">
     <g id="line2d_10">
      <g>
       <use xlink:href="#m9ea0be1e08" x="323.960938" y="221.76" style="stroke: #000000; stroke-width: 0.8"/>
      </g>
     </g>
     <g id="text_10">
      <!-- 180 -->
      <g transform="translate(314.417188 236.358438)scale(0.1 -0.1)">
       <use xlink:href="#DejaVuSans-31"/>
       <use xlink:href="#DejaVuSans-38" x="63.623047"/>
       <use xlink:href="#DejaVuSans-30" x="127.246094"/>
      </g>
     </g>
    </g>
    <g id="text_11">
     <!-- Number of parameter sets evaluated -->
     <g transform="translate(91.623437 250.036563)scale(0.1 -0.1)">
      <defs>
       <path id="DejaVuSans-4e" d="M 628 4666 
L 1478 4666 
L 3547 763 
L 3547 4666 
L 4159 4666 
L 4159 0 
L 3309 0 
L 1241 3903 
L 1241 0 
L 628 0 
L 628 4666 
z
" transform="scale(0.015625)"/>
       <path id="DejaVuSans-75" d="M 544 1381 
L 544 3500 
L 1119 3500 
L 1119 1403 
Q 1119 906 1312 657 
Q 1506 409 1894 409 
Q 2359 409 2629 706 
Q 2900 1003 2900 1516 
L 2900 3500 
L 3475 3500 
L 3475 0 
L 2900 0 
L 2900 538 
Q 2691 219 2414 64 
Q 2138 -91 1772 -91 
Q 1169 -91 856 284 
Q 544 659 544 1381 
z
M 1991 3584 
L 1991 3584 
z
" transform="scale(0.015625)"/>
       <path id="DejaVuSans-6d" d="M 3328 2828 
Q 3544 3216 3844 3400 
Q 4144 3584 4550 3584 
Q 5097 3584 5394 3201 
Q 5691 2819 5691 2113 
L 5691 0 
L 5113 0 
L 5113 2094 
Q 5113 2597 4934 2840 
Q 4756 3084 4391 3084 
Q 3944 3084 3684 2787 
Q 3425 2491 3425 1978 
L 3425 0 
L 2847 0 
L 2847 2094 
Q 2847 2600 2669 2842 
Q 2491 3084 2119 3084 
Q 1678 3084 1418 2786 
Q 1159 2488 1159 1978 
L 1159 0 
L 581 0 
L 581 3500 
L 1159 3500 
L 1159 2956 
Q 1356 3278 1631 3431 
Q 1906 3584 2284 3584 
Q 2666 3584 2933 3390 
Q 3200 3197 3328 2828 
z
" transform="scale(0.015625)"/>
       <path id="DejaVuSans-62" d="M 3116 1747 
Q 3116 2381 2855 2742 
Q 2594 3103 2138 3103 
Q 1681 3103 1420 2742 
Q 1159 2381 1159 1747 
Q 1159 1113 1420 752 
Q 1681 391 2138 391 
Q 2594 391 2855 752 
Q 3116 1113 3116 1747 
z
M 1159 2969 
Q 1341 3281 1617 3432 
Q 1894 3584 2278 3584 
Q 2916 3584 3314 3078 
Q 3713 2572 3713 1747 
Q 3713 922 3314 415 
Q 2916 -91 2278 -91 
Q 1894 -91 1617 61 
Q 1341 213 1159 525 
L 1159 0 
L 581 0 
L 581 4863 
L 1159 4863 
L 1159 2969 
z
" transform="scale(0.015625)"/>
       <path id="DejaVuSans-65" d="M 3597 1894 
L 3597 1613 
L 953 1613 
Q 991 1019 1311 708 
Q 1631 397 2203 397 
Q 2534 397 2845 478 
Q 3156 559 3463 722 
L 3463 178 
Q 3153 47 2828 -22 
Q 2503 -91 2169 -91 
Q 1331 -91 842 396 
Q 353 884 353 1716 
Q 353 2575 817 3079 
Q 1281 3584 2069 3584 
Q 2775 3584 3186 3129 
Q 3597 2675 3597 1894 
z
M 3022 2063 
Q 3016 2534 2758 2815 
Q 2500 3097 2075 3097 
Q 1594 3097 1305 2825 
Q 1016 2553 972 2059 
L 3022 2063 
z
" transform="scale(0.015625)"/>
       <path id="DejaVuSans-72" d="M 2631 2963 
Q 2534 3019 2420 3045 
Q 2306 3072 2169 3072 
Q 1681 3072 1420 2755 
Q 1159 2438 1159 1844 
L 1159 0 
L 581 0 
L 581 3500 
L 1159 3500 
L 1159 2956 
Q 1341 3275 1631 3429 
Q 1922 3584 2338 3584 
Q 2397 3584 2469 3576 
Q 2541 3569 2628 3553 
L 2631 2963 
z
" transform="scale(0.015625)"/>
       <path id="DejaVuSans-20" transform="scale(0.015625)"/>
       <path id="DejaVuSans-6f" d="M 1959 3097 
Q 1497 3097 1228 2736 
Q 959 2375 959 1747 
Q 959 1119 1226 758 
Q 1494 397 1959 397 
Q 2419 397 2687 759 
Q 2956 1122 2956 1747 
Q 2956 2369 2687 2733 
Q 2419 3097 1959 3097 
z
M 1959 3584 
Q 2709 3584 3137 3096 
Q 3566 2609 3566 1747 
Q 3566 888 3137 398 
Q 2709 -91 1959 -91 
Q 1206 -91 779 398 
Q 353 888 353 1747 
Q 353 2609 779 3096 
Q 1206 3584 1959 3584 
z
" transform="scale(0.015625)"/>
       <path id="DejaVuSans-66" d="M 2375 4863 
L 2375 4384 
L 1825 4384 
Q 1516 4384 1395 4259 
Q 1275 4134 1275 3809 
L 1275 3500 
L 2222 3500 
L 2222 3053 
L 1275 3053 
L 1275 0 
L 697 0 
L 697 3053 
L 147 3053 
L 147 3500 
L 697 3500 
L 697 3744 
Q 697 4328 969 4595 
Q 1241 4863 1831 4863 
L 2375 4863 
z
" transform="scale(0.015625)"/>
       <path id="DejaVuSans-70" d="M 1159 525 
L 1159 -1331 
L 581 -1331 
L 581 3500 
L 1159 3500 
L 1159 2969 
Q 1341 3281 1617 3432 
Q 1894 3584 2278 3584 
Q 2916 3584 3314 3078 
Q 3713 2572 3713 1747 
Q 3713 922 3314 415 
Q 2916 -91 2278 -91 
Q 1894 -91 1617 61 
Q 1341 213 1159 525 
z
M 3116 1747 
Q 3116 2381 2855 2742 
Q 2594 3103 2138 3103 
Q 1681 3103 1420 2742 
Q 1159 2381 1159 1747 
Q 1159 1113 1420 752 
Q 1681 391 2138 391 
Q 2594 391 2855 752 
Q 3116 1113 3116 1747 
z
" transform="scale(0.015625)"/>
       <path id="DejaVuSans-61" d="M 2194 1759 
Q 1497 1759 1228 1600 
Q 959 1441 959 1056 
Q 959 750 1161 570 
Q 1363 391 1709 391 
Q 2188 391 2477 730 
Q 2766 1069 2766 1631 
L 2766 1759 
L 2194 1759 
z
M 3341 1997 
L 3341 0 
L 2766 0 
L 2766 531 
Q 2569 213 2275 61 
Q 1981 -91 1556 -91 
Q 1019 -91 701 211 
Q 384 513 384 1019 
Q 384 1609 779 1909 
Q 1175 2209 1959 2209 
L 2766 2209 
L 2766 2266 
Q 2766 2663 2505 2880 
Q 2244 3097 1772 3097 
Q 1472 3097 1187 3025 
Q 903 2953 641 2809 
L 641 3341 
Q 956 3463 1253 3523 
Q 1550 3584 1831 3584 
Q 2591 3584 2966 3190 
Q 3341 2797 3341 1997 
z
" transform="scale(0.015625)"/>
       <path id="DejaVuSans-74" d="M 1172 4494 
L 1172 3500 
L 2356 3500 
L 2356 3053 
L 1172 3053 
L 1172 1153 
Q 1172 725 1289 603 
Q 1406 481 1766 481 
L 2356 481 
L 2356 0 
L 1766 0 
Q 1100 0 847 248 
Q 594 497 594 1153 
L 594 3053 
L 172 3053 
L 172 3500 
L 594 3500 
L 594 4494 
L 1172 4494 
z
" transform="scale(0.015625)"/>
       <path id="DejaVuSans-73" d="M 2834 3397 
L 2834 2853 
Q 2591 2978 2328 3040 
Q 2066 3103 1784 3103 
Q 1356 3103 1142 2972 
Q 928 2841 928 2578 
Q 928 2378 1081 2264 
Q 1234 2150 1697 2047 
L 1894 2003 
Q 2506 1872 2764 1633 
Q 3022 1394 3022 966 
Q 3022 478 2636 193 
Q 2250 -91 1575 -91 
Q 1294 -91 989 -36 
Q 684 19 347 128 
L 347 722 
Q 666 556 975 473 
Q 1284 391 1588 391 
Q 1994 391 2212 530 
Q 2431 669 2431 922 
Q 2431 1156 2273 1281 
Q 2116 1406 1581 1522 
L 1381 1569 
Q 847 1681 609 1914 
Q 372 2147 372 2553 
Q 372 3047 722 3315 
Q 1072 3584 1716 3584 
Q 2034 3584 2315 3537 
Q 2597 3491 2834 3397 
z
" transform="scale(0.015625)"/>
       <path id="DejaVuSans-76" d="M 191 3500 
L 800 3500 
L 1894 563 
L 2988 3500 
L 3597 3500 
L 2284 0 
L 1503 0 
L 191 3500 
z
" transform="scale(0.015625)"/>
       <path id="DejaVuSans-6c" d="M 603 4863 
L 1178 4863 
L 1178 0 
L 603 0 
L 603 4863 
z
" transform="scale(0.015625)"/>
       <path id="DejaVuSans-64" d="M 2906 2969 
L 2906 4863 
L 3481 4863 
L 3481 0 
L 2906 0 
L 2906 525 
Q 2725 213 2448 61 
Q 2172 -91 1784 -91 
Q 1150 -91 751 415 
Q 353 922 353 1747 
Q 353 2572 751 3078 
Q 1150 3584 1784 3584 
Q 2172 3584 2448 3432 
Q 2725 3281 2906 2969 
z
M 947 1747 
Q 947 1113 1208 752 
Q 1469 391 1925 391 
Q 2381 391 2643 752 
Q 2906 1113 2906 1747 
Q 2906 2381 2643 2742 
Q 2381 3103 1925 3103 
Q 1469 3103 1208 2742 
Q 947 2381 947 1747 
z
" transform="scale(0.015625)"/>
      </defs>
      <use xlink:href="#DejaVuSans-4e"/>
      <use xlink:href="#DejaVuSans-75" x="74.804688"/>
      <use xlink:href="#DejaVuSans-6d" x="138.183594"/>
      <use xlink:href="#DejaVuSans-62" x="235.595703"/>
      <use xlink:href="#DejaVuSans-65" x="299.072266"/>
      <use xlink:href="#DejaVuSans-72" x="360.595703"/>
      <use xlink:href="#DejaVuSans-20" x="401.708984"/>
      <use xlink:href="#DejaVuSans-6f" x="433.496094"/>
      <use xlink:href="#DejaVuSans-66" x="494.677734"/>
      <use xlink:href="#DejaVuSans-20" x="529.882812"/>
      <use xlink:href="#DejaVuSans-70" x="561.669922"/>
      <use xlink:href="#DejaVuSans-61" x="625.146484"/>
      <use xlink:href="#DejaVuSans-72" x="686.425781"/>
      <use xlink:href="#DejaVuSans-61" x="727.539062"/>
      <use xlink:href="#DejaVuSans-6d" x="788.818359"/>
      <use xlink:href="#DejaVuSans-65" x="886.230469"/>
      <use xlink:href="#DejaVuSans-74" x="947.753906"/>
      <use xlink:href="#DejaVuSans-65" x="986.962891"/>
      <use xlink:href="#DejaVuSans-72" x="1048.486328"/>
      <use xlink:href="#DejaVuSans-20" x="1089.599609"/>
      <use xlink:href="#DejaVuSans-73" x="1121.386719"/>
      <use xlink:href="#DejaVuSans-65" x="1173.486328"/>
      <use xlink:href="#DejaVuSans-74" x="1235.009766"/>
      <use xlink:href="#DejaVuSans-73" x="1274.21875"/>
      <use xlink:href="#DejaVuSans-20" x="1326.318359"/>
      <use xlink:href="#DejaVuSans-65" x="1358.105469"/>
      <use xlink:href="#DejaVuSans-76" x="1419.628906"/>
      <use xlink:href="#DejaVuSans-61" x="1478.808594"/>
      <use xlink:href="#DejaVuSans-6c" x="1540.087891"/>
      <use xlink:href="#DejaVuSans-75" x="1567.871094"/>
      <use xlink:href="#DejaVuSans-61" x="1631.25"/>
      <use xlink:href="#DejaVuSans-74" x="1692.529297"/>
      <use xlink:href="#DejaVuSans-65" x="1731.738281"/>
      <use xlink:href="#DejaVuSans-64" x="1793.261719"/>
     </g>
    </g>
   </g>
   <g id="matplotlib.axis_2">
    <g id="ytick_1">
     <g id="line2d_11">
      <defs>
       <path id="mbffe6efced" d="M 0 0 
L -3.5 0 
" style="stroke: #000000; stroke-width: 0.8"/>
      </defs>
      <g>
       <use xlink:href="#mbffe6efced" x="44.960938" y="221.76" style="stroke: #000000; stroke-width: 0.8"/>
      </g>
     </g>
     <g id="text_12">
      <!-- 1.0 -->
      <g transform="translate(13.678125 225.559219)scale(0.1 -0.1)">
       <defs>
        <path id="DejaVuSans-2212" d="M 678 2272 
L 4684 2272 
L 4684 1741 
L 678 1741 
L 678 2272 
z
" transform="scale(0.015625)"/>
        <path id="DejaVuSans-2e" d="M 684 794 
L 1344 794 
L 1344 0 
L 684 0 
L 684 794 
z
" transform="scale(0.015625)"/>
       </defs>
       <use xlink:href="#DejaVuSans-2212"/>
       <use xlink:href="#DejaVuSans-31" x="83.789062"/>
       <use xlink:href="#DejaVuSans-2e" x="147.412109"/>
       <use xlink:href="#DejaVuSans-30" x="179.199219"/>
      </g>
     </g>
    </g>
    <g id="ytick_2">
     <g id="line2d_12">
      <g>
       <use xlink:href="#mbffe6efced" x="44.960938" y="173.551304" style="stroke: #000000; stroke-width: 0.8"/>
      </g>
     </g>
     <g id="text_13">
      <!-- 0.5 -->
      <g transform="translate(13.678125 177.350523)scale(0.1 -0.1)">
       <defs>
        <path id="DejaVuSans-35" d="M 691 4666 
L 3169 4666 
L 3169 4134 
L 1269 4134 
L 1269 2991 
Q 1406 3038 1543 3061 
Q 1681 3084 1819 3084 
Q 2600 3084 3056 2656 
Q 3513 2228 3513 1497 
Q 3513 744 3044 326 
Q 2575 -91 1722 -91 
Q 1428 -91 1123 -41 
Q 819 9 494 109 
L 494 744 
Q 775 591 1075 516 
Q 1375 441 1709 441 
Q 2250 441 2565 725 
Q 2881 1009 2881 1497 
Q 2881 1984 2565 2268 
Q 2250 2553 1709 2553 
Q 1456 2553 1204 2497 
Q 953 2441 691 2322 
L 691 4666 
z
" transform="scale(0.015625)"/>
       </defs>
       <use xlink:href="#DejaVuSans-2212"/>
       <use xlink:href="#DejaVuSans-30" x="83.789062"/>
       <use xlink:href="#DejaVuSans-2e" x="147.412109"/>
       <use xlink:href="#DejaVuSans-35" x="179.199219"/>
      </g>
     </g>
    </g>
    <g id="ytick_3">
     <g id="line2d_13">
      <g>
       <use xlink:href="#mbffe6efced" x="44.960938" y="125.342609" style="stroke: #000000; stroke-width: 0.8"/>
      </g>
     </g>
     <g id="text_14">
      <!-- 0.0 -->
      <g transform="translate(22.057813 129.141827)scale(0.1 -0.1)">
       <use xlink:href="#DejaVuSans-30"/>
       <use xlink:href="#DejaVuSans-2e" x="63.623047"/>
       <use xlink:href="#DejaVuSans-30" x="95.410156"/>
      </g>
     </g>
    </g>
    <g id="ytick_4">
     <g id="line2d_14">
      <g>
       <use xlink:href="#mbffe6efced" x="44.960938" y="77.133913" style="stroke: #000000; stroke-width: 0.8"/>
      </g>
     </g>
     <g id="text_15">
      <!-- 0.5 -->
      <g transform="translate(22.057813 80.933132)scale(0.1 -0.1)">
       <use xlink:href="#DejaVuSans-30"/>
       <use xlink:href="#DejaVuSans-2e" x="63.623047"/>
       <use xlink:href="#DejaVuSans-35" x="95.410156"/>
      </g>
     </g>
    </g>
    <g id="ytick_5">
     <g id="line2d_15">
      <g>
       <use xlink:href="#mbffe6efced" x="44.960938" y="28.925217" style="stroke: #000000; stroke-width: 0.8"/>
      </g>
     </g>
     <g id="text_16">
      <!-- 1.0 -->
      <g transform="translate(22.057813 32.724436)scale(0.1 -0.1)">
       <use xlink:href="#DejaVuSans-31"/>
       <use xlink:href="#DejaVuSans-2e" x="63.623047"/>
       <use xlink:href="#DejaVuSans-30" x="95.410156"/>
      </g>
     </g>
    </g>
    <g id="text_17">
     <!-- Normalized metabolic cost -->
     <g transform="translate(7.598438 177.519063)rotate(-90)scale(0.1 -0.1)">
      <defs>
       <path id="DejaVuSans-69" d="M 603 3500 
L 1178 3500 
L 1178 0 
L 603 0 
L 603 3500 
z
M 603 4863 
L 1178 4863 
L 1178 4134 
L 603 4134 
L 603 4863 
z
" transform="scale(0.015625)"/>
       <path id="DejaVuSans-7a" d="M 353 3500 
L 3084 3500 
L 3084 2975 
L 922 459 
L 3084 459 
L 3084 0 
L 275 0 
L 275 525 
L 2438 3041 
L 353 3041 
L 353 3500 
z
" transform="scale(0.015625)"/>
       <path id="DejaVuSans-63" d="M 3122 3366 
L 3122 2828 
Q 2878 2963 2633 3030 
Q 2388 3097 2138 3097 
Q 1578 3097 1268 2742 
Q 959 2388 959 1747 
Q 959 1106 1268 751 
Q 1578 397 2138 397 
Q 2388 397 2633 464 
Q 2878 531 3122 666 
L 3122 134 
Q 2881 22 2623 -34 
Q 2366 -91 2075 -91 
Q 1284 -91 818 406 
Q 353 903 353 1747 
Q 353 2603 823 3093 
Q 1294 3584 2113 3584 
Q 2378 3584 2631 3529 
Q 2884 3475 3122 3366 
z
" transform="scale(0.015625)"/>
      </defs>
      <use xlink:href="#DejaVuSans-4e"/>
      <use xlink:href="#DejaVuSans-6f" x="74.804688"/>
      <use xlink:href="#DejaVuSans-72" x="135.986328"/>
      <use xlink:href="#DejaVuSans-6d" x="175.349609"/>
      <use xlink:href="#DejaVuSans-61" x="272.761719"/>
      <use xlink:href="#DejaVuSans-6c" x="334.041016"/>
      <use xlink:href="#DejaVuSans-69" x="361.824219"/>
      <use xlink:href="#DejaVuSans-7a" x="389.607422"/>
      <use xlink:href="#DejaVuSans-65" x="442.097656"/>
      <use xlink:href="#DejaVuSans-64" x="503.621094"/>
      <use xlink:href="#DejaVuSans-20" x="567.097656"/>
      <use xlink:href="#DejaVuSans-6d" x="598.884766"/>
      <use xlink:href="#DejaVuSans-65" x="696.296875"/>
      <use xlink:href="#DejaVuSans-74" x="757.820312"/>
      <use xlink:href="#DejaVuSans-61" x="797.029297"/>
      <use xlink:href="#DejaVuSans-62" x="858.308594"/>
      <use xlink:href="#DejaVuSans-6f" x="921.785156"/>
      <use xlink:href="#DejaVuSans-6c" x="982.966797"/>
      <use xlink:href="#DejaVuSans-69" x="1010.75"/>
      <use xlink:href="#DejaVuSans-63" x="1038.533203"/>
      <use xlink:href="#DejaVuSans-20" x="1093.513672"/>
      <use xlink:href="#DejaVuSans-63" x="1125.300781"/>
      <use xlink:href="#DejaVuSans-6f" x="1180.28125"/>
      <use xlink:href="#DejaVuSans-73" x="1241.462891"/>
      <use xlink:href="#DejaVuSans-74" x="1293.5625"/>
     </g>
    </g>
   </g>
   <g id="line2d_16">
    <path d="M 44.960938 9.970367 
L 46.510938 44.318489 
L 48.060938 57.621919 
L 51.160938 86.31895 
L 52.710938 89.906971 
L 54.260938 95.947995 
L 55.810938 99.820189 
L 57.360938 101.84052 
L 60.460938 109.737986 
L 62.010938 112.397773 
L 63.560938 116.251928 
L 65.110938 125.370616 
L 68.210938 136.385695 
L 71.310938 140.741427 
L 72.860938 142.905891 
L 74.410938 147.867441 
L 75.960938 153.987072 
L 77.510938 156.830834 
L 79.060938 158.520821 
L 80.610938 159.299382 
L 82.160938 162.840333 
L 83.710938 167.65601 
L 85.260938 169.040612 
L 86.810938 171.378049 
L 88.360938 172.515322 
L 89.910938 174.711345 
L 91.460938 176.65087 
L 93.010938 179.188622 
L 94.560938 180.434861 
L 96.110938 180.971719 
L 97.660938 181.00812 
L 99.210938 181.333724 
L 100.760938 182.789688 
L 103.860938 183.55755 
L 105.410938 184.045709 
L 106.960938 186.67419 
L 108.510938 187.863125 
L 110.060938 188.493135 
L 111.610938 188.732142 
L 113.160938 189.5142 
L 114.710938 189.671403 
L 116.260938 190.415453 
L 119.360938 190.920836 
L 120.910938 190.920836 
L 122.460938 191.033828 
L 124.010938 191.669347 
L 125.560938 192.097675 
L 128.660938 192.111981 
L 131.760938 192.449304 
L 133.310938 192.534891 
L 134.860938 192.854575 
L 136.410938 192.854575 
L 137.960938 193.244359 
L 139.510938 193.400083 
L 144.160938 193.400083 
L 145.710938 193.625245 
L 147.260938 193.625245 
L 148.810938 193.878056 
L 153.460938 193.916908 
L 156.560938 194.235896 
L 159.660938 194.445634 
L 168.960938 194.477893 
L 186.010938 194.543364 
L 187.560937 194.954549 
L 189.110938 194.954549 
L 190.660938 195.117195 
L 223.210938 195.169759 
L 226.310937 195.229809 
L 230.960938 195.229809 
L 232.510938 195.426691 
L 243.360938 195.426691 
L 244.910938 195.925806 
L 251.110938 195.925806 
L 252.660938 196.107919 
L 258.860938 196.138652 
L 260.410938 196.266765 
L 283.660938 196.355162 
L 286.760938 196.452719 
L 289.860938 196.452719 
L 291.410938 196.688292 
L 316.210938 196.798027 
L 320.860938 196.824951 
L 320.860938 196.824951 
" clip-path="url(#pc900dd8072)" style="fill: none; stroke: #bf32e7; stroke-width: 1.5; stroke-linecap: square"/>
   </g>
   <g id="line2d_17">
    <path d="M 44.960938 9.970367 
L 46.510938 38.656026 
L 48.060938 53.941818 
L 49.610938 59.850465 
L 51.160938 65.215088 
L 52.710938 77.270346 
L 55.810938 85.007338 
L 57.360938 87.572419 
L 58.910938 96.326802 
L 60.460938 100.426502 
L 62.010938 105.757045 
L 63.560938 108.091908 
L 66.660938 122.739974 
L 68.210938 125.544777 
L 69.760938 130.197942 
L 71.310938 140.711226 
L 72.860938 146.835639 
L 74.410938 154.035008 
L 75.960938 159.275766 
L 77.510938 162.659068 
L 79.060938 167.386159 
L 82.160938 171.6815 
L 83.710938 175.720769 
L 85.260938 177.220609 
L 86.810938 179.188729 
L 88.360938 179.623126 
L 89.910938 181.024156 
L 91.460938 181.481391 
L 93.010938 182.348292 
L 94.560938 184.900459 
L 96.110938 186.606124 
L 97.660938 188.648601 
L 102.310938 189.27662 
L 103.860938 189.9146 
L 105.410938 189.9146 
L 106.960938 191.905353 
L 111.610938 192.590271 
L 114.710938 192.595617 
L 116.260938 192.858191 
L 119.360938 193.017118 
L 124.010938 193.304634 
L 125.560938 193.596982 
L 128.660938 193.673417 
L 131.760938 193.950128 
L 133.310938 194.610655 
L 134.860938 194.628732 
L 137.960938 195.015233 
L 139.510938 195.463933 
L 144.160938 195.706396 
L 145.710938 195.915551 
L 155.010938 195.915551 
L 156.560938 196.126504 
L 170.510938 196.186829 
L 173.610938 196.26792 
L 186.010938 196.342113 
L 187.560937 196.481465 
L 198.410938 196.581414 
L 199.960938 196.991778 
L 279.010938 197.365655 
L 280.560938 197.525123 
L 289.860938 197.600659 
L 291.410938 198.986646 
L 314.660937 199.08723 
L 317.760938 199.182453 
L 320.860938 199.182453 
L 320.860938 199.182453 
" clip-path="url(#pc900dd8072)" style="fill: none; stroke: #ff1493; stroke-width: 1.5; stroke-linecap: square"/>
   </g>
   <g id="line2d_18">
    <path d="M 44.960938 9.970367 
L 46.510938 32.387127 
L 48.060938 51.518846 
L 49.610938 58.30289 
L 51.160938 68.094587 
L 52.710938 71.080827 
L 54.260938 76.78949 
L 57.360938 83.951483 
L 58.910938 86.412889 
L 60.460938 88.653928 
L 62.010938 89.920664 
L 63.560938 92.827007 
L 65.110938 93.2593 
L 66.660938 99.603503 
L 68.210938 100.293594 
L 69.760938 101.40155 
L 71.310938 104.834535 
L 72.860938 107.449386 
L 74.410938 110.348364 
L 75.960938 111.976728 
L 77.510938 114.839061 
L 79.060938 116.783512 
L 80.610938 117.460761 
L 82.160938 119.578936 
L 83.710938 122.348579 
L 86.810938 123.676543 
L 88.360938 124.913645 
L 89.910938 125.95509 
L 91.460938 126.154736 
L 93.010938 126.492322 
L 94.560938 127.259774 
L 96.110938 127.841324 
L 97.660938 128.616774 
L 99.210938 129.888885 
L 100.760938 132.12771 
L 102.310938 133.787426 
L 103.860938 133.787426 
L 105.410938 134.183431 
L 106.960938 135.739 
L 108.510938 136.26887 
L 110.060938 136.595288 
L 111.610938 137.566748 
L 114.710938 138.723787 
L 116.260938 139.806199 
L 117.810938 140.752874 
L 119.360938 143.596421 
L 120.910938 143.732099 
L 122.460938 144.223465 
L 124.010938 144.223465 
L 127.110938 144.399984 
L 128.660938 145.861095 
L 131.760938 146.180767 
L 133.310938 146.180767 
L 134.860938 147.114471 
L 136.410938 148.421256 
L 137.960938 150.129617 
L 139.510938 150.160456 
L 141.060938 150.60472 
L 142.610938 150.66359 
L 144.160938 151.549308 
L 145.710938 152.570594 
L 148.810938 153.776647 
L 150.360938 154.803558 
L 151.910938 154.895107 
L 155.010938 155.503932 
L 156.560938 156.514169 
L 162.760938 159.706712 
L 164.310938 159.791669 
L 165.860938 160.088711 
L 167.410938 161.081708 
L 168.960938 161.600238 
L 173.610938 162.553045 
L 175.160938 163.189911 
L 176.710938 163.389867 
L 178.260938 164.994929 
L 179.810937 165.330886 
L 181.360938 165.330886 
L 182.910938 166.246427 
L 184.460938 166.535733 
L 186.010938 168.741857 
L 187.560937 168.978879 
L 189.110938 168.978879 
L 190.660938 169.345298 
L 192.210938 170.352676 
L 195.310937 170.416094 
L 196.860938 170.60153 
L 198.410938 171.977037 
L 199.960938 171.977037 
L 201.510938 172.838953 
L 203.060937 173.294803 
L 206.160938 173.48745 
L 209.260938 174.183447 
L 210.810937 174.340671 
L 213.910938 174.376227 
L 217.010938 174.477948 
L 218.560937 175.165419 
L 220.110938 176.057245 
L 223.210938 176.057245 
L 224.760938 176.694039 
L 226.310937 176.730414 
L 227.860938 177.052698 
L 229.410938 177.052698 
L 230.960938 177.366357 
L 232.510938 178.264575 
L 234.060937 178.370813 
L 237.160938 178.736558 
L 238.710938 179.227421 
L 240.260938 179.493991 
L 241.810937 179.493991 
L 243.360938 179.834647 
L 248.010938 180.461555 
L 249.560937 181.266673 
L 251.110938 181.631462 
L 254.210938 181.903824 
L 255.760938 182.304713 
L 257.310938 182.349075 
L 258.860938 182.751601 
L 260.410938 182.828179 
L 263.510938 183.489614 
L 266.610938 183.528407 
L 268.160938 184.691703 
L 271.260938 184.965006 
L 272.810938 185.361991 
L 275.910938 185.401292 
L 279.010938 185.823031 
L 282.110938 185.973607 
L 283.660938 186.063741 
L 285.210938 186.354907 
L 288.310938 186.354907 
L 289.860938 186.682012 
L 291.410938 188.06341 
L 299.160938 188.495757 
L 303.810938 188.585924 
L 305.360938 188.830047 
L 320.860938 189.811682 
L 320.860938 189.811682 
" clip-path="url(#pc900dd8072)" style="fill: none; stroke: #0091ea; stroke-width: 1.5; stroke-linecap: square"/>
   </g>
   <g id="line2d_19">
    <path d="M 44.960938 9.970367 
L 46.510938 34.520581 
L 48.060938 47.829133 
L 49.610938 52.979691 
L 52.710938 79.166236 
L 54.260938 86.158461 
L 55.810938 87.934394 
L 57.360938 88.333912 
L 60.460938 95.343181 
L 62.010938 98.599944 
L 63.560938 101.334546 
L 65.110938 102.622406 
L 66.660938 104.979722 
L 68.210938 105.969521 
L 69.760938 106.826455 
L 71.310938 107.311133 
L 72.860938 109.765009 
L 75.960938 111.643416 
L 77.510938 113.483279 
L 79.060938 113.973372 
L 83.710938 114.309878 
L 85.260938 114.309878 
L 86.810938 115.898569 
L 88.360938 117.94265 
L 89.910938 119.035282 
L 93.010938 119.268465 
L 94.560938 120.093836 
L 96.110938 120.434245 
L 99.210938 120.541406 
L 100.760938 121.373764 
L 102.310938 122.505552 
L 103.860938 123.440371 
L 105.410938 123.440371 
L 106.960938 125.081902 
L 108.510938 126.181364 
L 110.060938 126.716007 
L 111.610938 126.89229 
L 113.160938 127.825832 
L 114.710938 128.176454 
L 117.810938 128.199924 
L 119.360938 128.521138 
L 120.910938 129.06967 
L 122.460938 129.097018 
L 124.010938 130.133152 
L 125.560938 130.388131 
L 127.110938 130.841061 
L 128.660938 131.765127 
L 130.210938 131.765127 
L 131.760938 131.883457 
L 133.310938 132.546164 
L 134.860938 133.026013 
L 137.960938 133.26898 
L 139.510938 133.390865 
L 141.060938 133.892005 
L 142.610938 134.696456 
L 144.160938 135.180992 
L 145.710938 135.368843 
L 148.810938 136.15067 
L 150.360938 136.19523 
L 153.460938 136.574577 
L 155.010938 137.385143 
L 156.560938 137.667964 
L 158.110938 137.7555 
L 159.660938 138.164577 
L 167.410938 138.424881 
L 170.510938 138.843202 
L 172.060938 138.876924 
L 175.160938 139.335432 
L 179.810937 139.38107 
L 181.360938 139.547775 
L 182.910938 140.344718 
L 184.460938 140.352285 
L 186.010938 140.544299 
L 193.760938 140.639515 
L 195.310937 140.892124 
L 201.510938 141.105728 
L 203.060937 142.03166 
L 215.460938 142.323365 
L 218.560937 142.782228 
L 224.760938 143.207867 
L 235.610938 143.70638 
L 248.010938 143.767903 
L 260.410938 144.27927 
L 263.510938 144.397299 
L 279.010938 144.684962 
L 289.860938 144.700413 
L 291.410938 145.232426 
L 306.910937 145.273258 
L 308.460938 145.432015 
L 320.860938 145.534642 
L 320.860938 145.534642 
" clip-path="url(#pc900dd8072)" style="fill: none; stroke: #00c853; stroke-width: 1.5; stroke-linecap: square"/>
   </g>
   <g id="line2d_20">
    <path d="M 44.960938 22.772039 
L 48.060938 37.426904 
L 49.610938 44.023339 
L 51.160938 50.129967 
L 57.360938 71.776041 
L 58.910938 76.626261 
L 62.010938 81.832034 
L 63.560938 83.878614 
L 68.210938 86.698117 
L 69.760938 87.696685 
L 71.310938 88.148956 
L 74.410938 89.723671 
L 75.960938 91.208931 
L 77.510938 93.353485 
L 80.610938 97.114392 
L 85.260938 103.61495 
L 86.810938 105.752435 
L 89.910938 109.274995 
L 91.460938 110.297255 
L 96.110938 111.489649 
L 110.060938 111.976919 
L 119.360938 112.935071 
L 124.010938 113.977258 
L 134.860938 115.293686 
L 141.060938 119.367053 
L 142.610938 121.652435 
L 145.710938 128.352573 
L 147.260938 132.238855 
L 150.360938 140.839757 
L 156.560938 154.995777 
L 158.110938 157.298177 
L 159.660938 158.656327 
L 161.210938 159.773602 
L 162.760938 160.4751 
L 165.860938 161.136006 
L 172.060938 163.498491 
L 179.810937 169.610251 
L 182.910938 172.690281 
L 187.560937 177.003656 
L 195.310937 180.945535 
L 203.060937 182.682721 
L 206.160938 183.536139 
L 212.360938 186.14308 
L 218.560937 187.625022 
L 221.660938 188.214547 
L 224.760938 188.35402 
L 229.410938 190.152577 
L 240.260938 194.023775 
L 254.210938 194.122911 
L 269.710938 194.271614 
L 300.710938 194.377907 
L 316.210938 195.334537 
L 334.504687 195.334537 
L 334.504687 195.334537 
" clip-path="url(#pc900dd8072)" style="fill: none; stroke-dasharray: 5.55,2.4; stroke-dashoffset: 0; stroke: #000000; stroke-width: 1.5"/>
   </g>
   <g id="patch_3">
    <path d="M 44.960938 221.76 
L 44.960938 0 
" style="fill: none; stroke: #000000; stroke-width: 1.2; stroke-linejoin: miter; stroke-linecap: square"/>
   </g>
   <g id="patch_4">
    <path d="M 323.960938 221.76 
L 323.960938 0 
" style="fill: none"/>
   </g>
   <g id="patch_5">
    <path d="M 44.960938 221.76 
L 323.960938 221.76 
" style="fill: none; stroke: #000000; stroke-width: 1.2; stroke-linejoin: miter; stroke-linecap: square"/>
   </g>
   <g id="patch_6">
    <path d="M 44.960938 0 
L 323.960938 0 
" style="fill: none"/>
   </g>
   <g id="legend_1">
    <g id="line2d_21">
     <path d="M 132.042187 13.098438 
L 132.042187 13.098438 
L 132.042187 13.098438 
" style="fill: none; stroke: #bf32e7; stroke-width: 1.5; stroke-linecap: square"/>
     <defs>
      <path id="m2bd368e6e4" d="M -3.5 3.5 
L 3.5 3.5 
L 3.5 -3.5 
L -3.5 -3.5 
z
" style="stroke: #bf32e7; stroke-linejoin: miter"/>
     </defs>
     <g>
      <use xlink:href="#m2bd368e6e4" x="132.042187" y="13.098438" style="fill: #bf32e7; stroke: #bf32e7; stroke-linejoin: miter"/>
     </g>
    </g>
    <g id="text_18">
     <!-- Bayesian Optimization -->
     <g transform="translate(140.042187 16.598438)scale(0.1 -0.1)">
      <defs>
       <path id="DejaVuSans-42" d="M 1259 2228 
L 1259 519 
L 2272 519 
Q 2781 519 3026 730 
Q 3272 941 3272 1375 
Q 3272 1813 3026 2020 
Q 2781 2228 2272 2228 
L 1259 2228 
z
M 1259 4147 
L 1259 2741 
L 2194 2741 
Q 2656 2741 2882 2914 
Q 3109 3088 3109 3444 
Q 3109 3797 2882 3972 
Q 2656 4147 2194 4147 
L 1259 4147 
z
M 628 4666 
L 2241 4666 
Q 2963 4666 3353 4366 
Q 3744 4066 3744 3513 
Q 3744 3084 3544 2831 
Q 3344 2578 2956 2516 
Q 3422 2416 3680 2098 
Q 3938 1781 3938 1306 
Q 3938 681 3513 340 
Q 3088 0 2303 0 
L 628 0 
L 628 4666 
z
" transform="scale(0.015625)"/>
       <path id="DejaVuSans-79" d="M 2059 -325 
Q 1816 -950 1584 -1140 
Q 1353 -1331 966 -1331 
L 506 -1331 
L 506 -850 
L 844 -850 
Q 1081 -850 1212 -737 
Q 1344 -625 1503 -206 
L 1606 56 
L 191 3500 
L 800 3500 
L 1894 763 
L 2988 3500 
L 3597 3500 
L 2059 -325 
z
" transform="scale(0.015625)"/>
       <path id="DejaVuSans-6e" d="M 3513 2113 
L 3513 0 
L 2938 0 
L 2938 2094 
Q 2938 2591 2744 2837 
Q 2550 3084 2163 3084 
Q 1697 3084 1428 2787 
Q 1159 2491 1159 1978 
L 1159 0 
L 581 0 
L 581 3500 
L 1159 3500 
L 1159 2956 
Q 1366 3272 1645 3428 
Q 1925 3584 2291 3584 
Q 2894 3584 3203 3211 
Q 3513 2838 3513 2113 
z
" transform="scale(0.015625)"/>
       <path id="DejaVuSans-4f" d="M 2522 4238 
Q 1834 4238 1429 3725 
Q 1025 3213 1025 2328 
Q 1025 1447 1429 934 
Q 1834 422 2522 422 
Q 3209 422 3611 934 
Q 4013 1447 4013 2328 
Q 4013 3213 3611 3725 
Q 3209 4238 2522 4238 
z
M 2522 4750 
Q 3503 4750 4090 4092 
Q 4678 3434 4678 2328 
Q 4678 1225 4090 567 
Q 3503 -91 2522 -91 
Q 1538 -91 948 565 
Q 359 1222 359 2328 
Q 359 3434 948 4092 
Q 1538 4750 2522 4750 
z
" transform="scale(0.015625)"/>
      </defs>
      <use xlink:href="#DejaVuSans-42"/>
      <use xlink:href="#DejaVuSans-61" x="68.603516"/>
      <use xlink:href="#DejaVuSans-79" x="129.882812"/>
      <use xlink:href="#DejaVuSans-65" x="189.0625"/>
      <use xlink:href="#DejaVuSans-73" x="250.585938"/>
      <use xlink:href="#DejaVuSans-69" x="302.685547"/>
      <use xlink:href="#DejaVuSans-61" x="330.46875"/>
      <use xlink:href="#DejaVuSans-6e" x="391.748047"/>
      <use xlink:href="#DejaVuSans-20" x="455.126953"/>
      <use xlink:href="#DejaVuSans-4f" x="486.914062"/>
      <use xlink:href="#DejaVuSans-70" x="565.625"/>
      <use xlink:href="#DejaVuSans-74" x="629.101562"/>
      <use xlink:href="#DejaVuSans-69" x="668.310547"/>
      <use xlink:href="#DejaVuSans-6d" x="696.09375"/>
      <use xlink:href="#DejaVuSans-69" x="793.505859"/>
      <use xlink:href="#DejaVuSans-7a" x="821.289062"/>
      <use xlink:href="#DejaVuSans-61" x="873.779297"/>
      <use xlink:href="#DejaVuSans-74" x="935.058594"/>
      <use xlink:href="#DejaVuSans-69" x="974.267578"/>
      <use xlink:href="#DejaVuSans-6f" x="1002.050781"/>
      <use xlink:href="#DejaVuSans-6e" x="1063.232422"/>
     </g>
    </g>
    <g id="line2d_22">
     <path d="M 132.042187 27.776563 
L 132.042187 27.776563 
L 132.042187 27.776563 
" style="fill: none; stroke: #ff1493; stroke-width: 1.5; stroke-linecap: square"/>
     <defs>
      <path id="m4069b060cb" d="M -3.5 3.5 
L 3.5 3.5 
L 3.5 -3.5 
L -3.5 -3.5 
z
" style="stroke: #ff1493; stroke-linejoin: miter"/>
     </defs>
     <g>
      <use xlink:href="#m4069b060cb" x="132.042187" y="27.776563" style="fill: #ff1493; stroke: #ff1493; stroke-linejoin: miter"/>
     </g>
    </g>
    <g id="text_19">
     <!-- Exploitative Bayesian Optimization -->
     <g transform="translate(140.042187 31.276563)scale(0.1 -0.1)">
      <defs>
       <path id="DejaVuSans-45" d="M 628 4666 
L 3578 4666 
L 3578 4134 
L 1259 4134 
L 1259 2753 
L 3481 2753 
L 3481 2222 
L 1259 2222 
L 1259 531 
L 3634 531 
L 3634 0 
L 628 0 
L 628 4666 
z
" transform="scale(0.015625)"/>
       <path id="DejaVuSans-78" d="M 3513 3500 
L 2247 1797 
L 3578 0 
L 2900 0 
L 1881 1375 
L 863 0 
L 184 0 
L 1544 1831 
L 300 3500 
L 978 3500 
L 1906 2253 
L 2834 3500 
L 3513 3500 
z
" transform="scale(0.015625)"/>
      </defs>
      <use xlink:href="#DejaVuSans-45"/>
      <use xlink:href="#DejaVuSans-78" x="63.183594"/>
      <use xlink:href="#DejaVuSans-70" x="122.363281"/>
      <use xlink:href="#DejaVuSans-6c" x="185.839844"/>
      <use xlink:href="#DejaVuSans-6f" x="213.623047"/>
      <use xlink:href="#DejaVuSans-69" x="274.804688"/>
      <use xlink:href="#DejaVuSans-74" x="302.587891"/>
      <use xlink:href="#DejaVuSans-61" x="341.796875"/>
      <use xlink:href="#DejaVuSans-74" x="403.076172"/>
      <use xlink:href="#DejaVuSans-69" x="442.285156"/>
      <use xlink:href="#DejaVuSans-76" x="470.068359"/>
      <use xlink:href="#DejaVuSans-65" x="529.248047"/>
      <use xlink:href="#DejaVuSans-20" x="590.771484"/>
      <use xlink:href="#DejaVuSans-42" x="622.558594"/>
      <use xlink:href="#DejaVuSans-61" x="691.162109"/>
      <use xlink:href="#DejaVuSans-79" x="752.441406"/>
      <use xlink:href="#DejaVuSans-65" x="811.621094"/>
      <use xlink:href="#DejaVuSans-73" x="873.144531"/>
      <use xlink:href="#DejaVuSans-69" x="925.244141"/>
      <use xlink:href="#DejaVuSans-61" x="953.027344"/>
      <use xlink:href="#DejaVuSans-6e" x="1014.306641"/>
      <use xlink:href="#DejaVuSans-20" x="1077.685547"/>
      <use xlink:href="#DejaVuSans-4f" x="1109.472656"/>
      <use xlink:href="#DejaVuSans-70" x="1188.183594"/>
      <use xlink:href="#DejaVuSans-74" x="1251.660156"/>
      <use xlink:href="#DejaVuSans-69" x="1290.869141"/>
      <use xlink:href="#DejaVuSans-6d" x="1318.652344"/>
      <use xlink:href="#DejaVuSans-69" x="1416.064453"/>
      <use xlink:href="#DejaVuSans-7a" x="1443.847656"/>
      <use xlink:href="#DejaVuSans-61" x="1496.337891"/>
      <use xlink:href="#DejaVuSans-74" x="1557.617188"/>
      <use xlink:href="#DejaVuSans-69" x="1596.826172"/>
      <use xlink:href="#DejaVuSans-6f" x="1624.609375"/>
      <use xlink:href="#DejaVuSans-6e" x="1685.791016"/>
     </g>
    </g>
    <g id="line2d_23">
     <path d="M 132.042187 49.093438 
L 132.042187 49.093438 
L 132.042187 49.093438 
" style="fill: none; stroke: #0091ea; stroke-width: 1.5; stroke-linecap: square"/>
     <defs>
      <path id="ma7a73a21be" d="M -3.5 3.5 
L 3.5 3.5 
L 3.5 -3.5 
L -3.5 -3.5 
z
" style="stroke: #0091ea; stroke-linejoin: miter"/>
     </defs>
     <g>
      <use xlink:href="#ma7a73a21be" x="132.042187" y="49.093438" style="fill: #0091ea; stroke: #0091ea; stroke-linejoin: miter"/>
     </g>
    </g>
    <g id="text_20">
     <!-- Covariance Matrix Adaptation -->
     <g transform="translate(140.042187 45.954688)scale(0.1 -0.1)">
      <defs>
       <path id="DejaVuSans-43" d="M 4122 4306 
L 4122 3641 
Q 3803 3938 3442 4084 
Q 3081 4231 2675 4231 
Q 1875 4231 1450 3742 
Q 1025 3253 1025 2328 
Q 1025 1406 1450 917 
Q 1875 428 2675 428 
Q 3081 428 3442 575 
Q 3803 722 4122 1019 
L 4122 359 
Q 3791 134 3420 21 
Q 3050 -91 2638 -91 
Q 1578 -91 968 557 
Q 359 1206 359 2328 
Q 359 3453 968 4101 
Q 1578 4750 2638 4750 
Q 3056 4750 3426 4639 
Q 3797 4528 4122 4306 
z
" transform="scale(0.015625)"/>
       <path id="DejaVuSans-4d" d="M 628 4666 
L 1569 4666 
L 2759 1491 
L 3956 4666 
L 4897 4666 
L 4897 0 
L 4281 0 
L 4281 4097 
L 3078 897 
L 2444 897 
L 1241 4097 
L 1241 0 
L 628 0 
L 628 4666 
z
" transform="scale(0.015625)"/>
       <path id="DejaVuSans-41" d="M 2188 4044 
L 1331 1722 
L 3047 1722 
L 2188 4044 
z
M 1831 4666 
L 2547 4666 
L 4325 0 
L 3669 0 
L 3244 1197 
L 1141 1197 
L 716 0 
L 50 0 
L 1831 4666 
z
" transform="scale(0.015625)"/>
      </defs>
      <use xlink:href="#DejaVuSans-43"/>
      <use xlink:href="#DejaVuSans-6f" x="69.824219"/>
      <use xlink:href="#DejaVuSans-76" x="131.005859"/>
      <use xlink:href="#DejaVuSans-61" x="190.185547"/>
      <use xlink:href="#DejaVuSans-72" x="251.464844"/>
      <use xlink:href="#DejaVuSans-69" x="292.578125"/>
      <use xlink:href="#DejaVuSans-61" x="320.361328"/>
      <use xlink:href="#DejaVuSans-6e" x="381.640625"/>
      <use xlink:href="#DejaVuSans-63" x="445.019531"/>
      <use xlink:href="#DejaVuSans-65" x="500"/>
      <use xlink:href="#DejaVuSans-20" x="561.523438"/>
      <use xlink:href="#DejaVuSans-4d" x="593.310547"/>
      <use xlink:href="#DejaVuSans-61" x="679.589844"/>
      <use xlink:href="#DejaVuSans-74" x="740.869141"/>
      <use xlink:href="#DejaVuSans-72" x="780.078125"/>
      <use xlink:href="#DejaVuSans-69" x="821.191406"/>
      <use xlink:href="#DejaVuSans-78" x="848.974609"/>
      <use xlink:href="#DejaVuSans-20" x="908.154297"/>
      <use xlink:href="#DejaVuSans-41" x="939.941406"/>
      <use xlink:href="#DejaVuSans-64" x="1006.599609"/>
      <use xlink:href="#DejaVuSans-61" x="1070.076172"/>
      <use xlink:href="#DejaVuSans-70" x="1131.355469"/>
      <use xlink:href="#DejaVuSans-74" x="1194.832031"/>
      <use xlink:href="#DejaVuSans-61" x="1234.041016"/>
      <use xlink:href="#DejaVuSans-74" x="1295.320312"/>
      <use xlink:href="#DejaVuSans-69" x="1334.529297"/>
      <use xlink:href="#DejaVuSans-6f" x="1362.3125"/>
      <use xlink:href="#DejaVuSans-6e" x="1423.494141"/>
     </g>
     <!-- Evolutionary Strategy -->
     <g transform="translate(140.042187 57.1525)scale(0.1 -0.1)">
      <defs>
       <path id="DejaVuSans-53" d="M 3425 4513 
L 3425 3897 
Q 3066 4069 2747 4153 
Q 2428 4238 2131 4238 
Q 1616 4238 1336 4038 
Q 1056 3838 1056 3469 
Q 1056 3159 1242 3001 
Q 1428 2844 1947 2747 
L 2328 2669 
Q 3034 2534 3370 2195 
Q 3706 1856 3706 1288 
Q 3706 609 3251 259 
Q 2797 -91 1919 -91 
Q 1588 -91 1214 -16 
Q 841 59 441 206 
L 441 856 
Q 825 641 1194 531 
Q 1563 422 1919 422 
Q 2459 422 2753 634 
Q 3047 847 3047 1241 
Q 3047 1584 2836 1778 
Q 2625 1972 2144 2069 
L 1759 2144 
Q 1053 2284 737 2584 
Q 422 2884 422 3419 
Q 422 4038 858 4394 
Q 1294 4750 2059 4750 
Q 2388 4750 2728 4690 
Q 3069 4631 3425 4513 
z
" transform="scale(0.015625)"/>
       <path id="DejaVuSans-67" d="M 2906 1791 
Q 2906 2416 2648 2759 
Q 2391 3103 1925 3103 
Q 1463 3103 1205 2759 
Q 947 2416 947 1791 
Q 947 1169 1205 825 
Q 1463 481 1925 481 
Q 2391 481 2648 825 
Q 2906 1169 2906 1791 
z
M 3481 434 
Q 3481 -459 3084 -895 
Q 2688 -1331 1869 -1331 
Q 1566 -1331 1297 -1286 
Q 1028 -1241 775 -1147 
L 775 -588 
Q 1028 -725 1275 -790 
Q 1522 -856 1778 -856 
Q 2344 -856 2625 -561 
Q 2906 -266 2906 331 
L 2906 616 
Q 2728 306 2450 153 
Q 2172 0 1784 0 
Q 1141 0 747 490 
Q 353 981 353 1791 
Q 353 2603 747 3093 
Q 1141 3584 1784 3584 
Q 2172 3584 2450 3431 
Q 2728 3278 2906 2969 
L 2906 3500 
L 3481 3500 
L 3481 434 
z
" transform="scale(0.015625)"/>
      </defs>
      <use xlink:href="#DejaVuSans-45"/>
      <use xlink:href="#DejaVuSans-76" x="63.183594"/>
      <use xlink:href="#DejaVuSans-6f" x="122.363281"/>
      <use xlink:href="#DejaVuSans-6c" x="183.544922"/>
      <use xlink:href="#DejaVuSans-75" x="211.328125"/>
      <use xlink:href="#DejaVuSans-74" x="274.707031"/>
      <use xlink:href="#DejaVuSans-69" x="313.916016"/>
      <use xlink:href="#DejaVuSans-6f" x="341.699219"/>
      <use xlink:href="#DejaVuSans-6e" x="402.880859"/>
      <use xlink:href="#DejaVuSans-61" x="466.259766"/>
      <use xlink:href="#DejaVuSans-72" x="527.539062"/>
      <use xlink:href="#DejaVuSans-79" x="568.652344"/>
      <use xlink:href="#DejaVuSans-20" x="627.832031"/>
      <use xlink:href="#DejaVuSans-53" x="659.619141"/>
      <use xlink:href="#DejaVuSans-74" x="723.095703"/>
      <use xlink:href="#DejaVuSans-72" x="762.304688"/>
      <use xlink:href="#DejaVuSans-61" x="803.417969"/>
      <use xlink:href="#DejaVuSans-74" x="864.697266"/>
      <use xlink:href="#DejaVuSans-65" x="903.90625"/>
      <use xlink:href="#DejaVuSans-67" x="965.429688"/>
      <use xlink:href="#DejaVuSans-79" x="1028.90625"/>
     </g>
    </g>
    <g id="line2d_24">
     <path d="M 132.042187 68.330625 
L 132.042187 68.330625 
L 132.042187 68.330625 
" style="fill: none; stroke: #00c853; stroke-width: 1.5; stroke-linecap: square"/>
     <defs>
      <path id="ma07b8ab980" d="M -3.5 3.5 
L 3.5 3.5 
L 3.5 -3.5 
L -3.5 -3.5 
z
" style="stroke: #00c853; stroke-linejoin: miter"/>
     </defs>
     <g>
      <use xlink:href="#ma07b8ab980" x="132.042187" y="68.330625" style="fill: #00c853; stroke: #00c853; stroke-linejoin: miter"/>
     </g>
    </g>
    <g id="text_21">
     <!-- Cross-Entropy -->
     <g transform="translate(140.042187 71.830625)scale(0.1 -0.1)">
      <defs>
       <path id="DejaVuSans-2d" d="M 313 2009 
L 1997 2009 
L 1997 1497 
L 313 1497 
L 313 2009 
z
" transform="scale(0.015625)"/>
      </defs>
      <use xlink:href="#DejaVuSans-43"/>
      <use xlink:href="#DejaVuSans-72" x="69.824219"/>
      <use xlink:href="#DejaVuSans-6f" x="108.6875"/>
      <use xlink:href="#DejaVuSans-73" x="169.869141"/>
      <use xlink:href="#DejaVuSans-73" x="221.96875"/>
      <use xlink:href="#DejaVuSans-2d" x="274.068359"/>
      <use xlink:href="#DejaVuSans-45" x="310.152344"/>
      <use xlink:href="#DejaVuSans-6e" x="373.335938"/>
      <use xlink:href="#DejaVuSans-74" x="436.714844"/>
      <use xlink:href="#DejaVuSans-72" x="475.923828"/>
      <use xlink:href="#DejaVuSans-6f" x="514.787109"/>
      <use xlink:href="#DejaVuSans-70" x="575.96875"/>
      <use xlink:href="#DejaVuSans-79" x="639.445312"/>
     </g>
    </g>
    <g id="line2d_25">
     <path d="M 132.042187 83.00875 
L 132.042187 83.00875 
L 132.042187 83.00875 
" style="fill: none; stroke-dasharray: 5.55,2.4; stroke-dashoffset: 0; stroke: #000000; stroke-width: 1.5"/>
     <defs>
      <path id="m6ca4bf04e2" d="M -3.5 3.5 
L 3.5 3.5 
L 3.5 -3.5 
L -3.5 -3.5 
z
" style="stroke: #000000; stroke-linejoin: miter"/>
     </defs>
     <g>
      <use xlink:href="#m6ca4bf04e2" x="132.042187" y="83.00875" style="stroke: #000000; stroke-linejoin: miter"/>
     </g>
    </g>
    <g id="text_22">
     <!-- Experimental Data -->
     <g transform="translate(140.042187 86.50875)scale(0.1 -0.1)">
      <defs>
       <path id="DejaVuSans-44" d="M 1259 4147 
L 1259 519 
L 2022 519 
Q 2988 519 3436 956 
Q 3884 1394 3884 2338 
Q 3884 3275 3436 3711 
Q 2988 4147 2022 4147 
L 1259 4147 
z
M 628 4666 
L 1925 4666 
Q 3281 4666 3915 4102 
Q 4550 3538 4550 2338 
Q 4550 1131 3912 565 
Q 3275 0 1925 0 
L 628 0 
L 628 4666 
z
" transform="scale(0.015625)"/>
      </defs>
      <use xlink:href="#DejaVuSans-45"/>
      <use xlink:href="#DejaVuSans-78" x="63.183594"/>
      <use xlink:href="#DejaVuSans-70" x="122.363281"/>
      <use xlink:href="#DejaVuSans-65" x="185.839844"/>
      <use xlink:href="#DejaVuSans-72" x="247.363281"/>
      <use xlink:href="#DejaVuSans-69" x="288.476562"/>
      <use xlink:href="#DejaVuSans-6d" x="316.259766"/>
      <use xlink:href="#DejaVuSans-65" x="413.671875"/>
      <use xlink:href="#DejaVuSans-6e" x="475.195312"/>
      <use xlink:href="#DejaVuSans-74" x="538.574219"/>
      <use xlink:href="#DejaVuSans-61" x="577.783203"/>
      <use xlink:href="#DejaVuSans-6c" x="639.0625"/>
      <use xlink:href="#DejaVuSans-20" x="666.845703"/>
      <use xlink:href="#DejaVuSans-44" x="698.632812"/>
      <use xlink:href="#DejaVuSans-61" x="775.634766"/>
      <use xlink:href="#DejaVuSans-74" x="836.914062"/>
      <use xlink:href="#DejaVuSans-61" x="876.123047"/>
     </g>
    </g>
   </g>
  </g>
 </g>
 <defs>
  <clipPath id="pc900dd8072">
   <rect x="44.960938" y="0" width="279" height="221.76"/>
  </clipPath>
 </defs>
</svg>
